<svg xmlns="http://www.w3.org/2000/svg" width="138" height="138"><g transform="translate(722 149)"><path d="M-589-80c0 35.346-28.654 64-64 64-35.346 0-64-28.654-64-64 0-35.346 28.654-64 64-64 35.346 0 64 28.654 64 64" fill="#529add"/><rect width="72" height="80" x="-689.25" y="-120" ry="8.472" rx="8.472" fill="none" stroke="#000" stroke-width="8" stroke-opacity=".2"/><rect width="72" height="80" x="-689.125" y="-123.889" ry="8.472" rx="8.472" fill="#495aad" stroke="#fff" stroke-width="8" stroke-opacity=".99"/><g transform="matrix(.79728 0 0 .79728 -495.19 -399.493)" stroke="#fff" stroke-width="3.85" fill="none" stroke-linecap="round" stroke-linejoin="round"><path d="M-216 424l8.335-24.815h8M-196 424l5-21M-191 403l4.874-.01"/><path d="M-210 407l14 17h16l-11-17h-19"/><circle r="11.077" cy="424.061" cx="-180.061"/><circle r="11.077" cy="424.063" cx="-216.158"/></g><g transform="matrix(-.79728 0 0 .79728 -811.189 -433.702)" stroke="#fff" stroke-width="3.85" fill="none" stroke-linecap="round" stroke-linejoin="round"><path d="M-216 424l8.335-24.815h8M-196 424l5-21M-191 403l4.874-.01"/><path d="M-210 407l14 17h16l-11-17h-19"/><circle r="11.077" cy="424.061" cx="-180.061"/><circle r="11.077" cy="424.063" cx="-216.158"/></g></g></svg>