<?xml version="1.0" encoding="UTF-8"?>
<svg width="138" height="138" version="1.1" viewBox="0 0 138 138" xmlns="http://www.w3.org/2000/svg" xmlns:cc="http://creativecommons.org/ns#" xmlns:dc="http://purl.org/dc/elements/1.1/" xmlns:rdf="http://www.w3.org/1999/02/22-rdf-syntax-ns#">
 <metadata>
  <rdf:RDF>
   <cc:Work rdf:about="">
    <dc:format>image/svg+xml</dc:format>
    <dc:type rdf:resource="http://purl.org/dc/dcmitype/StillImage"/>
    <dc:title/>
    <cc:license rdf:resource="http://creativecommons.org/licenses/by-sa/4.0/"/>
    <dc:creator>
     <cc:Agent>
      <dc:title>Tobias Zwick</dc:title>
     </cc:Agent>
    </dc:creator>
   </cc:Work>
   <cc:License rdf:about="http://creativecommons.org/licenses/by-sa/4.0/">
    <cc:permits rdf:resource="http://creativecommons.org/ns#Reproduction"/>
    <cc:permits rdf:resource="http://creativecommons.org/ns#Distribution"/>
    <cc:requires rdf:resource="http://creativecommons.org/ns#Notice"/>
    <cc:requires rdf:resource="http://creativecommons.org/ns#Attribution"/>
    <cc:permits rdf:resource="http://creativecommons.org/ns#DerivativeWorks"/>
    <cc:requires rdf:resource="http://creativecommons.org/ns#ShareAlike"/>
   </cc:License>
  </rdf:RDF>
 </metadata>
 <g id="footway_surface" transform="matrix(.86588 .49973 -.49992 .86556 419.64 197.51)">
  <g stroke-width=".2">
   <path d="m-304 64c0 35.346-28.654 64-64 64-35.346 0-64-28.654-64-64s28.654-64 64-64c35.346 0 64 28.654 64 64" fill="#529add"/>
   <path d="m-332.54 117.43c2.8261-1.8368 5.4684-3.9609 7.9627-6.2081l0.0774-94.108c-2.4946-2.2475-4.3286-4.089-8.069-5.7337 0 0 0.10064 106.17 0.0288 106.05z" fill-opacity=".2"/>
   <path d="m-367.99 0.03494c-11.665 0-22.59 3.1359-32.008 8.5879v110.82c9.4177 5.452 20.343 8.5879 32.008 8.5879 11.644 0 22.551-3.1248 31.957-8.5586v-110.88c-9.4062-5.4338-20.313-8.5586-31.957-8.5586z" fill="#999"/>
  </g>
  <g fill="#fff">
   <g transform="matrix(.13005 -.075084 -.075112 -.1301 -389.3 129.67)" style="paint-order:stroke fill markers">
    <path transform="matrix(4.6857 0 0 -4.6857 706.8 615.88)" d="m-76.006 18.328c-5.9412 0-10.76 4.8175-10.76 10.76 0 5.9423 4.8185 10.758 10.76 10.758 5.9423 0 10.76-4.8155 10.76-10.758 0-5.9423-4.8175-10.76-10.76-10.76zm-11.256 25.432c-10.886 4.0715-19.28 10.99-19.375 22.498 0 2.9462 2.3878 5.332 5.334 5.332 2.9468 0 5.3353-2.3861 5.3359-5.332 0.08844-2.9413 1.3355-5.4383 3.1582-7.4336 0.05726 2.6205 0.47537 5.5623 1.377 8.8262-0.55523 0.92435-0.78709 2.3155-0.56836 4.3496-1.8824 10.832-13.825 17.88-21.523 21.377-2.6928 1.1964-3.9071 4.3503-2.7109 7.043 1.1973 2.6926 4.3503 3.9073 7.043 2.7109 10.216-5.3208 23.21-13.903 26.951-25.172 8.4867 3.9564 16.429 12.845 17.859 21.049 0.41594 2.9169 3.1202 4.9413 6.0371 4.5254 2.9169-0.41679 4.9441-3.1163 4.5273-6.0332-2.2127-13.166-11.304-22.908-22.643-28.617-3.2845-1.4109-3.5445-9.0776-3.3594-11.842 9.9486 5.6477 20.148 8.1696 30.24 3.2168 2.6359-1.3172 3.702-4.523 2.3848-7.1582-1.318-2.635-4.5191-3.7028-7.1543-2.3848-11.863 5.8649-19.252-3.1163-25.494-6.752-2.2329-1.5642-5.2011-1.5689-7.4199-0.20312z" fill="#fff" style="paint-order:stroke fill markers"/>
   </g>
   <path d="m-336 8.5271v110.83c2.8083-1.6252 5.4826-3.4538 8-5.4727v-99.887c-2.5174-2.0189-5.1917-3.8474-8-5.4727z" stroke-width=".2"/>
   <path d="m-400 8.5271c-2.8083 1.6252-5.4826 3.4538-8 5.4727v99.887c2.5174 2.0189 5.1917 3.8474 8 5.4727z" stroke-width=".2"/>
  </g>
  <circle cx="-385.98" cy="25.954" r="6" fill="#bbb" style="paint-order:stroke fill markers"/>
  <circle cx="-367.38" cy="15.57" r="6" fill="#bbb" style="paint-order:stroke fill markers"/>
  <g fill="#ccc">
   <circle cx="-343.99" cy="57.617" r="6" style="paint-order:stroke fill markers"/>
   <circle cx="-374.65" cy="108.94" r="6" style="paint-order:stroke fill markers"/>
   <circle cx="-350.52" cy="97.427" r="6" style="paint-order:stroke fill markers"/>
  </g>
  <circle cx="-349.44" cy="24.062" r="6" fill="#aaa" style="paint-order:stroke fill markers"/>
  <circle cx="-355.62" cy="119.37" r="6" fill="#aaa" style="paint-order:stroke fill markers"/>
  <g fill="#bbb">
   <circle cx="-354.89" cy="29.871" r="6" style="paint-order:stroke fill markers"/>
   <circle cx="-359" cy="104.76" r="6" style="paint-order:stroke fill markers"/>
   <circle cx="-389.32" cy="115.35" r="6" style="paint-order:stroke fill markers"/>
  </g>
  <g>
   <circle cx="-378.32" cy="9.1431" r="6" fill="#aaa" style="paint-order:stroke fill markers"/>
   <circle cx="-369.72" cy="27.31" r="4" fill="#bbb" style="paint-order:stroke fill markers"/>
   <circle cx="-357.81" cy="7.5387" r="4" fill="#bbb" style="paint-order:stroke fill markers"/>
   <circle cx="-344.86" cy="36.749" r="4" fill="#777" style="paint-order:stroke fill markers"/>
   <circle cx="-393.95" cy="55.344" r="4" fill="#bbb" style="paint-order:stroke fill markers"/>
   <circle cx="-391.06" cy="80.7" r="4" fill="#777" style="paint-order:stroke fill markers"/>
   <circle cx="-394.92" cy="90.034" r="4" fill="#bbb" style="paint-order:stroke fill markers"/>
   <circle cx="-379.8" cy="121.61" r="4" fill="#ccc" style="paint-order:stroke fill markers"/>
  </g>
  <g fill="#bbb">
   <circle cx="-342.59" cy="106.81" r="4" style="paint-order:stroke fill markers"/>
   <circle cx="-357.08" cy="90.828" r="4" style="paint-order:stroke fill markers"/>
   <circle cx="-342.07" cy="45.783" r="4" style="paint-order:stroke fill markers"/>
   <circle cx="-391.09" cy="10.967" r="4" style="paint-order:stroke fill markers"/>
   <circle cx="-345.11" cy="12.353" r="4" style="paint-order:stroke fill markers"/>
  </g>
  <circle cx="-363.05" cy="25.509" r="2" fill="#ccc" style="paint-order:stroke fill markers"/>
  <circle cx="-391.1" cy="100.19" r="2" fill="#aaa" style="paint-order:stroke fill markers"/>
  <g fill="#ccc">
   <circle cx="-376.27" cy="22.378" r="2" style="paint-order:stroke fill markers"/>
   <circle cx="-344.34" cy="89.448" r="2" style="paint-order:stroke fill markers"/>
   <circle cx="-386.78" cy="89.018" r="2" style="paint-order:stroke fill markers"/>
   <circle cx="-351.73" cy="110.13" r="2" style="paint-order:stroke fill markers"/>
   <circle cx="-372.25" cy="124.5" r="2" style="paint-order:stroke fill markers"/>
  </g>
  <g>
   <circle cx="-343.25" cy="120" r="2" fill="#bbb" style="paint-order:stroke fill markers"/>
   <circle cx="-396.2" cy="67.807" r="2" fill="#777" style="paint-order:stroke fill markers"/>
   <circle cx="-393.75" cy="29" r="2" fill="#bbb" style="paint-order:stroke fill markers"/>
   <circle cx="-358.75" cy="16.75" r="2" fill="#ccc" style="paint-order:stroke fill markers"/>
   <circle cx="-340.75" cy="20.75" r="2" fill="#ccc" style="paint-order:stroke fill markers"/>
   <circle cx="-397.25" cy="76.25" r="2" fill="#aaa" style="paint-order:stroke fill markers"/>
   <circle cx="-340" cy="68" r="2" fill="#ccc" style="paint-order:stroke fill markers"/>
   <circle cx="-354.25" cy="83.75" r="2" fill="#777" style="paint-order:stroke fill markers"/>
   <circle cx="-368.75" cy="100.25" r="2" fill="#aaa" style="paint-order:stroke fill markers"/>
   <circle cx="-340.5" cy="93" r="2" fill="#ccc" style="paint-order:stroke fill markers"/>
   <circle cx="-395.5" cy="48.5" r="2" fill="#aaa" style="paint-order:stroke fill markers"/>
   <circle cx="-364.36" cy="94.296" r="3.225" fill="#ccc" style="paint-order:stroke fill markers"/>
  </g>
  <g fill="#777">
   <circle cx="-366.67" cy="117.59" r="3.225" style="paint-order:stroke fill markers"/>
   <circle cx="-392.4" cy="104.26" r="3.225" style="paint-order:stroke fill markers"/>
   <circle cx="-344.51" cy="112.29" r="3.225" style="paint-order:stroke fill markers"/>
  </g>
  <g>
   <circle cx="-383.07" cy="16.355" r="3.225" fill="#ccc" style="paint-order:stroke fill markers"/>
   <circle cx="-364.58" cy="5.613" r="3.225" fill="#777" style="paint-order:stroke fill markers"/>
   <circle cx="-340.93" cy="88.394" r="3.225" fill="#bbb" style="paint-order:stroke fill markers"/>
   <circle cx="-395.68" cy="35.294" r="2" fill="#ccc" style="paint-order:stroke fill markers"/>
  </g>
 </g>
</svg>
