<svg width="138" height="138" xmlns="http://www.w3.org/2000/svg"><path d="M133 69c0 35.346-28.654 64-64 64-35.346 0-64-28.654-64-64C5 33.654 33.654 5 69 5c35.346 0 64 28.654 64 64" fill="#9bbe55"/><path d="M21.98 37.06v8.932h3v5h88v-5h3V37.06zm-1 63.938h96v6h-96z" fill-opacity=".2" paint-order="stroke markers fill"/><path fill="#f7f7f7" paint-order="stroke markers fill" d="M30.98 47h12v40h-12z"/><path fill="#d9d9d9" paint-order="stroke markers fill" d="M24.98 86.998h88v8h-88z"/><path fill="#bbb" paint-order="stroke markers fill" d="M20.98 94.998h96v8h-96z"/><path d="M31.98 51.998v30h10v-30zm64 0v30h10v-30zm-44 0v30h10v-30zm24 0v30h10v-30z" fill="none"/><path fill="#d9d9d9" paint-order="stroke markers fill" d="M24.98 39h88v8h-88z"/><path d="M24.98 35v4h88v-4l-44-20z" fill="#f3f3f3" stroke="#bbb" stroke-width="6"/><path paint-order="stroke markers fill" d="M94.98 47h12v40h-12zm-20 0h12v40h-12zm-24 0h12v40h-12z" fill="#f7f7f7"/></svg>