<svg width="138" height="138" xmlns="http://www.w3.org/2000/svg"><defs><clipPath id="a"><path d="M0 38h38V0H0z"/></clipPath></defs><path d="M133 69c0 35.346-28.654 64-64 64S5 104.346 5 69C5 33.654 33.654 5 69 5s64 28.654 64 64" fill="#9bbe55"/><g transform="translate(-1010.85 436.9)"><g stroke-width=".2"><path d="M1079.8-417.95c-22.091 0-40 17.909-40 40v59.943c10.958 8.788 24.86 14.057 40 14.057s29.042-5.269 40-14.057v-59.943c0-22.091-17.909-40-40-40z" fill="#5a8049"/><path d="M1079.8-417.95c-.782 0-1.565.032-2.346.082 21.411.886 26.32 18.489 26.346 39.918v69.33a63.923 63.923 0 0 0 16-9.387v-59.943c0-22.09-17.909-40-40-40z" fill="#49653a"/><path d="M1079.8-417.95c-22.091 0-40 17.909-40 40v59.943a63.935 63.935 0 0 0 16 9.387v-69.33c.026-21.43 4.935-39.032 26.346-39.918-.78-.05-1.563-.078-2.346-.082z" fill="#6b9357"/></g><path d="M1079.8-417.95a40 40 0 0 0-40 40h80a40 40 0 0 0-40-40z" fill="#72a85a" fill-opacity=".293"/><ellipse cx="1079.8" cy="-393.95" rx="12" ry="9.781" fill="#262626"/></g><g transform="matrix(1.5579 0 0 -1.5579 39.89 122.1)" clip-path="url(#a)" stroke-width=".49"><path d="M31.001 8a.998.998 0 0 0-.869.504l-4.235 6.975c-.275.48-.167 1.08.312 1.354l4.958 3c.156.09.496.167.664.167a.997.997 0 0 0 .857-.521l3.107-5.122.164-2.232c.274-.479-.958-1.184-1.437-1.458l-3.026-2.535A.988.988 0 0 0 31.001 8" fill="#ddd"/><path d="M23.002 16.003c-.26 0-.517-.102-.708-.293l-6-6a1 1 0 0 1 0-1.414l6-6a1 1 0 0 1 1.708.707v2h8c.379 0 .724.214.87.503l3.088 6.122c.51.953.293 1.891-.034 2.505-.048.09-.375.65-.375.65s.3-1.78-1.55-1.78H24v2a.999.999 0 0 1-1 1z" fill="#fff"/><path d="M21.593 33.701a1 1 0 0 0-.054-1.004l-4.292-6.94c-.303-.463-.886-.639-1.348-.336l-4.925 3.054c-.15.099-.373.367-.449.517a.992.992 0 0 0 .075.999l3.152 5.094 1.914 1.159c.303.464 1.49-.315 1.953-.618l3.631-1.545a.988.988 0 0 0 .343-.38" fill="#ddd"/><path d="M22.967 36.504l-6.857-.03c-1.081.023-1.817-.596-2.216-1.166-.058-.083-.41-.63-.41-.63s1.451 1.077 2.291-.572l4.54-8.909-1.782-.908a1.001 1.001 0 0 1 .146-1.842l8.07-2.622a.998.998 0 0 1 1.259.642l2.622 8.071a.995.995 0 0 1-.301 1.069.998.998 0 0 1-1.104.13l-1.782-.908-3.632 7.128c-.173.338-.52.547-.844.547z" fill="#fff"/><path d="M4.375 12.458c.181.297.51.49.882.479l8.16-.004c.554-.017 1.01-.42.996-.972l-.015-5.795a1.761 1.761 0 0 0-.202-.654.993.993 0 0 0-.89-.461l-5.991.008-1.993 1.018c-.551.017-.512 1.435-.498 1.986l-.593 3.904a.982.982 0 0 0 .145.491" fill="#ddd"/><path d="M12.462 24.9a1.012 1.012 0 0 1-.2-.027l-8.245-2.006a1.005 1.005 0 0 1-.752-.818 1.005 1.005 0 0 1 .469-1.01L5.443 20l-4.158-6.833c-.197-.324-.195-.73-.023-1.006l3.624-5.82c.55-.93 1.463-1.234 2.16-1.272.101-.006.75-.019.75-.019S6.12 5.72 7.08 7.3l5.197 8.543 1.709-1.04a1.002 1.002 0 0 1 1.372.335.997.997 0 0 1 .119.757l-2.007 8.244a.998.998 0 0 1-1.008.762z" fill="#fff"/></g></svg>