<svg xmlns="http://www.w3.org/2000/svg" width="138" height="138"><defs><clipPath id="a"><path d="M0 36h36V0H0z"/></clipPath><clipPath id="b"><path d="M11.815 23.013C4.2 15.397-1.265 2.86.502 1.093 2.27-.675 14.807 4.791 22.422 12.406c7.616 7.615 7.562 11.53 4.243 14.85-1.328 1.328-2.752 2.133-4.47 2.133-2.575 0-5.812-1.809-10.38-6.376"/></clipPath></defs><path d="M133 69c0 35.346-28.654 64-64 64-35.346 0-64-28.654-64-64C5 33.654 33.654 5 69 5c35.346 0 64 28.654 64 64" fill="#e9a76f"/><path d="M69.015 19.08c-28.702 0-51.97 23.268-51.97 51.97 0 28.702 23.268 51.971 51.97 51.971 28.702 0 51.97-23.269 51.97-51.97 0-28.703-23.268-51.971-51.97-51.971z" fill-opacity=".2"/><path d="M121.015 67.02c0 28.703-23.268 51.971-51.97 51.971-28.702 0-51.97-23.268-51.97-51.97 0-28.702 23.268-51.97 51.97-51.97 28.702 0 51.97 23.268 51.97 51.97" fill="#fff"/><path d="M106.792 67.02c0 21.063-17.115 38.135-38.232 38.135-21.116 0-38.23-17.072-38.23-38.134 0-21.063 17.114-38.134 38.23-38.134 21.117 0 38.232 17.07 38.232 38.134" fill="#ccd6dd"/><path d="M102.002 67.02c0 18.61-15.008 33.698-33.521 33.698-18.516 0-33.52-15.087-33.52-33.697 0-18.613 15.004-33.697 33.52-33.697 18.513 0 33.52 15.084 33.52 33.697" fill="#fff"/><g><path d="M92.086 24.422L52.116 38.62l-.03 7.8 11.082 19.206a7.24 7.24 0 0 1 2.115-.323 7.238 7.238 0 0 1 7.238 7.239l-2.443-2.81.137 8.1 6.035 10.458 25.672-14.822a6.178 6.178 0 0 1 10.047-5.8l5.851-3.378-.134-8.102zm4.397 22.044a6 6 0 0 1 6 6h-12a6 6 0 0 1 6-6zM71.086 50.43a6 6 0 0 1 6 6h-12a6 6 0 0 1 6-6z" fill="#cea500" paint-order="markers fill stroke"/><path d="M93.685 14.62l-9.455 5.459c.004.072.008.144.01.217 0 3.948-3.2 7.148-7.149 7.148a7.116 7.116 0 0 1-3.752-1.076L52.116 38.62l10.917 18.904a7.244 7.244 0 0 1 2.115-.322 7.238 7.238 0 0 1 7.238 7.238 7.238 7.238 0 0 1-2.307 5.291l6.037 10.457 25.672-14.822a6.178 6.178 0 0 1 10.047-5.8l5.852-3.378zm2.607 24.584a6 6 0 1 1 0 12 6 6 0 0 1 0-12zm-25.205 3.22a6 6 0 1 1 0 12 6 6 0 0 1 0-12zM86.78 58.342a5.5 5.5 0 0 1 5.5 5.5 5.5 5.5 0 0 1-5.5 5.5 5.5 5.5 0 0 1-5.502-5.5 5.5 5.5 0 0 1 5.502-5.5z" fill="#fd5" paint-order="markers fill stroke"/></g><g><path d="M40.356 49.895c-2.18.268-3.449 6.188-3.449 8.146-4.275-7.12-16.76-8.88-15.336-7.457-1.424-1.424 0 11.397 7.123 15.67-2.848 0-14.245 2.849-4.273 7.121 3.547 1.521 5.98 2.3 7.812 2.7.029 3.114 1.39 6.72 4.448 11.084.407.597.837 1.19 1.29 1.775.051.066.107.133.159.2.198.25.4.5.61.747 1.73 2.155 3.804 4.469 6.337 7.002 2.009 2.009 4.193 3.937 6.47 5.774.82.744 1.775 1.452 2.764 2.15 14.632 10.955 32.014 17.775 34.922 14.865 2.106-2.105-.907-11.8-6.87-22.539.002-.006.006-.011.01-.017a56.001 56.001 0 0 0-1.944-3.325c-3.555-5.902-7.9-11.91-12.738-16.994-.933-1.022-1.964-2.017-3.028-3.004-7.526-7.203-13.195-10.514-17.803-11.04-.343-1.87-1.141-4.49-2.996-8.817-1.336-3.116-2.516-4.163-3.507-4.041z" fill-opacity=".2"/><g clip-path="url(#a)" transform="matrix(0 -2.01453 -2.01453 0 91.426 116.7)"><path d="M31.096 27.067c3.535 2.122 4.408 8.32 3.7 7.613.708.707-5.656 0-7.777-3.536 0 1.414-1.414 7.071-3.535 2.121-2.122-4.949-1.415-5.656-1.415-7.07 0-1.415 2.829-1.415 2.829-1.415s-.125-2.704 1.29-2.704c1.414 0 1.997-.583 6.946 1.538 4.95 2.122-.624 3.453-2.038 3.453" fill="#77b255"/><path d="M22.422 12.406C14.807 4.791 2.27-.674.502 1.093-1.266 2.86 4.2 15.397 11.815 23.013c7.616 7.615 11.53 7.562 14.85 4.242 3.319-3.319 3.372-7.234-4.243-14.849" fill="#f4900c"/></g><g clip-path="url(#b)" transform="matrix(0 -2.01453 -2.01453 0 91.426 116.7)"><g fill="#d67503"><path d="M17.098 27.486c2.292-4.583 3.631-4.901 4.777-6.046 1.146-1.146-4.733-.253-7.024 4.331.721.675 1.48 1.213 2.247 1.715zM9.29 20.16c2.291-4.583 3.954-5.646 5.1-6.792 1.145-1.145-4.692-.192-6.983 4.392.606.88 1.212 1.762 1.882 2.4zM23.63 13.666c-4.581 2.291-5.295 3.828-6.441 4.974-1.145 1.147-.225-4.779 4.358-7.07.714.625 1.402 1.347 2.084 2.096zM14.047 5.909c-4.582 2.29-4.712 3.585-5.858 4.731-1.146 1.147-1.073-3.849 3.51-6.14.794.425 1.58.884 2.348 1.409z"/></g></g></g></svg>