<svg width="138" height="138" xmlns="http://www.w3.org/2000/svg"><g transform="translate(722 149)"><path d="M-589-80c0 35.346-28.654 64-64 64-35.346 0-64-28.654-64-64 0-35.346 28.654-64 64-64 35.346 0 64 28.654 64 64" fill="#fd5"/><rect x="-689.25" y="-120" width="72" height="80" rx="8.472" ry="8.472" fill="none" stroke="#000" stroke-opacity=".2" stroke-width="8"/><rect x="-689.12" y="-123.89" width="72" height="80" rx="8.472" ry="8.472" fill="#495aad" stroke="#fff" stroke-opacity=".99" stroke-width="8"/><path d="M-651.376-116.535a1.421 1.421 0 1 0 0 2.842h4.73l1.552 3.793c-.713-.065-1.57.068-2.558.42-2.623 1.243-5.375 3.137-6.01 5.734h-2.594c-1.648-1.743-3.598-2.785-5.57-3.272-2.241-.554-4.48-.533-6.617-.517a1.895 1.895 0 0 0-1.708 2.726c-.12.045-.238.09-.357.14-2.761 1.152-5.411 3.75-6.484 8.042l2.816.704a8.007 8.007 0 0 0-.173 1.65c0 4.428 3.624 8.053 8.052 8.053 3.943 0 7.241-2.876 7.918-6.632h8.897a1.421 1.421 0 0 0 1.211-.677l1.75-2.846 1.496.374a7.993 7.993 0 0 0-.194 1.728c0 4.428 3.625 8.053 8.053 8.053s8.052-3.625 8.052-8.053c0-2.91-1.57-5.466-3.901-6.88l1.804-2.15c-1.639-1.375-3.897-1.917-6.295-1.714-.772.065-1.559.21-2.345.427l-1.132-2.767c1.339.71 3.254 1.16 4.217 1.16v-5.685c-1.259 0-4.144.869-5.241 2.022l-2.37-5.792a1.421 1.421 0 0 0-1.315-.883zm-14.92 17.431a4.803 4.803 0 0 1 4.621 3.41h-4.859a1.421 1.421 0 1 0 0 2.842h4.86a4.805 4.805 0 0 1-4.623 3.41 4.806 4.806 0 0 1-4.83-4.83 4.806 4.806 0 0 1 4.83-4.831zm29.13 0a4.806 4.806 0 0 1 4.831 4.831c0 2.688-2.144 4.831-4.83 4.831s-4.832-2.143-4.832-4.83c0-1.518.684-2.863 1.763-3.746l1.753 4.284a1.421 1.421 0 1 0 2.63-1.077l-1.747-4.271c.143-.013.286-.022.432-.022zM-654.394-82.335a1.421 1.421 0 1 1 0 2.842h-4.73l-1.552 3.793c.713-.065 1.57.068 2.558.42 2.623 1.243 5.375 3.137 6.01 5.734h2.594c1.648-1.743 3.598-2.785 5.57-3.272 2.241-.554 4.48-.533 6.617-.517a1.895 1.895 0 0 1 1.708 2.726c.12.045.238.09.357.14 2.761 1.152 5.411 3.75 6.484 8.042l-2.816.704c.112.533.173 1.085.173 1.65 0 4.428-3.624 8.053-8.052 8.053-3.943 0-7.241-2.876-7.918-6.632h-8.897a1.421 1.421 0 0 1-1.211-.677l-1.75-2.846-1.496.374c.123.558.194 1.135.194 1.728 0 4.428-3.625 8.053-8.053 8.053s-8.052-3.625-8.052-8.053c0-2.91 1.57-5.466 3.901-6.88l-1.804-2.15c1.639-1.375 3.897-1.917 6.295-1.714.772.065 1.559.21 2.345.427l1.132-2.767c-1.339.71-3.254 1.16-4.217 1.16v-5.685c1.259 0 4.144.869 5.241 2.022l2.37-5.792a1.421 1.421 0 0 1 1.315-.883zm14.92 17.431a4.803 4.803 0 0 0-4.621 3.41h4.859a1.421 1.421 0 1 1 0 2.842h-4.86a4.805 4.805 0 0 0 4.623 3.41 4.806 4.806 0 0 0 4.83-4.83 4.806 4.806 0 0 0-4.83-4.831zm-29.13 0a4.806 4.806 0 0 0-4.831 4.831c0 2.688 2.144 4.831 4.83 4.831s4.832-2.143 4.832-4.83a4.813 4.813 0 0 0-1.763-3.746l-1.753 4.284a1.421 1.421 0 1 1-2.63-1.077l1.747-4.271a5.003 5.003 0 0 0-.432-.022z" color="#000" solid-color="#000000" style="font-feature-settings:normal;font-variant-alternates:normal;font-variant-caps:normal;font-variant-ligatures:normal;font-variant-numeric:normal;font-variant-position:normal;isolation:auto;mix-blend-mode:normal;shape-padding:0;text-decoration-color:#000;text-decoration-line:none;text-decoration-style:solid;text-indent:0;text-orientation:mixed;text-transform:none" paint-order="fill markers stroke" white-space="normal" fill="#fff"/></g></svg>