<svg width="138.02" height="138.02" viewBox="0 0 138.02121 138.02121" xmlns="http://www.w3.org/2000/svg"><path d="M124.43 101.01c-17.673 30.611-56.815 41.099-87.426 23.426C6.393 106.763-4.095 67.621 13.578 37.01 31.251 6.399 70.393-4.089 101.004 13.584c30.611 17.673 41.099 56.815 23.426 87.426" fill="#e45f5f"/><g fill-opacity=".2"><path d="M58.2292929 88.93102081c-.15975408-4.93927634.7713642-9.5813614 2.34791676-13.79554605C65.095423 64.68012026 80.0391083 58.98716438 79.93156482 49.03339661c-.08482058-7.81610021-5.44204641-9.98021535-11.08547664-10.0465636-6.02607683-.07078168-10.59389892 5.25083798-11.47020473 10.9404306H36.74314868c.39784145-17.7428089 18.8669404-26.50261374 32.10345987-26.9398396 14.57890479-.4813765 32.20406505 11.44293459 32.00112012 25.99965112-.16686584 12.0293676-9.65636272 18.65853718-17.43071473 24.9570356-4.66929456 3.4835894-6.60976033 9.51256712-6.97263281 14.98691008z" aria-label="?"/><path d="M77.820549 108.213204a10.20188477 9.36294052 0 0 1-10.20188477 9.36294052 10.20188477 9.36294052 0 0 1-10.20188477-9.36294052 10.20188477 9.36294052 0 0 1 10.20188477-9.36294052A10.20188477 9.36294052 0 0 1 77.820549 108.213204z"/></g><g fill="#fff"><path d="M58.2292929 84.93102081c-.15975408-4.93927634.7713642-9.5813614 2.34791676-13.79554605C65.095423 60.68012026 80.0391083 54.98716438 79.93156482 45.03339661c-.08482058-7.81610021-5.44204641-9.98021535-11.08547664-10.0465636-6.02607683-.07078168-10.59389892 5.25083798-11.47020473 10.9404306H36.74314868c.39784145-17.7428089 18.8669404-26.50261374 32.10345987-26.9398396 14.57890479-.4813765 32.20406505 11.44293459 32.00112012 25.99965112-.16686584 12.0293676-9.65636272 18.65853718-17.43071473 24.9570356-4.66929456 3.4835894-6.60976033 9.51256712-6.97263281 14.98691008z" aria-label="?"/><path d="M77.820549 104.213204a10.20188477 9.36294052 0 0 1-10.20188477 9.36294052 10.20188477 9.36294052 0 0 1-10.20188477-9.36294052 10.20188477 9.36294052 0 0 1 10.20188477-9.36294052A10.20188477 9.36294052 0 0 1 77.820549 104.213204z"/></g></svg>