<svg width="138.02" height="138.02" viewBox="0 0 138.02121 138.02119" xmlns="http://www.w3.org/2000/svg"><path d="M124.45327318 101.00697458c-17.673 30.61053392-56.81509192 41.09862584-87.42562584 23.42562584-30.61053392-17.673-41.09862584-56.81509192-23.42562584-87.42562584 17.673-30.61053392 56.81509192-41.09862584 87.42562584-23.42562584 30.61053392 17.673 41.09862584 56.81509192 23.42562584 87.42562584" fill="#fd5"/><g stroke-width="8" transform="translate(-891.07 -891.57)"><rect x="923.51" y="924.58" width="72" height="80" rx="8.472" ry="8.472" fill="none" stroke="#000" stroke-opacity=".2"/><rect x="923.51" y="920.58" width="72" height="80" rx="8.472" ry="8.472" fill="#495aad" stroke="#fff" stroke-opacity=".98995"/><path d="M947.51 980.58v-40h12s12 0 12 12-12 12-12 12h-12" fill="none" stroke="#fff" stroke-linecap="square"/></g><path d="M102.31 63.61c-4.3625 0-8.7117 1.6754-12.012 5.0254-5.5 5.5-6.5445 13.986-3.1445 20.486l-26 26v6l2 2h10l3-3v-6l1-1h6l6-6v-6l5-5c6.5 3.6 14.744 2.3125 20.144-3.1875 6.8-6.7 6.7996-17.599.1-24.299-3.35-3.35-7.7254-5.0254-12.088-5.0254zm3.6387 8.3242c1.325 0 2.6504.5 3.6504 1.5 2.1 2 2.1 5.3004 0 7.4004-2 2-5.3008 2-7.3008 0s-2-5.3004 0-7.4004c1-1 2.3254-1.5 3.6504-1.5z" fill-opacity=".2"/><path d="M114.43 64.64c-6.7-6.7-17.5-6.7-24.1 0-5.5 5.5-6.5437 13.988-3.1437 20.488l-26 26v6l2 2h4l27-27c6.5 3.6 14.744 2.3125 20.144-3.1875 6.8-6.7 6.8-17.6.1-24.3m-4.8 12.2c-2 2-5.3 2-7.3 0s-2-5.3 0-7.4c2-2 5.3-2 7.3 0 2.1 2 2.1 5.3 0 7.4" fill="#eda432"/><g fill="#d68c3a"><path d="M76.16 116.13v-6l-9 9h6zm13-13.01v-6l-12.056 12h6.0563z"/><path d="M90.16 88.12l-29 29 2 2 29-29z" color="#000" solid-color="#000000" style="font-feature-settings:normal;font-variant-alternates:normal;font-variant-caps:normal;font-variant-ligatures:normal;font-variant-numeric:normal;font-variant-position:normal;isolation:auto;mix-blend-mode:normal;shape-padding:0;text-decoration-color:#000;text-decoration-line:none;text-decoration-style:solid;text-indent:0;text-orientation:mixed;text-transform:none" white-space="normal"/></g></svg>