<?xml version="1.0" encoding="UTF-8"?>
<svg width="138.02" height="138.07" version="1.1" viewBox="0 0 138.02121 138.06923" xmlns="http://www.w3.org/2000/svg" xmlns:cc="http://creativecommons.org/ns#" xmlns:dc="http://purl.org/dc/elements/1.1/" xmlns:rdf="http://www.w3.org/1999/02/22-rdf-syntax-ns#">
 <metadata>
  <rdf:RDF>
   <cc:Work rdf:about="">
    <dc:format>image/svg+xml</dc:format>
    <dc:type rdf:resource="http://purl.org/dc/dcmitype/StillImage"/>
    <dc:title/>
    <cc:license rdf:resource="http://creativecommons.org/licenses/by-sa/4.0/"/>
    <dc:creator>
     <cc:Agent>
      <dc:title>Tobias Zwick</dc:title>
     </cc:Agent>
    </dc:creator>
   </cc:Work>
   <cc:License rdf:about="http://creativecommons.org/licenses/by-sa/4.0/">
    <cc:permits rdf:resource="http://creativecommons.org/ns#Reproduction"/>
    <cc:permits rdf:resource="http://creativecommons.org/ns#Distribution"/>
    <cc:requires rdf:resource="http://creativecommons.org/ns#Notice"/>
    <cc:requires rdf:resource="http://creativecommons.org/ns#Attribution"/>
    <cc:permits rdf:resource="http://creativecommons.org/ns#DerivativeWorks"/>
    <cc:requires rdf:resource="http://creativecommons.org/ns#ShareAlike"/>
   </cc:License>
  </rdf:RDF>
 </metadata>
 <g id="street_width" transform="rotate(30 -158.9 881.99)">
  <g>
   <path d="m-304 64c0 35.346-28.654 64-64 64-35.346 0-64-28.654-64-64s28.654-64 64-64c35.346 0 64 28.654 64 64" fill="#fd5" stroke-width=".2"/>
   <path d="m-367.99 0.03494c-11.665 0-22.59 3.1359-32.008 8.5879v110.82c9.4177 5.452 20.343 8.5879 32.008 8.5879 11.644 0 22.551-3.1248 31.957-8.5586v-110.88c-9.4062-5.4338-20.313-8.5586-31.957-8.5586z" fill="#999" stroke-width=".2"/>
   <rect x="-372" y="116" width="8" height="12" fill="#fff" style="paint-order:stroke fill markers"/>
   <rect x="-372" y="80" width="8" height="20" fill="#fff" style="paint-order:stroke fill markers"/>
  </g>
  <path d="m-332.54 117.43c2.8261-1.8368 5.4684-3.9609 7.9627-6.2081l0.0774-94.108c-2.4946-2.2475-4.3286-4.089-8.069-5.7337 0 0 0.10064 106.17 0.0288 106.05z" fill-opacity=".2" stroke-width=".2"/>
  <g fill="#fff">
   <rect x="-372" y="44" width="8" height="20" style="paint-order:stroke fill markers"/>
   <rect x="-372" y="7.9998" width="8" height="20" style="paint-order:stroke fill markers"/>
   <path d="m-336 8.5271v110.83c2.8083-1.6252 5.4826-3.4538 8-5.4727v-99.887c-2.5174-2.0189-5.1917-3.8474-8-5.4727z" stroke-width=".2"/>
   <path d="m-400 8.5271c-2.8083 1.6252-5.4826 3.4538-8 5.4727v99.887c2.5174 2.0189 5.1917 3.8474 8 5.4727z" stroke-width=".2"/>
  </g>
  <g transform="rotate(-30 -840.97 478.68)">
   <rect x="-260" y="372" width="86" height="24" rx="2.7692" ry="2.7692" fill-opacity=".2"/>
   <g transform="matrix(.95875 0 0 1 -109.23 -14)">
    <rect x="-157.26" y="382" width="89.7" height="24" rx="2.7692" ry="2.7692" fill="#cc826b"/>
    <g transform="translate(7.3012)" fill="#ac573d">
     <rect x="-134.31" y="382" width="6.2581" height="16" ry="0" style="paint-order:normal"/>
     <rect x="-109.28" y="382" width="6.2581" height="16" ry="0" style="paint-order:normal"/>
     <rect x="-146.83" y="382" width="6.2582" height="8" ry="0" style="paint-order:normal"/>
     <rect x="-121.8" y="382" width="6.2581" height="8" ry="0" style="paint-order:normal"/>
     <rect x="-96.366" y="382" width="5.8605" height="8" ry="0" style="paint-order:normal"/>
     <rect x="-159.35" y="382" width="6.2581" height="16" ry="0" style="paint-order:normal"/>
     <rect x="-84.248" y="382" width="6.2581" height="16" ry="0" style="paint-order:normal"/>
    </g>
   </g>
  </g>
 </g>
</svg>
