<svg width="138" height="138" xmlns="http://www.w3.org/2000/svg"><path d="M133 69c0 35.346-28.654 64-64 64-35.346 0-64-28.654-64-64C5 33.654 33.654 5 69 5c35.346 0 64 28.654 64 64" fill="#9bbe55"/><g transform="translate(-1961 2018.1) scale(1.9612)"><path d="M1035.1-1016.3a24 24 0 00-24 24 24 24 0 0024 24 24 24 0 0024-24 24 24 0 00-24-24z" fill="none" stroke="#000" stroke-linecap="round" stroke-linejoin="round" stroke-opacity=".2" stroke-width="4"/><circle cx="1035.1" cy="-994.24" r="24" fill="#dbdbdb"/><path d="M1024.1-972.49l24.223-41.752 8.468 11.197-18.23 34.231zM1015.4-980.97l21.8-37.545 5.664 1.51-23.075 39.966z" fill="#ededed"/><path d="M1031.84-1011v2.912c-1.532.35-2.85.988-3.953 1.916-1.969 1.656-2.953 3.813-2.953 6.469 0 1.885.437 3.396 1.312 4.531s1.985 1.98 3.328 2.531c1.355.542 3.053 1.026 5.094 1.454 1.583.354 2.787.713 3.61 1.078.833.364 1.25 1.046 1.25 2.046 0 1.042-.438 1.797-1.313 2.266-.875.458-1.885.688-3.031.688-3.115 0-5.037-1.303-5.766-3.907l-5.953 1.407c.583 2.552 1.89 4.463 3.922 5.734 1.324.822 2.81 1.37 4.453 1.656V-977h6v-3.25c1.934-.336 3.549-.994 4.828-1.984 2.26-1.771 3.39-4.073 3.39-6.907 0-2.78-1.192-4.958-3.577-6.53a9.037 9.037 0 00-2.688-1.267c-.927-.26-2.442-.625-4.547-1.093-2.687-.448-4.03-1.37-4.03-2.766 0-1.75 1.28-2.625 3.843-2.625 2.417 0 4.016 1.089 4.797 3.266l5.437-1.782c-1.205-3.465-3.691-5.536-7.453-6.216V-1011z" fill="#a6a6a6" aria-label="S"/><circle cx="1035.2" cy="-994.32" r="24" fill="none" stroke="#a6a6a6" stroke-linecap="round" stroke-linejoin="round" stroke-width="4"/></g></svg>