<svg width="138.02" height="138.02" xmlns="http://www.w3.org/2000/svg"><path d="M124.44 101.01c-17.673 30.611-56.815 41.099-87.426 23.426C6.403 106.763-4.085 67.621 13.588 37.01 31.261 6.399 70.403-4.089 101.014 13.584c30.61 17.673 41.099 56.815 23.426 87.426" fill="#529add"/><path d="M35.39 44.989c-.87 0-1.578.352-1.578.787v1.576c0 .419.66.754 1.484.78l-2.744 18.926h2.838c.87 0 1.576.706 1.576 1.576v4.183H15.054c2.157 7.455 8 16 8 16 1.59 2.431 3.736 4.875 5.211 6.23 15.776 14.479 88.787 5.77 88.787 5.77s1.577-5.331 3.002-12c0 0 3-11 3-16h-19.88v-4.183c0-.87.705-1.576 1.575-1.576h5.99l-1.26-6.305H59.036V48.142c.87 0 1.576-.354 1.576-.79v-1.575c0-.435-.706-.787-1.576-.787z" fill-opacity=".2"/><g stroke-width=".396"><path d="M103.1 71.09v-6.306c0-.87.706-1.576 1.576-1.576h5.99l-1.26-6.306H33.738l-1.26 6.306h2.837c.87 0 1.576.706 1.576 1.576v6.306c0 .87-.706 1.576-1.576 1.576h66.209c-.87 0 1.576-.706 1.576-1.576" fill="#ccd6dd"/><path d="M55.8 71.09c0 .87-.706 1.576-1.576 1.576H41.612c-.87 0-1.576-.706-1.576-1.576v-6.306c0-.87.706-1.576 1.576-1.576h12.612c.87 0 1.576.706 1.576 1.576zM77.9 71.09c0 .87-.706 1.576-1.576 1.576H63.712c-.87 0-1.576-.706-1.576-1.576v-6.306c0-.87.706-1.576 1.576-1.576h12.612c.87 0 1.576.706 1.576 1.576zM100 71.09c0 .87-.706 1.576-1.576 1.576H85.812c-.87 0-1.576-.706-1.576-1.576v-6.306c0-.87.706-1.576 1.576-1.576h12.612c.87 0 1.576.706 1.576 1.576z" fill="#66757f"/><path d="M120 84.97s3-11 3-16H14.998c2.156 7.454 8 16 8 16" fill="#ccd6dd"/><path d="M23.049 84.97c1.589 2.431 3.735 4.875 5.21 6.231 15.777 14.478 88.79 5.77 88.79 5.77s1.575-5.332 3-12z" fill="#dd2e44"/><path d="M36.9 80.55c0 .87-.706 1.576-1.576 1.576H32.17c-.87 0-1.577-.706-1.577-1.576v-3.153c0-.87.707-1.576 1.577-1.576h3.153c.87 0 1.576.706 1.576 1.576zM49.5 80.55c0 .87-.706 1.576-1.576 1.576H44.77c-.87 0-1.577-.706-1.577-1.576v-3.153c0-.87.707-1.576 1.577-1.576h3.153c.87 0 1.576.706 1.576 1.576zM62.1 80.55c0 .87-.706 1.576-1.576 1.576H57.37c-.87 0-1.577-.706-1.577-1.576v-3.153c0-.87.707-1.576 1.577-1.576h3.153c.87 0 1.576.706 1.576 1.576zM74.7 80.55c0 .87-.706 1.576-1.576 1.576H69.97c-.87 0-1.577-.706-1.577-1.576v-3.153c0-.87.707-1.576 1.577-1.576h3.153c.87 0 1.576.706 1.576 1.576zM87.4 80.55c0 .87-.706 1.576-1.576 1.576H82.67c-.87 0-1.577-.706-1.577-1.576v-3.153c0-.87.707-1.576 1.577-1.576h3.153c.87 0 1.576.706 1.576 1.576zM100 80.55c0 .87-.706 1.576-1.576 1.576H95.27c-.87 0-1.577-.706-1.577-1.576v-3.153c0-.87.707-1.576 1.577-1.576h3.153c.87 0 1.576.706 1.576 1.576zM112.6 80.55c0 .87-.706 1.576-1.576 1.576h-3.153c-.87 0-1.577-.706-1.577-1.576v-3.153c0-.87.707-1.576 1.577-1.576h3.153c.87 0 1.576.706 1.576 1.576z" fill="#66757f"/><path d="M59 60.06l-26.484 3.153 2.838-19.573H59z" fill="#ccd6dd"/><path d="M55.8 42.72a1.577 1.577 0 0 1-3.153 0V30.109a1.577 1.577 0 0 1 3.153 0zM49.5 49.02a1.577 1.577 0 0 1-3.153 0V36.409a1.577 1.577 0 0 1 3.153 0z" fill="#ccd6dd"/><path d="M60.6 43.51c0 .435-.706.788-1.576.788H35.378c-.87 0-1.577-.353-1.577-.788v-1.576c0-.435.706-.789 1.577-.789h23.646c.87 0 1.576.354 1.576.789z" fill="#269"/><path d="M54.3 47.45H34.91l-.946 6.306H54.3c.87 0 1.576-.707 1.576-1.577v-3.153c0-.87-.706-1.576-1.576-1.576" fill="#66757f"/></g><path d="M49.5 56.9h-3.153V44.289H49.5z" fill="#ccd6dd"/><path d="M9.51 93.397c5.157 12.796 14.455 24.034 27.33 31.467a63.776 63.776 0 0 0 24.44 8.135h15.078c19.351-2.305 37.413-13.386 47.906-31.561a64.49 64.49 0 0 0 3.912-8.041c-10.015-1.97-19.73-1.578-29.667 0-10.142 1.61-21.613 2.168-29.667 0-17.977-4.84-22.904 1.942-29.667 0-5.659-1.626-14.602-9.326-17.142-.427z" fill="#3e74c9"/><path d="M26.74 93.101c-1.038.03-1.974.35-2.76 1.074 1.48 2.075 3.226 4.051 4.494 5.217 15.776 14.478 88.787 5.77 88.787 5.77s1.055-3.627 2.217-8.563c-6.93-.465-13.79.036-20.758 1.143-10.142 1.61-21.614 2.168-29.668 0-17.977-4.84-22.903 1.942-29.666 0-3.714-1.067-8.842-4.75-12.646-4.641z" fill-opacity=".133"/></svg>