<svg width="138.02" height="138.02" viewBox="0 0 138.021 138.021" xmlns="http://www.w3.org/2000/svg"><path d="M124.44 101.01c-17.673 30.611-56.815 41.099-87.426 23.426C6.403 106.763-4.085 67.621 13.588 37.01 31.261 6.399 70.403-4.089 101.014 13.584c30.611 17.673 41.099 56.815 23.426 87.426" fill="#529add"/><path d="M48.44 25.011v8h-16c-1.055 12.365 6.017 12.513 16 20v8h-16c-1.055 12.365 6.017 12.513 16 20v8h-16c-1.055 12.365 6.017 12.513 16 20v12h40v-12c9.983-7.487 17.055-7.635 16-20h-16v-8c9.983-7.487 17.055-7.635 16-20h-16v-8c9.983-7.487 17.055-7.635 16-20h-16v-8z" fill-opacity=".2" paint-order="stroke fill markers"/><path fill="#888" paint-order="stroke fill markers" d="M48.44 21.01h40v96h-40z"/><g stroke="#555" stroke-width="3" transform="translate(580.44 5.01)"><circle cx="-511.89" cy="37.455" r="11.998" fill="#ff6969"/><circle cx="-511.88" cy="65.483" r="12" fill="#ffff69"/><circle cx="-511.9" cy="93.514" r="12" fill="#69ff69"/></g><g fill="#555" fill-rule="evenodd"><path d="M48.44 29.01h-16c-1.055 12.366 6.017 12.514 16 20zM48.44 57.01h-16c-1.055 12.366 6.017 12.514 16 20zM48.44 85.01h-16c-1.055 12.366 6.017 12.514 16 20zM88.44 29.01h16c1.055 12.366-6.017 12.514-16 20zM88.44 57.01h16c1.055 12.366-6.017 12.514-16 20zM88.44 85.01h16c1.055 12.366-6.017 12.514-16 20z"/></g><path d="M80.54 98.491s-5.373 7.95-12 7.95-11.989-7.908-11.989-7.908c0 6.628 5.362 11.99 11.989 11.99s12-5.404 12-12.032z" fill="#fff" fill-opacity=".376" paint-order="stroke fill markers"/><path fill="#555" paint-order="stroke fill markers" d="M62.44 117.01h12.065v16H62.44z"/><path d="M80.53 70.449s-5.373 7.95-12 7.95-11.989-7.908-11.989-7.908c0 6.628 5.362 11.99 11.989 11.99s12-5.404 12-12.032zM80.53 42.449s-5.373 7.95-12 7.95-11.989-7.908-11.989-7.908c0 6.628 5.362 11.99 11.989 11.99s12-5.405 12-12.032z" fill="#fff" fill-opacity=".376" paint-order="stroke fill markers"/><circle cx="67.89" cy="69.49" r="27.664" fill="#ffff69" fill-opacity=".267"/></svg>