<svg width="138" height="138" xmlns="http://www.w3.org/2000/svg"><defs><clipPath id="a"><path d="M0 38h38V0H0z"/></clipPath><clipPath id="b"><path d="M0 38h38V0H0z"/></clipPath></defs><path d="M133 69c0 35.346-28.654 64-64 64-35.346 0-64-28.654-64-64S33.654 5 69 5c35.346 0 64 28.654 64 64" fill="#e9a76f"/><path d="M45.6 28.48c-4.621 0-9.244 4.62-9.244 9.242v4.623c0 .222.035.434.065.644a112.278 112.278 0 0 0-.065 3.977c0 3.418 1.861 6.396 4.621 7.995v47.459c0 5.104 4.14 9.242 9.244 9.242h32.347c5.104 0 9.244-4.138 9.244-9.242v-4.621h11.552c5.097 0 9.242-4.145 9.242-9.242v-36.97c0-5.097-4.145-9.242-9.242-9.242h-6.931v-4.623c0-4.621-4.623-9.242-9.244-9.242zm46.212 23.107h6.931s4.621 0 4.621 4.621v27.728c0 4.621-4.62 4.621-4.62 4.621h-6.932z" fill-opacity=".188"/><g transform="matrix(2.3106 0 0 -2.3106 29.42 109.79)" clip-path="url(#a)"><path d="M24 27V11h6s2 0 2 2v12c0 2-2 2-2 2zm8-20h-8c-2.205 0-4 1.794-4 4v16c0 2.206 1.795 4 4 4h8c2.206 0 4-1.794 4-4V11c0-2.206-1.794-4-4-4" fill="#ffac33"/><path d="M27 29a4 4 0 0 1-4 4H9a4 4 0 0 1-4-4V5a4 4 0 0 1 4-4h14a4 4 0 0 1 4 4z" fill="#ffcc4d"/><path d="M10 4a1 1 0 0 0-1 1v16a1 1 0 0 0 2 0V5a1 1 0 0 0-1-1m6 0a1 1 0 0 0-1 1v16a1 1 0 0 0 2 0V5a1 1 0 0 0-1-1m6 0a1 1 0 0 0-1 1v16a1 1 0 1 0 2 0V5a1 1 0 0 0-1-1" fill="#f4900c"/></g><g transform="matrix(2.3106 0 0 -2.3106 29.42 109.79)" clip-path="url(#b)"><path d="M29 33c0 2-2 4-4 4H7c-2 0-4-2-4-4v-2c0-.096.015-.188.028-.279A48.655 48.655 0 0 1 3 29a4 4 0 1 1 7.701-1.509 1.98 1.98 0 0 1 2.934.362A3.988 3.988 0 0 1 17 26a3.98 3.98 0 0 1 3.176 1.593A2.496 2.496 0 0 1 22.5 26c.949 0 1.765.535 2.188 1.314A2.967 2.967 0 0 1 26 27a3 3 0 0 1 3 3c0 .309-.005.59-.016.848.004.051.016.1.016.152z" fill="#e1e8ed"/></g></svg>