<svg width="138" height="138" xmlns="http://www.w3.org/2000/svg"><path d="M133 69c0 35.346-28.654 64-64 64S5 104.346 5 69 33.654 5 69 5s64 28.654 64 64" fill="#fd5"/><path d="M121 71c0 28.719-23.281 52-52 52S17 99.719 17 71s23.281-52 52-52 52 23.281 52 52" fill-opacity=".2"/><g transform="translate(153 -139)"><path d="M-34 206c0 27.614-22.386 50-50 50s-50-22.386-50-50 22.386-50 50-50 50 22.386 50 50" fill="#c84747" stroke="#fff" stroke-width="3.846"/><circle cx="-84.015" cy="206" r="35.756" fill="#fff"/><path d="M-84.018 179.99a8 8 0 00-8 8 8 8 0 001.086 4.01h-5.069l-12 32h48l-12-32h-5.107a8 8 0 001.09-4.01 8 8 0 00-8-8zm.021 4.014A3.997 3.997 0 01-80 188a3.997 3.997 0 01-3.997 3.998A3.997 3.997 0 01-87.995 188a3.997 3.997 0 013.998-3.996z" fill="#444" fill-rule="evenodd"/><path d="M-83 197.996v4h5v4h-5l-.027 5.995c-.004.745.1 1.296.396 1.564.296.258.776.472 1.655.463l1.976-.022v4l-3.984-.051c-2.025-.026-3.166-.109-4.016-.949-.84-.85-.991-2.958-.993-4.982l-.007-6.018h-3v-4h3v-4z" fill="#fff" aria-label="t"/></g></svg>