<svg width="138" height="138" xmlns="http://www.w3.org/2000/svg"><path d="m133 69c0 35.346-28.654 64-64 64s-64-28.654-64-64 28.654-64 64-64 64 28.654 64 64" fill="#9bbe55"/><path d="m69.039 21.01c-28.115 0-50.992 22.877-50.992 50.992s22.877 50.99 50.992 50.99 50.99-22.875 50.99-50.99-22.875-50.992-50.99-50.992zm0 7.8457c23.876 0 43.145 19.271 43.145 43.146s-19.269 43.146-43.145 43.146-43.146-19.271-43.146-43.146 19.271-43.146 43.146-43.146z" color="#000000" color-rendering="auto" dominant-baseline="auto" fill-opacity=".2" image-rendering="auto" shape-rendering="auto" solid-color="#000000" style="font-feature-settings:normal;font-variant-alternates:normal;font-variant-caps:normal;font-variant-ligatures:normal;font-variant-numeric:normal;font-variant-position:normal;isolation:auto;mix-blend-mode:normal;shape-padding:0;text-decoration-color:#000000;text-decoration-line:none;text-decoration-style:solid;text-indent:0;text-orientation:mixed;text-transform:none;white-space:normal"/><g stroke-width="1.9612"><path d="m116.11 68.197a47.069 47.069 0 0 1-47.069 47.069 47.069 47.069 0 0 1-47.069-47.069 47.069 47.069 0 0 1 47.069-47.069 47.069 47.069 0 0 1 47.069 47.069z" fill="#dbdbdb"/><path d="m47.465 110.85 47.506-81.884 16.607 21.96-35.753 67.134zm-17.062-16.631 42.754-73.633 11.108 2.9614-45.255 78.381z" fill="#ededed"/><path d="m62.645 35.327v5.711c-3.0046 0.68642-5.5894 1.9377-7.7526 3.7577-3.8616 3.2477-5.7914 7.4781-5.7914 12.687 0 3.6969 0.85704 6.6602 2.5731 8.8862s3.893 3.8832 6.5269 4.9638c2.6574 1.063 5.9875 2.0122 9.9904 2.8516 3.1046 0.69426 5.4659 1.3983 7.0799 2.1142 1.6337 0.71388 2.4515 2.0514 2.4515 4.0126 0 2.0436-0.85901 3.5243-2.5751 4.4441-1.716 0.89823-3.6969 1.3493-5.9444 1.3493-6.1091 0-9.8786-2.5554-11.308-7.6624l-11.675 2.7594c1.1434 5.005 3.7067 8.7528 7.6918 11.246 2.5966 1.6121 5.511 2.6868 8.7332 3.2477v6.3131h11.767v-6.3739c3.793-0.65896 6.9603-1.9494 9.4687-3.891 4.4323-3.4733 6.6485-7.988 6.6485-13.546 0-5.4521-2.3378-9.7236-7.0152-12.807a17.723 17.723 0 0 0-5.2717-2.4848c-1.818-0.50991-4.7893-1.2258-8.9176-2.1436-5.2697-0.87862-7.9036-2.6868-7.9036-5.4247 0-3.4321 2.5103-5.1482 7.5369-5.1482 4.7402 0 7.8762 2.1357 9.4079 6.4053l10.663-3.4949c-2.3632-6.7956-7.2388-10.857-14.617-12.191v-5.5816z" fill="#a6a6a6" aria-label="S"/></g><path d="m69.234 17.049c-28.115 0-50.992 22.875-50.992 50.99s22.877 50.992 50.992 50.992 50.99-22.877 50.99-50.992-22.875-50.99-50.99-50.99zm0 7.8438c23.876 0 43.146 19.271 43.146 43.146 0 23.876-19.271 43.146-43.146 43.146s-43.146-19.271-43.146-43.146c0-23.876 19.271-43.146 43.146-43.146z" color="#000000" color-rendering="auto" dominant-baseline="auto" fill="#a6a6a6" image-rendering="auto" shape-rendering="auto" solid-color="#000000" style="font-feature-settings:normal;font-variant-alternates:normal;font-variant-caps:normal;font-variant-ligatures:normal;font-variant-numeric:normal;font-variant-position:normal;isolation:auto;mix-blend-mode:normal;shape-padding:0;text-decoration-color:#000000;text-decoration-line:none;text-decoration-style:solid;text-indent:0;text-orientation:mixed;text-transform:none;white-space:normal"/></svg>
