<svg width="138" height="138" xmlns="http://www.w3.org/2000/svg"><path d="m133 69c0 35.346-28.654 64-64 64s-64-28.654-64-64 28.654-64 64-64 64 28.654 64 64" fill="#529add"/><path d="m63.45 50.869c-9.944 1.206-17.119 6.491-19.682 13.422s-0.524 14.66 4.7 19.82a6 6 0 1 0 8.433-8.535c-2.127-2.101-2.712-4.867-1.877-7.123 0.673-1.821 2.269-3.858 6.428-5.01 1.164 5.27 1.68 10.127 1.552 14.617a5.935 5.935 0 0 0-0.062 1.428c-0.64 10.753-5.032 19.403-12.86 26.789-6.002 5.483 2.41 14.4 8.234 8.728 7.13-6.727 12.019-14.836 14.53-24.004 1.35 1.687 2.81 3.495 4.08 5.073 2.06 2.976 4.919 8.293 5.821 15.82 0.345 3.334 3.025 5.203 6.354 4.804 3.328-0.4 6.014-2.912 5.56-6.234-1.012-8.445-4.12-15.071-6.861-19.494-2.11-3.557-4.95-6.795-7.418-9.647-1.76-2.027-3.431-4.001-5.563-5.652-0.012-3.846-0.38-7.82-1.095-11.902 6.762 2.406 13.183 8.839 18.31 13.102a6 6 0 1 0 7.67-9.228c-4.155-3.455-14.236-15.46-28.295-16.744-2.778 0.066-5.597-0.17-7.96-0.03z" color="#000000" fill-opacity=".2" style="font-feature-settings:normal;font-variant-alternates:normal;font-variant-caps:normal;font-variant-ligatures:normal;font-variant-numeric:normal;font-variant-position:normal;isolation:auto;mix-blend-mode:normal;shape-padding:0;text-decoration-color:#000000;text-decoration-line:none;text-decoration-style:solid;text-indent:0;text-orientation:mixed;text-transform:none;white-space:normal"/><path d="m84.615 34.91a12.635 12.635 0 0 1-12.635 12.635 12.635 12.635 0 0 1-12.635-12.635 12.635 12.635 0 0 1 12.635-12.635 12.635 12.635 0 0 1 12.635 12.635z" fill-opacity=".2" style="paint-order:fill markers stroke"/><path d="m63.5 46.87c-9.944 1.206-17.119 6.491-19.682 13.422s-0.524 14.66 4.7 19.82a6 6 0 1 0 8.433-8.535c-2.127-2.101-2.712-4.867-1.877-7.123 0.673-1.821 2.269-3.858 6.428-5.01 1.164 5.27 1.68 10.127 1.552 14.617a5.935 5.935 0 0 0-0.062 1.428c-0.64 10.753-5.032 19.403-12.86 26.789-6.002 5.483 2.41 14.4 8.234 8.728 7.13-6.727 12.019-14.836 14.53-24.004 1.35 1.687 2.81 3.495 4.08 5.073 2.06 2.976 4.919 8.293 5.821 15.82a6 6 0 1 0 11.914-1.43c-1.012-8.445-4.12-15.071-6.861-19.494-2.11-3.557-4.95-6.795-7.418-9.647-1.76-2.027-3.431-4.001-5.563-5.652-0.012-3.846-0.38-7.82-1.095-11.902 6.762 2.406 13.183 8.839 18.31 13.102a6 6 0 1 0 7.67-9.228c-4.155-3.455-14.237-15.46-28.296-16.744-2.777 0.066-5.596-0.17-7.959-0.03z" color="#000000" fill="#fff" style="font-feature-settings:normal;font-variant-alternates:normal;font-variant-caps:normal;font-variant-ligatures:normal;font-variant-numeric:normal;font-variant-position:normal;isolation:auto;mix-blend-mode:normal;shape-padding:0;text-decoration-color:#000000;text-decoration-line:none;text-decoration-style:solid;text-indent:0;text-orientation:mixed;text-transform:none;white-space:normal"/><path d="m69 17c-29.742 0-54 24.258-54 54s24.258 54 54 54 54-24.258 54-54-24.258-54-54-54zm0 13.746c8.616 0 16.575 2.681 23.106 7.25l-56.107 56.107c-4.569-6.53-7.252-14.488-7.252-23.104a40.15 40.15 0 0 1 40.254-40.254zm33.002 17.15c4.568 6.53 7.252 14.488 7.252 23.104a40.15 40.15 0 0 1-40.254 40.254c-8.616 0-16.573-2.684-23.104-7.252z" color="#000000" fill-opacity=".2" style="font-feature-settings:normal;font-variant-alternates:normal;font-variant-caps:normal;font-variant-ligatures:normal;font-variant-numeric:normal;font-variant-position:normal;isolation:auto;mix-blend-mode:normal;paint-order:fill markers stroke;shape-padding:0;text-decoration-color:#000000;text-decoration-line:none;text-decoration-style:solid;text-indent:0;text-orientation:mixed;text-transform:none;white-space:normal"/><path d="m69 13c-29.742 0-54 24.258-54 54s24.258 54 54 54 54-24.258 54-54-24.258-54-54-54zm0 13.746c8.616 0 16.573 2.684 23.104 7.252l-56.106 56.105c-4.568-6.53-7.252-14.488-7.252-23.104a40.15 40.15 0 0 1 40.254-40.254zm33.002 17.15c4.568 6.53 7.252 14.488 7.252 23.104a40.15 40.15 0 0 1-40.254 40.254c-8.616 0-16.573-2.684-23.104-7.252z" color="#000000" fill="#c84747" style="font-feature-settings:normal;font-variant-alternates:normal;font-variant-caps:normal;font-variant-ligatures:normal;font-variant-numeric:normal;font-variant-position:normal;isolation:auto;mix-blend-mode:normal;paint-order:fill markers stroke;shape-padding:0;text-decoration-color:#000000;text-decoration-line:none;text-decoration-style:solid;text-indent:0;text-orientation:mixed;text-transform:none;white-space:normal"/><path d="m84.655 30.95a12.635 12.635 0 0 1-12.635 12.635 12.635 12.635 0 0 1-12.635-12.635 12.635 12.635 0 0 1 12.635-12.635 12.635 12.635 0 0 1 12.635 12.635z" fill="#fff" style="paint-order:fill markers stroke"/><path d="m55.17 71-9.607 9.481c0.377 0.445 2.488 3.217 2.907 3.63a6.001 6.001 0 1 0 8.434-8.535c-0.426-0.41-1.431-4.172-1.734-4.576zm37.402 28.674c-3.277 2.46-7.264 4.303-11.217 5.676 0.182 0.922 1.275 5.544 1.395 6.544 0.345 3.335 2.694 5.505 6.023 5.106 3.329-0.4 6.345-3.214 5.891-6.535-0.311-2.597-1.456-8.55-2.092-10.791z" color="#000000" fill-opacity=".2" style="font-feature-settings:normal;font-variant-alternates:normal;font-variant-caps:normal;font-variant-ligatures:normal;font-variant-numeric:normal;font-variant-position:normal;isolation:auto;mix-blend-mode:normal;shape-padding:0;text-decoration-color:#000000;text-decoration-line:none;text-decoration-style:solid;text-indent:0;text-orientation:mixed;text-transform:none;white-space:normal"/><path d="m55.84 70.26c-3.418 2.287-6.813 4.596-8.557 8.557a19.8 19.8 0 0 0 1.186 1.295 6.001 6.001 0 1 0 8.433-8.536c-0.425-0.41-0.76-0.912-1.062-1.316zm37.174 28.381c-4.02 1.056-7.358 3.778-10.727 6.377 0.182 0.922 0.341 1.877 0.46 2.877a6.001 6.001 0 1 0 11.915-1.43c-0.311-2.596-1.012-5.582-1.648-7.824z" color="#000000" fill="#fff" style="font-feature-settings:normal;font-variant-alternates:normal;font-variant-caps:normal;font-variant-ligatures:normal;font-variant-numeric:normal;font-variant-position:normal;isolation:auto;mix-blend-mode:normal;shape-padding:0;text-decoration-color:#000000;text-decoration-line:none;text-decoration-style:solid;text-indent:0;text-orientation:mixed;text-transform:none;white-space:normal"/></svg>
