<svg width="138" height="138" xmlns="http://www.w3.org/2000/svg"><path d="M133 69c0 35.346-28.654 64-64 64-35.346 0-64-28.654-64-64C5 33.654 33.654 5 69 5c35.346 0 64 28.654 64 64" fill="#529add"/><path d="M64.98 63.883c0 1 1 2 2 2l2 .127v23.037h-.56c-.972 0-1.41.468-1.436 1.447l-.029 1.049c-.027.979.493 1.503 1.465 1.502l2.617-.002-.024 3.508c-.016 2.5.996 3.496 3.03 3.49l5.929-.016c2.036-.006 2.99-.973 3.008-3.595l.022-3.399 20.035-.02-.024 3.493c-.016 2.5.996 3.496 3.03 3.49l5.929-.015c2.036-.006 2.99-.974 3.008-3.596l.022-3.383 2.521-.002c.974 0 1.464-.483 1.47-1.463l.01-1.017c.01-.98-.496-1.507-1.47-1.506h-.549V67.135l2-.125c1 0 2-1 2-2l.018-4.01h-56z" fill-opacity=".2"/><g stroke-width="1.333"><path d="M83.02 92.416c-.017 2.621-.97 3.59-3.006 3.595l-5.93.017c-2.034.006-3.045-.99-3.029-3.491l.025-3.77 11.965.033z" fill="#555"/><path d="M121.024 60.999c0 1-1 2-2 2l-2 .126v-16l2-.126c1 0 2 1.022 2 2z" fill="#99aab5"/><path d="M85.001 32.99c-2 0-4 2-4 4h-6c-3.888.019-6 .681-6 4.593v21h48v-21c0-3.912-2.02-4.602-6-4.594h-5.904c-.149-2.1-2.096-4-4.095-4z" fill="#ccd6dd"/><path d="M117 86.59H69v-24h48z" fill="#ffcc4d"/><path d="M117 85.09H69V74.996h48z" fill="#ffac33"/><path d="M114.97 92.37c-.017 2.622-.97 3.59-3.006 3.596l-5.93.017c-2.034.006-3.045-.99-3.029-3.491l.025-3.77 11.965.033z" fill="#555"/><g stroke-width=".708"><path d="M119.02 87.518c-.007.98-.497 1.462-1.47 1.463l-49.103.047c-.972 0-1.49-.523-1.464-1.502l.03-1.048c.026-.98.462-1.448 1.434-1.449l49.11-.033c.974 0 1.478.526 1.471 1.506zm-2.053-24.52c0 3-1.083 4-4 4h-40c-2.917 0-4-1.066-4-4v-14c0-2.934 1.083-4 4-4h40c3 0 4 1 4 4z" fill="#66757f"/><path d="M114 61.12c0 1.672-1 2.874-3 2.874l-36 .103c-1.944 0-3.078-1.15-3-3.103V50.588c.078-1.954 1.057-2.594 3-2.594h36c1.945 0 3 .639 3 2.594z" fill="#88c9f9"/></g><path d="M101.025 82.998h-16v-6h16z" fill="#99aab5"/><path d="M100 39.996H86c-1 0-2-1-2-2s1.228-2 2-2h14c1 0 2 1 2 2s-1 2-2 2z" fill="#555"/><g transform="matrix(.75 0 0 .75 -717 485.59)"><circle cx="1056.1" cy="-540.85" r="5.305" fill="#fff"/><circle cx="1103.8" cy="-540.85" r="5.305" fill="#fff"/><path d="M1042.7-567.63c0 1.333 1.333 2.667 2.667 2.667l2.666.168v-21.333l-2.666-.168c-1.334 0-2.667 1.363-2.667 2.666z" fill="#99aab5"/></g></g><path d="M37 105.094v19.322a63.699 63.699 0 0 0 8 3.914v-23.236z" fill="#666"/><g transform="translate(722 153)"><path d="M-661-52.107v4.861c0 1.85-1.49 3.34-3.34 3.34h-33.32c-1.85 0-3.34-1.49-3.34-3.34v-4.861z" fill-opacity=".2"/><rect x="-701" y="-101.91" width="40" height="54" ry="4" fill="#fff"/><g transform="translate(0 2.906)"><ellipse cx="-680.99" cy="-84.842" rx="15" ry="15.062" fill="#495aad"/><path d="M-687-94.84c-1.108 0-2 .892-2 2v13.928a1.99 1.99 0 0 0 1 1.725v3.275h4v-3h6v3h4v-3.275a1.99 1.99 0 0 0 1-1.725V-92.84c0-1.108-.892-2-2-2zm3 2.928h6c1.108 0 2.017.892 2 2v5h-10v-5c0-1.108.892-2 2-2zm-.956 9.047a2 2 0 1 1 0 4 2 2 0 0 1 0-4zm8 0a2 2 0 1 1 0 4 2 2 0 0 1 0-4z" fill="#fff"/></g><path fill="#cbcbcb" d="M-696-64h30v11h-30z"/></g></svg>