<svg width="138" height="138" xmlns="http://www.w3.org/2000/svg"><g transform="translate(-1603.1 -270.42)"><circle class="st0" cx="1672.1" cy="339.42" r="64" fill="#fd5"/><path d="M1640.1 307.5v87.273a64 64 0 0 0 16 6.53v-93.804zm48 0v93.84a64 64 0 0 0 16-6.582V307.5z" fill="#666"/><path d="M1632.1 319.5a8.025 8.025 0 0 0-8.043 8.043v31.914a8.025 8.025 0 0 0 8.043 8.043h79.914a8.025 8.025 0 0 0 8.043-8.043v-31.914a8.025 8.025 0 0 0-8.043-8.043z" fill-opacity=".2"/><rect x="1624.1" y="315.5" width="96" height="48" ry="8.043" fill="#555"/><path d="M1632.1 315.5a7.976 7.976 0 0 0-7.795 6.213l28.746 41.787h14.143l-32.332-48zm16.619 0l32.332 48h14.143l-32.332-48zm28 0l32.332 48h3.049a7.973 7.973 0 0 0 7.705-5.87l-28.943-42.13zm28 0l15.381 22v-14c0-4.432-3.568-8-8-8zm-80.619 26v14c0 4.432 3.568 8 8 8h7.094z" fill="#ffe94c"/><rect x="1624.1" y="315.5" width="96" height="48" ry="8.038" fill="none" stroke="#555" stroke-linecap="round" stroke-linejoin="round" stroke-width="4" paint-order="stroke markers fill"/></g></svg>