<?xml version="1.0" encoding="UTF-8"?>
<svg width="138" height="138" version="1.1" viewBox="0 0 138.00002 138" xmlns="http://www.w3.org/2000/svg" xmlns:cc="http://creativecommons.org/ns#" xmlns:dc="http://purl.org/dc/elements/1.1/" xmlns:rdf="http://www.w3.org/1999/02/22-rdf-syntax-ns#">
 <metadata>
  <rdf:RDF>
   <cc:Work rdf:about="">
    <dc:format>image/svg+xml</dc:format>
    <dc:type rdf:resource="http://purl.org/dc/dcmitype/StillImage"/>
    <dc:title/>
    <cc:license rdf:resource="http://creativecommons.org/licenses/by-sa/4.0/"/>
    <dc:creator>
     <cc:Agent>
      <dc:title>Tobias Zwick</dc:title>
     </cc:Agent>
    </dc:creator>
   </cc:Work>
   <cc:License rdf:about="http://creativecommons.org/licenses/by-sa/4.0/">
    <cc:permits rdf:resource="http://creativecommons.org/ns#Reproduction"/>
    <cc:permits rdf:resource="http://creativecommons.org/ns#Distribution"/>
    <cc:requires rdf:resource="http://creativecommons.org/ns#Notice"/>
    <cc:requires rdf:resource="http://creativecommons.org/ns#Attribution"/>
    <cc:permits rdf:resource="http://creativecommons.org/ns#DerivativeWorks"/>
    <cc:requires rdf:resource="http://creativecommons.org/ns#ShareAlike"/>
   </cc:License>
  </rdf:RDF>
 </metadata>
 <g id="blind_pedestrian_crossing" transform="translate(722 149)">
  <g shape-rendering="auto">
   <path d="m-589-80c0 35.346-28.654 64-64 64-35.346 0-64-28.654-64-64 0-35.346 28.654-64 64-64 35.346 0 64 28.654 64 64" color="#000000" color-rendering="auto" dominant-baseline="auto" fill="#529add" image-rendering="auto" solid-color="#000000" style="filter-blend-mode:normal;filter-gaussianBlur-deviation:0;font-feature-settings:normal;font-variant-alternates:normal;font-variant-caps:normal;font-variant-east-asian:normal;font-variant-ligatures:normal;font-variant-numeric:normal;font-variant-position:normal;isolation:auto;mix-blend-mode:normal;shape-padding:0;text-decoration-color:#000000;text-decoration-line:none;text-decoration-style:solid;text-indent:0;text-orientation:mixed;text-transform:none;white-space:normal"/>
   <path d="m-653-144.1c-35.4 0-64.1 28.7-64.1 64.1 0 35.4 28.7 64.1 64.1 64.1 35.4 0 64.1-28.7 64.1-64.1 0-35.4-28.7-64.1-64.1-64.1zm0 0.19922c35.292 0 63.9 28.608 63.9 63.9 0 35.292-28.608 63.9-63.9 63.9-35.292 0-63.9-28.608-63.9-63.9 0-35.292 28.608-63.9 63.9-63.9z" color="#000000" color-rendering="auto" dominant-baseline="auto" image-rendering="auto" solid-color="#000000" style="filter-blend-mode:normal;filter-gaussianBlur-deviation:0;font-feature-settings:normal;font-variant-alternates:normal;font-variant-caps:normal;font-variant-east-asian:normal;font-variant-ligatures:normal;font-variant-numeric:normal;font-variant-position:normal;isolation:auto;mix-blend-mode:normal;shape-padding:0;text-decoration-color:#000000;text-decoration-line:none;text-decoration-style:solid;text-indent:0;text-orientation:mixed;text-transform:none;white-space:normal"/>
  </g>
  <g fill-opacity=".2">
   <path d="m-658-64-4.0172 40.005h18l-3.9828-40.005z" fill-opacity=".2" style="paint-order:stroke fill markers"/>
   <g shape-rendering="auto">
    <path d="m-690.6-64-15.354 19.957c2.4026 3.5304 5.1551 6.8008 8.1973 9.7773l17.156-29.734z" color="#000000" color-rendering="auto" dominant-baseline="auto" fill-opacity=".2" image-rendering="auto" solid-color="#000000" style="filter-blend-mode:normal;filter-gaussianBlur-deviation:0;font-feature-settings:normal;font-variant-alternates:normal;font-variant-caps:normal;font-variant-east-asian:normal;font-variant-ligatures:normal;font-variant-numeric:normal;font-variant-position:normal;isolation:auto;mix-blend-mode:normal;shape-padding:0;text-decoration-color:#000000;text-decoration-line:none;text-decoration-style:solid;text-indent:0;text-orientation:mixed;text-transform:none;white-space:normal"/>
    <path d="m-690.65-64.1l-0.0293 0.039062-15.398 20.014 0.04101 0.060547c2.4065 3.536 5.1642 6.8119 8.2109 9.793l0.09179 0.089843 17.307-29.996h-10.223zm0.09961 0.19922h9.7773l-17.002 29.469c-2.9838-2.9311-5.6879-6.145-8.0527-9.6113l15.277-19.857z" color="#000000" color-rendering="auto" dominant-baseline="auto" fill-opacity="1" image-rendering="auto" solid-color="#000000" style="filter-blend-mode:normal;filter-gaussianBlur-deviation:0;font-feature-settings:normal;font-variant-alternates:normal;font-variant-caps:normal;font-variant-east-asian:normal;font-variant-ligatures:normal;font-variant-numeric:normal;font-variant-position:normal;isolation:auto;mix-blend-mode:normal;shape-padding:0;text-decoration-color:#000000;text-decoration-line:none;text-decoration-style:solid;text-indent:0;text-orientation:mixed;text-transform:none;white-space:normal"/>
   </g>
   <g shape-rendering="auto">
    <path d="m-673.57-64-16.107 36.416c1.8389 1.2898 3.7449 2.4898 5.7188 3.584h8.9609l11-40z" color="#000000" color-rendering="auto" dominant-baseline="auto" fill-opacity=".2" image-rendering="auto" solid-color="#000000" style="filter-blend-mode:normal;filter-gaussianBlur-deviation:0;font-feature-settings:normal;font-variant-alternates:normal;font-variant-caps:normal;font-variant-east-asian:normal;font-variant-ligatures:normal;font-variant-numeric:normal;font-variant-position:normal;isolation:auto;mix-blend-mode:normal;shape-padding:0;text-decoration-color:#000000;text-decoration-line:none;text-decoration-style:solid;text-indent:0;text-orientation:mixed;text-transform:none;white-space:normal"/>
    <path d="m-673.64-64.1l-0.02734 0.058593-16.141 36.492 0.06836 0.046875c1.8417 1.2917 3.7495 2.4938 5.7266 3.5898l0.02344 0.011718h9.0625l11.055-40.199h-9.7676zm0.13086 0.19922h9.375l-10.945 39.801h-8.8555c-1.9391-1.0759-3.8122-2.2561-5.6211-3.5215l16.047-36.279z" color="#000000" color-rendering="auto" dominant-baseline="auto" fill-opacity="1" image-rendering="auto" solid-color="#000000" style="filter-blend-mode:normal;filter-gaussianBlur-deviation:0;font-feature-settings:normal;font-variant-alternates:normal;font-variant-caps:normal;font-variant-east-asian:normal;font-variant-ligatures:normal;font-variant-numeric:normal;font-variant-position:normal;isolation:auto;mix-blend-mode:normal;shape-padding:0;text-decoration-color:#000000;text-decoration-line:none;text-decoration-style:solid;text-indent:0;text-orientation:mixed;text-transform:none;white-space:normal"/>
   </g>
   <g shape-rendering="auto">
    <path d="m-641.5-64 10.5 40h8.9961c2.327-1.29 4.5634-2.7231 6.7012-4.2832l-16.02-35.717z" color="#000000" color-rendering="auto" dominant-baseline="auto" fill-opacity=".2" image-rendering="auto" solid-color="#000000" style="filter-blend-mode:normal;filter-gaussianBlur-deviation:0;font-feature-settings:normal;font-variant-alternates:normal;font-variant-caps:normal;font-variant-east-asian:normal;font-variant-ligatures:normal;font-variant-numeric:normal;font-variant-position:normal;isolation:auto;mix-blend-mode:normal;shape-padding:0;text-decoration-color:#000000;text-decoration-line:none;text-decoration-style:solid;text-indent:0;text-orientation:mixed;text-transform:none;white-space:normal"/>
    <path d="m-641.62-64.1l0.0332 0.125 10.52 40.074h9.0977l0.02344-0.011718c2.3307-1.2921 4.5699-2.7285 6.7109-4.291l0.0664-0.046875-16.08-35.85h-10.371zm0.25977 0.19922h9.9824l15.957 35.58c-2.1091 1.5352-4.3124 2.9485-6.6055 4.2207h-8.8867l-10.447-39.801z" color="#000000" color-rendering="auto" dominant-baseline="auto" fill-opacity="1" image-rendering="auto" solid-color="#000000" style="filter-blend-mode:normal;filter-gaussianBlur-deviation:0;font-feature-settings:normal;font-variant-alternates:normal;font-variant-caps:normal;font-variant-east-asian:normal;font-variant-ligatures:normal;font-variant-numeric:normal;font-variant-position:normal;isolation:auto;mix-blend-mode:normal;shape-padding:0;text-decoration-color:#000000;text-decoration-line:none;text-decoration-style:solid;text-indent:0;text-orientation:mixed;text-transform:none;white-space:normal"/>
   </g>
   <g shape-rendering="auto">
    <path d="m-624.58-64.007 16.697 29.377c3.0226-3.0054 5.7459-6.3104 8.123-9.8672l-14.854-19.51z" color="#000000" color-rendering="auto" dominant-baseline="auto" fill-opacity=".2" image-rendering="auto" solid-color="#000000" style="filter-blend-mode:normal;filter-gaussianBlur-deviation:0;font-feature-settings:normal;font-variant-alternates:normal;font-variant-caps:normal;font-variant-east-asian:normal;font-variant-ligatures:normal;font-variant-numeric:normal;font-variant-position:normal;isolation:auto;mix-blend-mode:normal;shape-padding:0;text-decoration-color:#000000;text-decoration-line:none;text-decoration-style:solid;text-indent:0;text-orientation:mixed;text-transform:none;white-space:normal"/>
    <path d="m-624.75-64.107l0.08594 0.15039 16.762 29.49 0.09375-0.091797c3.0273-3.0101 5.7539-6.3204 8.1348-9.8828l0.03906-0.060547-14.926-19.605h-10.189zm0.3457 0.20117h9.7441l14.779 19.41c-2.3392 3.4918-5.017 6.7364-7.9805 9.6953l-16.543-29.105z" color="#000000" color-rendering="auto" dominant-baseline="auto" fill-opacity="1" image-rendering="auto" solid-color="#000000" style="filter-blend-mode:normal;filter-gaussianBlur-deviation:0;font-feature-settings:normal;font-variant-alternates:normal;font-variant-caps:normal;font-variant-east-asian:normal;font-variant-ligatures:normal;font-variant-numeric:normal;font-variant-position:normal;isolation:auto;mix-blend-mode:normal;shape-padding:0;text-decoration-color:#000000;text-decoration-line:none;text-decoration-style:solid;text-indent:0;text-orientation:mixed;text-transform:none;white-space:normal"/>
   </g>
  </g>
  <g transform="translate(-285,-144)" fill="#fff" style="paint-order:stroke fill markers">
   <path d="m-405.57 76-16.77 21.799c2.3519 3.7733 5.0886 7.2789 8.1504 10.473l18.619-32.271z" style="paint-order:stroke fill markers"/>
   <path d="m-388.57 76-17.459 39.471 1.0312 0.5293h15l11-40z" style="paint-order:stroke fill markers"/>
   <path d="m-372.98 75.995-4.0172 40.005h18l-3.9828-40.005z" style="paint-order:stroke fill markers"/>
   <path d="m-356.5 76 10.5 40h15l2.0357-1.2988-17.357-38.701z" style="paint-order:stroke fill markers"/>
   <path d="m-339.56 76 18.121 31.881c3.0397-3.2242 5.7589-6.7537 8.082-10.555l-16.236-21.326z" style="paint-order:stroke fill markers"/>
  </g>
  <g transform="matrix(.2165 0 0 -.2165 -602.38 -59.497)" fill="#fff" shape-rendering="auto" style="paint-order:stroke fill markers">
   <path d="m-313.77 299.64c-29.381 0-53.497-24.116-53.497-53.497 0-17.02 8.1196-32.236 20.641-42.058-46.269-21.234-69.565-64.995-69.212-109.2 0-19.054 15.82-34.77 34.877-34.597 5.6407 0.0511 10.893 1.6114 15.598 4.1047-1.2355-9.388-2.9584-17.843-5.7376-25.792-5.565-15.919-15.184-30.723-35.95-48.842l0.1894 0.16241c-14.666-12.335-16.39-34.746-3.789-49.185 12.589-14.425 34.986-15.747 49.194-2.9229 23.84 20.838 39.099 43.018 49.014 65.261 4.3834-13.546 7.4989-28.144 10.564-45.251 9e-4 -6e-3 -9e-4 -0.012 0-0.018l0.046-0.17141c2.7261-16.038 16.492-28.132 32.766-28.751 21.929-0.83502 39.417 19.567 35.247 41.111v9e-3c-5.9487 33.191-14.364 65.975-32.766 98.495 3.9912-2.3263 8.121-4.6052 12.54-6.766 4.8489-2.4433 10.213-3.7117 15.643-3.6988 4.9487 0.012 9.7095 1.086 14.028 3.0312 1.0591-3.8515 3.031-7.4938 5.9451-10.546l103.46-111.68c4.9534-5.4967 12.1-8.5384 19.495-8.2997 10.337 0.33423 19.014 7.1801 22.463 15.607 3.4494 8.4269 2.0651 19.397-5.0702 26.884l-103.46 111.67c-5.7875 6.4388-14.335 9.1495-22.418 7.9839-0.06 13.095-7.595 25.427-19.802 31.178l0.1709-0.0812c-18.588 9.07-29.859 20.066-41.363 33.244-9.9792 11.432-19.957 24.633-33.947 37.782 22.218 6.5028 38.62 27.11 38.62 51.332 0 29.381-24.107 53.497-53.488 53.497z" color="#000000" color-rendering="auto" dominant-baseline="auto" fill="#000" fill-opacity=".2" fill-rule="evenodd" image-rendering="auto" solid-color="#000000" style="font-feature-settings:normal;font-variant-alternates:normal;font-variant-caps:normal;font-variant-ligatures:normal;font-variant-numeric:normal;font-variant-position:normal;isolation:auto;mix-blend-mode:normal;paint-order:stroke fill markers;shape-padding:0;text-decoration-color:#000000;text-decoration-line:none;text-decoration-style:solid;text-indent:0;text-orientation:mixed;text-transform:none;white-space:normal"/>
   <g transform="matrix(.81509 0 0 .81509 -516.75 -131.58)" stroke-width="45.99">
    <g transform="matrix(4.619 0 0 -4.619 -7820.5 629.13)" fill-rule="evenodd">
     <path d="m1744.2 41.365c-1.2275-0.021386-2.447 0.20399-3.586 0.66211-13.304 5.3529-19.987 17.463-19.889 29.68-0.0033 5.0598 4.201 9.2333 9.2618 9.1875 1.5177-0.013743 2.8889-0.49759 4.1504-1.1758-0.329 2.5241-0.7857 4.8027-1.5313 6.9355-1.4781 4.2282-4.0329 8.1601-9.5488 12.973l0.0508-0.042969c-2.1375 1.7977-3.332 4.361-3.3711 6.7852s0.907 4.6087 2.3632 6.2773c1.4563 1.6686 3.4933 2.9022 5.9004 3.1914 2.4016 0.28857 5.0956-0.54659 7.1641-2.4121 6.3722-5.5695 10.317-11.502 12.949-17.447 1.1916 3.6483 2.0618 7.5601 2.8887 12.182l-0.0098-0.05274c0.7035 4.2853 4.3715 7.5224 8.711 7.6875 5.8224 0.22171 10.466-5.1921 9.3632-10.912-4e-4 -0.0025 5e-4 -0.00531 0-0.00781-1.5887-8.8654-3.8751-17.619-8.8203-26.305 1.1197 0.65933 2.2054 1.3313 3.4532 1.9414 1.2872 0.64773 2.7092 0.98415 4.1503 0.98047 4.597-0.011187 8.1034-3.4295 8.9395-7.1855 0.8362-3.7566-0.8893-8.3413-5.0488-10.301l0.0449 0.021485c-4.9372-2.4091-7.9288-5.3279-10.984-8.8281-3.0555-3.5003-6.1075-7.6247-10.797-11.633v-0.001953c-1.6205-1.385-3.6732-2.1623-5.8046-2.1992zm-0.129 7.3594c0.4235 0.007339 0.8305 0.16236 1.1524 0.4375 3.9779 3.4002 6.7187 7.0823 10.031 10.877 3.3129 3.795 7.2663 7.659 13.305 10.605l0.0215 0.009766 0.0235 0.011719c1.1486 0.54114 1.1899 1.1877 1 2.041-0.19 0.85331-0.5018 1.423-1.7715 1.4258h-2e-3c-0.2865 7.33e-4 -0.5684-0.066233-0.8242-0.19531l-0.0215-0.011719-0.0234-0.011719c-6.6327-3.2364-10.912-7.2198-14.461-11.186l-7.7636-8.6738 1.3672 11.561c0.2527 2.1395 0.5726 4.2429 0.9277 6.2051l0.1738 0.96875 0.6367 0.75195c9.0375 10.689 11.879 20.896 13.988 32.682l0.0039 0.02539 0.0059 0.02539c0.2392 1.2344-0.5991 2.2138-1.8555 2.166-0.8869-0.03373-1.5828-0.64763-1.7265-1.5234l-0.0059-0.02735-0.0039-0.02539c-1.5116-8.4479-3.1951-15.606-7.3477-22.787l-4.6894-8.1133-2.084 9.1367c-1.7863 7.832-5.2612 15.331-13.838 22.814l-0.0254 0.02149-0.0254 0.02343c-0.6981 0.63209-0.9981 0.61372-1.3594 0.57032-0.3612-0.04341-0.8581-0.29382-1.2324-0.72266-0.3742-0.42884-0.5566-0.95459-0.5508-1.3184 0.0059-0.36376 0.0293-0.66532 0.75-1.2715l0.0254-0.02149 0.0254-0.02148c6.2013-5.4106 9.748-10.626 11.658-16.09 1.9103-5.4642 2.2298-10.93 2.6641-17.123l0.0312-0.45898-0.08-0.45117c-0.4986-2.7686-0.9748-5.7765-1.211-8.8691l-0.8945-11.717c1.0358-0.58376 2.1155-1.1349 3.2949-1.6094 0.2259-0.090836 0.4676-0.1351 0.7109-0.13086zm-4.2812 1.875l-5.7012 10.045c-1.8595 3.2765-2.4014 6.9901-2.3652 10.992v0.019531 0.021484c0.0211 1.0578-0.7448 1.8459-1.8027 1.8555-1.058 0.00958-1.8398-0.76624-1.8379-1.8242v-0.019531-0.019531c-0.0757-8.4603 3.5945-16.377 11.707-21.07z" color="#000000" color-rendering="auto" dominant-baseline="auto" fill="#529add" image-rendering="auto" solid-color="#000000" style="filter-blend-mode:normal;filter-gaussianBlur-deviation:0;font-feature-settings:normal;font-variant-alternates:normal;font-variant-caps:normal;font-variant-east-asian:normal;font-variant-ligatures:normal;font-variant-numeric:normal;font-variant-position:normal;isolation:auto;mix-blend-mode:normal;paint-order:stroke fill markers;shape-padding:0;text-decoration-color:#000000;text-decoration-line:none;text-decoration-style:solid;text-indent:0;text-orientation:mixed;text-transform:none;white-space:normal"/>
     <path d="m1744.1 45.045c-0.7354-0.01281-1.466 0.12201-2.1484 0.39648-11.968 4.8154-17.682 15.34-17.584 26.262-0.01 3.0612 2.4892 5.538 5.5503 5.5103 3.0611-0.02772 5.5107-2.5492 5.4497-5.6099-0.033-3.6487 0.4655-6.6384 1.8867-9.1426 0.2508 3.2846 0.7494 6.419 1.2578 9.2422-0.8698 12.402-1.3531 20.474-13.07 30.697-5.7163 4.8077 1.6955 13.3 7.2324 8.2871 9.1463-7.9801 13.094-16.387 15.006-24.77 3.8411 6.6422 5.4183 13.256 6.9101 21.594 0.4237 2.5806 2.6056 4.5061 5.2188 4.6055 3.5408 0.13483 6.2835-3.0643 5.6094-6.543-2.1478-12.003-5.2487-23.113-14.801-34.41-0.342-1.8899-0.6513-3.9218-0.8945-5.9805 3.7209 4.1577 8.4367 8.5487 15.59 12.039 0.7728 0.38996 1.6266 0.59206 2.4922 0.58984 5.8677-0.013 7.6402-7.9759 2.332-10.477-10.976-5.3555-13.891-13.564-22.559-20.973-0.9712-0.83009-2.2011-1.2962-3.4785-1.3184z" color="#000000" color-rendering="auto" dominant-baseline="auto" fill="#fff" image-rendering="auto" solid-color="#000000" style="filter-blend-mode:normal;filter-gaussianBlur-deviation:0;font-feature-settings:normal;font-variant-alternates:normal;font-variant-caps:normal;font-variant-east-asian:normal;font-variant-ligatures:normal;font-variant-numeric:normal;font-variant-position:normal;isolation:auto;mix-blend-mode:normal;paint-order:stroke fill markers;shape-padding:0;text-decoration-color:#000000;text-decoration-line:none;text-decoration-style:solid;text-indent:0;text-orientation:mixed;text-transform:none;white-space:normal"/>
    </g>
    <g transform="scale(1,-1)">
     <path d="m252.49-549.13c-36.046 0-65.631 29.587-65.631 65.633s29.585 65.631 65.631 65.631c35.551 0 64.762-28.792 65.559-64.164a17 17 0 0 0 0.07422 -1.4668 17 17 0 0 0 -0.08789 -1.7266c-0.93479-35.252-30.081-63.906-65.545-63.906zm0 34.002c17.671 0 31.633 13.96 31.633 31.631s-13.962 31.631-31.633 31.631-31.631-13.96-31.631-31.631 13.96-31.631 31.631-31.631z" color="#000000" color-rendering="auto" dominant-baseline="auto" fill="#529add" image-rendering="auto" solid-color="#000000" style="filter-blend-mode:normal;filter-gaussianBlur-deviation:0;font-feature-settings:normal;font-variant-alternates:normal;font-variant-caps:normal;font-variant-east-asian:normal;font-variant-ligatures:normal;font-variant-numeric:normal;font-variant-position:normal;isolation:auto;mix-blend-mode:normal;paint-order:stroke fill markers;shape-padding:0;text-decoration-color:#000000;text-decoration-line:none;text-decoration-style:solid;text-indent:0;text-orientation:mixed;text-transform:none;white-space:normal"/>
     <path d="m301.12-483.5c0 26.858-21.773 48.632-48.632 48.632s-48.632-21.773-48.632-48.632 21.773-48.632 48.632-48.632 48.632 21.773 48.632 48.632" color="#000000" color-rendering="auto" dominant-baseline="auto" fill="#fff" image-rendering="auto" solid-color="#000000" style="filter-blend-mode:normal;filter-gaussianBlur-deviation:0;font-feature-settings:normal;font-variant-alternates:normal;font-variant-caps:normal;font-variant-east-asian:normal;font-variant-ligatures:normal;font-variant-numeric:normal;font-variant-position:normal;isolation:auto;mix-blend-mode:normal;paint-order:stroke fill markers;shape-padding:0;text-decoration-color:#000000;text-decoration-line:none;text-decoration-style:solid;text-indent:0;text-orientation:mixed;text-transform:none;white-space:normal"/>
    </g>
    <g fill-rule="evenodd">
     <path d="m520.31 96.311c-9.0756-0.29298-17.847 3.4445-23.924 10.191l0.16016-0.17773-127.27 137.37 0.17383-0.18555c-11.749 12.305-11.131 32.385 1.3496 43.947 12.481 11.562 32.547 10.645 43.92-2.0078l-0.17188 0.18946 127.27-137.37-0.16407 0.17383c8.7541-9.185 10.453-22.642 6.2207-32.98-4.2322-10.339-14.881-18.742-27.562-19.152z" color="#000000" color-rendering="auto" dominant-baseline="auto" fill="#529add" image-rendering="auto" solid-color="#000000" style="filter-blend-mode:normal;filter-gaussianBlur-deviation:0;font-feature-settings:normal;font-variant-alternates:normal;font-variant-caps:normal;font-variant-east-asian:normal;font-variant-ligatures:normal;font-variant-numeric:normal;font-variant-position:normal;isolation:auto;mix-blend-mode:normal;paint-order:stroke fill markers;shape-padding:0;text-decoration-color:#000000;text-decoration-line:none;text-decoration-style:solid;text-indent:0;text-orientation:mixed;text-transform:none;white-space:normal"/>
     <path d="m519.76 113.3c-4.0806-0.13173-8.0117 1.5426-10.744 4.5762l-127.27 137.37c-5.3416 5.5947-5.0691 14.479 0.60532 19.736 5.6744 5.2569 14.554 4.8508 19.725-0.90211l127.27-137.37c8.2607-8.6674 2.3832-23.025-9.584-23.412z" color="#000000" color-rendering="auto" dominant-baseline="auto" fill="#fff" image-rendering="auto" solid-color="#000000" style="filter-blend-mode:normal;filter-gaussianBlur-deviation:0;font-feature-settings:normal;font-variant-alternates:normal;font-variant-caps:normal;font-variant-east-asian:normal;font-variant-ligatures:normal;font-variant-numeric:normal;font-variant-position:normal;isolation:auto;mix-blend-mode:normal;paint-order:stroke fill markers;shape-padding:0;text-decoration-color:#000000;text-decoration-line:none;text-decoration-style:solid;text-indent:0;text-orientation:mixed;text-transform:none;white-space:normal"/>
    </g>
   </g>
  </g>
 </g>
</svg>
