<svg xmlns="http://www.w3.org/2000/svg" width="138" height="138"><path d="M133 69c0 35.346-28.654 64-64 64-35.346 0-64-28.654-64-64C5 33.654 33.654 5 69 5c35.346 0 64 28.654 64 64" fill="#529add"/><path d="M64.978 63.883c0 1 1 2 2 2l2 .127v23.037h-.56c-.972 0-1.41.468-1.436 1.447l-.029 1.049c-.027.979.493 1.503 1.465 1.502l2.617-.002-.024 3.508c-.016 2.5.996 3.496 3.03 3.49l5.93-.016c2.035-.006 2.99-.974 3.007-3.595L83 93.03l20.035-.02-.024 3.493c-.016 2.5.996 3.496 3.03 3.49l5.93-.015c2.035-.006 2.99-.974 3.007-3.596L115 93l2.522-.002c.973 0 1.463-.484 1.47-1.463l.01-1.017c.01-.98-.497-1.507-1.47-1.506h-.55V67.135l2-.125c1 0 2-1 2-2L121 61H65z" fill-opacity=".2"/><g transform="matrix(.75 0 0 .75 -717 485.594)" stroke-width="1.333"><path d="M1066.667-524.232c-.024 3.496-1.295 4.787-4.009 4.795l-7.908.022c-2.71.007-4.06-1.32-4.038-4.655l.033-5.027 15.954.045z" fill="#555" stroke-width=".662"/><path d="M1117.333-566.125c0 1.333-1.333 2.667-2.666 2.667l-2.667.168v-21.334l2.667-.168c1.333 0 2.666 1.364 2.666 2.667z" fill="#99aab5" stroke-width=".708"/><path d="M1069.333-603.458c-2.666 0-5.333 2.666-5.333 5.333h-8c-5.185.026-8 .91-8 6.125v28h64v-28c0-5.216-2.693-6.136-8-6.125h-7.873c-.198-2.8-2.794-5.333-5.46-5.333z" fill="#ccd6dd" stroke-width=".708"/><path d="M1112-532h-64v-32h64z" fill="#ffcc4d"/><path d="M1112-534h-64v-13.458h64z" fill="#ffac33"/><path d="M1109.333-524.295c-.023 3.496-1.294 4.787-4.008 4.794l-7.908.023c-2.711.007-4.06-1.321-4.038-4.655l.033-5.027 15.954.045z" fill="#555" stroke-width=".662"/><path d="M1114.685-530.758c-.01 1.305-.662 1.95-1.96 1.95l-65.472.063c-1.295.001-1.987-.698-1.951-2.003l.038-1.397c.036-1.306.618-1.93 1.914-1.931l65.479-.045c1.298 0 1.971.702 1.962 2.008zM1112-563.458c0 4-1.444 5.333-5.333 5.333h-53.334c-3.889 0-5.333-1.421-5.333-5.333v-18.667c0-3.912 1.444-5.333 5.333-5.333h53.334c4 0 5.333 1.333 5.333 5.333z" fill="#66757f" stroke-width=".708"/><path d="M1108-565.957c0 2.229-1.333 3.832-4 3.832l-48 .138c-2.591 0-4.104-1.533-4-4.138V-580c.104-2.605 1.409-3.458 4-3.458h48c2.594 0 4 .851 4 3.458z" fill="#88c9f9" stroke-width=".708"/><path d="M1090.667-536.792h-21.334v-8h21.334z" fill="#99aab5"/><path d="M1089.333-594.125h-18.666c-1.334 0-2.667-1.333-2.667-2.667 0-1.333 1.637-2.666 2.667-2.666h18.666c1.334 0 2.667 1.333 2.667 2.666 0 1.334-1.333 2.667-2.667 2.667z" fill="#555" stroke-width=".644"/><circle r="5.305" cy="-540.847" cx="1056.136" fill="#fff"/><circle r="5.305" cy="-540.847" cx="1103.848" fill="#fff"/><path d="M1042.667-567.626c0 1.333 1.333 2.666 2.666 2.666l2.667.168v-21.333l-2.667-.168c-1.333 0-2.666 1.363-2.666 2.667z" fill="#99aab5"/></g><path d="M23.044 101.047v-48l29.768-8" fill="none" stroke="#000" stroke-width="10" stroke-opacity=".2"/><path d="M23.276 97.047v-48l29.768-8" fill="none" stroke="#fff" stroke-width="10"/></svg>