<?xml version="1.0" encoding="UTF-8"?>
<svg width="138" height="138" version="1.1" viewBox="0 0 138.00002 138" xmlns="http://www.w3.org/2000/svg" xmlns:cc="http://creativecommons.org/ns#" xmlns:dc="http://purl.org/dc/elements/1.1/" xmlns:rdf="http://www.w3.org/1999/02/22-rdf-syntax-ns#">
 <metadata>
  <rdf:RDF>
   <cc:Work rdf:about="">
    <dc:format>image/svg+xml</dc:format>
    <dc:type rdf:resource="http://purl.org/dc/dcmitype/StillImage"/>
    <dc:title/>
    <cc:license rdf:resource="http://creativecommons.org/licenses/by-sa/4.0/"/>
    <dc:creator>
     <cc:Agent>
      <dc:title>Tobias Zwick</dc:title>
     </cc:Agent>
    </dc:creator>
   </cc:Work>
   <cc:License rdf:about="http://creativecommons.org/licenses/by-sa/4.0/">
    <cc:permits rdf:resource="http://creativecommons.org/ns#Reproduction"/>
    <cc:permits rdf:resource="http://creativecommons.org/ns#Distribution"/>
    <cc:requires rdf:resource="http://creativecommons.org/ns#Notice"/>
    <cc:requires rdf:resource="http://creativecommons.org/ns#Attribution"/>
    <cc:permits rdf:resource="http://creativecommons.org/ns#DerivativeWorks"/>
    <cc:requires rdf:resource="http://creativecommons.org/ns#ShareAlike"/>
   </cc:License>
  </rdf:RDF>
 </metadata>
 <g id="blind_traffic_lights" transform="translate(722 149)">
  <path d="m-589-80c0 35.346-28.654 64-64 64-35.346 0-64-28.654-64-64 0-35.346 28.654-64 64-64 35.346 0 64 28.654 64 64" fill="#529add" stroke-width=".2"/>
  <rect x="-645" y="-116" width="32" height="60" rx="7.7659" ry="8" fill-opacity=".2" style="paint-order:stroke fill markers"/>
  <rect x="-645" y="-120" width="32" height="60" rx="7.7659" ry="8" fill="#888" style="paint-order:stroke fill markers"/>
  <g transform="translate(-.34871 28)">
   <ellipse cx="-628.97" cy="-103.97" rx="9.9737" ry="10.055" fill="#69ff69" stroke="#555" stroke-width="4" style="paint-order:normal"/>
   <path d="m-619-104s-4.4817 6.6313-10.01 6.6313c-5.5285 0-10.001-6.5961-10.001-6.5961 0 5.5284 4.4724 10.001 10.001 10.001 5.5284 0 10.01-4.5077 10.01-10.036z" fill="#fff" fill-opacity=".37647" style="paint-order:stroke fill markers"/>
  </g>
  <ellipse cx="-628.97" cy="-103.97" rx="9.9737" ry="10.055" fill="#ff6969" stroke="#555" stroke-width="4" style="paint-order:normal"/>
  <path d="m-619-104s-4.4817 6.6313-10.01 6.6313c-5.5285 0-10.001-6.5961-10.001-6.5961 0 5.5284 4.4724 10.001 10.001 10.001 5.5284 0 10.01-4.5077 10.01-10.036z" fill="#fff" fill-opacity=".37647" style="paint-order:stroke fill markers"/>
  <g transform="matrix(.2165 0 0 -.2165 -724.68 -16.602)" fill="#fff" style="paint-order:stroke fill markers">
   <g transform="translate(8.651e-5 -18.476)" style="paint-order:stroke fill markers">
    <path d="m165.93 137.01c59.696 52.084 64.964 101.51 69.037 159.56 50.105-53.016 63.355-100.61 73.903-159.56" fill="none" stroke="#000" stroke-linecap="round" stroke-opacity=".2" stroke-width="50.809"/>
    <path d="m169.67 298.17c-0.38542 43.088 18.025 78.483 65.301 97.504 33.884-28.962 51.558-72.088 109.57-100.39" fill="none" stroke="#000" stroke-linecap="round" stroke-linejoin="round" stroke-opacity=".2" stroke-width="50.809"/>
    <circle transform="scale(1,-1)" cx="252.49" cy="-483.5" r="48.632" fill="#000" fill-opacity=".2" style="paint-order:normal"/>
    <path d="m391.91 264.66 127.27-137.37" fill="none" stroke="#000" stroke-linecap="round" stroke-opacity=".2" stroke-width="27.714"/>
   </g>
   <g fill="none" stroke="#fff">
    <path d="m165.93 137.01c59.696 52.084 64.964 101.51 69.037 159.56 50.105-53.016 63.355-100.61 73.903-159.56" stroke-linecap="round" stroke-width="50.809"/>
    <path d="m234.97 395.67c-8.121-30.793-2.0045-72.048 3.7364-102.84" stroke-width="55.427"/>
    <path d="m169.67 298.17c-0.38542 43.088 18.025 78.483 65.301 97.504 33.884-28.962 51.558-72.088 109.57-100.39" stroke-linecap="round" stroke-linejoin="round" stroke-width="50.809"/>
   </g>
   <circle transform="scale(1,-1)" cx="252.49" cy="-483.5" r="48.632" fill="#fff" style="paint-order:normal"/>
   <path d="m391.91 264.66 127.27-137.37" fill="none" stroke="#fff" stroke-linecap="round" stroke-width="27.714"/>
  </g>
 </g>
</svg>
