<svg width="138" height="138" xmlns="http://www.w3.org/2000/svg"><g transform="translate(-1203 -779)"><path d="M1335.96 847.95c0 35.346-28.654 64-64 64s-64-28.654-64-64 28.654-64 64-64 64 28.654 64 64" fill="#9bbe55"/><path d="M1236 820c-2.85 0-4.519 2.728-3.852 5.094a6.55 6.55 0 00-.148 1.375v51.064c0 .472.053.932.148 1.375-.666 2.366 1.002 5.092 3.852 5.092h72c2.85 0 4.52-2.728 3.852-5.094.094-.443.148-.901.148-1.373v-51.064c0-.472-.053-.93-.148-1.373.668-2.367-1.001-5.096-3.852-5.096h-69.533z" fill-opacity=".2" paint-order="stroke fill markers"/><rect x="1232" y="816" width="80" height="64" rx="6.467" ry="6.467" fill="#ddd" paint-order="stroke fill markers"/><path d="M1236 874l36-38 36 38" fill="none" stroke="#aaa" stroke-linecap="round" stroke-linejoin="round" stroke-width="8"/><path d="M1236 880c-3.679 0-5.407-4.546-2.658-6.99l36-32a4 4 0 015.316 0l36 32c2.75 2.444 1.02 6.99-2.658 6.99z" color="#000" fill="#e9e9e9" fill-rule="evenodd" style="font-feature-settings:normal;font-variant-alternates:normal;font-variant-caps:normal;font-variant-ligatures:normal;font-variant-numeric:normal;font-variant-position:normal;isolation:auto;mix-blend-mode:normal;shape-padding:0;text-decoration-color:#000;text-decoration-line:none;text-decoration-style:solid;text-indent:0;text-orientation:mixed;text-transform:none;white-space:normal"/><path d="M1236 822l36 38 36-38" fill="none" stroke="#aaa" stroke-linecap="round" stroke-linejoin="round" stroke-width="8"/><path d="M1236 816c-3.679 0-5.407 4.546-2.658 6.99l36 32a4 4 0 005.316 0l36-32c2.75-2.444 1.02-6.99-2.658-6.99z" color="#000" fill="#fff" fill-rule="evenodd" style="font-feature-settings:normal;font-variant-alternates:normal;font-variant-caps:normal;font-variant-ligatures:normal;font-variant-numeric:normal;font-variant-position:normal;isolation:auto;mix-blend-mode:normal;shape-padding:0;text-decoration-color:#000;text-decoration-line:none;text-decoration-style:solid;text-indent:0;text-orientation:mixed;text-transform:none;white-space:normal"/><path d="M1272.39 820.7c-1.115.025-2.217.069-3.28.111l-.187 1.594c3.614.986 4.2 14.764 0 16.455l.125 1.596c11.876.584 19.48 1.074 19.691-10.44-.093-8.729-8.543-9.488-16.35-9.316zm-14.939.111l-.156 1.563c3.89 1.143 4.238 14.72.095 16.486l.061 1.596h8.83l.14-1.596c-3.696-1.052-4.23-14.7-.046-16.486l-.125-1.563zm18.57 2.11c4.975 0 8.001 2.07 7.904 7.94-.027 4.731-2.081 7.776-7.47 7.364-.972-4.786-.816-10.102-.434-15.305z" fill="#555"/></g></svg>