<svg xmlns="http://www.w3.org/2000/svg" width="33.867mm" height="33.867mm" viewBox="0 0 33.866673 33.866665"><path fill="#9bbe55" d="M33.87238 16.9296c0 9.35184468-7.58127532 16.93312-16.93312 16.93312S.00614 26.28144468.00614 16.9296 7.58741532-.00352 16.93926-.00352 33.87238 7.57775532 33.87238 16.9296"/><path fill-opacity=".2" d="M5.3030316 10.57968c-.59287086 0-1.07019964.47732878-1.07019964 1.07019964v4.2094678c0 .59287087.47735523 1.0702261 1.07019964 1.0702261h3.1630539v2.11664h-4.23328v2.11664h4.23328v4.23328h2.11664v-4.23328h12.69984v4.23328h2.11664v-4.23328h4.23328v-2.11664h-4.23328v-2.11664h3.1630539c.59287086 0 1.07019964-.47735523 1.07019964-1.0702261v-4.2094678c0-.59287086-.47732878-1.07019964-1.07019964-1.07019964zm5.2796939 6.34992h12.69984v2.11664h-12.69984z"/><g transform="translate(189.71 38.096) scale(.26458)"><path fill="#666" d="M-685.02-84.002h8v32h-8zm56 0h8v32h-8z"/><rect width="96" height="24" x="-701.02" y="-108" fill="#ae8862" ry="4.0447"/><path fill="#896847" d="M-693.02-104h80v4h-80zm-8 31.998h96v4h-96zm8-20h80v4h-80z"/><circle cx="-681.02" cy="-96.002" r="4" fill="#666"/><circle cx="-625.02" cy="-96.002" r="4" fill="#666"/><rect width="96" height="4" x="-701.02" y="-76.002" fill="#ae8862" ry="0"/></g></svg>