<svg width="138.02" height="138.02" viewBox="0 0 138.02121 138.02119" xmlns="http://www.w3.org/2000/svg"><path d="M124.43808782 101.01216024c-17.673 30.61053392-56.81509192 41.09862584-87.42562585 23.42562584-30.61053392-17.673-41.09862584-56.81509192-23.42562584-87.42562584 17.673-30.61053392 56.81509192-41.09862584 87.42562584-23.42562584 30.61053393 17.673 41.09862585 56.81509192 23.42562585 87.42562584" fill="#fd5"/><g stroke-width="8" transform="rotate(30 -150.16 884.63)"><rect transform="rotate(-30)" x="-389.76" y="-160.59" width="72" height="80" rx="8.472" ry="8.472" fill="none" stroke="#000" stroke-opacity=".2"/><rect transform="rotate(-30)" x="-389.76" y="-164.59" width="72" height="80" rx="8.472" ry="8.472" fill="#495aad" stroke="#fff" stroke-opacity=".98995"/><path d="M-369.05 92.306l-20-34.641 10.392-6s10.392-6 16.392 4.3923-4.3923 16.392-4.3923 16.392l-10.392 6" fill="none" stroke="#fff" stroke-linecap="square"/></g><g transform="translate(-947.88696643 1089.22231855)"><path d="M1034.8-1014a24 24 0 0 0-24 24 24 24 0 0 0 24 24 24 24 0 0 0 24-24 24 24 0 0 0-24-24z" fill="none" stroke="#000" stroke-linecap="round" stroke-linejoin="round" stroke-opacity=".2" stroke-width="4"/><circle cx="1034.8" cy="-994.04" r="24" fill="#dbdbdb" stroke="#a6a6a6" stroke-linecap="round" stroke-linejoin="round" stroke-width="4"/><path d="M1031.84-1011v2.9121c-1.532.3498-2.8498.9879-3.9531 1.916-1.9687 1.6563-2.9531 3.8125-2.9531 6.4688 0 1.8854.4375 3.3958 1.3125 4.5312s1.9844 1.9792 3.3281 2.5313c1.3541.5416 3.0521 1.026 5.0937 1.4531 1.5833.3542 2.7864.7135 3.6094 1.0781.83333.3646 1.25 1.0469 1.25 2.0469 0 1.0417-.4375 1.7969-1.3125 2.2656-.875.4584-1.8854.6875-3.0312.6875-3.1146 0-5.0364-1.3021-5.7656-3.9062l-5.9531 1.4062c.58333 2.5521 1.8906 4.4636 3.9219 5.7344 1.324.8216 2.8104 1.3702 4.4531 1.6562V-977h6v-3.25c1.9343-.3363 3.5484-.9936 4.8281-1.9844 2.2605-1.7708 3.3906-4.0729 3.3906-6.9062 0-2.7813-1.1927-4.9584-3.5781-6.5313-.85413-.5833-1.75-1.0052-2.6875-1.2656-.92706-.2604-2.4427-.625-4.5469-1.0937-2.6875-.448-4.0312-1.3698-4.0312-2.7657 0-1.75 1.2812-2.625 3.8438-2.625 2.4167 0 4.0157 1.0886 4.7969 3.2657l5.4375-1.7813c-1.2054-3.4654-3.6918-5.5361-7.4531-6.2168V-1011z" fill="#a6a6a6" aria-label="S"/></g></svg>