<svg width="138" height="138" xmlns="http://www.w3.org/2000/svg"><defs><clipPath id="a"><path d="M0 38h38V0H0z"/></clipPath></defs><path d="M133 69c0 35.346-28.654 64-64 64S5 104.346 5 69 33.654 5 69 5s64 28.654 64 64" fill="#9bbe55"/><g paint-order="fill markers stroke"><path d="M97.754 24.184c-.825.038-1.435.304-1.74.832l-4.69 8.1c-.074.623.093 1.68.683 2.558l-11.57 19.98c-6.933-.575-15.945.141-19.697 6.621l-24.55 42.382c-3.754 6.479 3.635 13.643 13.355 19.27s19.611 8.472 23.363 1.992L97.46 83.536c3.752-6.48-.113-14.65-4.063-20.378l11.569-19.981c1.098.089 2.04-.294 2.556-.68l4.692-8.103c.412-1.82-2.452-5.03-6.798-7.548-2.988-1.73-5.85-2.745-7.663-2.662z" fill-opacity=".2"/><path d="M96.142 21.186l-4.69 8.1c-.075.624.092 1.68.682 2.558l-11.57 19.98c-6.933-.574-15.944.142-19.696 6.622l-24.552 42.382c-3.752 6.48 3.638 13.643 13.358 19.27s19.61 8.472 23.363 1.992l24.551-42.382c3.752-6.48-.113-14.651-4.063-20.38l11.569-19.98c1.097.09 2.04-.295 2.558-.681l4.69-8.1c.412-1.82-2.453-5.031-6.798-7.549-4.346-2.516-8.424-3.523-9.402-1.832z" fill="#4c8235" fill-opacity=".904"/><path d="M68.431 120.076c-1.833 3.166-10.382 1.643-17.477-2.465s-12.436-10.628-10.603-13.794c6.695.1 13.032-6.136 20.126-2.028 7.095 4.108 5.428 11.2 7.954 18.287z" fill="#1d3214" fill-opacity=".359"/><path d="M97.074 23.312L93.4 29.657c.736 5.212 8.128 9.579 12.69 7.348l3.674-6.345c-5.948-.332-9.344-2.356-12.69-7.348z" fill="#1d3214" fill-opacity=".357"/><path d="M93.777 34.137L81.84 54.752c-7.265-1.102-13.114 2.493-16.522 6.243L36.14 111.11c-.933 2.776 1.547 6.137 4.246 8.857l31.887-55.072c2.099-3.49 5.57-6.555 12.133-8.658l11.378-19.98c-1.078-.732-1.574-1.429-2.006-2.12z" fill="#98c980" fill-opacity=".251"/></g><g stroke-width=".435"><path d="M56.368 19.72l-12.278.053c-1.937-.04-3.255 1.069-3.97 2.09-.036.052-.141.215-.257.392l-.007.011-.472.723.039-.023-5.204 8.412c-.366.557-.42 1.236-.135 1.79.136.268.535.748.804.926l8.82 5.469c.827.542 1.87.227 2.413-.603l2.732-4.416 2.767 5.428-3.192 1.626a1.795 1.795 0 00-.784 2.41c.214.415.583.74 1.045.888l14.453 4.697c.94.306 1.952-.21 2.255-1.15l4.697-14.455a1.802 1.802 0 00-.54-1.914 1.787 1.787 0 00-1.977-.233l-3.191 1.626L57.88 20.7c-.31-.606-.93-.98-1.512-.98zM37.57 40.5c-.119.005-.24.02-.36.05l-14.766 3.591a1.8 1.8 0 00-1.347 1.467 1.801 1.801 0 00.84 1.807l3.06 1.86-7.446 12.24c-.352.58-.35 1.307-.04 1.801L24 73.741c.986 1.666 2.62 2.209 3.867 2.277.063.004.258.007.467.012l.88.022-.04-.02 9.89.012c.666.02 1.272-.294 1.594-.826.156-.254.355-.848.364-1.17l.024-10.38c.025-.988-.792-1.71-1.782-1.74l-5.192-.003 3.165-5.203 3.06 1.862c.62.376 1.405.344 1.988-.082a1.81 1.81 0 00.471-.516c.244-.4.326-.883.211-1.356l-3.593-14.765A1.787 1.787 0 0037.57 40.5zm34.672 8.771c-.3 0-.908.138-1.188.3l-8.88 5.373c-.858.49-1.05 1.565-.558 2.424l2.696 4.44h-6.094v-3.582a1.789 1.789 0 00-3.057-1.265L44.414 67.706c-.7.7-.7 1.832 0 2.533L55.16 80.984a1.793 1.793 0 001.953.388 1.789 1.789 0 001.104-1.655v-3.581h14.328c.678 0 1.297-.382 1.557-.9l5.532-10.966c.914-1.707.526-3.386-.06-4.485-.03-.056-.129-.222-.233-.404v-.003l-.024-.04-.415-.718.002.038-5.127-8.453c-.331-.579-.912-.933-1.536-.933z" fill-opacity=".2"/><g transform="matrix(1.79093 0 0 -1.79093 15.079 81.056)" clip-path="url(#a)" stroke-width=".49"><path d="M31.001 8a.998.998 0 00-.869.504l-4.235 6.975c-.275.48-.167 1.08.312 1.354l4.958 3c.156.09.496.167.664.167a.997.997 0 00.857-.521l3.107-5.122.164-2.232c.274-.479-.958-1.184-1.437-1.458l-3.026-2.535A.988.988 0 0031.001 8" fill="#ddd"/><path d="M23.002 16.003c-.26 0-.517-.102-.708-.293l-6-6a1 1 0 010-1.414l6-6a1 1 0 011.708.707v2h8c.379 0 .724.214.87.503l3.088 6.122c.51.953.293 1.891-.034 2.505-.048.09-.375.65-.375.65s.3-1.78-1.55-1.78H24v2a.999.999 0 01-1 1z" fill="#fff"/><path d="M21.593 33.701a1 1 0 00-.054-1.004l-4.292-6.94c-.303-.463-.886-.639-1.348-.336l-4.925 3.054c-.15.099-.373.367-.449.517a.992.992 0 00.075.999l3.152 5.094 1.914 1.159c.303.464 1.49-.315 1.953-.618l3.631-1.545a.988.988 0 00.343-.38" fill="#ddd"/><path d="M22.967 36.504l-6.857-.03c-1.081.023-1.817-.596-2.216-1.166-.058-.083-.41-.63-.41-.63s1.451 1.077 2.291-.572l4.54-8.909-1.782-.908a1.001 1.001 0 01.146-1.842l8.07-2.622a.998.998 0 011.259.642l2.622 8.071a.995.995 0 01-.301 1.069.998.998 0 01-1.104.13l-1.782-.908-3.632 7.128c-.173.338-.52.547-.844.547z" fill="#fff"/><path d="M4.375 12.458c.181.297.51.49.882.479l8.16-.004c.554-.017 1.01-.42.996-.972l-.015-5.795a1.761 1.761 0 00-.202-.654.993.993 0 00-.89-.461l-5.991.008-1.993 1.018c-.551.017-.512 1.435-.498 1.986l-.593 3.904a.982.982 0 00.145.491" fill="#ddd"/><path d="M12.462 24.9a1.012 1.012 0 01-.2-.027l-8.245-2.006a1.005 1.005 0 01-.752-.818 1.005 1.005 0 01.469-1.01L5.443 20l-4.158-6.833c-.197-.324-.195-.73-.023-1.006l3.624-5.82c.55-.93 1.463-1.234 2.16-1.272.101-.006.75-.019.75-.019S6.12 5.72 7.08 7.3l5.197 8.543 1.709-1.04a1.002 1.002 0 011.372.335.997.997 0 01.119.757l-2.007 8.244a.998.998 0 01-1.008.762z" fill="#fff"/></g></g></svg>