<svg width="138" height="138" xmlns="http://www.w3.org/2000/svg"><path d="M133.03 69.002c0 35.346-28.654 64-64 64s-64-28.654-64-64 28.654-64 64-64 64 28.654 64 64" fill="#c8c4b7"/><path d="M7.05 52.892a68.835 68.835 0 0 0-1.816 10.881v10.453C7.8 105.94 33.47 131.12 65.402 132.892h7.203c33.669-1.869 60.398-29.756 60.398-63.893-.159-5.846-.718-10.948-2.047-16.107z" fill="#c5a787"/><path d="M69.186 112.89l24-24v-28h-16v20h-16v-20h-16v28z" fill-opacity=".2" fill-rule="evenodd"/><path d="M99.186 92.89l-30 30.124-30-30.124" fill="none" stroke="#000" stroke-linecap="square" stroke-opacity=".2" stroke-width="8"/><path d="M69.186 108.89l24-24v-28h-16v20h-16v-20h-16v28z" fill="#fff" fill-rule="evenodd"/><path d="M99.186 88.89l-30 30.124-30-30.124" fill="none" stroke="#c84747" stroke-linecap="square" stroke-width="8"/><path d="M8.25 48.892a63.505 63.505 0 0 0-2.08 8h125.68a63.509 63.509 0 0 0-2.08-8z" fill="#79ae54"/></svg>