<?xml version="1.0" encoding="UTF-8"?>
<svg width="138.02" height="138.07" version="1.1" viewBox="0 0 138.02121 138.07369" xmlns="http://www.w3.org/2000/svg" xmlns:cc="http://creativecommons.org/ns#" xmlns:dc="http://purl.org/dc/elements/1.1/" xmlns:rdf="http://www.w3.org/1999/02/22-rdf-syntax-ns#">
 <metadata>
  <rdf:RDF>
   <cc:Work rdf:about="">
    <dc:format>image/svg+xml</dc:format>
    <dc:type rdf:resource="http://purl.org/dc/dcmitype/StillImage"/>
    <dc:title/>
    <cc:license rdf:resource="http://creativecommons.org/licenses/by-sa/4.0/"/>
    <dc:creator>
     <cc:Agent>
      <dc:title>Tobias Zwick</dc:title>
     </cc:Agent>
    </dc:creator>
   </cc:Work>
   <cc:License rdf:about="http://creativecommons.org/licenses/by-sa/4.0/">
    <cc:permits rdf:resource="http://creativecommons.org/ns#Reproduction"/>
    <cc:permits rdf:resource="http://creativecommons.org/ns#Distribution"/>
    <cc:requires rdf:resource="http://creativecommons.org/ns#Notice"/>
    <cc:requires rdf:resource="http://creativecommons.org/ns#Attribution"/>
    <cc:permits rdf:resource="http://creativecommons.org/ns#DerivativeWorks"/>
    <cc:requires rdf:resource="http://creativecommons.org/ns#ShareAlike"/>
   </cc:License>
  </rdf:RDF>
 </metadata>
 <g id="street_turn_lanes" transform="rotate(30 -158.9 881.99)">
  <g>
   <path d="m-304 64c0 35.346-28.654 64-64 64-35.346 0-64-28.654-64-64s28.654-64 64-64c35.346 0 64 28.654 64 64" fill="#fd5" stroke-width=".2"/>
   <path d="m-367.99 0.03494c-11.665 0-22.59 3.1359-32.008 8.5879v110.82c9.4177 5.452 20.343 8.5879 32.008 8.5879 11.644 0 22.551-3.1248 31.957-8.5586v-110.88c-9.4062-5.4338-20.313-8.5586-31.957-8.5586z" fill="#999" stroke-width=".2"/>
   <rect x="-370.97" y="-.00021982" width="5.9688" height="128" fill="#fff" style="paint-order:stroke fill markers"/>
  </g>
  <path d="m-332.52 117.45c2.8261-1.8368 5.4684-3.9609 7.9627-6.2081l0.0774-94.108c-2.4946-2.2475-4.3286-4.089-8.069-5.7337 0 0 0.10064 106.17 0.0288 106.05z" fill-opacity=".2" stroke-width=".2"/>
  <g fill="#fff">
   <path d="m-336 8.5271v110.83c2.8083-1.6252 5.4826-3.4538 8-5.4727v-99.887c-2.5174-2.0189-5.1917-3.8474-8-5.4727z" stroke-width=".2"/>
   <path d="m-400 8.5271c-2.8083 1.6252-5.4826 3.4538-8 5.4727v99.887c2.5174 2.0189 5.1917 3.8474 8 5.4727z" stroke-width=".2"/>
   <path d="m-351.99 96.035-2-28c0-2.6667 1.3333-4 4-4v12l10-14-10-14v12c-7.0722 0.01168-7.4091 2.0439-8 4l-2 32z" fill-rule="evenodd"/>
   <path d="m-381.99 96.035-2-42 8 2-9.875-24-10.125 24 8-2-2 42z" fill-rule="evenodd"/>
  </g>
 </g>
</svg>
