<?xml version="1.0" encoding="UTF-8"?>
<svg width="138" height="138" version="1.1" viewBox="0 0 138.00002 138" xmlns="http://www.w3.org/2000/svg" xmlns:cc="http://creativecommons.org/ns#" xmlns:dc="http://purl.org/dc/elements/1.1/" xmlns:rdf="http://www.w3.org/1999/02/22-rdf-syntax-ns#">
 <metadata>
  <rdf:RDF>
   <cc:Work rdf:about="">
    <dc:format>image/svg+xml</dc:format>
    <dc:type rdf:resource="http://purl.org/dc/dcmitype/StillImage"/>
    <dc:title/>
    <cc:license rdf:resource="http://creativecommons.org/licenses/by-sa/4.0/"/>
    <dc:creator>
     <cc:Agent>
      <dc:title>Tobias Zwick</dc:title>
     </cc:Agent>
    </dc:creator>
   </cc:Work>
   <cc:License rdf:about="http://creativecommons.org/licenses/by-sa/4.0/">
    <cc:permits rdf:resource="http://creativecommons.org/ns#Reproduction"/>
    <cc:permits rdf:resource="http://creativecommons.org/ns#Distribution"/>
    <cc:requires rdf:resource="http://creativecommons.org/ns#Notice"/>
    <cc:requires rdf:resource="http://creativecommons.org/ns#Attribution"/>
    <cc:permits rdf:resource="http://creativecommons.org/ns#DerivativeWorks"/>
    <cc:requires rdf:resource="http://creativecommons.org/ns#ShareAlike"/>
   </cc:License>
  </rdf:RDF>
 </metadata>
 <g id="wifi" transform="translate(293.06 -427.03)">
  <path d="m-160.06 496.03c0 35.346-28.654 64-64 64-35.346 0-64-28.654-64-64s28.654-64 64-64c35.346 0 64 28.654 64 64" fill="#e9a76f" stroke-width=".2"/>
  <g transform="translate(-.10823 4.0616)" fill-opacity=".2">
   <path d="m-223.95 451.97c-23.205 0.18899-44.205 13.095-51.619 33.307a8.0008 8.0008 0 1 0 15.021 5.5098c4.7415-12.925 19.41-22.677 36.729-22.818 17.318-0.14105 32.236 9.3872 37.271 22.254a8.0008 8.0008 0 1 0 14.9 -5.8301c-7.8529-20.066-29.097-32.611-52.303-32.422z" color="#000000" color-rendering="auto" dominant-baseline="auto" image-rendering="auto" shape-rendering="auto" solid-color="#000000" style="font-feature-settings:normal;font-variant-alternates:normal;font-variant-caps:normal;font-variant-ligatures:normal;font-variant-numeric:normal;font-variant-position:normal;isolation:auto;mix-blend-mode:normal;paint-order:stroke fill markers;shape-padding:0;text-decoration-color:#000000;text-decoration-line:none;text-decoration-style:solid;text-indent:0;text-orientation:mixed;text-transform:none;white-space:normal"/>
   <path d="m-223.44 483.88c-14.014 0.035-26.732 8.1954-31.588 20.865a6.0006 6.0006 0 1 0 11.205 4.2949c2.9427-7.6772 11.041-13.137 20.412-13.16 9.3708-0.0234 17.508 5.3979 20.496 13.062a6.0006 6.0006 0 1 0 11.18 -4.3594c-4.9297-12.643-17.692-20.738-31.705-20.703z" color="#000000" color-rendering="auto" dominant-baseline="auto" image-rendering="auto" shape-rendering="auto" solid-color="#000000" style="font-feature-settings:normal;font-variant-alternates:normal;font-variant-caps:normal;font-variant-ligatures:normal;font-variant-numeric:normal;font-variant-position:normal;isolation:auto;mix-blend-mode:normal;paint-order:stroke fill markers;shape-padding:0;text-decoration-color:#000000;text-decoration-line:none;text-decoration-style:solid;text-indent:0;text-orientation:mixed;text-transform:none;white-space:normal"/>
   <circle cx="-223.43" cy="523.89" r="12" style="paint-order:stroke fill markers"/>
  </g>
  <g fill="#fff">
   <path d="m-223.95 451.97c-23.205 0.18899-44.205 13.095-51.619 33.307a8.0008 8.0008 0 1 0 15.021 5.5098c4.7415-12.925 19.41-22.677 36.729-22.818 17.318-0.14105 32.236 9.3872 37.271 22.254a8.0008 8.0008 0 1 0 14.9 -5.8301c-7.8529-20.066-29.097-32.611-52.303-32.422z" color="#000000" color-rendering="auto" dominant-baseline="auto" image-rendering="auto" shape-rendering="auto" solid-color="#000000" style="font-feature-settings:normal;font-variant-alternates:normal;font-variant-caps:normal;font-variant-ligatures:normal;font-variant-numeric:normal;font-variant-position:normal;isolation:auto;mix-blend-mode:normal;paint-order:stroke fill markers;shape-padding:0;text-decoration-color:#000000;text-decoration-line:none;text-decoration-style:solid;text-indent:0;text-orientation:mixed;text-transform:none;white-space:normal"/>
   <path d="m-223.44 483.88c-14.014 0.035-26.732 8.1954-31.588 20.865a6.0006 6.0006 0 1 0 11.205 4.2949c2.9427-7.6772 11.041-13.137 20.412-13.16 9.3708-0.0234 17.508 5.3979 20.496 13.062a6.0006 6.0006 0 1 0 11.18 -4.3594c-4.9297-12.643-17.692-20.738-31.705-20.703z" color="#000000" color-rendering="auto" dominant-baseline="auto" image-rendering="auto" shape-rendering="auto" solid-color="#000000" style="font-feature-settings:normal;font-variant-alternates:normal;font-variant-caps:normal;font-variant-ligatures:normal;font-variant-numeric:normal;font-variant-position:normal;isolation:auto;mix-blend-mode:normal;paint-order:stroke fill markers;shape-padding:0;text-decoration-color:#000000;text-decoration-line:none;text-decoration-style:solid;text-indent:0;text-orientation:mixed;text-transform:none;white-space:normal"/>
   <circle cx="-223.43" cy="523.89" r="12" style="paint-order:stroke fill markers"/>
  </g>
 </g>
</svg>
