<?xml version="1.0" encoding="UTF-8"?>
<svg width="138" height="138" version="1.1" viewBox="0 0 138 138" xmlns="http://www.w3.org/2000/svg" xmlns:cc="http://creativecommons.org/ns#" xmlns:dc="http://purl.org/dc/elements/1.1/" xmlns:rdf="http://www.w3.org/1999/02/22-rdf-syntax-ns#">
 <metadata>
  <rdf:RDF>
   <cc:Work rdf:about="">
    <dc:format>image/svg+xml</dc:format>
    <dc:type rdf:resource="http://purl.org/dc/dcmitype/StillImage"/>
    <dc:title/>
    <cc:license rdf:resource="http://creativecommons.org/licenses/by-sa/4.0/"/>
    <dc:creator>
     <cc:Agent>
      <dc:title>Tobias Zwick</dc:title>
     </cc:Agent>
    </dc:creator>
   </cc:Work>
   <cc:License rdf:about="http://creativecommons.org/licenses/by-sa/4.0/">
    <cc:permits rdf:resource="http://creativecommons.org/ns#Reproduction"/>
    <cc:permits rdf:resource="http://creativecommons.org/ns#Distribution"/>
    <cc:requires rdf:resource="http://creativecommons.org/ns#Notice"/>
    <cc:requires rdf:resource="http://creativecommons.org/ns#Attribution"/>
    <cc:permits rdf:resource="http://creativecommons.org/ns#DerivativeWorks"/>
    <cc:requires rdf:resource="http://creativecommons.org/ns#ShareAlike"/>
   </cc:License>
  </rdf:RDF>
 </metadata>
 <g id="max_width" transform="translate(581 -139)">
  <path d="m-448 208c0 35.346-28.654 64-64 64s-64-28.654-64-64 28.654-64 64-64 64 28.654 64 64" fill="#fd5" stroke-width=".2"/>
  <path d="m-460 210c0 28.719-23.281 52-52 52-28.719 0-52-23.281-52-52s23.281-52 52-52c28.719 0 52 23.281 52 52" fill-opacity=".2"/>
  <g>
   <path d="m-462 206c0 27.614-22.386 50-50 50-27.614 0-50-22.386-50-50s22.386-50 50-50c27.614 0 50 22.386 50 50" fill="#c84747" stroke="#fff" stroke-width="3.8462"/>
   <circle cx="-512.01" cy="206" r="35.756" fill="#444"/>
   <path d="m-543.98 221.96c6.0492 12.123 18.43 19.785 31.979 19.791 13.548-6e-3 25.929-7.6684 31.979-19.791l-13.979-15.965 13.961-15.938c-6.0387-12.128-18.413-19.801-31.961-19.818-13.548 0.0177-25.922 7.6907-31.961 19.818l13.961 15.938z" fill="#fff"/>
   <path d="m-520 190c-3.2002 2-4 14-4 14-1.6961 0.55846-4.0306 2.2998-4.0313 4.0781l0.03126 5.9219c2e-3 2 0.60062 3 3 3v5s-0.0192 1.9473 1 2h3.999c1 0 1.001-2 1.001-2v-4h14v4s0 2 1 2h4c1 0 1-2 1-2v-5c2.3994 0 2.9927-1 3-3v-6c-0.43556-1.8708-2.6062-3.4384-4-4 0 0-0.80604-12-4-14zm14 4c2 3 2 10 2 10h-16s0-7 2-10z" fill="#444"/>
  </g>
 </g>
</svg>
