<svg width="138" height="138" xmlns="http://www.w3.org/2000/svg"><g transform="translate(722 149)"><path d="M-589-80c0 35.346-28.654 64-64 64-35.346 0-64-28.654-64-64 0-35.346 28.654-64 64-64 35.346 0 64 28.654 64 64" fill="#fd5"/><rect x="-689.25" y="-120" width="72" height="80" rx="8.472" ry="8.472" fill="none" stroke="#000" stroke-opacity=".2" stroke-width="8"/><rect x="-689.12" y="-123.89" width="72" height="80" rx="8.472" ry="8.472" fill="#495aad" stroke="#fff" stroke-opacity=".99" stroke-width="8"/><path d="M-650.885-87.369a1.67 1.67 0 1 0 0 3.342h5.562l1.824 4.46c-.838-.077-1.846.08-3.008.493-3.083 1.461-6.319 3.688-7.064 6.742h-3.051c-1.938-2.05-4.23-3.275-6.548-3.848-2.636-.65-5.269-.627-7.78-.608a2.228 2.228 0 0 0-2.008 3.206c-.14.053-.28.106-.42.164-3.246 1.354-6.362 4.41-7.624 9.455l3.311.828a9.414 9.414 0 0 0-.203 1.94c0 5.206 4.26 9.467 9.467 9.467 4.635 0 8.513-3.38 9.31-7.796h10.46a1.67 1.67 0 0 0 1.423-.796l2.057-3.346 1.759.44a9.398 9.398 0 0 0-.227 2.031c0 5.206 4.26 9.467 9.467 9.467s9.467-4.26 9.467-9.467c0-3.422-1.847-6.426-4.587-8.09l2.121-2.527c-1.926-1.616-4.581-2.254-7.4-2.015-.909.077-1.834.247-2.758.503l-1.331-3.254c1.575.834 3.826 1.363 4.958 1.363v-6.683c-1.48 0-4.872 1.022-6.162 2.377l-2.785-6.81a1.67 1.67 0 0 0-1.547-1.037zm-17.542 20.494a5.647 5.647 0 0 1 5.434 4.01h-5.712a1.67 1.67 0 1 0 0 3.34h5.712a5.649 5.649 0 0 1-5.434 4.01c-3.16 0-5.68-2.52-5.68-5.68a5.65 5.65 0 0 1 5.68-5.68zm34.249 0a5.65 5.65 0 0 1 5.68 5.68c0 3.16-2.52 5.68-5.68 5.68s-5.68-2.52-5.68-5.68c0-1.784.805-3.365 2.073-4.403l2.06 5.036a1.671 1.671 0 1 0 3.094-1.266l-2.055-5.022c.168-.014.336-.025.508-.025z" color="#000" solid-color="#000000" style="font-feature-settings:normal;font-variant-alternates:normal;font-variant-caps:normal;font-variant-ligatures:normal;font-variant-numeric:normal;font-variant-position:normal;isolation:auto;mix-blend-mode:normal;shape-padding:0;text-decoration-color:#000;text-decoration-line:none;text-decoration-style:solid;text-indent:0;text-orientation:mixed;text-transform:none" paint-order="fill markers stroke" white-space="normal" fill="#fff"/><path d="M-674.3-89.297l21.296-21.296 21.296 21.296" fill="none" stroke="#fff" stroke-linecap="square" stroke-width="5.963"/></g></svg>