<svg width="138" height="138" xmlns="http://www.w3.org/2000/svg"><path d="M133 69c0 35.346-28.654 64-64 64-35.346 0-64-28.654-64-64C5 33.654 33.654 5 69 5c35.346 0 64 28.654 64 64" fill="#fd5"/><g stroke-width="8" transform="translate(722 149)"><rect x="-689.25" y="-120" width="72" height="80" rx="8.472" ry="8.472" fill="none" stroke="#000" stroke-opacity=".2"/><rect x="-689.12" y="-123.89" width="72" height="80" rx="8.472" ry="8.472" fill="#495aad" stroke="#fff" stroke-opacity=".99"/><path d="M-673-68v-40h12s12 0 12 12-12 12-12 12h-12" fill="none" stroke="#fff" stroke-linecap="square"/></g><path d="M78.193 71.286a1.218 1.218 0 1 0 0 2.435h4.054l1.33 3.25c-.61-.055-1.345.06-2.192.36-2.248 1.066-4.606 2.689-5.15 4.915h-2.224a9.745 9.745 0 0 0-4.773-2.804c-1.92-.475-3.84-.457-5.671-.444a1.624 1.624 0 0 0-1.464 2.337c-.102.038-.204.077-.306.12-2.366.987-4.637 3.214-5.556 6.892l2.413.603c-.096.457-.148.93-.148 1.414 0 3.795 3.106 6.901 6.9 6.901 3.38 0 6.206-2.464 6.786-5.683h7.625a1.218 1.218 0 0 0 1.038-.58l1.499-2.44 1.282.321a6.85 6.85 0 0 0-.166 1.481c0 3.795 3.106 6.901 6.901 6.901s6.901-3.106 6.901-6.9c0-2.495-1.346-4.685-3.343-5.898l1.546-1.841c-1.405-1.179-3.34-1.644-5.395-1.47-.662.057-1.336.18-2.01.367l-.97-2.372c1.148.608 2.789.994 3.614.994v-4.871c-1.079 0-3.552.744-4.491 1.732l-2.03-4.964a1.218 1.218 0 0 0-1.128-.756zM65.407 86.224a4.116 4.116 0 0 1 3.96 2.923h-4.163a1.218 1.218 0 1 0 0 2.435h4.164a4.117 4.117 0 0 1-3.961 2.923 4.12 4.12 0 0 1-4.14-4.14 4.12 4.12 0 0 1 4.14-4.14zm24.964 0a4.12 4.12 0 0 1 4.14 4.14c0 2.303-1.837 4.14-4.14 4.14s-4.14-1.837-4.14-4.14c0-1.3.587-2.453 1.511-3.21l1.502 3.672a1.218 1.218 0 1 0 2.255-.923L90 86.243c.122-.011.245-.019.37-.019z" color="#000" solid-color="#000000" style="font-feature-settings:normal;font-variant-alternates:normal;font-variant-caps:normal;font-variant-ligatures:normal;font-variant-numeric:normal;font-variant-position:normal;isolation:auto;mix-blend-mode:normal;shape-padding:0;text-decoration-color:#000;text-decoration-line:none;text-decoration-style:solid;text-indent:0;text-orientation:mixed;text-transform:none" paint-order="fill markers stroke" white-space="normal" fill="#fff"/></svg>