<svg width="138" height="138" xmlns="http://www.w3.org/2000/svg"><path d="m132.96 68.95c0 35.346-28.654 64-64 64s-64-28.654-64-64 28.654-64 64-64 64 28.654 64 64" fill="#9bbe55"/><path d="m33 41c-2.85 0-4.519 2.728-3.852 5.094a6.55 6.55 0 0 0-0.148 1.375v51.064c0 0.472 0.053 0.932 0.148 1.375-0.666 2.366 1.002 5.092 3.852 5.092h72c2.85 0 4.52-2.728 3.852-5.094 0.094-0.443 0.148-0.901 0.148-1.373v-51.064c0-0.472-0.053-0.93-0.148-1.373 0.668-2.367-1.001-5.096-3.852-5.096h-69.533z" fill-opacity=".2" style="paint-order:stroke fill markers"/><path d="m35.467 37h67.066c3.5827 0 6.467 2.8843 6.467 6.467v51.066c0 3.5827-2.8843 6.467-6.467 6.467h-67.066c-3.5827 0-6.467-2.8843-6.467-6.467v-51.066c0-3.5827 2.8843-6.467 6.467-6.467z" fill="#ddd" style="paint-order:stroke fill markers"/><path d="m33 95 36-38 36 38" fill="none" stroke="#aaa" stroke-linecap="round" stroke-linejoin="round" stroke-width="8"/><path d="m33 101c-3.679 0-5.407-4.546-2.658-6.99l36-32a4 4 0 0 1 5.316 0l36 32c2.75 2.444 1.02 6.99-2.658 6.99z" color="#000000" fill="#e9e9e9" fill-rule="evenodd" style="font-feature-settings:normal;font-variant-alternates:normal;font-variant-caps:normal;font-variant-ligatures:normal;font-variant-numeric:normal;font-variant-position:normal;isolation:auto;mix-blend-mode:normal;shape-padding:0;text-decoration-color:#000000;text-decoration-line:none;text-decoration-style:solid;text-indent:0;text-orientation:mixed;text-transform:none;white-space:normal"/><path d="m33 43 36 38 36-38" fill="none" stroke="#aaa" stroke-linecap="round" stroke-linejoin="round" stroke-width="8"/><path d="m33 37c-3.679 0-5.407 4.546-2.658 6.99l36 32a4 4 0 0 0 5.316 0l36-32c2.75-2.444 1.02-6.99-2.658-6.99z" color="#000000" fill="#fff" fill-rule="evenodd" style="font-feature-settings:normal;font-variant-alternates:normal;font-variant-caps:normal;font-variant-ligatures:normal;font-variant-numeric:normal;font-variant-position:normal;isolation:auto;mix-blend-mode:normal;shape-padding:0;text-decoration-color:#000000;text-decoration-line:none;text-decoration-style:solid;text-indent:0;text-orientation:mixed;text-transform:none;white-space:normal"/><path d="m69.39 41.7c-1.115 0.025-2.217 0.069-3.28 0.111l-0.187 1.594c3.614 0.986 4.2 14.764 0 16.455l0.125 1.596c11.876 0.584 19.48 1.074 19.691-10.44-0.093-8.729-8.543-9.488-16.35-9.316zm-14.939 0.111-0.156 1.563c3.89 1.143 4.238 14.72 0.095 16.486l0.061 1.596h8.83l0.14-1.596c-3.696-1.052-4.23-14.7-0.046-16.486l-0.125-1.563zm18.57 2.11c4.975 0 8.001 2.07 7.904 7.94-0.027 4.731-2.081 7.776-7.47 7.364-0.972-4.786-0.816-10.102-0.434-15.305z" fill="#555"/></svg>
