<svg width="138" height="138" xmlns="http://www.w3.org/2000/svg"><g transform="translate(-1603.1 -270.42)"><circle class="st0" cx="1672.1" cy="339.42" r="64" fill="#aaa"/><path d="M1640.1 307.5v87.273a64 64 0 0 0 16 6.5293v-93.803zm48 0v93.84a64 64 0 0 0 16-6.582V307.5z" fill="#666"/><path d="M1632.1 319.5c-4.456 0-8.0429 3.587-8.0429 8.043v31.914c0 4.456 3.5869 8.043 8.0429 8.043h79.914c4.456 0 8.043-3.587 8.043-8.043v-31.914c0-4.456-3.587-8.043-8.043-8.043z" fill-opacity=".2"/><rect x="1624.1" y="315.5" width="96" height="48" ry="8.0433" fill="#555"/><path d="M1632.1 315.5c-3.8167 0-6.9867 2.6476-7.7949 6.2129l28.746 41.787h14.143l-32.332-48zm16.619 0l32.332 48h14.143l-32.332-48zm28 0l32.332 48h3.0488c3.6926 0 6.7759-2.4795 7.7051-5.8691l-28.943-42.131zm28 0l15.381 22v-14c0-4.432-3.568-8-8-8zm-80.619 26v14c0 4.432 3.568 8 8 8h7.0938z" fill="#ffe94c"/></g></svg>