<?xml version="1.0" encoding="UTF-8"?>
<svg width="138" height="138" version="1.1" viewBox="0 0 138 138" xmlns="http://www.w3.org/2000/svg" xmlns:cc="http://creativecommons.org/ns#" xmlns:dc="http://purl.org/dc/elements/1.1/" xmlns:rdf="http://www.w3.org/1999/02/22-rdf-syntax-ns#">
 <metadata>
  <rdf:RDF>
   <cc:Work rdf:about="">
    <dc:format>image/svg+xml</dc:format>
    <dc:type rdf:resource="http://purl.org/dc/dcmitype/StillImage"/>
    <dc:title/>
    <cc:license rdf:resource="http://creativecommons.org/licenses/by-sa/4.0/"/>
    <dc:creator>
     <cc:Agent>
      <dc:title>Tobias Zwick</dc:title>
     </cc:Agent>
    </dc:creator>
   </cc:Work>
   <cc:License rdf:about="http://creativecommons.org/licenses/by-sa/4.0/">
    <cc:permits rdf:resource="http://creativecommons.org/ns#Reproduction"/>
    <cc:permits rdf:resource="http://creativecommons.org/ns#Distribution"/>
    <cc:requires rdf:resource="http://creativecommons.org/ns#Notice"/>
    <cc:requires rdf:resource="http://creativecommons.org/ns#Attribution"/>
    <cc:permits rdf:resource="http://creativecommons.org/ns#DerivativeWorks"/>
    <cc:requires rdf:resource="http://creativecommons.org/ns#ShareAlike"/>
   </cc:License>
  </rdf:RDF>
 </metadata>
 <g id="max_weight" transform="translate(153 -139)">
  <path d="m-20 208c0 35.346-28.654 64-64 64s-64-28.654-64-64 28.654-64 64-64 64 28.654 64 64" fill="#fd5" stroke-width=".2"/>
  <path d="m-32 210c0 28.719-23.281 52-52 52-28.719 0-52-23.281-52-52s23.281-52 52-52c28.719 0 52 23.281 52 52" fill-opacity=".2"/>
  <g>
   <path d="m-34 206c0 27.614-22.386 50-50 50-27.614 0-50-22.386-50-50s22.386-50 50-50c27.614 0 50 22.386 50 50" fill="#c84747" stroke="#fff" stroke-width="3.8462"/>
   <circle cx="-84.015" cy="206" r="35.756" fill="#fff"/>
   <path d="m-84.018 179.99a8 8 0 0 0 -8 8 8 8 0 0 0 1.0859 4.0098h-5.0684l-12 32h48l-12-32h-5.1074a8 8 0 0 0 1.0898 -4.0098 8 8 0 0 0 -8 -8zm0.02148 4.0137a3.9972 3.9974 0 0 1 3.9961 3.9961 3.9972 3.9974 0 0 1 -3.9961 3.998 3.9972 3.9974 0 0 1 -3.998 -3.998 3.9972 3.9974 0 0 1 3.998 -3.9961z" fill="#444" fill-rule="evenodd"/>
   <g transform="matrix(.2 0 0 .2 -247.06 281.64)" aria-label="t">
    <g aria-label="t">
     <path d="m820.3-418.22v20h25v20h-25l-0.13722 29.976c-0.017 3.7239 0.50402 6.4809 1.984 7.8177 1.48 1.2891 3.8791 2.3628 8.2712 2.3147l9.882-0.10813v20l-19.922-0.2556c-10.121-0.12984-15.829-0.54301-20.078-4.7444-4.2014-4.2491-4.9562-14.789-4.9672-24.911l-0.0328-30.089h-15v-20h15v-20z" fill="#fff" stroke-width="5px"/>
    </g>
   </g>
  </g>
 </g>
</svg>
