<svg width="138" height="138" xmlns="http://www.w3.org/2000/svg"><path d="M133 69c0 35.346-28.654 64-64 64-35.346 0-64-28.654-64-64C5 33.654 33.654 5 69 5c35.346 0 64 28.654 64 64" fill="#529add"/><path d="M72.841 13.002a6.63 6.63 0 1 0 .001 13.26 6.63 6.63 0 0 0 0-13.26zM65.906 28.67C59.2 31.18 54.027 35.441 53.97 42.532a3.285 3.285 0 0 0 3.286 3.285 3.286 3.286 0 0 0 3.288-3.285c.054-1.812.823-3.35 1.946-4.58.035 1.614.293 3.427.848 5.438-.342.57-.485 1.426-.35 2.68-1.16 6.674-8.518 11.016-13.261 13.17a3.288 3.288 0 0 0 2.669 6.01c6.295-3.278 14.3-8.566 16.605-15.509 5.229 2.438 10.122 7.914 11.003 12.969a3.287 3.287 0 0 0 6.51-.93c-1.364-8.111-6.965-14.114-13.951-17.632-2.024-.869-2.184-5.592-2.07-7.296 6.13 3.48 12.413 5.034 18.632 1.982a3.287 3.287 0 0 0-2.938-5.88c-7.31 3.614-11.862-1.92-15.708-4.16-1.375-.963-3.204-.966-4.571-.124z" fill="#000" fill-opacity=".2" paint-order="stroke fill markers"/><path d="M72.842 9a6.63 6.63 0 1 0 .001 13.26 6.63 6.63 0 0 0 0-13.26zm-6.935 15.67C59.2 27.178 54.028 31.44 53.97 38.53a3.285 3.285 0 0 0 3.286 3.285 3.286 3.286 0 0 0 3.288-3.285c.054-1.812.823-3.35 1.946-4.58.035 1.615.293 3.427.848 5.438-.342.57-.485 1.427-.35 2.68-1.16 6.674-8.518 11.016-13.261 13.17a3.288 3.288 0 0 0 2.669 6.01c6.295-3.278 14.3-8.566 16.605-15.509 5.229 2.438 10.122 7.914 11.003 12.97a3.287 3.287 0 0 0 6.51-.93c-1.364-8.112-6.965-14.114-13.951-17.632-2.024-.87-2.184-5.593-2.07-7.296 6.13 3.48 12.413 5.033 18.632 1.982a3.287 3.287 0 0 0-2.938-5.88c-7.31 3.614-11.862-1.92-15.708-4.16-1.375-.964-3.204-.966-4.571-.125z" paint-order="stroke fill markers" fill="#fff"/><g fill="none" stroke-linecap="round" stroke-width="4"><path d="M13 69h112" stroke="#fff"/><path d="M13 73h112" stroke="#000" stroke-opacity=".2"/><path d="M60.59 109.066a11.753 11.753 0 0 1-11.753 11.753 11.753 11.753 0 0 1-11.753-11.753 11.753 11.753 0 0 1 11.753-11.753 11.753 11.753 0 0 1 11.753 11.753zm-11.585-.067l8.843-26.33h8.489M55.37 90.963l14.855 18.037h16.977L75.53 90.963H55.37m43.52 18.101a11.753 11.753 0 0 1-11.753 11.754 11.753 11.753 0 0 1-11.753-11.753A11.753 11.753 0 0 1 87.138 97.31a11.753 11.753 0 0 1 11.753 11.752zM75.53 86.719l5.17-.011m-10.475 22.292l5.305-22.282" stroke="#000" stroke-linejoin="round" stroke-opacity=".2"/><path d="M60.59 105.066a11.753 11.753 0 0 1-11.753 11.753 11.753 11.753 0 0 1-11.753-11.753 11.753 11.753 0 0 1 11.753-11.753 11.753 11.753 0 0 1 11.753 11.753zm-11.585-.067l8.843-26.33h8.489M55.37 86.963l14.855 18.037h16.977L75.53 86.963H55.37m43.52 18.101a11.753 11.753 0 0 1-11.753 11.754 11.753 11.753 0 0 1-11.753-11.753A11.753 11.753 0 0 1 87.138 93.31a11.753 11.753 0 0 1 11.753 11.752zM75.53 82.719l5.17-.011m-10.475 22.292l5.305-22.282" stroke="#fff" stroke-linejoin="round"/></g></svg>