<svg width="138" height="138" xmlns="http://www.w3.org/2000/svg"><path d="M133 69c0 35.346-28.654 64-64 64S5 104.346 5 69 33.654 5 69 5s64 28.654 64 64" fill="#9bbe55"/><path d="M67.105 23.45a11.412 11.412 0 0 0-11.412 11.412 11.412 11.412 0 0 0 11.412 11.413 11.412 11.412 0 0 0 11.412-11.413A11.412 11.412 0 0 0 67.105 23.45zm15.46 23.48c-2.771.014-5.46.255-8.335.225l-5.29 2.796c-6.602 9.904-18.485 11.79-18.485 11.79a6.28 6.28 0 1 0 1.774 12.433s8.66-1.247 17.26-7.356l2.374 9.496a8.792 8.792 0 0 0 .396 1.266 226.38 226.38 0 0 0-1.267 4.18c-1.876 6.43-4.049 15.082-5.143 24.926a6.28 6.28 0 1 0 12.483 1.387c.981-8.83 2.957-16.777 4.713-22.796.119-.408.2-.627.316-1.016 1.278.901 2.576 1.951 3.77 2.633 4.19 2.394 7.872 3.619 7.872 3.619a6.28 6.28 0 0 0 5.104-.506l14.522-8.3a6.28 6.28 0 1 0-6.232-10.901L96.649 77.52c-1.031-.418-1.488-.499-3.287-1.527a26.744 26.744 0 0 1-4.248-3.023 8.792 8.792 0 0 0-.197-.92l-3.092-12.367h.035c2.05.305 2.044 0 3.437 2.781a6.28 6.28 0 1 0 11.235-5.616c-2.757-5.514-8.074-8.884-12.828-9.59-1.783-.265-3.475-.338-5.138-.33zM33.96 87.177a11.677 11.677 0 0 0-11.677 11.677 11.677 11.677 0 0 0 11.677 11.675 11.677 11.677 0 0 0 11.676-11.675 11.677 11.677 0 0 0-11.676-11.677z" fill-opacity=".2" paint-order="stroke fill markers"/><path d="M67.149 19.373a11.412 11.412 0 0 0-11.412 11.411 11.412 11.412 0 0 0 11.412 11.412A11.412 11.412 0 0 0 78.56 30.784 11.412 11.412 0 0 0 67.15 19.373zm15.46 23.48c-2.772.013-5.46.254-8.336.224l-5.288 2.797c-6.603 9.904-18.486 11.788-18.486 11.788a6.28 6.28 0 1 0 1.773 12.434s8.661-1.246 17.262-7.355l2.373 9.496a8.792 8.792 0 0 0 .397 1.265c-.394 1.26-.821 2.647-1.268 4.18-1.876 6.43-4.049 15.083-5.142 24.927a6.28 6.28 0 1 0 12.481 1.387c.981-8.83 2.958-16.778 4.713-22.796.119-.408.2-.627.316-1.016 1.278.9 2.577 1.951 3.77 2.633 4.19 2.394 7.873 3.619 7.873 3.619a6.28 6.28 0 0 0 5.103-.506l14.523-8.3a6.28 6.28 0 1 0-6.232-10.9l-11.748 6.714c-1.031-.418-1.488-.499-3.287-1.527a26.747 26.747 0 0 1-4.248-3.024 8.792 8.792 0 0 0-.197-.92l-3.092-12.366h.035c2.05.304 2.044 0 3.437 2.781a6.28 6.28 0 1 0 11.234-5.617c-2.757-5.514-8.074-8.884-12.828-9.59-1.782-.264-3.475-.338-5.138-.33zM34.003 83.098a11.677 11.677 0 0 0-11.677 11.678 11.677 11.677 0 0 0 11.677 11.676A11.677 11.677 0 0 0 45.68 94.777 11.677 11.677 0 0 0 34.003 83.1z" fill="#fff" paint-order="stroke fill markers"/></svg>