<svg width="138" height="138" xmlns="http://www.w3.org/2000/svg"><g transform="translate(293.06 -427.03)"><path d="M-160.06 496.03c0 35.346-28.654 64-64 64-35.346 0-64-28.654-64-64s28.654-64 64-64c35.346 0 64 28.654 64 64" fill="#e9a76f"/><path fill="#fff" d="M-256.06 452.03h64v84h-64z"/><circle cx="-224.06" cy="496.03" r="20" fill="#6381b1" fill-opacity=".97" stroke="#5b5b5b" stroke-width="4"/><path fill="#ccd6dd" d="M-256.06 452.03h64v16h-64z"/><path fill-opacity=".2" d="M-256.06 536.03h64v4h-64z"/><circle cx="-230.4" cy="487.67" r="4.337" fill="#fff" fill-opacity=".4"/><path d="M-212.06 496.03c-1.421 7.07-5.708 10.716-12 12" fill="none" stroke="#fff" stroke-linecap="round" stroke-opacity=".4" stroke-width="8"/><g fill="#5b5b5b"><circle cx="-224.06" cy="460.03" r="6"/><path d="M-251.16 460.03h15.104v4h-15.104zM-212.06 456.03h16v8h-16z"/></g><path d="M-256.06 524.03h64" fill="none" stroke="#ccd6dd" stroke-width="4"/></g></svg>