<svg width="138" height="138" xmlns="http://www.w3.org/2000/svg"><path d="M133 69c0 35.346-28.654 64-64 64S5 104.346 5 69 33.654 5 69 5s64 28.654 64 64" fill="#9bbe55"/><path d="m97.754 24.184c-0.825 0.038-1.435 0.304-1.74 0.832l-4.69 8.1c-0.074 0.623 0.093 1.68 0.683 2.558l-11.57 19.98c-6.933-0.575-15.945 0.141-19.697 6.621l-24.55 42.382c-3.754 6.479 3.635 13.643 13.355 19.27s19.611 8.472 23.363 1.992l24.552-42.383c3.752-6.48-0.113-14.65-4.063-20.378l11.569-19.981c1.098 0.089 2.04-0.294 2.556-0.68l4.692-8.103c0.412-1.82-2.452-5.03-6.798-7.548-2.988-1.73-5.85-2.745-7.663-2.662z" fill-opacity=".2" style="paint-order:fill markers stroke"/><path d="m96.142 21.186-4.69 8.1c-0.075 0.624 0.092 1.68 0.682 2.558l-11.57 19.98c-6.933-0.574-15.944 0.142-19.696 6.622l-24.552 42.382c-3.752 6.48 3.638 13.643 13.358 19.27s19.61 8.472 23.363 1.992l24.551-42.382c3.752-6.48-0.113-14.651-4.063-20.38l11.569-19.98c1.097 0.09 2.04-0.295 2.558-0.681l4.69-8.1c0.412-1.82-2.453-5.031-6.798-7.549-4.346-2.516-8.424-3.523-9.402-1.832z" fill="#4c8235" fill-opacity=".904" style="paint-order:fill markers stroke"/><path d="m68.431 120.08c-1.833 3.166-10.382 1.643-17.477-2.465s-12.436-10.628-10.603-13.794c6.695 0.1 13.032-6.136 20.126-2.028 7.095 4.108 5.428 11.2 7.954 18.287z" fill="#1d3214" fill-opacity=".359" style="paint-order:fill markers stroke"/><path d="m97.074 23.312-3.674 6.345c0.736 5.212 8.128 9.579 12.69 7.348l3.674-6.345c-5.948-0.332-9.344-2.356-12.69-7.348z" fill="#1d3214" fill-opacity=".357" style="paint-order:fill markers stroke"/><path d="m93.777 34.137-11.937 20.615c-7.265-1.102-13.114 2.493-16.522 6.243l-29.178 50.115c-0.933 2.776 1.547 6.137 4.246 8.857l31.887-55.072c2.099-3.49 5.57-6.555 12.133-8.658l11.378-19.98c-1.078-0.732-1.574-1.429-2.006-2.12z" fill="#98c980" fill-opacity=".251" style="paint-order:fill markers stroke"/><path d="m56.368 19.72-12.278 0.053c-1.937-0.04-3.255 1.069-3.97 2.09-0.036 0.052-0.141 0.215-0.257 0.392l-7e-3 0.011-0.472 0.723 0.039-0.023-5.204 8.412c-0.366 0.557-0.42 1.236-0.135 1.79 0.136 0.268 0.535 0.748 0.804 0.926l8.82 5.469c0.827 0.542 1.87 0.227 2.413-0.603l2.732-4.416 2.767 5.428-3.192 1.626a1.795 1.795 0 0 0-0.784 2.41c0.214 0.415 0.583 0.74 1.045 0.888l14.453 4.697c0.94 0.306 1.952-0.21 2.255-1.15l4.697-14.455a1.802 1.802 0 0 0-0.54-1.914 1.787 1.787 0 0 0-1.977-0.233l-3.191 1.626-6.506-12.767c-0.31-0.606-0.93-0.98-1.512-0.98zm-18.798 20.78c-0.119 5e-3 -0.24 0.02-0.36 0.05l-14.766 3.591a1.8 1.8 0 0 0-1.347 1.467 1.801 1.801 0 0 0 0.84 1.807l3.06 1.86-7.446 12.24c-0.352 0.58-0.35 1.307-0.04 1.801l6.489 10.425c0.986 1.666 2.62 2.209 3.867 2.277 0.063 4e-3 0.258 7e-3 0.467 0.012l0.88 0.022-0.04-0.02 9.89 0.012c0.666 0.02 1.272-0.294 1.594-0.826 0.156-0.254 0.355-0.848 0.364-1.17l0.024-10.38c0.025-0.988-0.792-1.71-1.782-1.74l-5.192-3e-3 3.165-5.203 3.06 1.862c0.62 0.376 1.405 0.344 1.988-0.082a1.81 1.81 0 0 0 0.471-0.516c0.244-0.4 0.326-0.883 0.211-1.356l-3.593-14.765a1.787 1.787 0 0 0-1.804-1.365zm34.672 8.771c-0.3 0-0.908 0.138-1.188 0.3l-8.88 5.373c-0.858 0.49-1.05 1.565-0.558 2.424l2.696 4.44h-6.094v-3.582a1.789 1.789 0 0 0-3.057-1.265l-10.747 10.745c-0.7 0.7-0.7 1.832 0 2.533l10.746 10.745a1.793 1.793 0 0 0 1.953 0.388 1.789 1.789 0 0 0 1.104-1.655v-3.581h14.328c0.678 0 1.297-0.382 1.557-0.9l5.532-10.966c0.914-1.707 0.526-3.386-0.06-4.485-0.03-0.056-0.129-0.222-0.233-0.404v-3e-3l-0.024-0.04-0.415-0.718 2e-3 0.038-5.127-8.453c-0.331-0.579-0.912-0.933-1.536-0.933z" fill-opacity=".2"/><path d="m70.6 66.729a1.7873 1.7873 0 0 1-1.5563-0.90263l-7.5846-12.492c-0.49251-0.85965-0.29908-1.9342 0.55877-2.4249l8.8794-5.3728c0.27938-0.16118 0.8883-0.29908 1.1892-0.29908a1.7856 1.7856 0 0 1 1.5348 0.93308l5.5644 9.1731 0.29371 3.9974c0.49072 0.85786-1.7157 2.1205-2.5736 2.6112l-5.4194 4.54a1.7694 1.7694 0 0 1-0.88651 0.2364" fill="#ddd"/><path d="m56.274 52.396c-0.46564 0-0.92591 0.18268-1.268 0.52474l-10.746 10.746a1.7909 1.7909 0 0 0 0 2.5324l10.746 10.746a1.7909 1.7909 0 0 0 3.0589-1.2662v-3.5819h14.327c0.67876 0 1.2966-0.38326 1.5581-0.90084l5.5304-10.964c0.91337-1.7068 0.52474-3.3866-0.06089-4.4863-0.08596-0.16118-0.6716-1.1641-0.6716-1.1641s0.53728 3.1879-2.7759 3.1879h-17.911v-3.5819a1.7891 1.7891 0 0 0-1.7909-1.7909z" fill="#fff"/><path d="m53.751 20.7a1.7909 1.7909 0 0 1-0.09671 1.7981l-7.6867 12.429c-0.54265 0.8292-1.5868 1.1444-2.4142 0.60175l-8.8203-5.4695c-0.26864-0.1773-0.66802-0.65727-0.80413-0.92591a1.7766 1.7766 0 0 1 0.13432-1.7891l5.645-9.123 3.4278-2.0757c0.54265-0.83099 2.6685 0.56414 3.4977 1.1068l6.5029 2.767a1.7694 1.7694 0 0 1 0.61429 0.68055" fill="#ddd"/><path d="m56.211 15.68-12.28 0.05373c-1.936-0.04119-3.2541 1.0674-3.9687 2.0882-0.10387 0.14865-0.73428 1.1283-0.73428 1.1283s2.5986-1.9288 4.103 1.0244l8.1308 15.955-3.1914 1.6262a1.7927 1.7927 0 0 0 0.26148 3.2989l14.453 4.6958a1.7873 1.7873 0 0 0 2.2548-1.1498l4.6958-14.455a1.782 1.782 0 0 0-0.53907-1.9145 1.7873 1.7873 0 0 0-1.9772-0.23282l-3.1914 1.6262-6.5047-12.766c-0.30983-0.60533-0.93128-0.97964-1.5115-0.97964z" fill="#fff"/><path d="m22.914 58.745c0.32416-0.53191 0.91337-0.87756 1.5796-0.85786l14.614 0.0072c0.99218 0.03045 1.8088 0.75219 1.7838 1.7408l-0.02686 10.378a3.1538 3.1538 0 0 1-0.36177 1.1713 1.7784 1.7784 0 0 1-1.5939 0.82562l-10.729-0.01433-3.5693-1.8232c-0.9868-0.03045-0.91696-2.57-0.89188-3.5568l-1.062-6.9918a1.7587 1.7587 0 0 1 0.25968-0.87935" fill="#ddd"/><path d="m37.398 36.462a1.8124 1.8124 0 0 0-0.35819 0.04836l-14.766 3.5926a1.7999 1.7999 0 0 0-1.3468 1.465 1.7999 1.7999 0 0 0 0.83995 1.8088l3.0607 1.8608-7.4467 12.237c-0.35281 0.58026-0.34923 1.3074-0.04119 1.8017l6.4903 10.423c0.98501 1.6656 2.6201 2.21 3.8684 2.2781 0.18088 0.01075 1.3432 0.03403 1.3432 0.03403s-3.0016-1.1999-1.2823-4.0296l9.3075-15.3 3.0607 1.8626a1.7945 1.7945 0 0 0 2.4572-0.59996 1.7856 1.7856 0 0 0 0.21312-1.3557l-3.5944-14.764a1.7873 1.7873 0 0 0-1.8053-1.3647z" fill="#fff"/></svg>
