<?xml version="1.0" encoding="UTF-8"?>
<svg width="138.02" height="138.02" version="1.1" viewBox="0 0 138.02121 138.02119" xmlns="http://www.w3.org/2000/svg" xmlns:cc="http://creativecommons.org/ns#" xmlns:dc="http://purl.org/dc/elements/1.1/" xmlns:rdf="http://www.w3.org/1999/02/22-rdf-syntax-ns#">
 <metadata>
  <rdf:RDF>
   <cc:Work rdf:about="">
    <dc:format>image/svg+xml</dc:format>
    <dc:type rdf:resource="http://purl.org/dc/dcmitype/StillImage"/>
    <dc:title/>
    <cc:license rdf:resource="http://creativecommons.org/licenses/by-sa/4.0/"/>
    <dc:creator>
     <cc:Agent>
      <dc:title>Tobias Zwick</dc:title>
     </cc:Agent>
    </dc:creator>
   </cc:Work>
   <cc:License rdf:about="http://creativecommons.org/licenses/by-sa/4.0/">
    <cc:permits rdf:resource="http://creativecommons.org/ns#Reproduction"/>
    <cc:permits rdf:resource="http://creativecommons.org/ns#Distribution"/>
    <cc:requires rdf:resource="http://creativecommons.org/ns#Notice"/>
    <cc:requires rdf:resource="http://creativecommons.org/ns#Attribution"/>
    <cc:permits rdf:resource="http://creativecommons.org/ns#DerivativeWorks"/>
    <cc:requires rdf:resource="http://creativecommons.org/ns#ShareAlike"/>
   </cc:License>
  </rdf:RDF>
 </metadata>
 <g id="parking_fee" transform="rotate(30 -150.16 884.63)">
  <path d="m-304.16 68.698c0 35.346-28.654 64-64 64-35.346 0-64-28.654-64-64 0-35.346 28.654-64 64-64 35.346 0 64 28.654 64 64" fill="#fd5" stroke-width=".2"/>
  <g stroke-width="8">
   <rect transform="rotate(-30)" x="-389.76" y="-160.59" width="72" height="80" rx="8.472" ry="8.472" fill="none" stroke="#000" stroke-opacity=".2" style="paint-order:normal"/>
   <rect transform="rotate(-30)" x="-389.76" y="-164.59" width="72" height="80" rx="8.472" ry="8.472" fill="#495aad" stroke="#fff" stroke-opacity=".98995" style="paint-order:normal"/>
   <path d="m-369.05 92.306-20-34.641 10.392-6s10.392-6 16.392 4.3923-4.3923 16.392-4.3923 16.392l-10.392 6" fill="none" stroke="#fff" stroke-linecap="square"/>
  </g>
  <path d="m-344.81 50.868c-1.4951 20.606-7.931 41.028-18.867 59.63 9.9312 2.1359 19.923 4.3733 29.914 6.6127 10.936-18.602 17.37-39.022 18.866-59.629-9.991-2.2394-19.921-4.3743-29.912-6.6137z" fill-opacity=".2" stroke-width="1.1957"/>
  <g transform="matrix(1.0355 -.59783 .59783 1.0355 -391.61 70.5)">
   <path d="m22.4 54.6c-6.3-5.8-12.6-11.6-18.9-17.3 15.7-8.9 28.9-21 38.6-35.3 6.3 5.8 12.6 11.5 18.9 17.3-9.7 14.3-22.9 26.4-38.6 35.3" fill="#83bf4f"/>
   <g fill="#699635">
    <path d="m20.8 50.8c-4.2-3.8-8.4-7.7-12.6-11.5 0.3-0.2 0.5-0.3 0.8-0.5 0.8-0.5 1-1.4 0.3-2.1l-0.6-0.6c12.7-7.8 23.7-17.8 32.3-29.4l0.6 0.6c0.7 0.6 1.7 0.5 2.3-0.2 0.2-0.2 0.3-0.5 0.5-0.7 4.2 3.8 8.4 7.7 12.6 11.5-0.2 0.2-0.3 0.5-0.5 0.7-0.6 0.8-0.5 1.9 0.2 2.6l0.6 0.6c-8.6 11.5-19.6 21.5-32.3 29.3l-0.6-0.6c-0.7-0.6-1.9-0.7-2.8-0.2-0.3 0.2-0.5 0.3-0.8 0.5m-9.9-11.4c3.4 3.1 6.8 6.2 10.3 9.4 1.3-0.4 2.8-0.3 4 0.3 11.6-7.4 21.7-16.6 29.8-27.3-0.7-1.1-0.8-2.5-0.3-3.7-3.4-3.1-6.8-6.2-10.3-9.4-0.9 0.8-2.2 0.9-3.3 0.3-8.1 10.8-18.2 20-29.8 27.4 0.6 1 0.5 2.2-0.4 3"/>
    <path d="m20 37.3c1.1-0.4 2.3-0.3 3.1 0.4-0.5 0.4-1.1 0.8-1.6 1.2-0.2-0.2-0.7-0.2-0.9 0-0.3 0.2-0.4 0.5-0.1 0.7 0.2 0.2 0.7 0.2 1 0 1.2-0.8 2.9-0.9 3.8 0 0.7 0.7 0.8 1.7 0.1 2.5 0.2 0.2 0.4 0.3 0.6 0.5-0.5 0.3-1 0.7-1.5 1-0.2-0.2-0.4-0.4-0.6-0.5-1.1 0.3-2.3 0.2-3-0.5 0.6-0.4 1.1-0.7 1.7-1.1 0.2 0.2 0.7 0.2 1 0s0.3-0.5 0.1-0.7-0.6-0.2-0.9 0c-0.7 0.5-1.6 0.7-2.4 0.6-0.6-0.1-1.1-0.3-1.5-0.6-0.7-0.7-0.7-1.6-0.1-2.4-0.2-0.1-0.3-0.3-0.5-0.5 0.5-0.3 1-0.7 1.5-1-0.1 0.1 0.1 0.2 0.2 0.4"/>
    <path d="m43.2 15.9c0.9-0.6 2-0.6 2.7 0.1l-1.2 1.5c-0.2-0.2-0.6-0.2-0.8 0.1s-0.2 0.7 0 0.9 0.6 0.2 0.8-0.1c0.9-1.1 2.4-1.3 3.3-0.5 0.7 0.7 0.9 1.8 0.5 2.8 0.2 0.2 0.4 0.3 0.6 0.5-0.4 0.5-0.7 0.9-1.1 1.4-0.2-0.2-0.4-0.4-0.6-0.5-0.9 0.5-1.9 0.5-2.6-0.2 0.4-0.5 0.9-1 1.3-1.5 0.2 0.2 0.6 0.2 0.8-0.1s0.2-0.7 0-0.9-0.6-0.2-0.8 0.1c-0.5 0.6-1.3 1-2 1-0.5 0-1-0.2-1.4-0.5-0.7-0.7-0.9-1.7-0.5-2.7-0.2-0.1-0.3-0.3-0.5-0.5 0.4-0.4 0.8-0.9 1.1-1.4 0 0.2 0.2 0.3 0.4 0.5"/>
    <path d="m40.2 35.5c-3.2 2.9-8.6 2.8-11.7 0-3.1-2.9-2.9-7.4 0.3-10.3s8.2-3.2 11.3-0.3c3.2 2.8 3.3 7.7 0.1 10.6"/>
   </g>
  </g>
 </g>
</svg>
