<?xml version="1.0" encoding="UTF-8"?>
<svg width="138" height="138" version="1.1" viewBox="0 0 138 138" xmlns="http://www.w3.org/2000/svg" xmlns:cc="http://creativecommons.org/ns#" xmlns:dc="http://purl.org/dc/elements/1.1/" xmlns:rdf="http://www.w3.org/1999/02/22-rdf-syntax-ns#">
 <metadata>
  <rdf:RDF>
   <cc:Work rdf:about="">
    <dc:format>image/svg+xml</dc:format>
    <dc:type rdf:resource="http://purl.org/dc/dcmitype/StillImage"/>
    <dc:title/>
    <cc:license rdf:resource="http://creativecommons.org/licenses/by-sa/4.0/"/>
    <dc:creator>
     <cc:Agent>
      <dc:title>Tobias Zwick</dc:title>
     </cc:Agent>
    </dc:creator>
   </cc:Work>
   <cc:License rdf:about="http://creativecommons.org/licenses/by-sa/4.0/">
    <cc:permits rdf:resource="http://creativecommons.org/ns#Reproduction"/>
    <cc:permits rdf:resource="http://creativecommons.org/ns#Distribution"/>
    <cc:requires rdf:resource="http://creativecommons.org/ns#Notice"/>
    <cc:requires rdf:resource="http://creativecommons.org/ns#Attribution"/>
    <cc:permits rdf:resource="http://creativecommons.org/ns#DerivativeWorks"/>
    <cc:requires rdf:resource="http://creativecommons.org/ns#ShareAlike"/>
   </cc:License>
  </rdf:RDF>
 </metadata>
 <g transform="translate(-1603.1 -270.42)">
  <circle class="st0" cx="1672.1" cy="339.42" r="64" fill="#fd5"/>
  <path d="m1672 298.78c-9.6406 0-19.282 0.68721-24.791 2.0644-7.8447 1.9612-11.584 17.339-13.023 25.396-0.6229-0.37641-1.3454-0.60547-2.127-0.60547h-5.5078c-2.2834 0-4.1328 1.8474-4.1328 4.1309s1.8494 4.1328 4.1328 4.1328h3.0703c-1.6876 3.2633-1.6933 8.2637-1.6933 8.2637v35.809c0 3.0409 2.4669 5.5078 5.5078 5.5078h8.2637c3.041 0 5.5097-2.4669 5.5097-5.5078v-1.1133c7.4765 1.1038 14.637 1.1133 24.791 1.1133 10.154 0 17.313-8e-3 24.789-1.1113v1.1113c0 3.0409 2.4689 5.5078 5.5097 5.5078h8.2637c3.041 0 5.5078-2.4669 5.5078-5.5078v-35.809c0-4.082-0.7569-6.646-1.709-8.2637h3.086c2.2807 0 4.1328-1.8494 4.1328-4.1328s-1.8521-4.1309-4.1328-4.1309h-5.5078c-0.7802 0-1.5023 0.22947-2.125 0.60547-1.4386-8.0571-5.1787-23.435-13.025-25.396-5.5089-1.3772-15.148-2.0644-24.789-2.0644z" fill-opacity=".2"/>
  <g transform="matrix(2.7545 0 0 -2.7545 1619.6 384.86)">
   <g transform="translate(35,4)">
    <path d="m0 0c0-1.104-0.896-2-2-2h-3c-1.104 0-2 0.896-2 2v8c0 1.104 0.896 2 2 2h3c1.104 0 2-0.896 2-2z" fill="#555"/>
   </g>
   <g transform="translate(10,4)">
    <path d="m0 0c0-1.104-0.896-2-2-2h-3c-1.104 0-2 0.896-2 2v8c0 1.104 0.896 2 2 2h3c1.104 0 2-0.896 2-2z" fill="#555"/>
   </g>
   <g transform="translate(10,32)">
    <path d="m18 0c3.881-0.97 5-11 5-11s2 0 2-4v-8s-0.119-3.03-4-4c-4-1-7-1-12-1s-8 0-12 1c-3.88 0.97-4 4-4 4v8s0 4 2 4c0 0 1.12 10.03 5 11 4 1 14 1 18 0z" fill="#3b88c3"/>
   </g>
   <g transform="translate(19,22)">
    <path d="m0 0c3.905 0 8.623-0.2 12-0.562l-1 5.562c-1 3-7 3-11 3s-10 0-11-3l-1-5.562c3.377 0.362 8.095 0.562 12 0.562" fill="#bbddf5"/>
   </g>
   <g transform="translate(6,21.5)">
    <path d="m-1.5-1.5h-2c-0.829 0-1.5 0.671-1.5 1.5s0.671 1.5 1.5 1.5h2c0.829 0 1.5-0.671 1.5-1.5s-0.671-1.5-1.5-1.5z" fill="#3b88c3"/>
   </g>
   <g transform="translate(32,21.5)">
    <path d="m1.5-1.5h2c0.828 0 1.5 0.671 1.5 1.5s-0.672 1.5-1.5 1.5h-2c-0.828 0-1.5-0.671-1.5-1.5s0.672-1.5 1.5-1.5z" fill="#3b88c3"/>
   </g>
   <path d="m12 14c0-1.657-1.343-3-3-3h-1c-1.657 0-3 1.343-3 3s1.343 3 3 3h1c1.657 0 3-1.343 3-3" fill="#fff"/>
   <path d="m33 14c0-1.657-1.344-3-3-3h-1c-1.656 0-3 1.343-3 3s1.344 3 3 3h1c1.656 0 3-1.343 3-3" fill="#fff"/>
   <g transform="matrix(-.96593 .25882 .25882 .96593 3.6144 15.962)">
    <path d="m-0.833 0.445c-1.742 2.614-6.319 3.565-6.365 3.575-0.541 0.109-0.892 0.636-0.783 1.177s0.632 0.891 1.176 0.783c0.221-0.043 5.431-1.119 7.636-4.425 0.306-0.46 0.182-1.08-0.277-1.387-0.171-0.113-0.364-0.168-0.554-0.168-0.323 0-0.64 0.156-0.833 0.445z" fill="#269"/>
   </g>
   <g transform="matrix(-.96593 -.25882 -.25882 .96593 34.175 15.832)">
    <path d="M -0.554,0.168 C -1.014,0.475 -1.138,1.095 -0.831,1.555 1.373,4.861 6.584,5.937 6.805,5.98 7.345,6.086 7.872,5.738 7.98,5.197 8.09,4.656 7.739,4.129 7.198,4.02 7.152,4.01 2.575,3.059 0.833,0.445 0.641,0.156 0.323,0 0,0 -0.19,0 -0.383,0.055 -0.554,0.168 Z" fill="#269"/>
   </g>
   <g transform="translate(19,8)">
    <path d="m-13.707 1.293c-0.391 0.391-0.391 1.023 0 1.414 0 0 9.0434 3.0325 13.763 3.0745 4.7196 0.04199 13.651-3.0745 13.651-3.0745 0.391-0.391 0.391-1.023 0-1.414-1.068-1.068-7.988 2.4885-13.651 2.4885-5.663 0-12.695-3.5565-13.763-2.4885z" fill="#55acee"/>
   </g>
   <g transform="translate(26,7.5)">
    <path d="m-7-2.5c-3.866 0-7.0461 2.7401-7.0461 4.2401 0 0.828 3.2217 0.42118 7.0877 0.42118 3.866 0 6.9123 0.40682 6.9123-0.42118 0-1.5-3.0879-4.2401-6.9539-4.2401z" fill="#269"/>
   </g>
   <path transform="scale(1,-1)" d="m5.4329-16.714-1.4195-3.7685-3.5922-1.2433 3.7685-1.4195 1.2433-3.5922 1.4195 3.7685 3.5922 1.2433-3.7685 1.4195z" fill-opacity=".2"/>
   <path transform="scale(1,-1)" d="m14.525-17.671-2.5392-7.3592-7.0411-2.2212 7.3592-2.5392 2.2212-7.0411 2.5392 7.3592 7.0411 2.2212-7.3592 2.5392z" fill-opacity=".2"/>
   <path transform="scale(1,-1)" d="m5.5-17.751-1.4195-3.7685-3.5922-1.2433 3.7685-1.4195 1.2433-3.5922 1.4195 3.7685 3.5922 1.2433-3.7685 1.4195z" fill="#feffd6" stroke="#89dfe2" stroke-linejoin="round" stroke-width="1.0891"/>
   <path transform="scale(1,-1)" d="m14.592-18.708-2.5392-7.3592-7.0411-2.2212 7.3592-2.5392 2.2212-7.0411 2.5392 7.3592 7.0411 2.2212-7.3592 2.5392z" fill="#feffd6" stroke="#89dfe2" stroke-linejoin="round" stroke-width="1.0891"/>
  </g>
 </g>
</svg>
