<?xml version="1.0" encoding="UTF-8"?>
<svg width="138.02" height="138.07" version="1.1" viewBox="0 0 138.02121 138.06923" xmlns="http://www.w3.org/2000/svg" xmlns:cc="http://creativecommons.org/ns#" xmlns:dc="http://purl.org/dc/elements/1.1/" xmlns:rdf="http://www.w3.org/1999/02/22-rdf-syntax-ns#">
 <metadata>
  <rdf:RDF>
   <cc:Work rdf:about="">
    <dc:format>image/svg+xml</dc:format>
    <dc:type rdf:resource="http://purl.org/dc/dcmitype/StillImage"/>
    <dc:title/>
    <cc:license rdf:resource="http://creativecommons.org/licenses/by-sa/4.0/"/>
    <dc:creator>
     <cc:Agent>
      <dc:title>Tobias Zwick</dc:title>
     </cc:Agent>
    </dc:creator>
   </cc:Work>
   <cc:License rdf:about="http://creativecommons.org/licenses/by-sa/4.0/">
    <cc:permits rdf:resource="http://creativecommons.org/ns#Reproduction"/>
    <cc:permits rdf:resource="http://creativecommons.org/ns#Distribution"/>
    <cc:requires rdf:resource="http://creativecommons.org/ns#Notice"/>
    <cc:requires rdf:resource="http://creativecommons.org/ns#Attribution"/>
    <cc:permits rdf:resource="http://creativecommons.org/ns#DerivativeWorks"/>
    <cc:requires rdf:resource="http://creativecommons.org/ns#ShareAlike"/>
   </cc:License>
  </rdf:RDF>
 </metadata>
 <g id="street_surface" transform="rotate(30 -158.9 881.99)">
  <path d="m-304 64c0 35.346-28.654 64-64 64-35.346 0-64-28.654-64-64s28.654-64 64-64c35.346 0 64 28.654 64 64" fill="#fd5" stroke-width=".2"/>
  <path d="m-332.54 117.43c2.8261-1.8368 5.4684-3.9609 7.9627-6.2081l0.0774-94.108c-2.4946-2.2475-4.3286-4.089-8.069-5.7337 0 0 0.10064 106.17 0.0288 106.05z" fill-opacity=".2" stroke-width=".2"/>
  <g>
   <g stroke-width=".2">
    <path d="m-367.99 0.03494c-11.665 0-22.59 3.1359-32.008 8.5879v110.82c9.4177 5.452 20.343 8.5879 32.008 8.5879 11.644 0 22.551-3.1248 31.957-8.5586v-110.88c-9.4062-5.4338-20.313-8.5586-31.957-8.5586z" fill="#999"/>
    <path d="m-336 8.5271v110.83c2.8083-1.6252 5.4826-3.4538 8-5.4727v-99.887c-2.5174-2.0189-5.1917-3.8474-8-5.4727z" fill="#fff"/>
    <path d="m-400 8.5271c-2.8083 1.6252-5.4826 3.4538-8 5.4727v99.887c2.5174 2.0189 5.1917 3.8474 8 5.4727z" fill="#fff"/>
   </g>
   <circle cx="-385.98" cy="25.954" r="6" fill="#bbb" style="paint-order:stroke fill markers"/>
   <circle cx="-367.38" cy="15.57" r="6" fill="#bbb" style="paint-order:stroke fill markers"/>
   <circle cx="-347" cy="48.429" r="6" fill="#ccc" style="paint-order:stroke fill markers"/>
   <circle cx="-379.73" cy="46.475" r="6" fill="#aaa" style="paint-order:stroke fill markers"/>
   <circle cx="-365.88" cy="75.545" r="6" fill="#aaa" style="paint-order:stroke fill markers"/>
  </g>
  <g fill="#ccc">
   <circle cx="-386.54" cy="98.242" r="6" style="paint-order:stroke fill markers"/>
   <circle cx="-374.65" cy="108.94" r="6" style="paint-order:stroke fill markers"/>
   <circle cx="-350.52" cy="97.427" r="6" style="paint-order:stroke fill markers"/>
  </g>
  <circle cx="-388.61" cy="70.155" r="6" fill="#bbb" style="paint-order:stroke fill markers"/>
  <g fill="#aaa">
   <circle cx="-349.44" cy="24.062" r="6" style="paint-order:stroke fill markers"/>
   <circle cx="-349.04" cy="72.762" r="6" style="paint-order:stroke fill markers"/>
   <circle cx="-355.62" cy="119.37" r="6" style="paint-order:stroke fill markers"/>
  </g>
  <g>
   <circle cx="-354.89" cy="29.871" r="6" fill="#bbb" style="paint-order:stroke fill markers"/>
   <circle cx="-358.56" cy="61.136" r="6" fill="#bbb" style="paint-order:stroke fill markers"/>
   <circle cx="-377.65" cy="64.741" r="6" fill="#ccc" style="paint-order:stroke fill markers"/>
  </g>
  <g fill="#bbb">
   <circle cx="-374.32" cy="90.308" r="6" style="paint-order:stroke fill markers"/>
   <circle cx="-359" cy="104.76" r="6" style="paint-order:stroke fill markers"/>
   <circle cx="-389.32" cy="115.35" r="6" style="paint-order:stroke fill markers"/>
  </g>
  <g>
   <circle cx="-389.61" cy="40.727" r="6" fill="#ccc" style="paint-order:stroke fill markers"/>
   <circle cx="-378.32" cy="9.1431" r="6" fill="#aaa" style="paint-order:stroke fill markers"/>
   <circle cx="-364.57" cy="44.408" r="6" fill="#ccc" style="paint-order:stroke fill markers"/>
   <circle cx="-372" cy="32" r="4" fill="#bbb" style="paint-order:stroke fill markers"/>
   <circle cx="-357.81" cy="7.5387" r="4" fill="#bbb" style="paint-order:stroke fill markers"/>
   <circle cx="-344.86" cy="36.749" r="4" fill="#777" style="paint-order:stroke fill markers"/>
   <circle cx="-371.4" cy="54.606" r="4" fill="#aaa" style="paint-order:stroke fill markers"/>
   <circle cx="-385.61" cy="51.338" r="4" fill="#bbb" style="paint-order:stroke fill markers"/>
   <circle cx="-386.1" cy="82.031" r="4" fill="#777" style="paint-order:stroke fill markers"/>
   <circle cx="-394.92" cy="90.034" r="4" fill="#bbb" style="paint-order:stroke fill markers"/>
   <circle cx="-379.8" cy="121.61" r="4" fill="#ccc" style="paint-order:stroke fill markers"/>
   <circle cx="-342.59" cy="106.81" r="4" fill="#bbb" style="paint-order:stroke fill markers"/>
   <circle cx="-343.12" cy="82.19" r="4" fill="#777" style="paint-order:stroke fill markers"/>
  </g>
  <g fill="#bbb">
   <circle cx="-357.08" cy="90.828" r="4" style="paint-order:stroke fill markers"/>
   <circle cx="-342.74" cy="56.291" r="4" style="paint-order:stroke fill markers"/>
   <circle cx="-391.09" cy="10.967" r="4" style="paint-order:stroke fill markers"/>
   <circle cx="-345.11" cy="12.353" r="4" style="paint-order:stroke fill markers"/>
  </g>
  <g>
   <circle cx="-366" cy="26" r="2" fill="#ccc" style="paint-order:stroke fill markers"/>
   <circle cx="-354.18" cy="40.828" r="2" fill="#aaa" style="paint-order:stroke fill markers"/>
   <circle cx="-376.27" cy="22.378" r="2" fill="#ccc" style="paint-order:stroke fill markers"/>
   <circle cx="-381.07" cy="35.369" r="2" fill="#777" style="paint-order:stroke fill markers"/>
   <circle cx="-373.05" cy="37.293" r="2" fill="#ccc" style="paint-order:stroke fill markers"/>
   <circle cx="-359.92" cy="52.076" r="2" fill="#777" style="paint-order:stroke fill markers"/>
   <circle cx="-348.98" cy="61.778" r="2" fill="#ccc" style="paint-order:stroke fill markers"/>
   <circle cx="-365.91" cy="65.375" r="2" fill="#bbb" style="paint-order:stroke fill markers"/>
   <circle cx="-359.37" cy="69.375" r="2" fill="#ccc" style="paint-order:stroke fill markers"/>
   <circle cx="-378.12" cy="82.875" r="2" fill="#ccc" style="paint-order:stroke fill markers"/>
   <circle cx="-376.36" cy="99.414" r="2" fill="#bbb" style="paint-order:stroke fill markers"/>
   <circle cx="-351.73" cy="110.13" r="2" fill="#ccc" style="paint-order:stroke fill markers"/>
   <circle cx="-372.25" cy="124.5" r="2" fill="#ccc" style="paint-order:stroke fill markers"/>
   <circle cx="-343.25" cy="120" r="2" fill="#bbb" style="paint-order:stroke fill markers"/>
   <circle cx="-394.25" cy="63.25" r="2" fill="#777" style="paint-order:stroke fill markers"/>
   <circle cx="-393.75" cy="29" r="2" fill="#bbb" style="paint-order:stroke fill markers"/>
   <circle cx="-358.75" cy="16.75" r="2" fill="#ccc" style="paint-order:stroke fill markers"/>
   <circle cx="-340.75" cy="20.75" r="2" fill="#ccc" style="paint-order:stroke fill markers"/>
   <circle cx="-397.25" cy="76.25" r="2" fill="#aaa" style="paint-order:stroke fill markers"/>
   <circle cx="-340" cy="68" r="2" fill="#ccc" style="paint-order:stroke fill markers"/>
   <circle cx="-354.25" cy="83.75" r="2" fill="#777" style="paint-order:stroke fill markers"/>
   <circle cx="-368.75" cy="100.25" r="2" fill="#aaa" style="paint-order:stroke fill markers"/>
   <circle cx="-340.5" cy="93" r="2" fill="#ccc" style="paint-order:stroke fill markers"/>
   <circle cx="-395.5" cy="48.5" r="2" fill="#aaa" style="paint-order:stroke fill markers"/>
   <circle cx="-388.77" cy="59.225" r="3.225" fill="#ccc" style="paint-order:stroke fill markers"/>
   <circle cx="-376.44" cy="74.74" r="3.225" fill="#bbb" style="paint-order:stroke fill markers"/>
   <circle cx="-364.36" cy="94.296" r="3.225" fill="#ccc" style="paint-order:stroke fill markers"/>
  </g>
  <g fill="#777">
   <circle cx="-366.67" cy="117.59" r="3.225" style="paint-order:stroke fill markers"/>
   <circle cx="-394.65" cy="105.97" r="3.225" style="paint-order:stroke fill markers"/>
   <circle cx="-344.51" cy="112.29" r="3.225" style="paint-order:stroke fill markers"/>
  </g>
  <g>
   <circle cx="-383.07" cy="16.355" r="3.225" fill="#ccc" style="paint-order:stroke fill markers"/>
   <circle cx="-364.58" cy="5.613" r="3.225" fill="#777" style="paint-order:stroke fill markers"/>
   <circle cx="-362.02" cy="82.225" r="3.225" fill="#bbb" style="paint-order:stroke fill markers"/>
  </g>
 </g>
</svg>
