<?xml version="1.0" encoding="UTF-8"?>
<svg width="138.02" height="138.04" version="1.1" viewBox="0 0 138.02121 138.0415" xmlns="http://www.w3.org/2000/svg" xmlns:cc="http://creativecommons.org/ns#" xmlns:dc="http://purl.org/dc/elements/1.1/" xmlns:rdf="http://www.w3.org/1999/02/22-rdf-syntax-ns#">
 <metadata>
  <rdf:RDF>
   <cc:Work rdf:about="">
    <dc:format>image/svg+xml</dc:format>
    <dc:type rdf:resource="http://purl.org/dc/dcmitype/StillImage"/>
    <dc:title/>
    <cc:license rdf:resource="http://creativecommons.org/licenses/by-sa/4.0/"/>
    <dc:creator>
     <cc:Agent>
      <dc:title>Tobias Zwick</dc:title>
     </cc:Agent>
    </dc:creator>
   </cc:Work>
   <cc:License rdf:about="http://creativecommons.org/licenses/by-sa/4.0/">
    <cc:permits rdf:resource="http://creativecommons.org/ns#Reproduction"/>
    <cc:permits rdf:resource="http://creativecommons.org/ns#Distribution"/>
    <cc:requires rdf:resource="http://creativecommons.org/ns#Notice"/>
    <cc:requires rdf:resource="http://creativecommons.org/ns#Attribution"/>
    <cc:permits rdf:resource="http://creativecommons.org/ns#DerivativeWorks"/>
    <cc:requires rdf:resource="http://creativecommons.org/ns#ShareAlike"/>
   </cc:License>
  </rdf:RDF>
 </metadata>
 <g id="railway" transform="rotate(30 -158.84 881.98)">
  <path d="m-304 64c0 35.346-28.654 64-64 64-35.346 0-64-28.654-64-64s28.654-64 64-64c35.346 0 64 28.654 64 64" fill="#fd5" stroke-width=".2"/>
  <path d="m-405.79 17.435-2e-3 5.9346 9.9999 4.7e-5 1.3e-4 12-9.9999-4.7e-5 5.1e-4 16.001 9.9999 4.7e-5 1.4e-4 12-9.9999-4.7e-5 -4.7e-4 15.999 9.9999 4.7e-5 1.4e-4 12-9.9999-4.7e-5 -4.8e-4 15.999 9.9999 5e-5 1.4e-4 12 60.157-1.0247-0.15611-10.976 9.9999 5e-5 4.7e-4 -15.999-9.9999-5.2e-5 -1.4e-4 -12 9.9999 5.2e-5 4.7e-4 -15.999-9.9999-5.2e-5 -1.4e-4 -12 9.9999 5.2e-5 -5e-4 -16.001-9.9999-5.2e-5 -1.4e-4 -12 9.9999 5.2e-5 0.0649-7.3994c-25.661-15.954-57.658-16.334-80.064 1.4653zm22 5.9335 35.999 5.67e-4 1.4e-4 12-35.999-5.67e-4zm-1e-3 28.002 36.001-4.13e-4 1.4e-4 12-36.001 4.13e-4zm-3.3e-4 27.999 36.001-4.13e-4 1.4e-4 12-36.001 4.12e-4zm-3.4e-4 27.999 36.001-4.1e-4 1.4e-4 12-36.001 4.1e-4z" fill-opacity=".2" stroke-width=".2"/>
  <g transform="rotate(30 -367.81 64.318)">
   <g fill="#a07a53">
    <path d="m-374.39 127.69c2.0992 0.20783 4.2276 0.31874 6.3815 0.31875 25.962-1e-5 48.295-15.468 58.334-37.682z" stroke-width=".2"/>
    <rect transform="rotate(-30)" x="-390.67" y="-104.62" width="80" height="16" style="paint-order:markers fill stroke"/>
    <rect transform="rotate(-30)" x="-390.67" y="-132.62" width="80" height="16" style="paint-order:markers fill stroke"/>
    <rect transform="rotate(-30)" x="-390.67" y="-160.62" width="80" height="16" style="paint-order:markers fill stroke"/>
    <path d="m-417.2 23.077c-4.3585 5.2344-7.8848 11.18-10.407 17.63l2.9678 5.1403 69.282-40-2.9551-5.1184c-3.1588-0.47957-6.3931-0.72943-9.6858-0.72943-3.7005 0-7.3209 0.3318-10.849 0.93473z" stroke-width=".2"/>
   </g>
   <g shape-rendering="auto">
    <path d="m-414.24 19.856c-2.9655 2.9299-5.6204 6.3297-7.9899 10.161l56.573 97.987c5.0771-0.095 9.5783-1.0588 12.799-1.8315z" color="#000000" color-rendering="auto" dominant-baseline="auto" fill="#bbb" image-rendering="auto" solid-color="#000000" style="font-feature-settings:normal;font-variant-alternates:normal;font-variant-caps:normal;font-variant-ligatures:normal;font-variant-numeric:normal;font-variant-position:normal;isolation:auto;mix-blend-mode:normal;shape-padding:0;text-decoration-color:#000000;text-decoration-line:none;text-decoration-style:solid;text-indent:0;text-orientation:mixed;text-transform:none;white-space:normal"/>
    <path d="m-370.26 0.041318c-4.7723 0.10743-8.868 0.86954-12.852 1.7397l61.422 106.39c2.4321-2.6234 5.0327-5.5261 7.9578-10.217z" color="#000000" color-rendering="auto" dominant-baseline="auto" fill="#bbb" image-rendering="auto" solid-color="#000000" style="font-feature-settings:normal;font-variant-alternates:normal;font-variant-caps:normal;font-variant-ligatures:normal;font-variant-numeric:normal;font-variant-position:normal;isolation:auto;mix-blend-mode:normal;shape-padding:0;text-decoration-color:#000000;text-decoration-line:none;text-decoration-style:solid;text-indent:0;text-orientation:mixed;text-transform:none;white-space:normal"/>
    <path d="m-414.28 19.794c-0.97726 1.0542-1.9234 2.0684-2.8085 3.1355l60.125 104.14c1.352-0.28416 2.6192-0.45221 4.114-0.8744z" color="#000000" color-rendering="auto" dominant-baseline="auto" fill="#999" image-rendering="auto" solid-color="#000000" style="font-feature-settings:normal;font-variant-alternates:normal;font-variant-caps:normal;font-variant-ligatures:normal;font-variant-numeric:normal;font-variant-position:normal;isolation:auto;mix-blend-mode:normal;shape-padding:0;text-decoration-color:#000000;text-decoration-line:none;text-decoration-style:solid;text-indent:0;text-orientation:mixed;text-transform:none;white-space:normal"/>
    <path d="m-370.26 0.041318c-1.5454-0.010027-2.979 0.17347-4.4339 0.32025l58.459 101.25c0.81989-1.1376 1.6163-2.1391 2.5032-3.6644z" color="#000000" color-rendering="auto" dominant-baseline="auto" fill="#999" image-rendering="auto" solid-color="#000000" style="font-feature-settings:normal;font-variant-alternates:normal;font-variant-caps:normal;font-variant-ligatures:normal;font-variant-numeric:normal;font-variant-position:normal;isolation:auto;mix-blend-mode:normal;shape-padding:0;text-decoration-color:#000000;text-decoration-line:none;text-decoration-style:solid;text-indent:0;text-orientation:mixed;text-transform:none;white-space:normal"/>
   </g>
  </g>
 </g>
</svg>
