<?xml version="1.0" encoding="UTF-8"?>
<svg width="138" height="138" version="1.1" viewBox="0 0 138.00002 138" xmlns="http://www.w3.org/2000/svg" xmlns:cc="http://creativecommons.org/ns#" xmlns:dc="http://purl.org/dc/elements/1.1/" xmlns:rdf="http://www.w3.org/1999/02/22-rdf-syntax-ns#">
 <metadata>
  <rdf:RDF>
   <cc:Work rdf:about="">
    <dc:format>image/svg+xml</dc:format>
    <dc:type rdf:resource="http://purl.org/dc/dcmitype/StillImage"/>
    <dc:title/>
    <cc:license rdf:resource="http://creativecommons.org/licenses/by-sa/4.0/"/>
    <dc:creator>
     <cc:Agent>
      <dc:title>Tobias Zwick</dc:title>
     </cc:Agent>
    </dc:creator>
   </cc:Work>
   <cc:License rdf:about="http://creativecommons.org/licenses/by-sa/4.0/">
    <cc:permits rdf:resource="http://creativecommons.org/ns#Reproduction"/>
    <cc:permits rdf:resource="http://creativecommons.org/ns#Distribution"/>
    <cc:requires rdf:resource="http://creativecommons.org/ns#Notice"/>
    <cc:requires rdf:resource="http://creativecommons.org/ns#Attribution"/>
    <cc:permits rdf:resource="http://creativecommons.org/ns#DerivativeWorks"/>
    <cc:requires rdf:resource="http://creativecommons.org/ns#ShareAlike"/>
   </cc:License>
  </rdf:RDF>
 </metadata>
 <g id="bicycle" transform="translate(722 149)">
  <path d="m-589-80c0 35.346-28.654 64-64 64-35.346 0-64-28.654-64-64 0-35.346 28.654-64 64-64 35.346 0 64 28.654 64 64" fill="#529add" stroke-width=".2"/>
  <g transform="matrix(1.7249 0 0 1.7249 -310.93 -799.36)" fill="none" stroke="#000" stroke-linecap="round" stroke-linejoin="round" stroke-opacity=".2">
   <path d="m-216 424 8.3347-24.815h8" stroke-width="3.4784"/>
   <path d="m-196 424 5-21" stroke-width="2.8987"/>
   <path d="m-191 403 4.8737-0.01" stroke-width="3.4784"/>
   <path d="m-210 407 14 17h16l-11-17h-19" stroke-width="3.4784"/>
   <circle cx="-180.06" cy="424.06" r="11.077" stroke-width="4.6379" style="paint-order:normal"/>
   <circle cx="-216.16" cy="424.06" r="11.077" stroke-width="4.6379" style="paint-order:normal"/>
  </g>
  <g transform="matrix(1.7249 0 0 1.7249 -310.78 -802.88)" fill="none" stroke-linecap="round" stroke-linejoin="round">
   <circle cx="-216.16" cy="424.06" r="11.077" stroke="#555" stroke-width="4.6379" style="paint-order:normal"/>
   <path d="m-196 424 5-21" stroke="#ffe420" stroke-width="3.4784"/>
   <path d="m-193.77 402.85 7.641 0.14019" stroke="#555" stroke-width="3.4784"/>
   <circle cx="-180.06" cy="424.06" r="11.077" stroke="#555" stroke-width="4.6379" style="paint-order:normal"/>
   <path d="m-210 407 14 17h16l-11-17h-19" stroke="#ffe420" stroke-width="3.4784"/>
   <path d="m-216 424 8.3347-24.815 7.5209-0.0543" stroke="#ffe420" stroke-width="3.4784"/>
  </g>
 </g>
</svg>
