<?xml version="1.0" encoding="UTF-8"?>
<svg width="138" height="138" version="1.1" viewBox="0 0 138.00002 138" xmlns="http://www.w3.org/2000/svg" xmlns:cc="http://creativecommons.org/ns#" xmlns:dc="http://purl.org/dc/elements/1.1/" xmlns:rdf="http://www.w3.org/1999/02/22-rdf-syntax-ns#">
 <metadata>
  <rdf:RDF>
   <cc:Work rdf:about="">
    <dc:format>image/svg+xml</dc:format>
    <dc:type rdf:resource="http://purl.org/dc/dcmitype/StillImage"/>
    <dc:title/>
    <cc:license rdf:resource="http://creativecommons.org/licenses/by-sa/4.0/"/>
    <dc:creator>
     <cc:Agent>
      <dc:title>Tobias Zwick</dc:title>
     </cc:Agent>
    </dc:creator>
   </cc:Work>
   <cc:License rdf:about="http://creativecommons.org/licenses/by-sa/4.0/">
    <cc:permits rdf:resource="http://creativecommons.org/ns#Reproduction"/>
    <cc:permits rdf:resource="http://creativecommons.org/ns#Distribution"/>
    <cc:requires rdf:resource="http://creativecommons.org/ns#Notice"/>
    <cc:requires rdf:resource="http://creativecommons.org/ns#Attribution"/>
    <cc:permits rdf:resource="http://creativecommons.org/ns#DerivativeWorks"/>
    <cc:requires rdf:resource="http://creativecommons.org/ns#ShareAlike"/>
   </cc:License>
  </rdf:RDF>
 </metadata>
 <g id="phone" transform="translate(293.06 -427.03)">
  <path d="m-160.06 496.03c0 35.346-28.654 64-64 64-35.346 0-64-28.654-64-64s28.654-64 64-64c35.346 0 64 28.654 64 64" fill="#e9a76f" stroke-width=".2"/>
  <path d="m-246.48 455c-15.415 2.557-17.733 11.529-17.826 11.901 7.7886 33.637 47.598 65.845 71.582 73.348 7.3363-0.0781 13.439-16.624 13.782-18.519-2.8126-5.5452-14.774-14.241-20.965-13.782-4.1538 3.5469-9.8915 7.3283-12.367 7.7183-16.597-8.1156-25.864-23.686-26.214-26.64-0.20343-1.66 8.7318-9.3489 8.3532-13.349-3.626-9.1243-9.6328-17.133-16.345-20.677z" fill-opacity=".2"/>
  <path d="m-246.57 451.05c-15.415 2.557-17.733 11.529-17.826 11.901 7.7886 33.637 47.598 65.845 71.582 73.348 7.3363-0.0781 13.439-16.624 13.782-18.519-2.8126-5.5452-14.774-14.241-20.965-13.782-4.1538 3.5469-9.8915 7.3283-12.367 7.7183-16.597-8.1156-25.864-23.686-26.214-26.64-0.20343-1.66 8.7318-9.3489 8.3532-13.349-3.626-9.1243-9.6328-17.133-16.345-20.677z" fill="#fff"/>
 </g>
</svg>
