<?xml version="1.0" encoding="UTF-8"?>
<svg width="138" height="138" version="1.1" viewBox="0 0 138.00002 137.99999" xmlns="http://www.w3.org/2000/svg" xmlns:cc="http://creativecommons.org/ns#" xmlns:dc="http://purl.org/dc/elements/1.1/" xmlns:rdf="http://www.w3.org/1999/02/22-rdf-syntax-ns#">
 <metadata>
  <rdf:RDF>
   <cc:Work rdf:about="">
    <dc:format>image/svg+xml</dc:format>
    <dc:type rdf:resource="http://purl.org/dc/dcmitype/StillImage"/>
    <dc:title/>
    <cc:license rdf:resource="http://creativecommons.org/licenses/by-sa/4.0/"/>
    <dc:creator>
     <cc:Agent>
      <dc:title>Tobias Zwick</dc:title>
     </cc:Agent>
    </dc:creator>
   </cc:Work>
   <cc:License rdf:about="http://creativecommons.org/licenses/by-sa/4.0/">
    <cc:permits rdf:resource="http://creativecommons.org/ns#Reproduction"/>
    <cc:permits rdf:resource="http://creativecommons.org/ns#Distribution"/>
    <cc:requires rdf:resource="http://creativecommons.org/ns#Notice"/>
    <cc:requires rdf:resource="http://creativecommons.org/ns#Attribution"/>
    <cc:permits rdf:resource="http://creativecommons.org/ns#DerivativeWorks"/>
    <cc:requires rdf:resource="http://creativecommons.org/ns#ShareAlike"/>
   </cc:License>
  </rdf:RDF>
 </metadata>
 <defs>
  <clipPath id="clipPath16-1-4-4">
   <path d="m0 36h36v-36h-36z"/>
  </clipPath>
  <clipPath id="clipPath32-8-7">
   <path d="m11.815 23.013c-7.615-7.616-13.08-20.153-11.313-21.92 1.768-1.768 14.305 3.698 21.92 11.313 7.616 7.615 7.562 11.53 4.243 14.85-1.328 1.328-2.752 2.133-4.47 2.133-2.575 0-5.812-1.809-10.38-6.376"/>
  </clipPath>
 </defs>
 <g id="restaurant_veg" transform="translate(293.06 -427.03)">
  <path d="m-160.06 496.03c0 35.346-28.654 64-64 64-35.346 0-64-28.654-64-64s28.654-64 64-64c35.346 0 64 28.654 64 64" fill="#e9a76f" stroke-width=".2"/>
  <path d="m-224.04 446.11c-28.702 0-51.971 23.269-51.971 51.971s23.269 51.971 51.971 51.971 51.971-23.269 51.971-51.971-23.269-51.971-51.971-51.971z" fill-opacity=".2"/>
  <g transform="matrix(2.4112 0 0 -2.4112 -274.84 541.45)">
   <g transform="matrix(1.1974 0 0 1.1974 -.47167 -1.8948)">
    <g transform="translate(36,18)">
     <path d="m0 0c0-9.941-8.059-18-18-18s-18 8.059-18 18 8.059 18 18 18 18-8.059 18-18" fill="#fff"/>
    </g>
    <g transform="matrix(1.1034 0 0 1.1006 31.074 18)">
     <path d="m0 0c0-6.628-5.372-12-12-12s-12 5.372-12 12 5.372 12 12 12 12-5.372 12-12" fill="#ccd6dd"/>
    </g>
    <g transform="matrix(1.0555 0 0 1.061 29.415 18)" fill="#fff">
     <path d="m0 0c0-6.075-4.925-11-11-11-6.076 0-11 4.925-11 11 0 6.076 4.924 11 11 11 6.075 0 11-4.924 11-11" fill="#fff"/>
    </g>
   </g>
  </g>
  <path d="m-237.74 461.22c-2.1812 0.2681-3.4492 6.1881-3.4492 8.1465-4.2748-7.1213-16.76-8.8813-15.336-7.457-1.4243-1.4243-3.4e-4 11.397 7.123 15.67-2.8485 0-14.245 2.8483-4.2734 7.1211 3.5468 1.5208 5.9798 2.3003 7.8125 2.6992 0.0285 3.1144 1.3905 6.7201 4.4473 11.084 0.40785 0.5977 0.83734 1.19 1.291 1.7754 0.0506 0.0658 0.10683 0.1331 0.1582 0.1992 0.19784 0.2508 0.39936 0.5006 0.60937 0.7481 1.7308 2.1549 3.8046 4.4686 6.3379 7.0019 2.0086 2.0084 4.1931 3.9364 6.4707 5.7735 0.8186 0.7439 1.7742 1.4522 2.7637 2.1503 14.632 10.955 32.014 17.775 34.922 14.865 2.1055-2.1056-0.907-11.801-6.8711-22.539 3e-3 -6e-3 7e-3 -0.0115 0.01-0.0176-0.60044-1.1208-1.2545-2.227-1.9434-3.3242-3.5544-5.9026-7.8992-11.91-12.738-16.994-0.93279-1.0222-1.9632-2.0169-3.0274-3.0039-7.5265-7.2035-13.195-10.514-17.803-11.041-0.34363-1.8695-1.1416-4.4893-2.9961-8.8164-1.3359-3.1163-2.5164-4.1629-3.5078-4.0411z" fill-opacity=".2"/>
  <g transform="matrix(0 -2.0145 -2.0145 0 -186.67 528.03)">
   <g clip-path="url(#clipPath16-1-4-4)">
    <g transform="translate(31.096 27.067)">
     <path d="m0 0c3.535 2.122 4.408 8.32 3.701 7.613 0.707 0.707-5.657 0-7.778-3.536 0 1.414-1.414 7.071-3.535 2.121-2.122-4.949-1.415-5.656-1.415-7.071 0-1.414 2.829-1.414 2.829-1.414s-0.125-2.704 1.29-2.704c1.414 0 1.997-0.583 6.946 1.538 4.95 2.122-0.624 3.453-2.038 3.453" fill="#77b255"/>
    </g>
    <g transform="translate(22.422 12.406)">
     <path d="m0 0c-7.615-7.615-20.152-13.081-21.92-11.313-1.768 1.767 3.699 14.304 11.313 21.919 7.616 7.616 11.531 7.563 14.85 4.243 3.319-3.319 3.372-7.234-4.243-14.849" fill="#f4900c"/>
    </g>
   </g>
   <g clip-path="url(#clipPath32-8-7)">
    <g transform="translate(16.209,4.9121)">
     <g fill="#d67503">
      <path transform="translate(-.062527 24.548)" d="m0.95202-1.9737c2.292-4.583 3.631-4.9013 4.777-6.0463 1.146-1.146-4.7338-0.25284-7.0248 4.3312 0.72162 0.67491 1.48 1.2125 2.2478 1.7152z"/>
      <path transform="translate(-7.5479 16.477)" d="m0.6283-1.2281c2.292-4.584 3.9547-5.6469 5.0997-6.7929 1.146-1.145-4.6912-0.19206-6.9822 4.3919 0.60584 0.88115 1.2117 1.7621 1.8825 2.401z"/>
      <path transform="translate(9 8)" d="m-1.5785 0.75403c-4.582 2.291-5.2955 3.828-6.4415 4.974-1.145 1.147-0.22546-4.7789 4.3575-7.0709 0.71415 0.62618 1.4028 1.3475 2.0839 2.0969z"/>
      <path d="m-2.1622 0.99661c-4.582 2.291-4.7118 3.5854-5.8578 4.7314-1.146 1.147-1.0731-3.8489 3.5099-6.1409 0.79449 0.4256 1.58 0.88491 2.3479 1.4095z"/>
     </g>
    </g>
   </g>
  </g>
 </g>
</svg>
