<?xml version="1.0" encoding="UTF-8"?>
<svg width="138" height="138" version="1.1" viewBox="0 0 138 138" xmlns="http://www.w3.org/2000/svg" xmlns:cc="http://creativecommons.org/ns#" xmlns:dc="http://purl.org/dc/elements/1.1/" xmlns:rdf="http://www.w3.org/1999/02/22-rdf-syntax-ns#">
 <metadata>
  <rdf:RDF>
   <cc:Work rdf:about="">
    <dc:format>image/svg+xml</dc:format>
    <dc:type rdf:resource="http://purl.org/dc/dcmitype/StillImage"/>
    <dc:title/>
    <cc:license rdf:resource="http://creativecommons.org/licenses/by-sa/4.0/"/>
    <dc:creator>
     <cc:Agent>
      <dc:title>Tobias Zwick</dc:title>
     </cc:Agent>
    </dc:creator>
   </cc:Work>
   <cc:License rdf:about="http://creativecommons.org/licenses/by-sa/4.0/">
    <cc:permits rdf:resource="http://creativecommons.org/ns#Reproduction"/>
    <cc:permits rdf:resource="http://creativecommons.org/ns#Distribution"/>
    <cc:requires rdf:resource="http://creativecommons.org/ns#Notice"/>
    <cc:requires rdf:resource="http://creativecommons.org/ns#Attribution"/>
    <cc:permits rdf:resource="http://creativecommons.org/ns#DerivativeWorks"/>
    <cc:requires rdf:resource="http://creativecommons.org/ns#ShareAlike"/>
   </cc:License>
  </rdf:RDF>
 </metadata>
 <g id="apple" transform="translate(-1203 -779)">
  <path d="m1336 848c0 35.346-28.654 64-64 64s-64-28.654-64-64 28.654-64 64-64 64 28.654 64 64" fill="#b9a065" stroke-width=".2"/>
  <path d="m1257.9 803.71c-2.7074 0.11517-5.3643 1.3865-7.1367 3.668-3.151 4.0559-2.3743 9.8372 1.6816 12.988 1.2584 0.97764 3.7001 1.7055 6.4688 2.2461-12.86-0.18755-27.047 6.088-27.047 29.184 0 20.498 20.771 44.197 31.326 44.197 4.7421 0 6.2635-2.0078 9.1699-2.0078 2.7535 0 3.8323 2.0078 9.9512 2.0078 10.555 0 29.539-23.062 29.539-43.713 0-30.481-24.742-32.105-36.859-27.844 0.6189-3.7208 3.3108-12.119 14.205-12.119v-3.9766c-11.041 0-15.854 6.312-17.564 12.24-1.6899-4.7089-4.8839-12.772-7.7168-14.973-1.7745-1.3786-3.9119-1.988-6.0176-1.8984z" fill-opacity=".2" stroke-width="1.8805"/>
  <g transform="matrix(1.5297 0 0 1.5297 1224 797.07)">
   <path d="m32.007 14.993s-10.683-0.37149-13.334-2.4314c-2.6514-2.0599-3.158-5.8389-1.0981-8.4903 2.0599-2.6514 5.947-3.2165 8.5984-1.1566 2.6514 2.0599 5.8338 12.078 5.8338 12.078z" fill="#83bf4f" stroke-width="1.2293"/>
   <path d="m30.7 16.3c0-4.3 2.4-11.6 12-11.6v2.6c-8.7 0-9.4 8.2-9.4 9z" fill="#947151"/>
   <path d="m32 15.8c-8.4909-3.4223-26.779-3.8925-26.779 17.308 0 13.4 13.579 28.892 20.479 28.892 3.1 0 4.0942-1.3125 5.9942-1.3125 1.8 0 2.5058 1.3125 6.5058 1.3125 6.9 0 19.31-15.075 19.31-28.575 0-21.2-18.311-21.047-25.51-17.625z" fill="#ef4d3c"/>
  </g>
 </g>
</svg>
