<?xml version="1.0" encoding="UTF-8"?>
<svg width="138.02" height="138.02" version="1.1" viewBox="0 0 138.02121 138.02119" xmlns="http://www.w3.org/2000/svg" xmlns:cc="http://creativecommons.org/ns#" xmlns:dc="http://purl.org/dc/elements/1.1/" xmlns:rdf="http://www.w3.org/1999/02/22-rdf-syntax-ns#">
 <metadata>
  <rdf:RDF>
   <cc:Work rdf:about="">
    <dc:format>image/svg+xml</dc:format>
    <dc:type rdf:resource="http://purl.org/dc/dcmitype/StillImage"/>
    <dc:title/>
    <cc:license rdf:resource="http://creativecommons.org/licenses/by-sa/4.0/"/>
    <dc:creator>
     <cc:Agent>
      <dc:title>Tobias Zwick</dc:title>
     </cc:Agent>
    </dc:creator>
   </cc:Work>
   <cc:License rdf:about="http://creativecommons.org/licenses/by-sa/4.0/">
    <cc:permits rdf:resource="http://creativecommons.org/ns#Reproduction"/>
    <cc:permits rdf:resource="http://creativecommons.org/ns#Distribution"/>
    <cc:requires rdf:resource="http://creativecommons.org/ns#Notice"/>
    <cc:requires rdf:resource="http://creativecommons.org/ns#Attribution"/>
    <cc:permits rdf:resource="http://creativecommons.org/ns#DerivativeWorks"/>
    <cc:requires rdf:resource="http://creativecommons.org/ns#ShareAlike"/>
   </cc:License>
  </rdf:RDF>
 </metadata>
 <g id="street_name" transform="rotate(30 -158.84 881.98)">
  <path d="m-304 64c0 35.346-28.654 64-64 64-35.346 0-64-28.654-64-64s28.654-64 64-64c35.346 0 64 28.654 64 64" fill="#fd5" stroke-width=".2"/>
  <rect transform="rotate(-30)" x="-356.74" y="-176.62" width="12.176" height="112" fill="#666" style="paint-order:stroke fill markers"/>
  <path d="m-366.63 26.32-45.803 26.444-6.4755 19.006 19.698 3.8952 45.803-26.444z" fill-opacity=".2" style="paint-order:normal"/>
  <path d="m-368.68 22.776-45.803 26.444-6.4755 19.006 19.698 3.8952 45.803-26.444z" fill="#fff" style="paint-order:normal"/>
  <path d="m-378.51 79.507 45.803-26.444 19.698 3.8952-6.4755 19.006-45.803 26.444z" fill-opacity=".2" style="paint-order:normal"/>
  <path d="m-380.63 75.861 45.803-26.444 19.698 3.8952-6.4755 19.006-45.803 26.444z" fill="#fff" style="paint-order:normal"/>
 </g>
</svg>
