<?xml version="1.0" encoding="UTF-8"?>
<svg width="138.02" height="138.02" version="1.1" viewBox="0 0 138.02121 138.02121" xmlns="http://www.w3.org/2000/svg" xmlns:cc="http://creativecommons.org/ns#" xmlns:dc="http://purl.org/dc/elements/1.1/" xmlns:rdf="http://www.w3.org/1999/02/22-rdf-syntax-ns#">
 <metadata>
  <rdf:RDF>
   <cc:Work rdf:about="">
    <dc:format>image/svg+xml</dc:format>
    <dc:type rdf:resource="http://purl.org/dc/dcmitype/StillImage"/>
    <dc:title/>
    <cc:license rdf:resource="http://creativecommons.org/licenses/by-sa/4.0/"/>
    <dc:creator>
     <cc:Agent>
      <dc:title>Tobias Zwick</dc:title>
     </cc:Agent>
    </dc:creator>
   </cc:Work>
   <cc:License rdf:about="http://creativecommons.org/licenses/by-sa/4.0/">
    <cc:permits rdf:resource="http://creativecommons.org/ns#Reproduction"/>
    <cc:permits rdf:resource="http://creativecommons.org/ns#Distribution"/>
    <cc:requires rdf:resource="http://creativecommons.org/ns#Notice"/>
    <cc:requires rdf:resource="http://creativecommons.org/ns#Attribution"/>
    <cc:permits rdf:resource="http://creativecommons.org/ns#DerivativeWorks"/>
    <cc:requires rdf:resource="http://creativecommons.org/ns#ShareAlike"/>
   </cc:License>
  </rdf:RDF>
 </metadata>
 <g id="notes" transform="translate(725.06 -426.99)">
  <path d="m-600.63 528c-17.673 30.611-56.815 41.099-87.426 23.426-30.611-17.673-41.099-56.815-23.426-87.426 17.673-30.611 56.815-41.099 87.426-23.426 30.611 17.673 41.099 56.815 23.426 87.426" fill="#e45f5f" stroke-width=".2"/>
  <path d="m-656 456a47.941 36.16 0 0 0 -47.941 36.16 47.941 36.16 0 0 0 30.092 33.531l17.846 22.309 6.6894-20.07a47.941 36.16 0 0 0 41.256 -35.77 47.941 36.16 0 0 0 -47.941 -36.16z" fill-opacity=".2" style="paint-order:normal"/>
  <path d="m-656 452a47.941 36.16 0 0 0 -47.941 36.16 47.941 36.16 0 0 0 30.092 33.531l17.846 22.309 6.6894-20.07a47.941 36.16 0 0 0 41.256 -35.77 47.941 36.16 0 0 0 -47.941 -36.16z" fill="#fff" style="paint-order:normal"/>
  <g transform="matrix(.89273 0 0 1 -67.93 3.8232)" fill="#444">
   <g transform="scale(1.1097 .90118)" aria-label="?">
    <path d="m-599.03 549.55c-0.0921-3.2309 0.4447-6.2674 1.3536-9.024 2.6048-6.8391 10.145-10.442 11.321-16.571-0.15443-4.9437-3.1452-6.8979-6.3988-6.9321-3.474-0.0555-6.2628 3.2923-6.768 7.0141h-11.895c0.22936-11.606 11.031-16.487 18.663-16.694 8.4023-0.39378 17.877 6.568 18.294 16.079-0.62931 7.837-5.567 12.205-10.049 16.325-2.6919 2.2787-3.8106 6.2224-4.0198 9.8033z" fill="#444" stroke-width="1.9689px"/>
   </g>
   <ellipse cx="-658.74" cy="506.61" rx="6.5267" ry="5.5193" style="paint-order:normal"/>
  </g>
 </g>
</svg>
