<?xml version="1.0" encoding="UTF-8"?>
<svg width="138" height="138" version="1.1" viewBox="0 0 138 138" xmlns="http://www.w3.org/2000/svg" xmlns:cc="http://creativecommons.org/ns#" xmlns:dc="http://purl.org/dc/elements/1.1/" xmlns:rdf="http://www.w3.org/1999/02/22-rdf-syntax-ns#">
 <metadata>
  <rdf:RDF>
   <cc:Work rdf:about="">
    <dc:format>image/svg+xml</dc:format>
    <dc:type rdf:resource="http://purl.org/dc/dcmitype/StillImage"/>
    <dc:title/>
    <cc:license rdf:resource="http://creativecommons.org/licenses/by-sa/4.0/"/>
    <dc:creator>
     <cc:Agent>
      <dc:title>Tobias Zwick</dc:title>
     </cc:Agent>
    </dc:creator>
   </cc:Work>
   <cc:License rdf:about="http://creativecommons.org/licenses/by-sa/4.0/">
    <cc:permits rdf:resource="http://creativecommons.org/ns#Reproduction"/>
    <cc:permits rdf:resource="http://creativecommons.org/ns#Distribution"/>
    <cc:requires rdf:resource="http://creativecommons.org/ns#Notice"/>
    <cc:requires rdf:resource="http://creativecommons.org/ns#Attribution"/>
    <cc:permits rdf:resource="http://creativecommons.org/ns#DerivativeWorks"/>
    <cc:requires rdf:resource="http://creativecommons.org/ns#ShareAlike"/>
   </cc:License>
  </rdf:RDF>
 </metadata>
 <defs>
  <clipPath id="clipPath16-1-0">
   <path d="m0 38h38v-38h-38z"/>
  </clipPath>
 </defs>
 <g id="recycling" transform="translate(-1010.8 436.95)">
  <path d="m1143.8-367.95c0 35.346-28.654 64-64 64s-64-28.654-64-64 28.654-64 64-64 64 28.654 64 64" fill="#9bbe55" stroke-width=".2"/>
  <g transform="matrix(2.8749 0 0 -2.8749 1026.4 -312.87)" stroke-width=".43479">
   <g stroke-width=".43479">
    <path d="m22.562 33.07-6.0796-0.02582c-0.95859 0.01952-1.6116-0.52923-1.9654-1.0347-0.01795-0.02565-0.06998-0.10678-0.12706-0.1943l-0.0034-0.0054c-0.10581-0.16236-0.23371-0.35802-0.23371-0.35802s0.01774 0.01063 0.01903 0.01155l-2.5768-4.1652c-0.18091-0.27577-0.20759-0.61189-0.06658-0.88589 0.06738-0.13301 0.26508-0.37078 0.3981-0.45857l4.3669-2.7079c0.40968-0.26868 0.92631-0.11232 1.195 0.29824l1.3526 2.1869 1.3696-2.6876-1.5802-0.80504c-0.31834-0.16316-0.51006-0.50204-0.48168-0.85939 0.0099-0.11971 0.04233-0.23248 0.09374-0.33357 0.10557-0.20572 0.28825-0.36663 0.51698-0.44022l7.1564-2.3255c0.4655-0.15163 0.96635 0.10378 1.1162 0.5693l2.3255 7.1571c0.07447 0.22789 0.05096 0.47045-0.05367 0.67528-0.05231 0.10197-0.12379 0.19616-0.21333 0.27242-0.27402 0.2341-0.65883 0.27865-0.97894 0.11549l-1.5802-0.80504-3.2209 6.3208c-0.15336 0.29971-0.46046 0.48506-0.74864 0.48506zm-9.3079-10.288c-0.05885-0.0025-0.11858-0.01047-0.17799-0.02513l-7.3113-1.7779c-0.23322-0.05852-0.42696-0.20423-0.54759-0.40286-0.059375-0.09754-0.10091-0.20544-0.11955-0.32338-0.054958-0.3538 0.11054-0.70673 0.41646-0.89472l1.515-0.92121-3.6869-6.0599c-0.17468-0.2873-0.17301-0.64726-0.020383-0.892l3.2141-5.1618c0.4877-0.82466 1.2973-1.0934 1.9144-1.1271 0.031235-0.00183 0.12759-0.00352 0.23096-0.00611 0.19566-0.0049 0.43549-0.01087 0.43549-0.01087s-0.018261 0.00959-0.019722 0.010192l4.8969-0.00611c0.32985-0.00975 0.62979 0.14562 0.78941 0.40897 0.07715 0.12592 0.17562 0.41988 0.18004 0.5795l0.01221 5.1387c0.01242 0.48947-0.39211 0.84704-0.88249 0.86211l-2.5707 0.0014 1.5673 2.5761 1.515-0.92189c0.30682-0.18621 0.69532-0.17028 0.9844 0.04076 0.09576 0.07094 0.17451 0.15878 0.23301 0.25544 0.12059 0.19774 0.16139 0.43711 0.10463 0.67121l-1.7792 7.3106c-0.10164 0.41743-0.48157 0.69218-0.89337 0.67596zm17.167-4.3432c-0.14894 0-0.44999-0.06829-0.58832-0.1481l-4.3968-2.6604c-0.42474-0.24296-0.52036-0.7748-0.27649-1.2004l1.3349-2.1984h-3.0171v1.7738c0 0.35824-0.21524 0.68275-0.54686 0.81931-0.10988 0.04611-0.22529 0.06726-0.33969 0.06726-0.23051 0-0.45764-0.09083-0.62704-0.2602l-5.3208-5.3201c-0.34672-0.34671-0.34672-0.90739 0-1.2541l5.3208-5.3201c0.16939-0.16937 0.39653-0.2602 0.62704-0.2602 0.1144 0 0.22974 0.021837 0.33969 0.067939 0.33162 0.13656 0.54686 0.46107 0.54686 0.81931v1.7731h7.0939c0.33608 0 0.64252 0.18939 0.77108 0.44566l2.7392 5.4295c0.45222 0.84505 0.26018 1.6764-0.02991 2.2208-0.01471 0.02765-0.06369 0.1099-0.11548 0.19973v0.0014l-0.01155 0.0197c-0.09461 0.16385-0.20585 0.35599-0.20585 0.35599s0.0012-0.01787 0.0014-0.01902l-2.5388 4.1855c-0.16404 0.28642-0.45163 0.46197-0.76022 0.46197z" fill-opacity=".2"/>
    <g transform="matrix(.88673 0 0 .88673 2.1185 2.1805)" clip-path="url(#clipPath16-1-0)" stroke-width=".49033">
     <path d="m31.001 8c-0.348 0-0.685 0.181-0.869 0.504l-4.235 6.975c-0.275 0.48-0.167 1.08 0.312 1.354l4.958 3c0.156 0.09 0.496 0.167 0.664 0.167 0.348 0 0.672-0.198 0.857-0.521l3.107-5.122 0.164-2.232c0.274-0.479-0.958-1.184-1.437-1.458l-3.026-2.535c-0.156-0.09-0.327-0.132-0.495-0.132" fill="#ddd"/>
     <path transform="matrix(.34783 0 0 -.34783 -423.96 247.31)" d="m1285 665c-0.7474 0-1.484 0.29464-2.0332 0.84375l-17.25 17.248c-1.1241 1.1241-1.1241 2.9423 0 4.0664l17.25 17.25c0.5492 0.54912 1.2858 0.8418 2.0332 0.8418 0.3709 0 0.7451-0.0693 1.1016-0.21875 1.0752-0.44274 1.7734-1.4948 1.7734-2.6562v-5.75h23c1.0897 0 2.0832-0.61445 2.5-1.4453l8.8809-17.602c1.4662-2.7398 0.8425-5.436-0.098-7.2012-0.1379-0.25874-1.0781-1.8711-1.0781-1.8711s0.8616 5.1191-4.457 5.1191h-28.748v-5.75c0-1.1615-0.6982-2.2135-1.7734-2.6562-0.3562-0.1495-0.7304-0.21875-1.1013-0.21875z" fill="#fff"/>
     <path d="m21.593 33.701c0.158-0.31 0.15-0.692-0.054-1.004l-4.292-6.94c-0.303-0.463-0.886-0.639-1.348-0.336l-4.925 3.054c-0.15 0.099-0.373 0.367-0.449 0.517-0.159 0.309-0.129 0.688 0.075 0.999l3.152 5.094 1.914 1.159c0.303 0.464 1.49-0.315 1.953-0.618l3.631-1.545c0.152-0.098 0.267-0.232 0.343-0.38" fill="#ddd"/>
     <path transform="matrix(.34783 0 0 -.34783 -423.96 247.31)" d="m1284.9 606.06-19.713 0.084c-3.1079-0.0633-5.224 1.7168-6.3711 3.3555-0.1668 0.23862-1.1797 1.8086-1.1797 1.8086s4.1729-3.0943 6.5879 1.6465l13.053 25.613-5.125 2.6113c-1.0321 0.52899-1.6525 1.6266-1.5605 2.7852 0.032 0.38812 0.1379 0.75429 0.3046 1.082 0.3422 0.66699 0.9341 1.1891 1.6758 1.4277l23.201 7.5391c1.5093 0.49161 3.1333-0.33636 3.6191-1.8457l7.5391-23.205c0.2415-0.73886 0.1654-1.5253-0.1738-2.1895-0.1696-0.33062-0.4011-0.63556-0.6914-0.88281-0.8884-0.75898-2.136-0.90204-3.1739-0.37305l-5.123 2.6094-10.443-20.494c-0.4973-0.97173-1.4914-1.5723-2.4258-1.5723z" fill="#fff"/>
     <path d="m4.3755 12.458c0.181 0.297 0.51 0.49 0.882 0.479l8.16-4e-3c0.553-0.017 1.009-0.42 0.995-0.972l-0.014-5.795c-5e-3 -0.18-0.116-0.512-0.203-0.654-0.18-0.297-0.518-0.472-0.89-0.461l-5.991 8e-3 -1.993 1.018c-0.551 0.017-0.512 1.435-0.498 1.986l-0.593 3.904c4e-3 0.179 0.057 0.347 0.145 0.491" fill="#ddd"/>
     <path transform="matrix(.34783 0 0 -.34783 -423.96 247.31)" d="m1254.7 639.42c-0.1908 8e-3 -0.3836 0.0326-0.5762 0.0801l-23.705 5.7656c-0.7561 0.18975-1.3844 0.6607-1.7754 1.3047-0.1926 0.31625-0.3263 0.66646-0.3867 1.0488-0.1782 1.1471 0.3578 2.2909 1.3496 2.9004l4.9121 2.9883-11.953 19.646c-0.5664 0.93148-0.5609 2.0991-0.066 2.8926l10.42 16.734c1.5812 2.6737 4.2061 3.545 6.207 3.6543 0.2933 0.0172 2.1602 0.0547 2.1602 0.0547s-4.8234-1.9263-2.0605-6.4688l14.941-24.561 4.9121 2.9883c0.9947 0.60374 2.2541 0.55142 3.1914-0.13281 0.3105-0.23 0.5661-0.51476 0.7558-0.82813 0.391-0.64111 0.5239-1.4168 0.3399-2.1758l-5.7696-23.701c-0.3295-1.3534-1.5613-2.244-2.8964-2.1914z" fill="#fff"/>
    </g>
   </g>
  </g>
 </g>
</svg>
