<?xml version="1.0" encoding="UTF-8"?>
<svg width="138" height="138" version="1.1" viewBox="0 0 138 138" xmlns="http://www.w3.org/2000/svg" xmlns:cc="http://creativecommons.org/ns#" xmlns:dc="http://purl.org/dc/elements/1.1/" xmlns:rdf="http://www.w3.org/1999/02/22-rdf-syntax-ns#">
 <metadata>
  <rdf:RDF>
   <cc:Work rdf:about="">
    <dc:format>image/svg+xml</dc:format>
    <dc:type rdf:resource="http://purl.org/dc/dcmitype/StillImage"/>
    <dc:title/>
    <cc:license rdf:resource="http://creativecommons.org/licenses/by-sa/4.0/"/>
    <dc:creator>
     <cc:Agent>
      <dc:title>Tobias Zwick</dc:title>
     </cc:Agent>
    </dc:creator>
   </cc:Work>
   <cc:License rdf:about="http://creativecommons.org/licenses/by-sa/4.0/">
    <cc:permits rdf:resource="http://creativecommons.org/ns#Reproduction"/>
    <cc:permits rdf:resource="http://creativecommons.org/ns#Distribution"/>
    <cc:requires rdf:resource="http://creativecommons.org/ns#Notice"/>
    <cc:requires rdf:resource="http://creativecommons.org/ns#Attribution"/>
    <cc:permits rdf:resource="http://creativecommons.org/ns#DerivativeWorks"/>
    <cc:requires rdf:resource="http://creativecommons.org/ns#ShareAlike"/>
   </cc:License>
  </rdf:RDF>
 </metadata>
 <defs>
  <filter id="filter5578" color-interpolation-filters="sRGB">
   <feFlood flood-color="rgb(204,177,68)" result="flood"/>
   <feComposite in="flood" in2="SourceGraphic" operator="in" result="composite1"/>
   <feGaussianBlur in="composite1" result="blur" stdDeviation="2.05669e-14"/>
   <feOffset dx="4.63518e-15" dy="4" result="offset"/>
   <feComposite in="SourceGraphic" in2="offset" result="composite2"/>
  </filter>
 </defs>
 <g id="fire_hydrant" transform="translate(-1603.1 -270.42)">
  <circle class="st0" cx="1672.1" cy="339.42" r="64" fill="#fd5"/>
  <g transform="translate(1608.1 275.42)" filter="url(#filter5578)">
   <rect class="st1" x="41" y="100.5" width="46" height="9" fill="#cd584c"/>
   <rect class="st1" x="50" y="48.5" width="28" height="52" fill="#cd584c"/>
   <rect class="st2" x="50" y="49.5" width="28" height="2" fill="#c05447"/>
   <rect class="st2" x="50" y="99.5" width="28" height="1" fill="#c05447"/>
   <g fill="#cd584c">
    <path class="st1" d="m55 21c0-4.9 3.8-10 9-10s9 5.1 9 10z"/>
    <path class="st1" d="m64 19c-12.3 0-23 8.2-23 20v10.5h46v-10.5c0-11.8-10.7-20-23-20z"/>
    <path class="st1" d="m40 79c-4.9 0-10-3.8-10-9s5.1-9 10-9z"/>
   </g>
   <path class="st2" d="m50 58.5c0-1.1-0.9-2-2-2h-8c-1.1 0-2 0.9-2 2v22c0 1.1 0.9 2 2 2h8c1.1 0 2-0.9 2-2z" fill="#c05447"/>
   <path class="st1" d="m88 79c4.9 0 10-3.8 10-9s-5.1-9-10-9z" fill="#cd584c"/>
   <path class="st2" d="m90 80.5c0 1.1-0.9 2-2 2h-8c-1.1 0-2-0.9-2-2v-22c0-1.1 0.9-2 2-2h8c1.1 0 2 0.9 2 2z" fill="#c05447"/>
   <path class="st4" d="m90 57.5c0-0.6-0.4-1-1-1s-1 0.4-1 1v24c0 0.6 0.4 1 1 1s1-0.4 1-1z" fill="#b44f43"/>
   <path class="st4" d="m50 57.5c0-0.6-0.4-1-1-1s-1 0.4-1 1v24c0 0.6 0.4 1 1 1s1-0.4 1-1z" fill="#b44f43"/>
   <g fill="#a8493e">
    <path class="st5" d="m47 61.5h-6c-0.6 0-1-0.4-1-1s0.4-1 1-1h6c0.6 0 1 0.4 1 1s-0.4 1-1 1z"/>
    <path class="st5" d="m47 67.5h-6c-0.6 0-1-0.4-1-1s0.4-1 1-1h6c0.6 0 1 0.4 1 1s-0.4 1-1 1z"/>
    <path class="st5" d="m47 73.5h-6c-0.6 0-1-0.4-1-1s0.4-1 1-1h6c0.6 0 1 0.4 1 1s-0.4 1-1 1z"/>
    <path class="st5" d="m47 79.5h-6c-0.6 0-1-0.4-1-1s0.4-1 1-1h6c0.6 0 1 0.4 1 1s-0.4 1-1 1z"/>
   </g>
   <g fill="#a8493e">
    <path class="st5" d="m87 61.5h-6c-0.6 0-1-0.4-1-1s0.4-1 1-1h6c0.6 0 1 0.4 1 1s-0.4 1-1 1z"/>
    <path class="st5" d="m87 67.5h-6c-0.6 0-1-0.4-1-1s0.4-1 1-1h6c0.6 0 1 0.4 1 1s-0.4 1-1 1z"/>
    <path class="st5" d="m87 73.5h-6c-0.6 0-1-0.4-1-1s0.4-1 1-1h6c0.6 0 1 0.4 1 1s-0.4 1-1 1z"/>
    <path class="st5" d="m87 79.5h-6c-0.6 0-1-0.4-1-1s0.4-1 1-1h6c0.6 0 1 0.4 1 1s-0.4 1-1 1z"/>
   </g>
  </g>
 </g>
</svg>
