<?xml version="1.0" encoding="UTF-8"?>
<svg width="138.02" height="138.02" version="1.1" viewBox="0 0 138.02122 138.02119" xmlns="http://www.w3.org/2000/svg" xmlns:cc="http://creativecommons.org/ns#" xmlns:dc="http://purl.org/dc/elements/1.1/" xmlns:rdf="http://www.w3.org/1999/02/22-rdf-syntax-ns#">
 <metadata>
  <rdf:RDF>
   <cc:Work rdf:about="">
    <dc:format>image/svg+xml</dc:format>
    <dc:type rdf:resource="http://purl.org/dc/dcmitype/StillImage"/>
    <dc:title/>
    <cc:license rdf:resource="http://creativecommons.org/licenses/by-sa/4.0/"/>
    <dc:creator>
     <cc:Agent>
      <dc:title>Tobias Zwick</dc:title>
     </cc:Agent>
    </dc:creator>
   </cc:Work>
   <cc:License rdf:about="http://creativecommons.org/licenses/by-sa/4.0/">
    <cc:permits rdf:resource="http://creativecommons.org/ns#Reproduction"/>
    <cc:permits rdf:resource="http://creativecommons.org/ns#Distribution"/>
    <cc:requires rdf:resource="http://creativecommons.org/ns#Notice"/>
    <cc:requires rdf:resource="http://creativecommons.org/ns#Attribution"/>
    <cc:permits rdf:resource="http://creativecommons.org/ns#DerivativeWorks"/>
    <cc:requires rdf:resource="http://creativecommons.org/ns#ShareAlike"/>
   </cc:License>
  </rdf:RDF>
 </metadata>
 <g id="ferry" transform="translate(-1203 -395.03)">
  <path d="m1327.4 496.04c-17.673 30.611-56.815 41.099-87.426 23.426-30.611-17.673-41.099-56.815-23.426-87.426 17.673-30.611 56.815-41.099 87.426-23.426 30.61 17.673 41.099 56.815 23.426 87.426" fill="#fd5" stroke-width=".2"/>
  <path d="m1238.4 440.02c-0.8702 0-1.5781 0.35203-1.5781 0.78711v1.5762c0 0.4185 0.6601 0.75379 1.4844 0.7793l-2.7442 18.926h2.8379c0.8701 0 1.5762 0.70601 1.5762 1.5762v4.1836h-21.912c2.1563 7.4544 8 16 8 16 1.589 2.4308 3.7354 4.8748 5.2109 6.2305 15.776 14.478 88.787 5.7695 88.787 5.7695s1.5769-5.3319 3.002-12c0 0 3-11 3-16h-19.881v-4.1836c0-0.87016 0.706-1.5762 1.5762-1.5762h5.9902l-1.2597-6.3047h-50.445v-12.611c0.8702 0 1.5761-0.35398 1.5761-0.78906v-1.5762c0-0.43508-0.7059-0.78711-1.5761-0.78711z" fill-opacity=".2"/>
  <g stroke-width=".39648">
   <g transform="matrix(3.1528 5.2959e-8 5.2959e-8 -3.1528 1306.1 466.12)">
    <path d="m0 0v2c0 0.276 0.224 0.5 0.5 0.5h1.9l-0.4 2h-24l-0.4-2h0.9c0.276 0 0.5-0.224 0.5-0.5v-2c0-0.276-0.224-0.5-0.5-0.5h21c-0.276 0 0.5 0.224 0.5 0.5" fill="#ccd6dd"/>
   </g>
   <g transform="matrix(3.1528 5.2959e-8 5.2959e-8 -3.1528 1258.8 466.12)">
    <path d="m0 0c0-0.276-0.224-0.5-0.5-0.5h-4c-0.276 0-0.5 0.224-0.5 0.5v2c0 0.276 0.224 0.5 0.5 0.5h4c0.276 0 0.5-0.224 0.5-0.5z" fill="#66757f"/>
   </g>
   <g transform="matrix(3.1528 5.2959e-8 5.2959e-8 -3.1528 1280.9 466.12)">
    <path d="m0 0c0-0.276-0.224-0.5-0.5-0.5h-4c-0.276 0-0.5 0.224-0.5 0.5v2c0 0.276 0.224 0.5 0.5 0.5h4c0.276 0 0.5-0.224 0.5-0.5z" fill="#66757f"/>
   </g>
   <g transform="matrix(3.1528 5.2959e-8 5.2959e-8 -3.1528 1303 466.12)">
    <path d="m0 0c0-0.276-0.224-0.5-0.5-0.5h-4c-0.276 0-0.5 0.224-0.5 0.5v2c0 0.276 0.224 0.5 0.5 0.5h4c0.276 0 0.5-0.224 0.5-0.5z" fill="#66757f"/>
   </g>
   <g transform="matrix(3.1528 5.2959e-8 5.2959e-8 -3.1528 1320 492)">
    <path d="m0.95154 3.8062s0.95154 3.489 0.95154 5.0749l-34.256-6e-7c0.68394-2.3644 2.5374-5.0749 2.5374-5.0749" fill="#ccd6dd"/>
   </g>
   <g transform="matrix(3.1528 5.2959e-8 5.2959e-8 -3.1528 1226.6 480.31)">
    <path d="m-0.17489 0.098164c0.504-0.771 1.1849-1.5462 1.6529-1.9762 5.004-4.592 28.162-1.83 28.162-1.83s0.49963 1.6912 0.95163 3.8062z" fill="#dd2e44"/>
   </g>
   <g transform="matrix(3.1528 5.2959e-8 5.2959e-8 -3.1528 1239.9 475.58)">
    <path d="m0 0c0-0.276-0.224-0.5-0.5-0.5h-1c-0.276 0-0.5 0.224-0.5 0.5v1c0 0.276 0.224 0.5 0.5 0.5h1c0.276 0 0.5-0.224 0.5-0.5z" fill="#66757f"/>
   </g>
   <g transform="matrix(3.1528 5.2959e-8 5.2959e-8 -3.1528 1252.5 475.58)">
    <path d="m0 0c0-0.276-0.224-0.5-0.5-0.5h-1c-0.276 0-0.5 0.224-0.5 0.5v1c0 0.276 0.224 0.5 0.5 0.5h1c0.276 0 0.5-0.224 0.5-0.5z" fill="#66757f"/>
   </g>
   <g transform="matrix(3.1528 5.2959e-8 5.2959e-8 -3.1528 1265.1 475.58)">
    <path d="m0 0c0-0.276-0.224-0.5-0.5-0.5h-1c-0.276 0-0.5 0.224-0.5 0.5v1c0 0.276 0.224 0.5 0.5 0.5h1c0.276 0 0.5-0.224 0.5-0.5z" fill="#66757f"/>
   </g>
   <g transform="matrix(3.1528 5.2959e-8 5.2959e-8 -3.1528 1277.7 475.58)">
    <path d="m0 0c0-0.276-0.224-0.5-0.5-0.5h-1c-0.276 0-0.5 0.224-0.5 0.5v1c0 0.276 0.224 0.5 0.5 0.5h1c0.276 0 0.5-0.224 0.5-0.5z" fill="#66757f"/>
   </g>
   <g transform="matrix(3.1528 5.2959e-8 5.2959e-8 -3.1528 1290.4 475.58)">
    <path d="m0 0c0-0.276-0.224-0.5-0.5-0.5h-1c-0.276 0-0.5 0.224-0.5 0.5v1c0 0.276 0.224 0.5 0.5 0.5h1c0.276 0 0.5-0.224 0.5-0.5z" fill="#66757f"/>
   </g>
   <g transform="matrix(3.1528 5.2959e-8 5.2959e-8 -3.1528 1303 475.58)">
    <path d="m0 0c0-0.276-0.224-0.5-0.5-0.5h-1c-0.276 0-0.5 0.224-0.5 0.5v1c0 0.276 0.224 0.5 0.5 0.5h1c0.276 0 0.5-0.224 0.5-0.5z" fill="#66757f"/>
   </g>
   <g transform="matrix(3.1528 5.2959e-8 5.2959e-8 -3.1528 1315.6 475.58)">
    <path d="m0 0c0-0.276-0.224-0.5-0.5-0.5h-1c-0.276 0-0.5 0.224-0.5 0.5v1c0 0.276 0.224 0.5 0.5 0.5h1c0.276 0 0.5-0.224 0.5-0.5z" fill="#66757f"/>
   </g>
   <g transform="matrix(3.1528 5.2959e-8 5.2959e-8 -3.1528 1262 455.09)">
    <path d="m0 0-8.4-1 0.9 6.208h7.5z" fill="#ccd6dd"/>
   </g>
   <g transform="matrix(3.1528 5.2959e-8 5.2959e-8 -3.1528 1258.8 437.75)">
    <path d="m0 0c0-0.276-0.224-0.5-0.5-0.5s-0.5 0.224-0.5 0.5v4c0 0.276 0.224 0.5 0.5 0.5s0.5-0.224 0.5-0.5z" fill="#ccd6dd"/>
   </g>
   <g transform="matrix(3.1528 5.2959e-8 5.2959e-8 -3.1528 1252.5 444.05)">
    <path d="m0 0c0-0.276-0.224-0.5-0.5-0.5s-0.5 0.224-0.5 0.5v4c0 0.276 0.224 0.5 0.5 0.5s0.5-0.224 0.5-0.5z" fill="#ccd6dd"/>
   </g>
   <g transform="matrix(3.1528 5.2959e-8 5.2959e-8 -3.1528 1263.6 438.54)">
    <path d="m0 0c0-0.138-0.224-0.25-0.5-0.25h-7.5c-0.276 0-0.5 0.112-0.5 0.25v0.5c0 0.138 0.224 0.25 0.5 0.25h7.5c0.276 0 0.5-0.112 0.5-0.25z" fill="#269"/>
   </g>
   <g transform="matrix(3.1528 5.2959e-8 5.2959e-8 -3.1528 1257.3 442.48)">
    <path d="m0 0h-6.15l-0.3-2h6.45c0.276 0 0.5 0.224 0.5 0.5v1c0 0.276-0.224 0.5-0.5 0.5" fill="#66757f"/>
   </g>
  </g>
  <path d="m1252.5 451.93h-3.1527v-12.611l3.1527 1e-5z" fill="#ccd6dd"/>
  <path d="m1212.5 488.43c5.1573 12.796 14.456 24.034 27.33 31.467 7.7618 4.4813 16.072 7.1437 24.441 8.1348h15.078c19.351-2.3044 37.413-13.386 47.906-31.561 1.5142-2.6226 2.8064-5.312 3.9122-8.041-10.015-1.9691-19.731-1.5775-29.667 0-10.142 1.6102-21.613 2.1684-29.667 0-17.977-4.8401-22.904 1.9424-29.667 0-5.6591-1.6254-14.602-9.3254-17.142-0.42704z" fill="#529add" stroke-width=".2"/>
  <path d="m1229.7 488.13c-1.0381 0.0297-1.9744 0.34971-2.7598 1.0742 1.4799 2.0746 3.2255 4.0511 4.4942 5.2168 15.776 14.478 88.787 5.7695 88.787 5.7695s1.0549-3.6267 2.2168-8.5625c-6.93-0.46519-13.79 0.0364-20.758 1.1426-10.142 1.6102-21.614 2.1684-29.668 0-17.977-4.8401-22.903 1.9424-29.666 0-3.7138-1.0666-8.842-4.7496-12.646-4.6406z" fill-opacity=".13333"/>
 </g>
</svg>
