<?xml version="1.0" encoding="UTF-8"?>
<svg width="138.02" height="138.02" version="1.1" viewBox="0 0 138.02121 138.02119" xmlns="http://www.w3.org/2000/svg" xmlns:cc="http://creativecommons.org/ns#" xmlns:dc="http://purl.org/dc/elements/1.1/" xmlns:rdf="http://www.w3.org/1999/02/22-rdf-syntax-ns#">
 <metadata>
  <rdf:RDF>
   <cc:Work rdf:about="">
    <dc:format>image/svg+xml</dc:format>
    <dc:type rdf:resource="http://purl.org/dc/dcmitype/StillImage"/>
    <dc:title/>
    <cc:license rdf:resource="http://creativecommons.org/licenses/by-sa/4.0/"/>
    <dc:creator>
     <cc:Agent>
      <dc:title>Tobias Zwick</dc:title>
     </cc:Agent>
    </dc:creator>
   </cc:Work>
   <cc:License rdf:about="http://creativecommons.org/licenses/by-sa/4.0/">
    <cc:permits rdf:resource="http://creativecommons.org/ns#Reproduction"/>
    <cc:permits rdf:resource="http://creativecommons.org/ns#Distribution"/>
    <cc:requires rdf:resource="http://creativecommons.org/ns#Notice"/>
    <cc:requires rdf:resource="http://creativecommons.org/ns#Attribution"/>
    <cc:permits rdf:resource="http://creativecommons.org/ns#DerivativeWorks"/>
    <cc:requires rdf:resource="http://creativecommons.org/ns#ShareAlike"/>
   </cc:License>
  </rdf:RDF>
 </metadata>
 <g transform="rotate(30 -150.16 884.63)">
  <path d="m-304.16 68.698c0 35.346-28.654 64-64 64-35.346 0-64-28.654-64-64 0-35.346 28.654-64 64-64 35.346 0 64 28.654 64 64" fill="#fd5" stroke-width=".2"/>
  <g stroke-width="8">
   <rect transform="rotate(-30)" x="-388.76" y="-160.59" width="72" height="80" rx="8.472" ry="8.472" fill="none" stroke="#000" stroke-opacity=".2" style="paint-order:normal"/>
   <rect transform="rotate(-30)" x="-388.76" y="-164.59" width="72" height="80" rx="8.472" ry="8.472" fill="#495aad" stroke="#fff" stroke-opacity=".98995" style="paint-order:normal"/>
   <path d="m-377.12 92.343-20-34.641 10.392-6s10.392-6 16.392 4.3923-4.3923 16.392-4.3923 16.392l-10.392 6" fill="none" stroke="#fff" stroke-linecap="square"/>
  </g>
  <g transform="matrix(.32302 -.1865 .1865 .32302 -118.09 -18.133)" stroke-width="2.681">
   <g stroke-linecap="round" stroke-linejoin="round">
    <ellipse cx="-652.92" cy="-80.024" rx="46.139" ry="46.139" fill="#fff" stroke="#c84747" stroke-width="16.086" style="paint-order:normal"/>
    <path d="m-647.4-81.979 23.401-12.788" fill="none" stroke="#666" stroke-width="16.086"/>
    <path d="m-682.03-101.29 29.03 21.29" fill="none" stroke="#666" stroke-width="10.724"/>
   </g>
   <ellipse cx="-652.95" cy="-80" rx="8.0303" ry="8.0146" fill="#444" style="paint-order:normal"/>
  </g>
 </g>
</svg>
