<?xml version="1.0" encoding="UTF-8"?>
<svg width="138" height="138" version="1.1" viewBox="0 0 138 138" xmlns="http://www.w3.org/2000/svg" xmlns:cc="http://creativecommons.org/ns#" xmlns:dc="http://purl.org/dc/elements/1.1/" xmlns:rdf="http://www.w3.org/1999/02/22-rdf-syntax-ns#">
 <metadata>
  <rdf:RDF>
   <cc:Work rdf:about="">
    <dc:format>image/svg+xml</dc:format>
    <dc:type rdf:resource="http://purl.org/dc/dcmitype/StillImage"/>
    <dc:title/>
    <cc:license rdf:resource="http://creativecommons.org/licenses/by-sa/4.0/"/>
    <dc:creator>
     <cc:Agent>
      <dc:title>Tobias Zwick</dc:title>
     </cc:Agent>
    </dc:creator>
   </cc:Work>
   <cc:License rdf:about="http://creativecommons.org/licenses/by-sa/4.0/">
    <cc:permits rdf:resource="http://creativecommons.org/ns#Reproduction"/>
    <cc:permits rdf:resource="http://creativecommons.org/ns#Distribution"/>
    <cc:requires rdf:resource="http://creativecommons.org/ns#Notice"/>
    <cc:requires rdf:resource="http://creativecommons.org/ns#Attribution"/>
    <cc:permits rdf:resource="http://creativecommons.org/ns#DerivativeWorks"/>
    <cc:requires rdf:resource="http://creativecommons.org/ns#ShareAlike"/>
   </cc:License>
  </rdf:RDF>
 </metadata>
 <g id="max_speed" transform="matrix(.2 0 0 -.2 284.11 10.819)">
  <path d="m-755.55-290.9c0-176.73-143.27-320-320-320-176.73 0-320 143.27-320 320s143.27 320 320 320c176.73 0 320-143.27 320-320" fill="#fd5"/>
  <path d="m-815.55-300.9c0-143.59-116.41-260-260-260-143.59 0-260 116.41-260 260 0 143.59 116.41 260 260 260 143.59 0 260-116.41 260-260" fill-opacity=".2"/>
  <path d="m-825.55-280.9c0-138.07-111.93-250-250-250-138.07 0-250 111.93-250 250s111.93 250 250 250c138.07 0 250-111.93 250-250" fill="#c84747" stroke="#fff" stroke-width="19.231"/>
  <circle transform="scale(1,-1)" cx="-1075.6" cy="280.91" r="178.78" fill="#fff"/>
  <path transform="scale(1,-1)" d="m-1191.6 329.19a125.05 125.05 0 0 1 43.917 -142.96 125.05 125.05 0 0 1 149.54 1.3788 125.05 125.05 0 0 1 41.274 143.74" fill="none" stroke="#444" stroke-width="40" style="paint-order:normal"/>
  <g>
   <path d="m-939.24-200.97-123.92-50.945c-11.268 4.339-23.893 3.3561-34.353-2.6745-19.129-11.044-25.681-35.505-14.639-54.635 11.046-19.128 35.505-25.681 54.635-14.639 10.443 6.0434 17.601 16.478 19.478 28.397l106.3 81.507z" fill="#444" style="paint-order:stroke fill markers"/>
   <path d="m-1063.2-251.91 123.92 50.946-26.536 10.841-87.568-36.2z" fill="#fff"/>
   <path d="m-931.74-213.96-106.3-81.507 34.041 2.401 78.468 57.435z" fill="#fff"/>
  </g>
 </g>
</svg>
