<?xml version="1.0" encoding="UTF-8"?>
<svg width="138" height="138" version="1.1" viewBox="0 0 138 138" xmlns="http://www.w3.org/2000/svg" xmlns:cc="http://creativecommons.org/ns#" xmlns:dc="http://purl.org/dc/elements/1.1/" xmlns:rdf="http://www.w3.org/1999/02/22-rdf-syntax-ns#">
 <metadata>
  <rdf:RDF>
   <cc:Work rdf:about="">
    <dc:format>image/svg+xml</dc:format>
    <dc:type rdf:resource="http://purl.org/dc/dcmitype/StillImage"/>
    <dc:title/>
    <cc:license rdf:resource="http://creativecommons.org/licenses/by-sa/4.0/"/>
    <dc:creator>
     <cc:Agent>
      <dc:title>Tobias Zwick</dc:title>
     </cc:Agent>
    </dc:creator>
   </cc:Work>
   <cc:License rdf:about="http://creativecommons.org/licenses/by-sa/4.0/">
    <cc:permits rdf:resource="http://creativecommons.org/ns#Reproduction"/>
    <cc:permits rdf:resource="http://creativecommons.org/ns#Distribution"/>
    <cc:requires rdf:resource="http://creativecommons.org/ns#Notice"/>
    <cc:requires rdf:resource="http://creativecommons.org/ns#Attribution"/>
    <cc:permits rdf:resource="http://creativecommons.org/ns#DerivativeWorks"/>
    <cc:requires rdf:resource="http://creativecommons.org/ns#ShareAlike"/>
   </cc:License>
  </rdf:RDF>
 </metadata>
 <g id="housenumber" transform="matrix(.2 0 0 -.2 -3.8894 154.82)">
  <path d="m684.45 429.1c0-176.73-143.27-320-320-320s-320 143.27-320 320 143.27 320 320 320 320-143.27 320-320" fill="#c8c4b7"/>
  <rect transform="scale(1,-1)" x="144.7" y="-638.2" width="439.96" height="439.41" rx="70.218" ry="70.218" fill-opacity=".2" style="paint-order:normal"/>
  <g transform="translate(1.25 9.3064)">
   <rect transform="scale(1,-1)" x="144.07" y="-648.27" width="439.96" height="439.41" rx="70.218" ry="70.218" fill="#495aad" style="paint-order:normal"/>
   <path d="m187.81 534.4v-211.17c35.194 0 70.389-35.194 70.389-70.389h211.17c0 35.194 35.194 70.389 70.389 70.389v211.17c-35.194 0-70.389 35.194-70.389 70.389h-211.17c0-35.194-35.194-70.389-70.389-70.389z" fill="none" stroke="#fff" stroke-width="25.076"/>
   <g transform="scale(1,-1)" fill="#fff" aria-label="1">
    <path d="m398.2-519.79-0.0286 139.76c-2e-3 8.432 6.0162 10.587 12.889 10.46l12.14-0.22374 3e-5 30h-100l-3e-5 -30 13.282 0.22374c6.598 0.11115 11.693-2.7556 11.695-10.454l0.0231-89.769c0 10-40 10-40 10l1e-5 -30c20 0 45-10 45-30z" fill="#fff" stroke-width="4.3993px"/>
   </g>
  </g>
 </g>
</svg>
