<?xml version="1.0" encoding="UTF-8"?>
<svg width="138" height="138" version="1.1" viewBox="0 0 138 138" xmlns="http://www.w3.org/2000/svg" xmlns:cc="http://creativecommons.org/ns#" xmlns:dc="http://purl.org/dc/elements/1.1/" xmlns:rdf="http://www.w3.org/1999/02/22-rdf-syntax-ns#">
 <metadata>
  <rdf:RDF>
   <cc:Work rdf:about="">
    <dc:format>image/svg+xml</dc:format>
    <dc:type rdf:resource="http://purl.org/dc/dcmitype/StillImage"/>
    <dc:title/>
    <cc:license rdf:resource="http://creativecommons.org/licenses/by-sa/4.0/"/>
    <dc:creator>
     <cc:Agent>
      <dc:title>Tobias Zwick</dc:title>
     </cc:Agent>
    </dc:creator>
   </cc:Work>
   <cc:License rdf:about="http://creativecommons.org/licenses/by-sa/4.0/">
    <cc:permits rdf:resource="http://creativecommons.org/ns#Reproduction"/>
    <cc:permits rdf:resource="http://creativecommons.org/ns#Distribution"/>
    <cc:requires rdf:resource="http://creativecommons.org/ns#Notice"/>
    <cc:requires rdf:resource="http://creativecommons.org/ns#Attribution"/>
    <cc:permits rdf:resource="http://creativecommons.org/ns#DerivativeWorks"/>
    <cc:requires rdf:resource="http://creativecommons.org/ns#ShareAlike"/>
   </cc:License>
  </rdf:RDF>
 </metadata>
 <g id="housenumber_street" transform="matrix(.2 0 0 -.2 -3.8894 154.82)">
  <path d="m684.45 429.1c0-176.73-143.27-320-320-320s-320 143.27-320 320 143.27 320 320 320 320-143.27 320-320" fill="#c8c4b7"/>
  <rect transform="scale(1,-1)" x="324.45" y="-669.1" width="80.191" height="560" fill="#666" style="paint-order:stroke fill markers"/>
  <path d="m164.22 569.1c-22.16 0-40-19.776-40-44.336v-191.34c0-24.56 17.84-44.326 40-44.326h399.97c22.16 0 40 19.766 40 44.326v191.34c0 24.56-17.84 44.336-40 44.336z" fill-opacity=".2" style="paint-order:normal"/>
  <g transform="translate(1.25 -59.17)">
   <rect transform="scale(1,-1)" x="123.2" y="-648.27" width="480" height="280" rx="40" ry="44.332" fill="#495aad" style="paint-order:normal"/>
   <path d="m163.2 568.27v-120c20 0 40-20 40-40h320c0 20 23.445 40 40 40v120c-20 0-40 20-40 40h-320c0-20-20-40-40-40z" fill="none" stroke="#fff" stroke-width="25.076"/>
  </g>
 </g>
</svg>
