<?xml version="1.0" encoding="UTF-8"?>
<svg width="138.03" height="138.03" version="1.1" viewBox="0 0 138.03377 138.03377" xmlns="http://www.w3.org/2000/svg" xmlns:cc="http://creativecommons.org/ns#" xmlns:dc="http://purl.org/dc/elements/1.1/" xmlns:rdf="http://www.w3.org/1999/02/22-rdf-syntax-ns#">
 <metadata>
  <rdf:RDF>
   <cc:Work rdf:about="">
    <dc:format>image/svg+xml</dc:format>
    <dc:type rdf:resource="http://purl.org/dc/dcmitype/StillImage"/>
    <dc:title/>
    <cc:license rdf:resource="http://creativecommons.org/licenses/by-sa/4.0/"/>
    <dc:creator>
     <cc:Agent>
      <dc:title>Tobias Zwick</dc:title>
     </cc:Agent>
    </dc:creator>
   </cc:Work>
   <cc:License rdf:about="http://creativecommons.org/licenses/by-sa/4.0/">
    <cc:permits rdf:resource="http://creativecommons.org/ns#Reproduction"/>
    <cc:permits rdf:resource="http://creativecommons.org/ns#Distribution"/>
    <cc:requires rdf:resource="http://creativecommons.org/ns#Notice"/>
    <cc:requires rdf:resource="http://creativecommons.org/ns#Attribution"/>
    <cc:permits rdf:resource="http://creativecommons.org/ns#DerivativeWorks"/>
    <cc:requires rdf:resource="http://creativecommons.org/ns#ShareAlike"/>
   </cc:License>
  </rdf:RDF>
 </metadata>
 <g id="building_height" transform="matrix(.2 0 0 -.2 -4.1225 156.84)">
  <path d="m662.34 319.1c-66.274-163.83-252.81-242.92-416.65-176.65-163.83 66.274-242.92 252.81-176.65 416.65 66.274 163.83 252.81 242.92 416.65 176.65s242.92-252.81 176.65-416.65" fill="#c8c4b7"/>
  <path d="m165.33 439.1 200 200 200-200" fill="none" stroke="#000" stroke-linecap="square" stroke-opacity=".2" stroke-width="56"/>
  <path d="m165.33 457.78 200 200 200-200" fill="none" stroke="#c84747" stroke-linecap="square" stroke-width="56"/>
  <path d="m365.33 599.1-160-160v-276.88c12.817-7.4025 26.248-14.066 40.361-19.775 39.252-15.878 79.805-23.326 119.7-23.35h6.416c54.278 1.0622 107.08 16.056 153.53 42.754v277.25z" fill="#fff"/>
  <g transform="matrix(2.5 4.3301 4.3301 -2.5 -632.62 2282.4)">
   <rect x="-263.4" y="369.84" width="86" height="24" rx="2.7692" ry="2.7692" fill-opacity=".2"/>
   <g transform="matrix(.95875 0 0 1 -109.23 -14)">
    <rect x="-157.26" y="382" width="89.7" height="24" rx="2.7692" ry="2.7692" fill="#cc826b"/>
    <g transform="translate(7.3012)" fill="#ac573d">
     <rect x="-134.31" y="382" width="6.2581" height="16" ry="0" style="paint-order:normal"/>
     <rect x="-109.28" y="382" width="6.2581" height="16" ry="0" style="paint-order:normal"/>
     <rect x="-146.83" y="382" width="6.2582" height="8" ry="0" style="paint-order:normal"/>
     <rect x="-121.8" y="382" width="6.2581" height="8" ry="0" style="paint-order:normal"/>
     <rect x="-96.366" y="382" width="5.8605" height="8" ry="0" style="paint-order:normal"/>
     <rect x="-159.35" y="382" width="6.2581" height="16" ry="0" style="paint-order:normal"/>
     <rect x="-84.248" y="382" width="6.2581" height="16" ry="0" style="paint-order:normal"/>
    </g>
   </g>
  </g>
 </g>
</svg>
