<?xml version="1.0" encoding="UTF-8"?>
<svg width="138" height="138" version="1.1" viewBox="0 0 138.00002 138" xmlns="http://www.w3.org/2000/svg" xmlns:cc="http://creativecommons.org/ns#" xmlns:dc="http://purl.org/dc/elements/1.1/" xmlns:rdf="http://www.w3.org/1999/02/22-rdf-syntax-ns#">
 <metadata>
  <rdf:RDF>
   <cc:Work rdf:about="">
    <dc:format>image/svg+xml</dc:format>
    <dc:type rdf:resource="http://purl.org/dc/dcmitype/StillImage"/>
    <dc:title/>
    <cc:license rdf:resource="http://creativecommons.org/licenses/by-sa/4.0/"/>
    <dc:creator>
     <cc:Agent>
      <dc:title>Tobias Zwick</dc:title>
     </cc:Agent>
    </dc:creator>
   </cc:Work>
   <cc:License rdf:about="http://creativecommons.org/licenses/by-sa/4.0/">
    <cc:permits rdf:resource="http://creativecommons.org/ns#Reproduction"/>
    <cc:permits rdf:resource="http://creativecommons.org/ns#Distribution"/>
    <cc:requires rdf:resource="http://creativecommons.org/ns#Notice"/>
    <cc:requires rdf:resource="http://creativecommons.org/ns#Attribution"/>
    <cc:permits rdf:resource="http://creativecommons.org/ns#DerivativeWorks"/>
    <cc:requires rdf:resource="http://creativecommons.org/ns#ShareAlike"/>
   </cc:License>
  </rdf:RDF>
 </metadata>
 <g id="pedestrian_crossing" transform="translate(722 149)">
  <path d="m-589-80c0 35.346-28.654 64-64 64-35.346 0-64-28.654-64-64 0-35.346 28.654-64 64-64 35.346 0 64 28.654 64 64" fill="#529add" stroke-width=".2"/>
  <g fill-opacity=".2">
   <path d="m-658-64-4.0172 40.005h18l-3.9828-40.005z" style="paint-order:stroke fill markers"/>
   <g stroke-width=".2">
    <path d="m-690.6-64-15.354 19.957c2.4026 3.5304 5.1551 6.8008 8.1973 9.7773l17.156-29.734z"/>
    <path d="m-673.57-64-16.107 36.416c1.8389 1.2898 3.7449 2.4898 5.7188 3.584h8.9609l11-40z"/>
    <path d="m-641.5-64 10.5 40h8.9961c2.327-1.29 4.5634-2.7231 6.7012-4.2832l-16.02-35.717z"/>
    <path d="m-624.58-64.007 16.697 29.377c3.0226-3.0054 5.7459-6.3104 8.123-9.8672l-14.854-19.51z"/>
   </g>
  </g>
  <g transform="translate(-285,-144)" fill="#fff" style="paint-order:stroke fill markers">
   <path d="m-405.57 76-16.77 21.799c2.3519 3.7733 5.0886 7.2789 8.1504 10.473l18.619-32.271z" style="paint-order:stroke fill markers"/>
   <path d="m-388.57 76-17.459 39.471 1.0312 0.5293h15l11-40z" style="paint-order:stroke fill markers"/>
   <path d="m-372.98 75.995-4.0172 40.005h18l-3.9828-40.005z" style="paint-order:stroke fill markers"/>
   <path d="m-356.5 76 10.5 40h15l2.0357-1.2988-17.357-38.701z" style="paint-order:stroke fill markers"/>
   <path d="m-339.56 76 18.121 31.881c3.0397-3.2242 5.7589-6.7537 8.082-10.555l-16.236-21.326z" style="paint-order:stroke fill markers"/>
  </g>
  <g transform="matrix(.84988 0 0 .84988 -341.08 -139.04)" fill="none" stroke="#000" stroke-opacity=".4" stroke-width="8" style="paint-order:stroke fill markers">
   <g transform="matrix(.21341 0 0 -.21341 -433.26 132.36)" fill="none" stroke="#000" stroke-opacity=".18824" stroke-width="37.486" style="paint-order:stroke fill markers">
    <path transform="matrix(4.6857 0 0 -4.6857 706.8 615.88)" d="m-76.006 18.328c-5.9412 0-10.76 4.8175-10.76 10.76 0 5.9423 4.8185 10.758 10.76 10.758 5.9423 0 10.76-4.8155 10.76-10.758 0-5.9423-4.8175-10.76-10.76-10.76zm-11.256 25.432c-10.886 4.0715-19.28 10.99-19.375 22.498 0 2.9462 2.3878 5.332 5.334 5.332 2.9468 0 5.3353-2.3861 5.3359-5.332 0.08844-2.9413 1.3355-5.4383 3.1582-7.4336 0.05726 2.6205 0.47537 5.5623 1.377 8.8262-0.55523 0.92435-0.78709 2.3155-0.56836 4.3496-1.8824 10.832-13.825 17.88-21.523 21.377-2.6928 1.1964-3.9071 4.3503-2.7109 7.043 1.1973 2.6926 4.3503 3.9073 7.043 2.7109 10.216-5.3208 23.21-13.903 26.951-25.172 8.4867 3.9564 16.429 12.845 17.859 21.049 0.41594 2.9169 3.1202 4.9413 6.0371 4.5254 2.9169-0.41679 4.9441-3.1163 4.5273-6.0332-2.2127-13.166-11.304-22.908-22.643-28.617-3.2845-1.4109-3.5445-9.0776-3.3594-11.842 9.9486 5.6477 20.148 8.1696 30.24 3.2168 2.6359-1.3172 3.702-4.523 2.3848-7.1582-1.318-2.635-4.5191-3.7028-7.1543-2.3848-11.863 5.8649-19.252-3.1163-25.494-6.752-2.2329-1.5642-5.2011-1.5689-7.4199-0.20312z" fill="none" stroke="#000" stroke-opacity=".18824" stroke-width="8" style="paint-order:stroke fill markers"/>
   </g>
  </g>
  <g transform="matrix(.84988 0 0 .84988 -341.25 -142.11)" stroke="#999" stroke-width="8" style="paint-order:stroke fill markers">
   <g transform="matrix(.21341 0 0 -.21341 -433.26 132.36)" fill="#fff" stroke="#999" stroke-width="37.486" style="paint-order:stroke fill markers">
    <path transform="matrix(4.6857 0 0 -4.6857 706.8 615.88)" d="m-76.006 18.328c-5.9412 0-10.76 4.8175-10.76 10.76 0 5.9423 4.8185 10.758 10.76 10.758 5.9423 0 10.76-4.8155 10.76-10.758 0-5.9423-4.8175-10.76-10.76-10.76zm-11.256 25.432c-10.886 4.0715-19.28 10.99-19.375 22.498 0 2.9462 2.3878 5.332 5.334 5.332 2.9468 0 5.3353-2.3861 5.3359-5.332 0.08844-2.9413 1.3355-5.4383 3.1582-7.4336 0.05726 2.6205 0.47537 5.5623 1.377 8.8262-0.55523 0.92435-0.78709 2.3155-0.56836 4.3496-1.8824 10.832-13.825 17.88-21.523 21.377-2.6928 1.1964-3.9071 4.3503-2.7109 7.043 1.1973 2.6926 4.3503 3.9073 7.043 2.7109 10.216-5.3208 23.21-13.903 26.951-25.172 8.4867 3.9564 16.429 12.845 17.859 21.049 0.41594 2.9169 3.1202 4.9413 6.0371 4.5254 2.9169-0.41679 4.9441-3.1163 4.5273-6.0332-2.2127-13.166-11.304-22.908-22.643-28.617-3.2845-1.4109-3.5445-9.0776-3.3594-11.842 9.9486 5.6477 20.148 8.1696 30.24 3.2168 2.6359-1.3172 3.702-4.523 2.3848-7.1582-1.318-2.635-4.5191-3.7028-7.1543-2.3848-11.863 5.8649-19.252-3.1163-25.494-6.752-2.2329-1.5642-5.2011-1.5689-7.4199-0.20312z" fill="#fff" stroke="#529add" stroke-width="7.0598" style="paint-order:stroke fill markers"/>
   </g>
  </g>
 </g>
</svg>
