<?xml version="1.0" encoding="UTF-8"?>
<svg width="138" height="138" version="1.1" viewBox="0 0 138 138" xmlns="http://www.w3.org/2000/svg" xmlns:cc="http://creativecommons.org/ns#" xmlns:dc="http://purl.org/dc/elements/1.1/" xmlns:rdf="http://www.w3.org/1999/02/22-rdf-syntax-ns#">
 <metadata>
  <rdf:RDF>
   <cc:Work rdf:about="">
    <dc:format>image/svg+xml</dc:format>
    <dc:type rdf:resource="http://purl.org/dc/dcmitype/StillImage"/>
    <dc:title/>
    <cc:license rdf:resource="http://creativecommons.org/licenses/by-sa/4.0/"/>
    <dc:creator>
     <cc:Agent>
      <dc:title>Tobias Zwick</dc:title>
     </cc:Agent>
    </dc:creator>
   </cc:Work>
   <cc:License rdf:about="http://creativecommons.org/licenses/by-sa/4.0/">
    <cc:permits rdf:resource="http://creativecommons.org/ns#Reproduction"/>
    <cc:permits rdf:resource="http://creativecommons.org/ns#Distribution"/>
    <cc:requires rdf:resource="http://creativecommons.org/ns#Notice"/>
    <cc:requires rdf:resource="http://creativecommons.org/ns#Attribution"/>
    <cc:permits rdf:resource="http://creativecommons.org/ns#DerivativeWorks"/>
    <cc:requires rdf:resource="http://creativecommons.org/ns#ShareAlike"/>
   </cc:License>
  </rdf:RDF>
 </metadata>
 <g id="fire_hydrant" transform="translate(-1603.1 -270.42)">
  <circle class="st0" cx="1672.1" cy="339.42" r="64" fill="#aaa"/>
  <path d="m1672.1 291.5c-10.98 3.8e-4 -19.882 8.9023-19.881 19.883l0.01 8e-3h-4.1172v8h8v12h-4v-4h-8v6.0215a6.0569 6.0569 0 0 0 -5.9414 6.0527 6.0569 6.0569 0 0 0 5.9414 6.0508v5.875h8v-4h4v24h-4v12h-5v8h49v-8h-4v-12h-4v-24h4v4h8v-5.7773a6.0569 6.0569 0 0 0 0.2383 0.0117 6.0569 6.0569 0 0 0 6.0566 -6.0566 6.0569 6.0569 0 0 0 -6.0566 -6.0586 6.0569 6.0569 0 0 0 -0.2383 8e-3v-6.127h-8v4h-4v-12h8v-8h-4.1348l0.01-8e-3c9e-4 -10.981-8.9003-19.882-19.881-19.883z" fill-opacity=".2" style="paint-order:markers fill stroke"/>
  <g>
   <rect x="1652.1" y="327.39" width="40" height="16" fill="#a8493e" style="paint-order:markers fill stroke"/>
   <path transform="translate(1480.1 275.39)" d="m191.99 12.109c-10.98 3.71e-4 -19.882 8.9023-19.881 19.883l3.8887 4.9885v55.019h32v-56l3.873-4.0078c7.1e-4 -10.981-8.9004-19.882-19.881-19.883z" fill="#cd584c" style="paint-order:markers fill stroke"/>
   <circle cx="1700.3" cy="335.57" r="6.0569" fill="#cd584c" style="paint-order:markers fill stroke"/>
   <rect x="1692.1" y="323.39" width="8" height="24" fill="#9e3d33" style="paint-order:markers fill stroke"/>
   <circle cx="1644.2" cy="335.47" r="6.0569" fill="#cd584c" style="paint-order:markers fill stroke"/>
   <g fill="#9e3d33">
    <rect x="1644.1" y="323.39" width="8" height="24" style="paint-order:markers fill stroke"/>
    <circle cx="1672.1" cy="343.52" r="12.147" style="paint-order:markers fill stroke"/>
    <rect x="1647.1" y="379.39" width="49" height="8" style="paint-order:markers fill stroke"/>
    <rect x="1648.1" y="307.39" width="48" height="8" style="paint-order:markers fill stroke"/>
   </g>
   <rect transform="rotate(15)" x="1699.8" y="-105.32" width="8.4853" height="8.4853" fill="#cd584c" style="paint-order:markers fill stroke"/>
   <rect x="1652.1" y="367.39" width="40" height="12" fill="#a8493e" style="paint-order:markers fill stroke"/>
  </g>
 </g>
</svg>
