<?xml version="1.0" encoding="UTF-8"?>
<svg width="138" height="138" version="1.1" viewBox="0 0 138.00002 138" xmlns="http://www.w3.org/2000/svg" xmlns:cc="http://creativecommons.org/ns#" xmlns:dc="http://purl.org/dc/elements/1.1/" xmlns:rdf="http://www.w3.org/1999/02/22-rdf-syntax-ns#">
 <metadata>
  <rdf:RDF>
   <cc:Work rdf:about="">
    <dc:format>image/svg+xml</dc:format>
    <dc:type rdf:resource="http://purl.org/dc/dcmitype/StillImage"/>
    <dc:title/>
    <cc:license rdf:resource="http://creativecommons.org/licenses/by-sa/4.0/"/>
    <dc:creator>
     <cc:Agent>
      <dc:title>Tobias Zwick</dc:title>
     </cc:Agent>
    </dc:creator>
   </cc:Work>
   <cc:License rdf:about="http://creativecommons.org/licenses/by-sa/4.0/">
    <cc:permits rdf:resource="http://creativecommons.org/ns#Reproduction"/>
    <cc:permits rdf:resource="http://creativecommons.org/ns#Distribution"/>
    <cc:requires rdf:resource="http://creativecommons.org/ns#Notice"/>
    <cc:requires rdf:resource="http://creativecommons.org/ns#Attribution"/>
    <cc:permits rdf:resource="http://creativecommons.org/ns#DerivativeWorks"/>
    <cc:requires rdf:resource="http://creativecommons.org/ns#ShareAlike"/>
   </cc:License>
  </rdf:RDF>
 </metadata>
 <g id="pedestrian_crossing" transform="translate(722 149)">
  <g shape-rendering="auto">
   <path d="m-589-80c0 35.346-28.654 64-64 64-35.346 0-64-28.654-64-64 0-35.346 28.654-64 64-64 35.346 0 64 28.654 64 64" color="#000000" color-rendering="auto" dominant-baseline="auto" fill="#529add" image-rendering="auto" solid-color="#000000" style="filter-blend-mode:normal;filter-gaussianBlur-deviation:0;font-feature-settings:normal;font-variant-alternates:normal;font-variant-caps:normal;font-variant-east-asian:normal;font-variant-ligatures:normal;font-variant-numeric:normal;font-variant-position:normal;isolation:auto;mix-blend-mode:normal;shape-padding:0;text-decoration-color:#000000;text-decoration-line:none;text-decoration-style:solid;text-indent:0;text-orientation:mixed;text-transform:none;white-space:normal"/>
   <path d="m-653-144.1c-35.4 0-64.1 28.7-64.1 64.1 0 35.4 28.7 64.1 64.1 64.1 35.4 0 64.1-28.7 64.1-64.1 0-35.4-28.7-64.1-64.1-64.1zm0 0.19922c35.292 0 63.9 28.608 63.9 63.9 0 35.292-28.608 63.9-63.9 63.9-35.292 0-63.9-28.608-63.9-63.9 0-35.292 28.608-63.9 63.9-63.9z" color="#000000" color-rendering="auto" dominant-baseline="auto" image-rendering="auto" solid-color="#000000" style="filter-blend-mode:normal;filter-gaussianBlur-deviation:0;font-feature-settings:normal;font-variant-alternates:normal;font-variant-caps:normal;font-variant-east-asian:normal;font-variant-ligatures:normal;font-variant-numeric:normal;font-variant-position:normal;isolation:auto;mix-blend-mode:normal;shape-padding:0;text-decoration-color:#000000;text-decoration-line:none;text-decoration-style:solid;text-indent:0;text-orientation:mixed;text-transform:none;white-space:normal"/>
  </g>
  <g fill-opacity=".2">
   <path d="m-658-64-4.0172 40.005h18l-3.9828-40.005z" fill-opacity=".2" style="paint-order:stroke fill markers"/>
   <g shape-rendering="auto">
    <path d="m-690.6-64-15.354 19.957c2.4026 3.5304 5.1551 6.8008 8.1973 9.7773l17.156-29.734z" color="#000000" color-rendering="auto" dominant-baseline="auto" fill-opacity=".2" image-rendering="auto" solid-color="#000000" style="filter-blend-mode:normal;filter-gaussianBlur-deviation:0;font-feature-settings:normal;font-variant-alternates:normal;font-variant-caps:normal;font-variant-east-asian:normal;font-variant-ligatures:normal;font-variant-numeric:normal;font-variant-position:normal;isolation:auto;mix-blend-mode:normal;shape-padding:0;text-decoration-color:#000000;text-decoration-line:none;text-decoration-style:solid;text-indent:0;text-orientation:mixed;text-transform:none;white-space:normal"/>
    <path d="m-690.65-64.1l-0.0293 0.039062-15.398 20.014 0.04101 0.060547c2.4065 3.536 5.1642 6.8119 8.2109 9.793l0.09179 0.089843 17.307-29.996h-10.223zm0.09961 0.19922h9.7773l-17.002 29.469c-2.9838-2.9311-5.6879-6.145-8.0527-9.6113l15.277-19.857z" color="#000000" color-rendering="auto" dominant-baseline="auto" fill-opacity="1" image-rendering="auto" solid-color="#000000" style="filter-blend-mode:normal;filter-gaussianBlur-deviation:0;font-feature-settings:normal;font-variant-alternates:normal;font-variant-caps:normal;font-variant-east-asian:normal;font-variant-ligatures:normal;font-variant-numeric:normal;font-variant-position:normal;isolation:auto;mix-blend-mode:normal;shape-padding:0;text-decoration-color:#000000;text-decoration-line:none;text-decoration-style:solid;text-indent:0;text-orientation:mixed;text-transform:none;white-space:normal"/>
   </g>
   <g shape-rendering="auto">
    <path d="m-673.57-64-16.107 36.416c1.8389 1.2898 3.7449 2.4898 5.7188 3.584h8.9609l11-40z" color="#000000" color-rendering="auto" dominant-baseline="auto" fill-opacity=".2" image-rendering="auto" solid-color="#000000" style="filter-blend-mode:normal;filter-gaussianBlur-deviation:0;font-feature-settings:normal;font-variant-alternates:normal;font-variant-caps:normal;font-variant-east-asian:normal;font-variant-ligatures:normal;font-variant-numeric:normal;font-variant-position:normal;isolation:auto;mix-blend-mode:normal;shape-padding:0;text-decoration-color:#000000;text-decoration-line:none;text-decoration-style:solid;text-indent:0;text-orientation:mixed;text-transform:none;white-space:normal"/>
    <path d="m-673.64-64.1l-0.02734 0.058593-16.141 36.492 0.06836 0.046875c1.8417 1.2917 3.7495 2.4938 5.7266 3.5898l0.02344 0.011718h9.0625l11.055-40.199h-9.7676zm0.13086 0.19922h9.375l-10.945 39.801h-8.8555c-1.9391-1.0759-3.8122-2.2561-5.6211-3.5215l16.047-36.279z" color="#000000" color-rendering="auto" dominant-baseline="auto" fill-opacity="1" image-rendering="auto" solid-color="#000000" style="filter-blend-mode:normal;filter-gaussianBlur-deviation:0;font-feature-settings:normal;font-variant-alternates:normal;font-variant-caps:normal;font-variant-east-asian:normal;font-variant-ligatures:normal;font-variant-numeric:normal;font-variant-position:normal;isolation:auto;mix-blend-mode:normal;shape-padding:0;text-decoration-color:#000000;text-decoration-line:none;text-decoration-style:solid;text-indent:0;text-orientation:mixed;text-transform:none;white-space:normal"/>
   </g>
   <g shape-rendering="auto">
    <path d="m-641.5-64 10.5 40h8.9961c2.327-1.29 4.5634-2.7231 6.7012-4.2832l-16.02-35.717z" color="#000000" color-rendering="auto" dominant-baseline="auto" fill-opacity=".2" image-rendering="auto" solid-color="#000000" style="filter-blend-mode:normal;filter-gaussianBlur-deviation:0;font-feature-settings:normal;font-variant-alternates:normal;font-variant-caps:normal;font-variant-east-asian:normal;font-variant-ligatures:normal;font-variant-numeric:normal;font-variant-position:normal;isolation:auto;mix-blend-mode:normal;shape-padding:0;text-decoration-color:#000000;text-decoration-line:none;text-decoration-style:solid;text-indent:0;text-orientation:mixed;text-transform:none;white-space:normal"/>
    <path d="m-641.62-64.1l0.0332 0.125 10.52 40.074h9.0977l0.02344-0.011718c2.3307-1.2921 4.5699-2.7285 6.7109-4.291l0.0664-0.046875-16.08-35.85h-10.371zm0.25977 0.19922h9.9824l15.957 35.58c-2.1091 1.5352-4.3124 2.9485-6.6055 4.2207h-8.8867l-10.447-39.801z" color="#000000" color-rendering="auto" dominant-baseline="auto" fill-opacity="1" image-rendering="auto" solid-color="#000000" style="filter-blend-mode:normal;filter-gaussianBlur-deviation:0;font-feature-settings:normal;font-variant-alternates:normal;font-variant-caps:normal;font-variant-east-asian:normal;font-variant-ligatures:normal;font-variant-numeric:normal;font-variant-position:normal;isolation:auto;mix-blend-mode:normal;shape-padding:0;text-decoration-color:#000000;text-decoration-line:none;text-decoration-style:solid;text-indent:0;text-orientation:mixed;text-transform:none;white-space:normal"/>
   </g>
   <g shape-rendering="auto">
    <path d="m-624.58-64.007 16.697 29.377c3.0226-3.0054 5.7459-6.3104 8.123-9.8672l-14.854-19.51z" color="#000000" color-rendering="auto" dominant-baseline="auto" fill-opacity=".2" image-rendering="auto" solid-color="#000000" style="filter-blend-mode:normal;filter-gaussianBlur-deviation:0;font-feature-settings:normal;font-variant-alternates:normal;font-variant-caps:normal;font-variant-east-asian:normal;font-variant-ligatures:normal;font-variant-numeric:normal;font-variant-position:normal;isolation:auto;mix-blend-mode:normal;shape-padding:0;text-decoration-color:#000000;text-decoration-line:none;text-decoration-style:solid;text-indent:0;text-orientation:mixed;text-transform:none;white-space:normal"/>
    <path d="m-624.75-64.107l0.08594 0.15039 16.762 29.49 0.09375-0.091797c3.0273-3.0101 5.7539-6.3204 8.1348-9.8828l0.03906-0.060547-14.926-19.605h-10.189zm0.3457 0.20117h9.7441l14.779 19.41c-2.3392 3.4918-5.017 6.7364-7.9805 9.6953l-16.543-29.105z" color="#000000" color-rendering="auto" dominant-baseline="auto" fill-opacity="1" image-rendering="auto" solid-color="#000000" style="filter-blend-mode:normal;filter-gaussianBlur-deviation:0;font-feature-settings:normal;font-variant-alternates:normal;font-variant-caps:normal;font-variant-east-asian:normal;font-variant-ligatures:normal;font-variant-numeric:normal;font-variant-position:normal;isolation:auto;mix-blend-mode:normal;shape-padding:0;text-decoration-color:#000000;text-decoration-line:none;text-decoration-style:solid;text-indent:0;text-orientation:mixed;text-transform:none;white-space:normal"/>
   </g>
  </g>
  <g transform="translate(-285,-144)" fill="#fff" style="paint-order:stroke fill markers">
   <path d="m-405.57 76-16.77 21.799c2.3519 3.7733 5.0886 7.2789 8.1504 10.473l18.619-32.271z" style="paint-order:stroke fill markers"/>
   <path d="m-388.57 76-17.459 39.471 1.0312 0.5293h15l11-40z" style="paint-order:stroke fill markers"/>
   <path d="m-372.98 75.995-4.0172 40.005h18l-3.9828-40.005z" style="paint-order:stroke fill markers"/>
   <path d="m-356.5 76 10.5 40h15l2.0357-1.2988-17.357-38.701z" style="paint-order:stroke fill markers"/>
   <path d="m-339.56 76 18.121 31.881c3.0397-3.2242 5.7589-6.7537 8.082-10.555l-16.236-21.326z" style="paint-order:stroke fill markers"/>
  </g>
  <g transform="matrix(.84988 0 0 .84988 -341.08 -139.04)" fill="none" stroke="#000" stroke-opacity=".4" stroke-width="8" style="paint-order:stroke fill markers">
   <g transform="matrix(.21341 0 0 -.21341 -433.26 132.36)" fill="none" stroke="#000" stroke-opacity=".18824" stroke-width="37.486" style="paint-order:stroke fill markers">
    <path transform="matrix(4.6857 0 0 -4.6857 706.8 615.88)" d="m-76.006 14.328c-8.1035 0-14.76 6.6551-14.76 14.76 0 3.9092 1.5731 7.4593 4.0859 10.109-0.93046 0.26871-1.839 0.63877-2.6797 1.1562l0.69727-0.33984c-5.8233 2.178-11.185 5.1631-15.242 9.4609-4.0573 4.2979-6.6772 10.03-6.7324 16.75v0.017579 0.015624c0 5.1075 4.2283 9.332 9.334 9.332 1.6495 0 3.127-0.55912 4.4805-1.3281-1.2484 2.986-3.508 5.717-6.3477 8.1289-3.7502 3.1852-8.3707 5.6917-12.008 7.3438l0.02929-0.013672c-4.6688 2.0743-6.8166 7.6527-4.7422 12.322l0.00195 0.00195c2.0751 4.6669 7.6526 6.817 12.322 4.7422l0.11329-0.05078 0.10937-0.0586c9.2845-4.8354 21.174-12.122 26.908-22.883 5.9436 4.0687 11.206 10.698 12.113 15.9l-0.017578-0.12305c0.72147 5.0596 5.5059 8.6407 10.561 7.9199h0.001953c5.0542-0.72218 8.6425-5.5016 7.9199-10.559l-0.005859-0.048828-0.007813-0.046875c-2.455-14.608-12.576-25.374-24.773-31.52-0.014297-0.01995-0.074004-0.084922-0.17774-0.29102-0.14052-0.27918-0.28154-0.89331-0.42578-1.418 8.7969 3.6345 18.222 4.7597 27.432 0.24023l0.013672-0.007812 0.011718-0.005859c4.5715-2.2845 6.4589-7.9576 4.1758-12.525-2.2838-4.5658-7.9542-6.4582-12.521-4.1738l0.015625-0.007813c-4.9087 2.4268-7.9708 1.7835-11.355 0.16406-1.9471-0.93162-3.8657-2.299-5.834-3.7207 6.8297-1.2822 12.064-7.3023 12.064-14.484 0-8.1042-6.6556-14.76-14.76-14.76zm0 8c3.7804 0 6.7598 2.9794 6.7598 6.7598 0 3.7804-2.9785 6.7578-6.7598 6.7578-3.7798 0-6.7598-2.9779-6.7598-6.7578 0-3.7799 2.9808-6.7598 6.7598-6.7598zm-1.8223 18.178l0.28125 0.18164c-0.015971-0.011188-0.03477-0.014301-0.050781-0.025391-0.081052-0.048219-0.1489-0.10874-0.23047-0.15625zm-5.8281 6.2695c0.54066 0.007992 1.0837 0.15757 1.5195 0.46289l0.13672 0.097657 0.14453 0.083984c2.4765 1.4423 6.0898 4.776 10.926 7.0898 4.8359 2.3138 11.401 3.2292 18.355-0.20898l0.007813-0.003906 0.007812-0.003906c0.70318-0.3517 1.4348-0.10859 1.7871 0.5957 0.34982 0.69987 0.10586 1.4336-0.58789 1.7852-8.647 4.234-17.119 2.2053-26.484-3.1113l-5.5391-3.1445-0.42578 6.3555c-0.11736 1.7526-0.10656 4.5038 0.43555 7.4258 0.27105 1.461 0.66419 2.9553 1.4043 4.4258s1.9211 3.0699 3.9316 3.9336l-0.2207-0.10352c10.45 5.2611 18.486 13.952 20.479 25.631 0.098851 0.76572-0.35793 1.3772-1.1289 1.4883-0.77924 0.11112-1.4033-0.35654-1.5137-1.1309l-0.007813-0.0625-0.009765-0.060547c-1.7772-10.19-10.411-19.464-20.111-23.986l-4.0703-1.8984-1.416 4.2637c-3.041 9.1608-14.965 17.619-24.816 22.777-0.70212 0.29072-1.4103 0.023666-1.7246-0.67969-0.31795-0.7157-0.03719-1.4452 0.67968-1.7637l0.01367-0.007812 0.01563-0.00586c4.0615-1.8448 9.2626-4.6103 13.879-8.5312 4.6163-3.9209 8.7712-9.1249 9.9316-15.803l0.095703-0.55469-0.060547-0.55859c-0.16587-1.5426 0.12536-2.0343 0.021485-1.8613l0.88281-1.4727-0.45703-1.6523c-0.82184-2.9752-1.183-5.5889-1.2324-7.8496l-0.21289-9.7285c1.0656-0.49496 2.0058-1.0702 3.1602-1.502l0.36523-0.13672 0.33203-0.20312c0.42962-0.26446 0.96715-0.39862 1.5078-0.39062zm-5.7871 2.4336l-6.3184 6.918c-2.3308 2.5515-4.0828 6.0074-4.2031 10.01l-0.001953 0.060547v0.060546c-1.7e-4 0.7844-0.54834 1.332-1.3359 1.332-0.78431 0-1.3288-0.54505-1.332-1.3262 0.0457-4.7734 1.6677-8.2489 4.5469-11.299 2.1394-2.2663 5.2209-4.119 8.6445-5.7559z" color="#000000" color-rendering="auto" dominant-baseline="auto" fill="#000" fill-opacity=".18824" image-rendering="auto" shape-rendering="auto" solid-color="#000000" stroke="none" style="filter-blend-mode:normal;filter-gaussianBlur-deviation:0;font-feature-settings:normal;font-variant-alternates:normal;font-variant-caps:normal;font-variant-east-asian:normal;font-variant-ligatures:normal;font-variant-numeric:normal;font-variant-position:normal;isolation:auto;mix-blend-mode:normal;paint-order:stroke fill markers;shape-padding:0;text-decoration-color:#000000;text-decoration-line:none;text-decoration-style:solid;text-indent:0;text-orientation:mixed;text-transform:none;white-space:normal"/>
   </g>
  </g>
  <g transform="matrix(.84988 0 0 .84988 -341.25 -142.11)" stroke="#999" stroke-width="8" style="paint-order:stroke fill markers">
   <g transform="matrix(.21341 0 0 -.21341 -433.26 132.36)" fill="#fff" stroke="#999" stroke-width="37.486" style="paint-order:stroke fill markers">
    <g transform="matrix(4.6857 0 0 -4.6857 706.8 615.88)" shape-rendering="auto" stroke="none">
     <path d="m-76.006 14.799c-7.8494 0-14.289 6.4385-14.289 14.289 0 4.1042 1.7862 7.7924 4.5879 10.406-1.1895 0.23765-2.35 0.61078-3.4043 1.2598l0.61328-0.30078c-5.7787 2.1613-11.076 5.1188-15.064 9.3438-3.9884 4.2249-6.5492 9.825-6.6035 16.432v0.015625 0.013671c0 4.8535 4.0114 8.8613 8.8633 8.8613 2.0163 0 3.8001-0.80774 5.2988-1.9648-1.128 3.5817-3.5932 6.8179-6.8613 9.5938-3.7932 3.2218-8.4332 5.7389-12.092 7.4023-4.4366 1.9711-6.4751 7.2659-4.5039 11.703h0.00196c1.9719 4.4349 7.2639 6.4755 11.701 4.5039l0.09961-0.04492 0.09765-0.05078c9.3808-4.8856 21.354-12.319 26.914-23.158 6.2408 4.0814 11.823 10.974 12.789 16.512l-0.017578-0.10938c0.68557 4.8078 5.2259 8.2064 10.029 7.5215h0.001953c4.803-0.68628 8.2081-5.2219 7.5215-10.027l-0.005859-0.042969-0.007813-0.042969c-2.4274-14.444-12.432-25.09-24.535-31.184l-0.095703-0.048828-0.099609-0.042969c0.22855 0.098179 0.081006 0.1098-0.17578-0.40039-0.25679-0.51019-0.53993-1.4061-0.72656-2.4121-0.004991-0.026901 9.61e-4 -0.047155-0.003906-0.074219 8.9646 3.9137 18.558 5.2825 27.949 0.67383l0.011719-0.003906 0.011719-0.005859c4.3441-2.1708 6.1345-7.5539 3.9648-11.895l-0.001953-0.001953c-2.1703-4.3389-7.5484-6.1318-11.889-3.9609l0.013672-0.007813c-5.029 2.4862-8.2976 1.8263-11.768 0.16602-2.3453-1.1221-4.6238-2.812-6.9648-4.4805 7.2095-0.70216 12.928-6.7642 12.928-14.148 0-7.8501-6.4389-14.289-14.289-14.289zm0 7.0586c4.0345 0 7.2305 3.196 7.2305 7.2305 0 4.0345-3.1952 7.2285-7.2305 7.2285-4.0338 0-7.2305-3.1945-7.2305-7.2285 0-4.034 3.1974-7.2305 7.2305-7.2305zm-2.0586 19.055l0.24805 0.16016c-0.014739-0.010326-0.032099-0.013201-0.046875-0.023438-0.070025-0.041576-0.13081-0.095743-0.20117-0.13672zm-5.5801 5.3906c0.62972 0.010106 1.2615 0.18943 1.7773 0.55078l0.12109 0.085937 0.12695 0.074219c2.5523 1.4864 6.1419 4.7992 10.893 7.0723 4.7507 2.273 11.109 3.1717 17.943-0.20703l0.007812-0.003906 0.00586-0.003906c0.92931-0.4648 1.9515-0.12245 2.418 0.80664 0.46475 0.9298 0.12298 1.9583-0.80469 2.4219-8.8148 4.3144-17.488 2.2254-26.92-3.1289l-4.8887-2.7754-0.375 5.6094c-0.11444 1.7091-0.10188 4.4434 0.42969 7.3086 0.26578 1.4326 0.65139 2.8883 1.3613 4.2988 0.70994 1.4105 1.8265 2.9112 3.6973 3.7148l-0.19531-0.091797c10.553 5.313 18.713 14.128 20.732 25.979 0.13802 1.0208-0.50287 1.8781-1.5273 2.0254-1.0305 0.14694-1.8986-0.50318-2.0449-1.5293l-0.007812-0.054688-0.009766-0.054687c-1.7365-9.9567-10.286-19.185-19.844-23.641l-3.5938-1.6758-1.248 3.7637c-3.1231 9.408-15.175 17.882-25.07 23.059-0.93704 0.39542-1.93 0.017427-2.3476-0.91992-0.42116-0.94802-0.03112-1.9611 0.91797-2.3828l0.01367-0.00586 0.01172-0.005859c4.0366-1.8335 9.2041-4.5852 13.77-8.4629 4.5654-3.8777 8.6388-8.9959 9.7734-15.525l0.083984-0.48828-0.052734-0.49219c-0.17208-1.6003 0.1104-2.1983 0.083984-2.1543l0.7793-1.2988-0.40234-1.459c-0.83121-3.0091-1.1997-5.6599-1.25-7.9629l-0.19336-8.8105-5.9414 6.5059c-2.2711 2.4861-3.9654 5.8313-4.082 9.709v0.052734 0.052734c-2.25e-4 1.0384-0.7653 1.8027-1.8066 1.8027-1.0381 0-1.7994-0.76152-1.8027-1.7969 0.04579-4.8892 1.7269-8.4973 4.6758-11.621 2.9539-3.1291 7.2968-5.6659 12.404-7.5762l0.32227-0.12109 0.29102-0.17969c0.50951-0.31363 1.1379-0.473 1.7676-0.46289z" color="#000000" color-rendering="auto" dominant-baseline="auto" fill="#529add" image-rendering="auto" solid-color="#000000" style="filter-blend-mode:normal;filter-gaussianBlur-deviation:0;font-feature-settings:normal;font-variant-alternates:normal;font-variant-caps:normal;font-variant-east-asian:normal;font-variant-ligatures:normal;font-variant-numeric:normal;font-variant-position:normal;isolation:auto;mix-blend-mode:normal;paint-order:stroke fill markers;shape-padding:0;text-decoration-color:#000000;text-decoration-line:none;text-decoration-style:solid;text-indent:0;text-orientation:mixed;text-transform:none;white-space:normal"/>
     <path d="m-76.006 18.328c-5.9412 0-10.76 4.8175-10.76 10.76 0 5.9423 4.8185 10.758 10.76 10.758 5.9423 0 10.76-4.8155 10.76-10.758 0-5.9423-4.8175-10.76-10.76-10.76zm-11.256 25.432c-10.886 4.0715-19.28 10.99-19.375 22.498 0 2.9462 2.3878 5.332 5.334 5.332 2.9468 0 5.3353-2.3861 5.3359-5.332 0.08844-2.9413 1.3355-5.4383 3.1582-7.4336 0.05726 2.6205 0.47537 5.5623 1.377 8.8262-0.55523 0.92435-0.78709 2.3155-0.56836 4.3496-1.8824 10.832-13.825 17.88-21.523 21.377-2.6928 1.1964-3.9071 4.3503-2.7109 7.043 1.1973 2.6926 4.3503 3.9073 7.043 2.7109 10.216-5.3208 23.21-13.903 26.951-25.172 8.4867 3.9564 16.429 12.845 17.859 21.049 0.41594 2.9169 3.1202 4.9413 6.0371 4.5254 2.9169-0.41679 4.9441-3.1163 4.5273-6.0332-2.2127-13.166-11.304-22.908-22.643-28.617-3.2845-1.4109-3.5445-9.0776-3.3594-11.842 9.9486 5.6477 20.148 8.1696 30.24 3.2168 2.6359-1.3172 3.702-4.523 2.3848-7.1582-1.318-2.635-4.5191-3.7028-7.1543-2.3848-11.863 5.8649-19.252-3.1163-25.494-6.752-2.2329-1.5642-5.2011-1.5689-7.4199-0.20312z" color="#000000" color-rendering="auto" dominant-baseline="auto" fill="#fff" image-rendering="auto" solid-color="#000000" style="filter-blend-mode:normal;filter-gaussianBlur-deviation:0;font-feature-settings:normal;font-variant-alternates:normal;font-variant-caps:normal;font-variant-east-asian:normal;font-variant-ligatures:normal;font-variant-numeric:normal;font-variant-position:normal;isolation:auto;mix-blend-mode:normal;paint-order:stroke fill markers;shape-padding:0;text-decoration-color:#000000;text-decoration-line:none;text-decoration-style:solid;text-indent:0;text-orientation:mixed;text-transform:none;white-space:normal"/>
    </g>
   </g>
  </g>
 </g>
</svg>
