<?xml version="1.0" encoding="UTF-8"?>
<svg width="138" height="138" version="1.1" viewBox="0 0 138 138" xmlns="http://www.w3.org/2000/svg" xmlns:cc="http://creativecommons.org/ns#" xmlns:dc="http://purl.org/dc/elements/1.1/" xmlns:rdf="http://www.w3.org/1999/02/22-rdf-syntax-ns#">
 <metadata>
  <rdf:RDF>
   <cc:Work rdf:about="">
    <dc:format>image/svg+xml</dc:format>
    <dc:type rdf:resource="http://purl.org/dc/dcmitype/StillImage"/>
    <dc:title/>
    <cc:license rdf:resource="http://creativecommons.org/licenses/by-sa/4.0/"/>
    <dc:creator>
     <cc:Agent>
      <dc:title>Tobias Zwick</dc:title>
     </cc:Agent>
    </dc:creator>
   </cc:Work>
   <cc:License rdf:about="http://creativecommons.org/licenses/by-sa/4.0/">
    <cc:permits rdf:resource="http://creativecommons.org/ns#Reproduction"/>
    <cc:permits rdf:resource="http://creativecommons.org/ns#Distribution"/>
    <cc:requires rdf:resource="http://creativecommons.org/ns#Notice"/>
    <cc:requires rdf:resource="http://creativecommons.org/ns#Attribution"/>
    <cc:permits rdf:resource="http://creativecommons.org/ns#DerivativeWorks"/>
    <cc:requires rdf:resource="http://creativecommons.org/ns#ShareAlike"/>
   </cc:License>
  </rdf:RDF>
 </metadata>
 <g id="mail" transform="translate(-1203 -779)">
  <g transform="translate(192.16 1215.9)">
   <path d="m1143.8-367.95c0 35.346-28.654 64-64 64s-64-28.654-64-64 28.654-64 64-64 64 28.654 64 64" fill="#9bbe55" stroke-width=".2"/>
  </g>
  <path d="m1236 820c-2.8503-2.6e-4 -4.5185 2.7276-3.8516 5.0938-0.095 0.4432-0.1484 0.90249-0.1484 1.375v51.064c0 0.47251 0.053 0.9318 0.1484 1.375-0.6664 2.366 1.0016 5.092 3.8516 5.0918h72c2.8507 2.5e-4 4.5195-2.7273 3.8515-5.0938 0.095-0.44265 0.1485-0.90118 0.1485-1.373v-51.064c0-0.47187-0.053-0.93041-0.1485-1.373 0.6685-2.3666-1.0005-5.096-3.8515-5.0957h-69.533z" fill-opacity=".2" style="paint-order:stroke fill markers"/>
  <rect x="1232" y="816" width="80" height="64" rx="6.4674" ry="6.4674" fill="#ddd" style="paint-order:stroke fill markers"/>
  <path d="m1236 874 36-38 36 38" fill="none" stroke="#aaa" stroke-linecap="round" stroke-linejoin="round" stroke-width="8"/>
  <path d="m1236 880c-3.6785 3.3e-4 -5.4075-4.5462-2.6582-6.9902l36-32c1.5158-1.3478 3.8006-1.3478 5.3164 0l36 32c2.7493 2.444 1.0203 6.9906-2.6582 6.9902z" color="#000000" color-rendering="auto" dominant-baseline="auto" fill="#e9e9e9" fill-rule="evenodd" image-rendering="auto" shape-rendering="auto" solid-color="#000000" style="font-feature-settings:normal;font-variant-alternates:normal;font-variant-caps:normal;font-variant-ligatures:normal;font-variant-numeric:normal;font-variant-position:normal;isolation:auto;mix-blend-mode:normal;shape-padding:0;text-decoration-color:#000000;text-decoration-line:none;text-decoration-style:solid;text-indent:0;text-orientation:mixed;text-transform:none;white-space:normal"/>
  <path d="m1236 822 36 38 36-38" fill="none" stroke="#aaa" stroke-linecap="round" stroke-linejoin="round" stroke-width="8"/>
  <path d="m1236 816c-3.6785-3.3e-4 -5.4075 4.5462-2.6582 6.9902l36 32c1.5158 1.3478 3.8006 1.3478 5.3164 0l36-32c2.7493-2.444 1.0203-6.9906-2.6582-6.9902z" color="#000000" color-rendering="auto" dominant-baseline="auto" fill="#fff" fill-rule="evenodd" image-rendering="auto" shape-rendering="auto" solid-color="#000000" style="font-feature-settings:normal;font-variant-alternates:normal;font-variant-caps:normal;font-variant-ligatures:normal;font-variant-numeric:normal;font-variant-position:normal;isolation:auto;mix-blend-mode:normal;shape-padding:0;text-decoration-color:#000000;text-decoration-line:none;text-decoration-style:solid;text-indent:0;text-orientation:mixed;text-transform:none;white-space:normal"/>
 </g>
</svg>
