<?xml version="1.0" encoding="UTF-8"?>
<svg width="138.03" height="138.03" version="1.1" viewBox="0 0 138.03377 138.03377" xmlns="http://www.w3.org/2000/svg" xmlns:cc="http://creativecommons.org/ns#" xmlns:dc="http://purl.org/dc/elements/1.1/" xmlns:rdf="http://www.w3.org/1999/02/22-rdf-syntax-ns#">
 <metadata>
  <rdf:RDF>
   <cc:Work rdf:about="">
    <dc:format>image/svg+xml</dc:format>
    <dc:type rdf:resource="http://purl.org/dc/dcmitype/StillImage"/>
    <dc:title/>
    <cc:license rdf:resource="http://creativecommons.org/licenses/by-sa/4.0/"/>
    <dc:creator>
     <cc:Agent>
      <dc:title>Tobias Zwick</dc:title>
     </cc:Agent>
    </dc:creator>
   </cc:Work>
   <cc:License rdf:about="http://creativecommons.org/licenses/by-sa/4.0/">
    <cc:permits rdf:resource="http://creativecommons.org/ns#Reproduction"/>
    <cc:permits rdf:resource="http://creativecommons.org/ns#Distribution"/>
    <cc:requires rdf:resource="http://creativecommons.org/ns#Notice"/>
    <cc:requires rdf:resource="http://creativecommons.org/ns#Attribution"/>
    <cc:permits rdf:resource="http://creativecommons.org/ns#DerivativeWorks"/>
    <cc:requires rdf:resource="http://creativecommons.org/ns#ShareAlike"/>
   </cc:License>
  </rdf:RDF>
 </metadata>
 <g id="roof_shape" transform="matrix(.2 0 0 -.2 -3.8725 154.84)">
  <path d="m661.09 309.1c-66.274-163.83-252.81-242.92-416.65-176.65-163.83 66.274-242.92 252.81-176.65 416.65 66.274 163.83 252.81 242.92 416.65 176.65s242.92-252.81 176.65-416.65" fill="#c8c4b7"/>
  <path d="m365.33 649.1-180-60l-0.88387-340 180.88 60 179.12-60 0.88387 340z" fill-opacity=".2" style="paint-order:normal"/>
  <path d="m199.45 244.1 165 55 165-55v-55h-120v45h-90v-45h-120z" fill-opacity=".2" fill-rule="evenodd"/>
  <g>
   <path d="m184.45 609.1 180 60v-340l-180-60z" fill="#c84747" style="paint-order:normal"/>
   <path d="m364.45 669.1 180-60-1e-5 -340-180 60z" fill="#a33" style="paint-order:normal"/>
  </g>
  <path d="m199.45 264.1 165.88 55 164.12-55v-55h-120v45h-90v-45h-120z" fill="#fff" fill-rule="evenodd"/>
 </g>
</svg>
