<?xml version="1.0" encoding="UTF-8" standalone="no"?>
<svg
   xmlns:dc="http://purl.org/dc/elements/1.1/"
   xmlns:cc="http://creativecommons.org/ns#"
   xmlns:rdf="http://www.w3.org/1999/02/22-rdf-syntax-ns#"
   xmlns:svg="http://www.w3.org/2000/svg"
   xmlns="http://www.w3.org/2000/svg"
   xmlns:sodipodi="http://sodipodi.sourceforge.net/DTD/sodipodi-0.dtd"
   xmlns:inkscape="http://www.inkscape.org/namespaces/inkscape"
   width="138"
   height="138"
   version="1.1"
   viewBox="0 0 138 138"
   id="svg4497"
   sodipodi:docname="ic_quest_recycling_glass.svg"
   inkscape:version="0.92.4 (5da689c313, 2019-01-14)"
   inkscape:export-filename="C:\Users\Newton\AndroidStudioProjects\streetcomplete\res\quest_icons.svg.png"
   inkscape:export-xdpi="95.983444"
   inkscape:export-ydpi="95.983444">
  <metadata
     id="metadata4503">
    <rdf:RDF>
      <cc:Work
         rdf:about="">
        <dc:format>image/svg+xml</dc:format>
        <dc:type
           rdf:resource="http://purl.org/dc/dcmitype/StillImage" />
        <dc:title></dc:title>
        <cc:license
           rdf:resource="http://creativecommons.org/licenses/by-sa/4.0/" />
        <dc:creator>
          <cc:Agent>
            <dc:title>Tobias Zwick</dc:title>
          </cc:Agent>
        </dc:creator>
      </cc:Work>
      <cc:License
         rdf:about="http://creativecommons.org/licenses/by-sa/4.0/">
        <cc:permits
           rdf:resource="http://creativecommons.org/ns#Reproduction" />
        <cc:permits
           rdf:resource="http://creativecommons.org/ns#Distribution" />
        <cc:requires
           rdf:resource="http://creativecommons.org/ns#Notice" />
        <cc:requires
           rdf:resource="http://creativecommons.org/ns#Attribution" />
        <cc:permits
           rdf:resource="http://creativecommons.org/ns#DerivativeWorks" />
        <cc:requires
           rdf:resource="http://creativecommons.org/ns#ShareAlike" />
      </cc:License>
    </rdf:RDF>
  </metadata>
  <defs
     id="defs4501">
    <clipPath
       id="clipPath16-1-0"
       clipPathUnits="userSpaceOnUse">
      <path
         inkscape:connector-curvature="0"
         id="path18-3-2"
         d="M 0,38 H 38 V 0 H 0 Z" />
    </clipPath>
    <filter
       style="color-interpolation-filters:sRGB"
       inkscape:label="Drop Shadow"
       id="filter5578">
      <feFlood
         flood-opacity="1"
         flood-color="rgb(204,177,68)"
         result="flood"
         id="feFlood5568" />
      <feComposite
         in="flood"
         in2="SourceGraphic"
         operator="in"
         result="composite1"
         id="feComposite5570" />
      <feGaussianBlur
         in="composite1"
         stdDeviation="2.05669e-14"
         result="blur"
         id="feGaussianBlur5572" />
      <feOffset
         dx="4.63518e-15"
         dy="4"
         result="offset"
         id="feOffset5574" />
      <feComposite
         in="SourceGraphic"
         in2="offset"
         operator="over"
         result="composite2"
         id="feComposite5576" />
    </filter>
    <filter
       style="color-interpolation-filters:sRGB"
       inkscape:label="Drop Shadow"
       id="filter5578-6">
      <feFlood
         flood-opacity="1"
         flood-color="rgb(204,177,68)"
         result="flood"
         id="feFlood5568-7" />
      <feComposite
         in="flood"
         in2="SourceGraphic"
         operator="in"
         result="composite1"
         id="feComposite5570-4" />
      <feGaussianBlur
         in="composite1"
         stdDeviation="2.05669e-14"
         result="blur"
         id="feGaussianBlur5572-6" />
      <feOffset
         dx="4.63518e-15"
         dy="4"
         result="offset"
         id="feOffset5574-8" />
      <feComposite
         in="SourceGraphic"
         in2="offset"
         operator="over"
         result="composite2"
         id="feComposite5576-4" />
    </filter>
    <clipPath
       id="clipPath16"
       clipPathUnits="userSpaceOnUse">
      <path
         inkscape:connector-curvature="0"
         id="path18"
         d="M 0,38 H 38 V 0 H 0 Z" />
    </clipPath>
    <clipPath
       id="clipPath16-3"
       clipPathUnits="userSpaceOnUse">
      <path
         inkscape:connector-curvature="0"
         id="path18-8"
         d="M 0,36 H 36 V 0 H 0 Z" />
    </clipPath>
    <clipPath
       id="clipPath16-3-1"
       clipPathUnits="userSpaceOnUse">
      <path
         inkscape:connector-curvature="0"
         id="path18-8-6"
         d="M 0,36 H 36 V 0 H 0 Z" />
    </clipPath>
    <clipPath
       id="clipPath16-1"
       clipPathUnits="userSpaceOnUse">
      <path
         inkscape:connector-curvature="0"
         id="path18-85"
         d="M 0,36 H 36 V 0 H 0 Z" />
    </clipPath>
    <clipPath
       id="clipPath32"
       clipPathUnits="userSpaceOnUse">
      <path
         inkscape:connector-curvature="0"
         id="path34-5"
         d="M 11.815,23.013 C 4.2,15.397 -1.265,2.86 0.502,1.093 v 0 c 1.768,-1.768 14.305,3.698 21.92,11.313 v 0 c 7.616,7.615 7.562,11.53 4.243,14.85 v 0 c -1.328,1.328 -2.752,2.133 -4.47,2.133 v 0 c -2.575,0 -5.812,-1.809 -10.38,-6.376" />
    </clipPath>
    <clipPath
       id="clipPath16-1-4"
       clipPathUnits="userSpaceOnUse">
      <path
         inkscape:connector-curvature="0"
         id="path18-85-8"
         d="M 0,36 H 36 V 0 H 0 Z" />
    </clipPath>
    <clipPath
       id="clipPath32-8"
       clipPathUnits="userSpaceOnUse">
      <path
         inkscape:connector-curvature="0"
         id="path34-5-0"
         d="M 11.815,23.013 C 4.2,15.397 -1.265,2.86 0.502,1.093 v 0 c 1.768,-1.768 14.305,3.698 21.92,11.313 v 0 c 7.616,7.615 7.562,11.53 4.243,14.85 v 0 c -1.328,1.328 -2.752,2.133 -4.47,2.133 v 0 c -2.575,0 -5.812,-1.809 -10.38,-6.376" />
    </clipPath>
    <clipPath
       id="clipPath16-1-4-4"
       clipPathUnits="userSpaceOnUse">
      <path
         inkscape:connector-curvature="0"
         id="path18-85-8-0"
         d="M 0,36 H 36 V 0 H 0 Z" />
    </clipPath>
    <clipPath
       id="clipPath32-8-7"
       clipPathUnits="userSpaceOnUse">
      <path
         inkscape:connector-curvature="0"
         id="path34-5-0-1"
         d="M 11.815,23.013 C 4.2,15.397 -1.265,2.86 0.502,1.093 v 0 c 1.768,-1.768 14.305,3.698 21.92,11.313 v 0 c 7.616,7.615 7.562,11.53 4.243,14.85 v 0 c -1.328,1.328 -2.752,2.133 -4.47,2.133 v 0 c -2.575,0 -5.812,-1.809 -10.38,-6.376" />
    </clipPath>
    <clipPath
       id="clipPath16-1-4-4-7"
       clipPathUnits="userSpaceOnUse">
      <path
         inkscape:connector-curvature="0"
         id="path18-85-8-0-6"
         d="M 0,36 H 36 V 0 H 0 Z" />
    </clipPath>
    <clipPath
       id="clipPath32-8-7-3"
       clipPathUnits="userSpaceOnUse">
      <path
         inkscape:connector-curvature="0"
         id="path34-5-0-1-3"
         d="M 11.815,23.013 C 4.2,15.397 -1.265,2.86 0.502,1.093 v 0 c 1.768,-1.768 14.305,3.698 21.92,11.313 v 0 c 7.616,7.615 7.562,11.53 4.243,14.85 v 0 c -1.328,1.328 -2.752,2.133 -4.47,2.133 v 0 c -2.575,0 -5.812,-1.809 -10.38,-6.376" />
    </clipPath>
    <clipPath
       id="clipPath16-1-4-4-5"
       clipPathUnits="userSpaceOnUse">
      <path
         inkscape:connector-curvature="0"
         id="path18-85-8-0-4"
         d="M 0,36 H 36 V 0 H 0 Z" />
    </clipPath>
    <clipPath
       id="clipPath32-8-7-2"
       clipPathUnits="userSpaceOnUse">
      <path
         inkscape:connector-curvature="0"
         id="path34-5-0-1-32"
         d="M 11.815,23.013 C 4.2,15.397 -1.265,2.86 0.502,1.093 v 0 c 1.768,-1.768 14.305,3.698 21.92,11.313 v 0 c 7.616,7.615 7.562,11.53 4.243,14.85 v 0 c -1.328,1.328 -2.752,2.133 -4.47,2.133 v 0 c -2.575,0 -5.812,-1.809 -10.38,-6.376" />
    </clipPath>
    <clipPath
       id="clipPath16-1-4-4-5-5"
       clipPathUnits="userSpaceOnUse">
      <path
         inkscape:connector-curvature="0"
         id="path18-85-8-0-4-8"
         d="M 0,36 H 36 V 0 H 0 Z" />
    </clipPath>
    <clipPath
       id="clipPath32-8-7-2-0"
       clipPathUnits="userSpaceOnUse">
      <path
         inkscape:connector-curvature="0"
         id="path34-5-0-1-32-2"
         d="M 11.815,23.013 C 4.2,15.397 -1.265,2.86 0.502,1.093 v 0 c 1.768,-1.768 14.305,3.698 21.92,11.313 v 0 c 7.616,7.615 7.562,11.53 4.243,14.85 v 0 c -1.328,1.328 -2.752,2.133 -4.47,2.133 v 0 c -2.575,0 -5.812,-1.809 -10.38,-6.376" />
    </clipPath>
    <clipPath
       id="clipPath16-1-4-4-9"
       clipPathUnits="userSpaceOnUse">
      <path
         inkscape:connector-curvature="0"
         id="path18-85-8-0-67"
         d="M 0,36 H 36 V 0 H 0 Z" />
    </clipPath>
    <clipPath
       id="clipPath32-8-7-6"
       clipPathUnits="userSpaceOnUse">
      <path
         inkscape:connector-curvature="0"
         id="path34-5-0-1-8"
         d="M 11.815,23.013 C 4.2,15.397 -1.265,2.86 0.502,1.093 v 0 c 1.768,-1.768 14.305,3.698 21.92,11.313 v 0 c 7.616,7.615 7.562,11.53 4.243,14.85 v 0 c -1.328,1.328 -2.752,2.133 -4.47,2.133 v 0 c -2.575,0 -5.812,-1.809 -10.38,-6.376" />
    </clipPath>
    <clipPath
       id="clipPath16-1-4-4-0"
       clipPathUnits="userSpaceOnUse">
      <path
         inkscape:connector-curvature="0"
         id="path18-85-8-0-7"
         d="M 0,36 H 36 V 0 H 0 Z" />
    </clipPath>
    <clipPath
       id="clipPath32-8-7-8"
       clipPathUnits="userSpaceOnUse">
      <path
         inkscape:connector-curvature="0"
         id="path34-5-0-1-0"
         d="M 11.815,23.013 C 4.2,15.397 -1.265,2.86 0.502,1.093 v 0 c 1.768,-1.768 14.305,3.698 21.92,11.313 v 0 c 7.616,7.615 7.562,11.53 4.243,14.85 v 0 c -1.328,1.328 -2.752,2.133 -4.47,2.133 v 0 c -2.575,0 -5.812,-1.809 -10.38,-6.376" />
    </clipPath>
    <clipPath
       id="clipPath44"
       clipPathUnits="userSpaceOnUse">
      <path
         inkscape:connector-curvature="0"
         id="path46-1"
         d="M 7,35 C 5.896,35 5,34.105 5,33 V 33 3 C 5,1.895 5.896,1 7,1 v 0 h 18 c 1.105,0 2,0.895 2,2 v 0 30 c 0,1.105 -0.895,2 -2,2 v 0 z" />
    </clipPath>
    <clipPath
       id="clipPath16-4-5"
       clipPathUnits="userSpaceOnUse">
      <path
         inkscape:connector-curvature="0"
         id="path18-5-7"
         d="M 0,38 H 38 V 0 H 0 Z" />
    </clipPath>
    <clipPath
       id="clipPath56-9"
       clipPathUnits="userSpaceOnUse">
      <path
         inkscape:connector-curvature="0"
         id="path58-7"
         d="M 0,38 H 38 V 0 H 0 Z" />
    </clipPath>
    <clipPath
       id="clipPath44-2"
       clipPathUnits="userSpaceOnUse">
      <path
         inkscape:connector-curvature="0"
         id="path46-1-8"
         d="M 7,35 C 5.896,35 5,34.105 5,33 V 33 3 C 5,1.895 5.896,1 7,1 v 0 h 18 c 1.105,0 2,0.895 2,2 v 0 30 c 0,1.105 -0.895,2 -2,2 v 0 z" />
    </clipPath>
    <clipPath
       id="clipPath16-4-5-5"
       clipPathUnits="userSpaceOnUse">
      <path
         inkscape:connector-curvature="0"
         id="path18-5-7-2"
         d="M 0,38 H 38 V 0 H 0 Z" />
    </clipPath>
    <clipPath
       id="clipPath56-9-7"
       clipPathUnits="userSpaceOnUse">
      <path
         inkscape:connector-curvature="0"
         id="path58-7-2"
         d="M 0,38 H 38 V 0 H 0 Z" />
    </clipPath>
    <clipPath
       id="clipPath16-1-0-0"
       clipPathUnits="userSpaceOnUse">
      <path
         inkscape:connector-curvature="0"
         id="path18-3-2-2"
         d="M 0,38 H 38 V 0 H 0 Z" />
    </clipPath>
    <clipPath
       id="clipPath16-1-0-8"
       clipPathUnits="userSpaceOnUse">
      <path
         inkscape:connector-curvature="0"
         id="path18-3-2-0"
         d="M 0,38 H 38 V 0 H 0 Z" />
    </clipPath>
    <clipPath
       id="clipPath16-1-0-8-9"
       clipPathUnits="userSpaceOnUse">
      <path
         inkscape:connector-curvature="0"
         id="path18-3-2-0-7"
         d="M 0,38 H 38 V 0 H 0 Z" />
    </clipPath>
    <clipPath
       id="clipPath16-1-0-9"
       clipPathUnits="userSpaceOnUse">
      <path
         inkscape:connector-curvature="0"
         id="path18-3-2-1"
         d="M 0,38 H 38 V 0 H 0 Z" />
    </clipPath>
  </defs>
  <sodipodi:namedview
     pagecolor="#000000"
     bordercolor="#666666"
     borderopacity="1"
     objecttolerance="4"
     gridtolerance="5"
     guidetolerance="10"
     inkscape:pageopacity="0"
     inkscape:pageshadow="2"
     inkscape:window-width="1920"
     inkscape:window-height="1017"
     id="namedview4499"
     showgrid="true"
     inkscape:zoom="0.75697501"
     inkscape:cx="529.07349"
     inkscape:cy="335.4072"
     inkscape:window-x="-8"
     inkscape:window-y="-8"
     inkscape:window-maximized="1"
     inkscape:current-layer="svg4497"
     showguides="true"
     inkscape:lockguides="true"
     inkscape:snap-global="true"
     inkscape:pagecheckerboard="true"
     fit-margin-top="5"
     fit-margin-left="5"
     fit-margin-right="5"
     fit-margin-bottom="5"
     inkscape:snap-to-guides="true"
     inkscape:snap-grids="true"
     inkscape:snap-perpendicular="true"
     inkscape:snap-tangential="true"
     inkscape:measure-start="1817.62,1740.74"
     inkscape:measure-end="1845.07,1778.26"
     inkscape:document-rotation="0">
    <inkscape:grid
       type="xygrid"
       id="grid4505"
       empspacing="4"
       dotted="false"
       snapvisiblegridlinesonly="true"
       originx="-251"
       originy="-122.99995"
       visible="true"
       spacingx="4"
       spacingy="4"
       enabled="true" />
    <inkscape:grid
       type="xygrid"
       id="grid11867"
       color="#000000"
       opacity="0.23529412"
       empspacing="128"
       dotted="false"
       empcolor="#000000"
       empopacity="1"
       originx="-251"
       originy="-122.99995"
       enabled="true" />
  </sodipodi:namedview>
  <path
     style="fill:#9bbe55;fill-opacity:1;stroke-width:0.2;stroke:none"
     id="path4485-9-6-7-1-6"
     d="m 133,69 c 0,35.346 -28.654,64 -64,64 C 33.654,133 5,104.346 5,69 5,33.654 33.654,5 69,5 c 35.346,0 64,28.654 64,64"
     inkscape:connector-curvature="0" />
  <path
     inkscape:connector-curvature="0"
     id="glass_bottles-6"
     d="m 97.712439,24.167035 c -0.824801,0.03782 -1.434508,0.303278 -1.740022,0.831821 l -4.68957,8.100026 c -0.07452,0.623369 0.09255,1.680328 0.682443,2.558756 L 80.395286,55.637984 C 73.461209,55.063516 64.449657,55.779376 60.697363,62.259572 L 36.144847,104.64263 c -3.753614,6.4795 3.636102,13.64368 13.356616,19.27207 9.720514,5.62839 19.612676,8.47193 23.36486,1.99173 L 97.418951,83.521288 C 101.17125,77.040872 97.306094,68.870934 93.356007,63.143013 L 104.92612,43.160576 c 1.09769,0.08931 2.03947,-0.293937 2.55656,-0.680354 l 4.69177,-8.102115 c 0.41179,-1.819797 -2.45256,-5.030828 -6.79802,-7.548934 -2.98814,-1.730174 -5.849627,-2.745381 -7.663991,-2.662138 z"
     style="fill:#000000;fill-opacity:0.2;stroke-width:1.34879506;paint-order:fill markers stroke;stroke:none"
     sodipodi:nodetypes="ccccccsscccccccc" />
  <path
     inkscape:label="glass_bottles"
     style="fill:#4c8235;fill-opacity:0.90404041;stroke-width:1.34879494;paint-order:fill markers stroke;stroke:none"
     d="m 96.166692,21.190508 -4.690326,8.100462 c -0.07481,0.623399 0.09195,1.679715 0.682027,2.558157 L 80.58892,51.830267 C 73.654863,51.25589 64.643377,51.971426 60.891135,58.451663 L 36.338328,100.83584 c -3.752198,6.48026 3.637519,13.64338 13.358073,19.27178 9.720555,5.62839 19.61178,8.47127 23.364022,1.99103 L 97.613167,79.714585 c 3.752263,-6.48037 -0.11333,-14.651987 -4.063402,-20.379879 L 105.11918,39.353675 c 1.09771,0.0893 2.04107,-0.295678 2.55811,-0.682052 l 4.69033,-8.100462 c 0.4118,-1.819819 -2.4527,-5.030624 -6.79816,-7.548753 -4.34634,-2.516616 -8.42501,-3.523184 -9.402768,-1.8319 z"
     id="glass_bottles"
     inkscape:connector-curvature="0"
     sodipodi:nodetypes="cccccczcccccczc" />
  <path
     style="fill:#1d3214;fill-opacity:0.35858585;stroke-width:0.99534488;paint-order:fill markers stroke;stroke:none"
     d="m 68.470686,120.06152 c -1.833103,3.16603 -10.382864,1.64257 -17.477854,-2.46557 -7.094989,-4.10814 -12.43698,-10.62828 -10.603748,-13.79423 6.695029,0.10053 13.032944,-6.136658 20.127836,-2.02858 7.094903,4.10809 5.427552,11.2012 7.953766,18.28838 z"
     id="path5980-1"
     inkscape:connector-curvature="0"
     sodipodi:nodetypes="cscsc" />
  <path
     style="fill:#1d3214;fill-opacity:0.35686275;stroke-width:1.05655611;paint-order:fill markers stroke;stroke:none"
     d="M 97.103049,23.309398 93.42896,29.65476 c 0.735593,5.211898 8.1279,9.579011 12.69072,7.348178 l 3.67409,-6.345362 c -5.94836,-0.33188 -9.34432,-2.356034 -12.690721,-7.348178 z"
     id="rect4752-1"
     inkscape:connector-curvature="0"
     sodipodi:nodetypes="ccccc" />
  <path
     style="fill:#98c980;fill-opacity:0.25098039;stroke:none;stroke-width:1.24805021;paint-order:fill markers stroke"
     d="M 93.815643,34.124043 81.878518,54.74014 C 74.612461,53.63808 68.763751,57.232791 65.355403,60.983972 L 36.174909,111.10087 c -0.932722,2.77577 1.54712,6.13786 4.245641,8.85712 L 72.309887,64.883282 c 2.098666,-3.490766 5.569341,-6.555154 12.133777,-8.657872 L 95.822059,36.243483 c -1.078628,-0.731267 -1.574208,-1.42788 -2.006416,-2.11944 z"
     id="rect6079"
     inkscape:connector-curvature="0"
     sodipodi:nodetypes="ccccccccc" />
  <path
     inkscape:connector-curvature="0"
     id="path22-26-7-6"
     d="m 56.311069,19.719107 -12.279177,0.05215 c -1.936103,-0.03942 -3.255033,1.068907 -3.969578,2.089753 -0.03625,0.05181 -0.141341,0.215663 -0.256634,0.392426 l -0.0069,0.01091 c -0.213708,0.32792 -0.47203,0.723114 -0.47203,0.723114 0,0 0.03583,-0.02147 0.03843,-0.02333 l -5.204485,8.412526 c -0.365385,0.556989 -0.419269,1.235857 -0.134474,1.789261 0.13609,0.268641 0.535397,0.748878 0.804047,0.926188 l 8.820056,5.469304 c 0.82744,0.542663 1.870908,0.226854 2.413543,-0.602363 l 2.73193,-4.416885 2.766213,5.428149 -3.191525,1.625971 c -0.642957,0.329536 -1.030191,1.013991 -0.972865,1.735742 0.02,0.241782 0.0855,0.46955 0.18933,0.673719 0.213218,0.415504 0.582187,0.740488 1.044172,0.889137 l 14.454069,4.6968 c 0.940196,0.306249 1.951769,-0.209598 2.254349,-1.149844 L 70.036413,33.98645 c 0.15041,-0.460276 0.102926,-0.950185 -0.108399,-1.363898 -0.105653,-0.205961 -0.250031,-0.3962 -0.430862,-0.550223 -0.553453,-0.47281 -1.330664,-0.562797 -1.977201,-0.233261 L 64.328355,33.465041 57.823066,20.698744 C 57.513319,20.093401 56.893056,19.719045 56.31101,19.719045 Z M 37.511498,40.497269 c -0.118862,0.005 -0.239492,0.02115 -0.359485,0.05076 l -14.766835,3.590873 c -0.471047,0.118195 -0.862356,0.412497 -1.105994,0.813671 -0.119922,0.197006 -0.203804,0.414935 -0.24146,0.653135 -0.111,0.714593 0.223265,1.427408 0.84114,1.80709 l 3.0598,1.86061 -7.44654,12.239398 c -0.352811,0.58027 -0.349438,1.307297 -0.04117,1.801605 l 6.491591,10.425439 c 0.985017,1.665594 2.620157,2.208306 3.866656,2.276367 0.06309,0.0037 0.257688,0.0071 0.46648,0.01234 0.395174,0.0099 0.879568,0.02195 0.879568,0.02195 0,0 -0.03688,-0.01937 -0.03983,-0.02058 l 9.890362,0.01234 c 0.66621,0.01969 1.272002,-0.294107 1.594392,-0.826021 0.155823,-0.254316 0.354708,-0.848052 0.363629,-1.170429 l 0.02466,-10.378792 c 0.02509,-0.988607 -0.791961,-1.710794 -1.782389,-1.741227 l -5.192121,-0.0028 3.165532,-5.203116 3.059802,1.861979 c 0.619701,0.376101 1.404357,0.34391 1.98823,-0.08232 0.19341,-0.14328 0.352458,-0.320704 0.470625,-0.515923 0.243566,-0.399381 0.325974,-0.882849 0.211321,-1.355666 L 39.315878,41.862429 C 39.1106,41.019336 38.343225,40.4644 37.5115,40.497166 Z m 34.672329,8.772019 c -0.300823,0 -0.908863,0.137928 -1.188259,0.299123 l -8.880406,5.373261 c -0.857859,0.490723 -1.050984,1.564894 -0.558441,2.42455 l 2.696241,4.440217 h -6.093677 v -3.582631 c 0,-0.72355 -0.434726,-1.378983 -1.104519,-1.654788 -0.221928,-0.09313 -0.455028,-0.135848 -0.68609,-0.135848 -0.465568,0 -0.924321,0.183453 -1.266452,0.525528 L 44.355688,67.703846 c -0.700283,0.700263 -0.700283,1.832685 0,2.532953 l 10.746536,10.745145 c 0.342131,0.342076 0.800884,0.525528 1.266452,0.525528 0.231062,0 0.46402,-0.04411 0.68609,-0.137219 0.669793,-0.275807 1.104519,-0.931239 1.104519,-1.654789 V 76.13421 h 14.327824 c 0.678785,0 1.297713,-0.382528 1.557368,-0.900117 L 79.576904,64.26803 c 0.913361,-1.706777 0.525493,-3.385838 -0.06041,-4.485488 -0.02971,-0.05585 -0.128637,-0.221971 -0.233241,-0.403408 v -0.0028 l -0.02333,-0.03979 c -0.191087,-0.330933 -0.415757,-0.718998 -0.415757,-0.718998 0,0 0.0024,0.03609 0.0028,0.03842 L 73.71934,50.20228 c -0.331314,-0.578485 -0.912166,-0.933052 -1.535451,-0.933052 z"
     style="fill:#000000;fill-opacity:0.2;fill-rule:nonzero;stroke:none;stroke-width:0.87816286" />
  <path
     d="m 70.542133,66.72873 c -0.623254,0 -1.226807,-0.324163 -1.556343,-0.902643 l -7.584713,-12.49194 c -0.492513,-0.859661 -0.29909,-1.934236 0.55878,-2.424959 l 8.879575,-5.372878 c 0.27939,-0.161186 0.888316,-0.29909 1.189197,-0.29909 0.623254,0 1.203525,0.35461 1.534852,0.93309 l 5.564511,9.173293 0.293717,3.997421 c 0.490723,0.857869 -1.715739,2.120495 -2.573608,2.611218 l -5.419443,4.540082 c -0.27939,0.161186 -0.585644,0.236406 -0.886525,0.236406"
     style="fill:#dddddd;fill-opacity:1;fill-rule:nonzero;stroke:none;stroke-width:0.87816286"
     id="path22-26-70"
     inkscape:connector-curvature="0" />
  <path
     style="fill:#ffffff;fill-opacity:1;fill-rule:nonzero;stroke:none;stroke-width:0.8781628"
     d="m 56.212928,52.400783 c -0.465596,0 -0.924463,0.183547 -1.26659,0.525618 L 44.200381,63.671143 c -0.700263,0.700263 -0.700263,1.832918 0,2.533181 l 10.745957,10.745957 c 0.342127,0.342077 0.800994,0.524403 1.26659,0.524403 0.231054,0 0.464163,-0.04317 0.686247,-0.136271 0.6698,-0.275807 1.104746,-0.931173 1.104746,-1.654722 v -3.581986 h 14.327943 c 0.678833,0 1.297738,-0.382774 1.557386,-0.900362 l 5.532392,-10.964969 c 0.913375,-1.706782 0.524839,-3.386347 -0.06105,-4.485998 -0.08591,-0.161183 -0.671607,-1.165603 -0.671607,-1.165603 0,0 0.536737,3.188989 -2.776506,3.188989 H 58.003734 v -3.581986 c 0,-0.723549 -0.434946,-1.378915 -1.104746,-1.654722 -0.221897,-0.09313 -0.455006,-0.136271 -0.68606,-0.136271 z"
     id="path26-5-4"
     inkscape:connector-curvature="0" />
  <path
     d="m 53.692431,20.699825 c 0.282971,0.555198 0.268644,1.239344 -0.09671,1.798123 l -7.686797,12.429257 c -0.542661,0.829214 -1.58679,1.144423 -2.414213,0.601762 l -8.820474,-5.469589 c -0.268644,-0.177305 -0.668028,-0.657282 -0.804141,-0.925926 -0.284762,-0.553406 -0.231033,-1.23218 0.134322,-1.789168 l 5.645104,-9.123146 3.427896,-2.075722 c 0.54266,-0.831005 2.668529,0.564152 3.497743,1.106813 l 6.502973,2.767032 c 0.272226,0.175514 0.478186,0.415502 0.614299,0.680564"
     style="fill:#dddddd;fill-opacity:1;fill-rule:nonzero;stroke:none;stroke-width:0.87816286"
     id="path34-2-7"
     inkscape:connector-curvature="0" />
  <path
     style="fill:#ffffff;fill-opacity:1;fill-rule:nonzero;stroke:none;stroke-width:0.8781628"
     d="m 56.155741,15.686644 -12.280168,0.05233 c -1.936079,-0.03943 -3.254312,1.069456 -3.968903,2.090303 -0.103909,0.14865 -0.734899,1.126669 -0.734899,1.126669 0,0 2.599525,-1.927607 4.103959,1.025681 l 8.131232,15.955903 -3.192639,1.626732 c -0.642951,0.329537 -1.029432,1.013273 -0.97212,1.735027 0.01993,0.241781 0.0859,0.469888 0.189752,0.674055 0.213175,0.415504 0.581901,0.740767 1.043946,0.889417 l 14.453282,4.696487 c 0.940224,0.306251 1.951902,-0.209536 2.254533,-1.149786 l 4.696513,-14.455698 c 0.150443,-0.460276 0.103036,-0.950217 -0.10827,-1.363933 -0.105653,-0.205961 -0.249867,-0.395925 -0.43071,-0.54995 -0.553433,-0.47281 -1.33063,-0.56193 -1.977194,-0.232393 L 64.172661,29.433009 57.666903,16.666102 C 57.357108,16.060759 56.737829,15.68665 56.155741,15.68665 Z"
     id="path38-6-1"
     inkscape:connector-curvature="0" />
  <path
     d="m 22.856949,58.744634 c 0.324164,-0.531915 0.913389,-0.87757 1.579626,-0.857869 l 14.614227,0.0072 c 0.990401,0.03045 1.807078,0.752203 1.782004,1.740812 l -0.02507,10.378609 c -0.009,0.322372 -0.207751,0.916971 -0.363565,1.171287 -0.322372,0.531915 -0.927717,0.845333 -1.593953,0.825632 l -10.72964,-0.01436 -3.569382,-1.823196 C 23.564378,70.142299 23.634225,67.602718 23.659299,66.6159 L 22.59726,59.623995 c 0.0072,-0.320581 0.102085,-0.621463 0.259689,-0.879361"
     style="fill:#dddddd;fill-opacity:1;fill-rule:nonzero;stroke:none;stroke-width:0.87816286"
     id="path46-7-9"
     inkscape:connector-curvature="0" />
  <path
     style="fill:#ffffff;fill-opacity:1;fill-rule:nonzero;stroke:none;stroke-width:0.8781628"
     d="m 37.355237,36.465569 c -0.11886,0.005 -0.238965,0.02031 -0.358946,0.0499 l -14.767188,3.591717 c -0.471016,0.118205 -0.862418,0.411586 -1.105993,0.812762 -0.119981,0.197009 -0.20327,0.415174 -0.240896,0.653373 -0.11101,0.71459 0.222893,1.427125 0.840739,1.806809 l 3.060012,1.861561 -7.446232,12.238861 c -0.352841,0.580269 -0.349415,1.307637 -0.04111,1.801944 l 6.491119,10.424744 c 0.985015,1.665592 2.620207,2.208403 3.866676,2.276461 0.182712,0.01072 1.345705,0.03408 1.345705,0.03408 0,0 -3.004756,-1.200015 -1.283596,-4.029734 l 9.307805,-15.300087 3.060013,1.861561 c 0.619652,0.376102 1.404201,0.343509 1.988095,-0.08273 0.193428,-0.143279 0.352655,-0.320672 0.470829,-0.515887 0.243575,-0.399382 0.326366,-0.882595 0.211742,-1.355411 L 39.15981,37.830741 c -0.205263,-0.843093 -0.972618,-1.397908 -1.804324,-1.365147 z"
     id="path50-3"
     inkscape:connector-curvature="0" />
</svg>
