<?xml version="1.0" encoding="UTF-8" standalone="no"?>
<svg
   xmlns:dc="http://purl.org/dc/elements/1.1/"
   xmlns:cc="http://creativecommons.org/ns#"
   xmlns:rdf="http://www.w3.org/1999/02/22-rdf-syntax-ns#"
   xmlns:svg="http://www.w3.org/2000/svg"
   xmlns="http://www.w3.org/2000/svg"
   xmlns:sodipodi="http://sodipodi.sourceforge.net/DTD/sodipodi-0.dtd"
   xmlns:inkscape="http://www.inkscape.org/namespaces/inkscape"
   width="138.02121"
   height="138.02119"
   version="1.1"
   viewBox="0 0 138.02121 138.02119"
   id="svg4497"
   sodipodi:docname="ic_quest_parking_fee.svg"
   inkscape:version="0.92.2 (5c3e80d, 2017-08-06)"
   inkscape:export-filename="C:\Users\Newton\AndroidStudioProjects\streetcomplete\res\quest_icons.svg.png"
   inkscape:export-xdpi="95.983444"
   inkscape:export-ydpi="95.983444">
  <metadata
     id="metadata4503">
    <rdf:RDF>
      <cc:Work
         rdf:about="">
        <dc:format>image/svg+xml</dc:format>
        <dc:type
           rdf:resource="http://purl.org/dc/dcmitype/StillImage" />
        <dc:title></dc:title>
        <cc:license
           rdf:resource="http://creativecommons.org/licenses/by-sa/4.0/" />
        <dc:creator>
          <cc:Agent>
            <dc:title>Tobias Zwick</dc:title>
          </cc:Agent>
        </dc:creator>
      </cc:Work>
      <cc:License
         rdf:about="http://creativecommons.org/licenses/by-sa/4.0/">
        <cc:permits
           rdf:resource="http://creativecommons.org/ns#Reproduction" />
        <cc:permits
           rdf:resource="http://creativecommons.org/ns#Distribution" />
        <cc:requires
           rdf:resource="http://creativecommons.org/ns#Notice" />
        <cc:requires
           rdf:resource="http://creativecommons.org/ns#Attribution" />
        <cc:permits
           rdf:resource="http://creativecommons.org/ns#DerivativeWorks" />
        <cc:requires
           rdf:resource="http://creativecommons.org/ns#ShareAlike" />
      </cc:License>
    </rdf:RDF>
  </metadata>
  <defs
     id="defs4501">
    <clipPath
       id="clipPath16-1-0"
       clipPathUnits="userSpaceOnUse">
      <path
         inkscape:connector-curvature="0"
         id="path18-3-2"
         d="M 0,38 H 38 V 0 H 0 Z" />
    </clipPath>
    <filter
       style="color-interpolation-filters:sRGB"
       inkscape:label="Drop Shadow"
       id="filter5578">
      <feFlood
         flood-opacity="1"
         flood-color="rgb(204,177,68)"
         result="flood"
         id="feFlood5568" />
      <feComposite
         in="flood"
         in2="SourceGraphic"
         operator="in"
         result="composite1"
         id="feComposite5570" />
      <feGaussianBlur
         in="composite1"
         stdDeviation="2.05669e-14"
         result="blur"
         id="feGaussianBlur5572" />
      <feOffset
         dx="4.63518e-15"
         dy="4"
         result="offset"
         id="feOffset5574" />
      <feComposite
         in="SourceGraphic"
         in2="offset"
         operator="over"
         result="composite2"
         id="feComposite5576" />
    </filter>
    <filter
       style="color-interpolation-filters:sRGB"
       inkscape:label="Drop Shadow"
       id="filter5578-6">
      <feFlood
         flood-opacity="1"
         flood-color="rgb(204,177,68)"
         result="flood"
         id="feFlood5568-7" />
      <feComposite
         in="flood"
         in2="SourceGraphic"
         operator="in"
         result="composite1"
         id="feComposite5570-4" />
      <feGaussianBlur
         in="composite1"
         stdDeviation="2.05669e-14"
         result="blur"
         id="feGaussianBlur5572-6" />
      <feOffset
         dx="4.63518e-15"
         dy="4"
         result="offset"
         id="feOffset5574-8" />
      <feComposite
         in="SourceGraphic"
         in2="offset"
         operator="over"
         result="composite2"
         id="feComposite5576-4" />
    </filter>
    <clipPath
       id="clipPath16"
       clipPathUnits="userSpaceOnUse">
      <path
         inkscape:connector-curvature="0"
         id="path18"
         d="M 0,38 H 38 V 0 H 0 Z" />
    </clipPath>
    <clipPath
       id="clipPath16-3"
       clipPathUnits="userSpaceOnUse">
      <path
         inkscape:connector-curvature="0"
         id="path18-8"
         d="M 0,36 H 36 V 0 H 0 Z" />
    </clipPath>
    <clipPath
       id="clipPath16-3-1"
       clipPathUnits="userSpaceOnUse">
      <path
         inkscape:connector-curvature="0"
         id="path18-8-6"
         d="M 0,36 H 36 V 0 H 0 Z" />
    </clipPath>
    <clipPath
       id="clipPath16-1"
       clipPathUnits="userSpaceOnUse">
      <path
         inkscape:connector-curvature="0"
         id="path18-85"
         d="M 0,36 H 36 V 0 H 0 Z" />
    </clipPath>
    <clipPath
       id="clipPath32"
       clipPathUnits="userSpaceOnUse">
      <path
         inkscape:connector-curvature="0"
         id="path34-5"
         d="M 11.815,23.013 C 4.2,15.397 -1.265,2.86 0.502,1.093 v 0 c 1.768,-1.768 14.305,3.698 21.92,11.313 v 0 c 7.616,7.615 7.562,11.53 4.243,14.85 v 0 c -1.328,1.328 -2.752,2.133 -4.47,2.133 v 0 c -2.575,0 -5.812,-1.809 -10.38,-6.376" />
    </clipPath>
    <clipPath
       id="clipPath16-1-4"
       clipPathUnits="userSpaceOnUse">
      <path
         inkscape:connector-curvature="0"
         id="path18-85-8"
         d="M 0,36 H 36 V 0 H 0 Z" />
    </clipPath>
    <clipPath
       id="clipPath32-8"
       clipPathUnits="userSpaceOnUse">
      <path
         inkscape:connector-curvature="0"
         id="path34-5-0"
         d="M 11.815,23.013 C 4.2,15.397 -1.265,2.86 0.502,1.093 v 0 c 1.768,-1.768 14.305,3.698 21.92,11.313 v 0 c 7.616,7.615 7.562,11.53 4.243,14.85 v 0 c -1.328,1.328 -2.752,2.133 -4.47,2.133 v 0 c -2.575,0 -5.812,-1.809 -10.38,-6.376" />
    </clipPath>
    <clipPath
       id="clipPath16-1-4-4"
       clipPathUnits="userSpaceOnUse">
      <path
         inkscape:connector-curvature="0"
         id="path18-85-8-0"
         d="M 0,36 H 36 V 0 H 0 Z" />
    </clipPath>
    <clipPath
       id="clipPath32-8-7"
       clipPathUnits="userSpaceOnUse">
      <path
         inkscape:connector-curvature="0"
         id="path34-5-0-1"
         d="M 11.815,23.013 C 4.2,15.397 -1.265,2.86 0.502,1.093 v 0 c 1.768,-1.768 14.305,3.698 21.92,11.313 v 0 c 7.616,7.615 7.562,11.53 4.243,14.85 v 0 c -1.328,1.328 -2.752,2.133 -4.47,2.133 v 0 c -2.575,0 -5.812,-1.809 -10.38,-6.376" />
    </clipPath>
    <clipPath
       id="clipPath16-1-4-4-7"
       clipPathUnits="userSpaceOnUse">
      <path
         inkscape:connector-curvature="0"
         id="path18-85-8-0-6"
         d="M 0,36 H 36 V 0 H 0 Z" />
    </clipPath>
    <clipPath
       id="clipPath32-8-7-3"
       clipPathUnits="userSpaceOnUse">
      <path
         inkscape:connector-curvature="0"
         id="path34-5-0-1-3"
         d="M 11.815,23.013 C 4.2,15.397 -1.265,2.86 0.502,1.093 v 0 c 1.768,-1.768 14.305,3.698 21.92,11.313 v 0 c 7.616,7.615 7.562,11.53 4.243,14.85 v 0 c -1.328,1.328 -2.752,2.133 -4.47,2.133 v 0 c -2.575,0 -5.812,-1.809 -10.38,-6.376" />
    </clipPath>
    <clipPath
       id="clipPath16-1-4-4-5"
       clipPathUnits="userSpaceOnUse">
      <path
         inkscape:connector-curvature="0"
         id="path18-85-8-0-4"
         d="M 0,36 H 36 V 0 H 0 Z" />
    </clipPath>
    <clipPath
       id="clipPath32-8-7-2"
       clipPathUnits="userSpaceOnUse">
      <path
         inkscape:connector-curvature="0"
         id="path34-5-0-1-32"
         d="M 11.815,23.013 C 4.2,15.397 -1.265,2.86 0.502,1.093 v 0 c 1.768,-1.768 14.305,3.698 21.92,11.313 v 0 c 7.616,7.615 7.562,11.53 4.243,14.85 v 0 c -1.328,1.328 -2.752,2.133 -4.47,2.133 v 0 c -2.575,0 -5.812,-1.809 -10.38,-6.376" />
    </clipPath>
    <clipPath
       id="clipPath16-1-4-4-5-5"
       clipPathUnits="userSpaceOnUse">
      <path
         inkscape:connector-curvature="0"
         id="path18-85-8-0-4-8"
         d="M 0,36 H 36 V 0 H 0 Z" />
    </clipPath>
    <clipPath
       id="clipPath32-8-7-2-0"
       clipPathUnits="userSpaceOnUse">
      <path
         inkscape:connector-curvature="0"
         id="path34-5-0-1-32-2"
         d="M 11.815,23.013 C 4.2,15.397 -1.265,2.86 0.502,1.093 v 0 c 1.768,-1.768 14.305,3.698 21.92,11.313 v 0 c 7.616,7.615 7.562,11.53 4.243,14.85 v 0 c -1.328,1.328 -2.752,2.133 -4.47,2.133 v 0 c -2.575,0 -5.812,-1.809 -10.38,-6.376" />
    </clipPath>
    <clipPath
       id="clipPath16-1-4-4-9"
       clipPathUnits="userSpaceOnUse">
      <path
         inkscape:connector-curvature="0"
         id="path18-85-8-0-67"
         d="M 0,36 H 36 V 0 H 0 Z" />
    </clipPath>
    <clipPath
       id="clipPath32-8-7-6"
       clipPathUnits="userSpaceOnUse">
      <path
         inkscape:connector-curvature="0"
         id="path34-5-0-1-8"
         d="M 11.815,23.013 C 4.2,15.397 -1.265,2.86 0.502,1.093 v 0 c 1.768,-1.768 14.305,3.698 21.92,11.313 v 0 c 7.616,7.615 7.562,11.53 4.243,14.85 v 0 c -1.328,1.328 -2.752,2.133 -4.47,2.133 v 0 c -2.575,0 -5.812,-1.809 -10.38,-6.376" />
    </clipPath>
    <clipPath
       id="clipPath16-1-4-4-0"
       clipPathUnits="userSpaceOnUse">
      <path
         inkscape:connector-curvature="0"
         id="path18-85-8-0-7"
         d="M 0,36 H 36 V 0 H 0 Z" />
    </clipPath>
    <clipPath
       id="clipPath32-8-7-8"
       clipPathUnits="userSpaceOnUse">
      <path
         inkscape:connector-curvature="0"
         id="path34-5-0-1-0"
         d="M 11.815,23.013 C 4.2,15.397 -1.265,2.86 0.502,1.093 v 0 c 1.768,-1.768 14.305,3.698 21.92,11.313 v 0 c 7.616,7.615 7.562,11.53 4.243,14.85 v 0 c -1.328,1.328 -2.752,2.133 -4.47,2.133 v 0 c -2.575,0 -5.812,-1.809 -10.38,-6.376" />
    </clipPath>
  </defs>
  <sodipodi:namedview
     pagecolor="#000000"
     bordercolor="#666666"
     borderopacity="1"
     objecttolerance="4"
     gridtolerance="5"
     guidetolerance="10"
     inkscape:pageopacity="0"
     inkscape:pageshadow="2"
     inkscape:window-width="1920"
     inkscape:window-height="1016"
     id="namedview4499"
     showgrid="false"
     inkscape:zoom="0.70710678"
     inkscape:cx="-433.11772"
     inkscape:cy="81.151998"
     inkscape:window-x="0"
     inkscape:window-y="27"
     inkscape:window-maximized="1"
     inkscape:current-layer="svg4497"
     showguides="false"
     inkscape:lockguides="true"
     inkscape:snap-global="true"
     inkscape:pagecheckerboard="true"
     fit-margin-top="5"
     fit-margin-left="5"
     fit-margin-right="5"
     fit-margin-bottom="5"
     inkscape:snap-to-guides="true"
     inkscape:snap-grids="true"
     inkscape:snap-perpendicular="true"
     inkscape:snap-tangential="true"
     inkscape:measure-start="1817.62,1740.74"
     inkscape:measure-end="1845.07,1778.26"
     inkscape:document-rotation="0">
    <inkscape:grid
       type="xygrid"
       id="grid4505"
       empspacing="4"
       dotted="false"
       snapvisiblegridlinesonly="true"
       originx="-763"
       originy="-378.99997"
       visible="true"
       spacingx="4"
       spacingy="4"
       enabled="true" />
    <inkscape:grid
       type="xygrid"
       id="grid11867"
       color="#000000"
       opacity="0.23529412"
       empspacing="128"
       dotted="false"
       empcolor="#000000"
       empopacity="1"
       originx="-763"
       originy="-378.99997"
       enabled="true" />
  </sodipodi:namedview>
  <g
     transform="rotate(30,-150.15908,884.63301)"
     id="parking_fee"
     inkscape:export-xdpi="95.983444"
     inkscape:export-ydpi="95.983444"
     inkscape:label="#g8992-6-57-7">
    <g
       id="g5825">
      <path
         style="fill:#ffdd55;fill-opacity:1;stroke-width:0.2"
         id="path4485-6-6-3-8-32"
         d="m -304.16376,68.698442 c 0,35.345998 -28.654,63.999998 -64.00002,63.999998 -35.346,0 -64,-28.654 -64,-63.999998 0,-35.346 28.654,-63.9999997 64,-63.9999997 35.34602,0 64.00002,28.6539997 64.00002,63.9999997"
         inkscape:connector-curvature="0" />
    </g>
    <rect
       rx="8.4719582"
       style="opacity:1;vector-effect:none;fill:none;fill-opacity:1;stroke:#000000;stroke-width:8;stroke-linecap:butt;stroke-linejoin:miter;stroke-miterlimit:4;stroke-dasharray:none;stroke-dashoffset:0;stroke-opacity:0.2;paint-order:normal"
       id="rect5107-9-5"
       width="72.000008"
       height="80.000015"
       x="-389.76276"
       y="-160.5873"
       ry="8.4719582"
       transform="rotate(-30)" />
    <rect
       rx="8.4719582"
       style="opacity:1;vector-effect:none;fill:#495aad;fill-opacity:1;stroke:#ffffff;stroke-width:8;stroke-linecap:butt;stroke-linejoin:miter;stroke-miterlimit:4;stroke-dasharray:none;stroke-dashoffset:0;stroke-opacity:0.98994978;paint-order:normal"
       id="rect5107-4"
       width="72.000008"
       height="80.000015"
       x="-389.76276"
       y="-164.58728"
       transform="rotate(-30)"
       ry="8.4719582" />
    <g
       aria-label="P"
       transform="rotate(-30)"
       style="font-style:normal;font-variant:normal;font-weight:normal;font-stretch:normal;font-size:5.33333349px;line-height:25px;font-family:'Times New Roman';-inkscape-font-specification:'Times New Roman, ';letter-spacing:0px;word-spacing:0px;fill:#ffffff;fill-opacity:1;stroke:none;stroke-width:1px;stroke-linecap:butt;stroke-linejoin:miter;stroke-opacity:1"
       id="text5111-1" />
    <path
       style="fill:none;fill-rule:evenodd;stroke:#ffffff;stroke-width:8;stroke-linecap:square;stroke-linejoin:miter;stroke-miterlimit:4;stroke-dasharray:none;stroke-opacity:1"
       d="m -369.05349,92.306137 -20,-34.641016 10.39231,-6 c 0,0 10.3923,-6 16.3923,4.392305 6,10.392305 -4.3923,16.392305 -4.3923,16.392305 l -10.39231,6"
       id="path5120-22"
       inkscape:connector-curvature="0"
       sodipodi:nodetypes="ccczcc" />
    <path
       style="fill:#000000;fill-opacity:0.2;stroke-width:1.19566786"
       d="m -344.81496,50.86784 c -1.49512,20.606335 -7.93098,41.027758 -18.86728,59.62952 9.93119,2.13589 19.92269,4.37329 29.91365,6.61274 10.93627,-18.601802 17.37046,-39.022237 18.86558,-59.628567 -9.99096,-2.239419 -19.92099,-4.374266 -29.91195,-6.613693 z"
       id="path11299-1-4-6"
       inkscape:connector-curvature="0" />
    <g
       transform="matrix(1.0354787,-0.5978339,0.5978339,1.0354787,-391.60504,70.500343)"
       id="g11906-5-0">
      <path
         style="fill:#83bf4f"
         inkscape:connector-curvature="0"
         id="path11299-1-4"
         d="M 22.4,54.6 C 16.1,48.8 9.8,43 3.5,37.3 19.2,28.4 32.4,16.3 42.1,2 48.4,7.8 54.7,13.5 61,19.3 51.3,33.6 38.1,45.7 22.4,54.6" />
      <g
         style="fill:#699635"
         id="g11309-1-3">
        <path
           inkscape:connector-curvature="0"
           id="path11301-8-9"
           d="M 20.8,50.8 C 16.6,47 12.4,43.1 8.2,39.3 8.5,39.1 8.7,39 9,38.8 9.8,38.3 10,37.4 9.3,36.7 9.1,36.5 8.9,36.3 8.7,36.1 21.4,28.3 32.4,18.3 41,6.7 c 0.2,0.2 0.4,0.4 0.6,0.6 0.7,0.6 1.7,0.5 2.3,-0.2 0.2,-0.2 0.3,-0.5 0.5,-0.7 4.2,3.8 8.4,7.7 12.6,11.5 -0.2,0.2 -0.3,0.5 -0.5,0.7 -0.6,0.8 -0.5,1.9 0.2,2.6 0.2,0.2 0.4,0.4 0.6,0.6 -8.6,11.5 -19.6,21.5 -32.3,29.3 -0.2,-0.2 -0.4,-0.4 -0.6,-0.6 -0.7,-0.6 -1.9,-0.7 -2.8,-0.2 -0.3,0.2 -0.5,0.3 -0.8,0.5 M 10.9,39.4 c 3.4,3.1 6.8,6.2 10.3,9.4 1.3,-0.4 2.8,-0.3 4,0.3 C 36.8,41.7 46.9,32.5 55,21.8 54.3,20.7 54.2,19.3 54.7,18.1 51.3,15 47.9,11.9 44.4,8.7 43.5,9.5 42.2,9.6 41.1,9 33,19.8 22.9,29 11.3,36.4 c 0.6,1 0.5,2.2 -0.4,3" />
        <path
           inkscape:connector-curvature="0"
           id="path11303-9-2"
           d="m 20,37.3 c 1.1,-0.4 2.3,-0.3 3.1,0.4 -0.5,0.4 -1.1,0.8 -1.6,1.2 -0.2,-0.2 -0.7,-0.2 -0.9,0 -0.3,0.2 -0.4,0.5 -0.1,0.7 0.2,0.2 0.7,0.2 1,0 1.2,-0.8 2.9,-0.9 3.8,0 0.7,0.7 0.8,1.7 0.1,2.5 0.2,0.2 0.4,0.3 0.6,0.5 -0.5,0.3 -1,0.7 -1.5,1 -0.2,-0.2 -0.4,-0.4 -0.6,-0.5 -1.1,0.3 -2.3,0.2 -3,-0.5 0.6,-0.4 1.1,-0.7 1.7,-1.1 0.2,0.2 0.7,0.2 1,0 0.3,-0.2 0.3,-0.5 0.1,-0.7 -0.2,-0.2 -0.6,-0.2 -0.9,0 -0.7,0.5 -1.6,0.7 -2.4,0.6 -0.6,-0.1 -1.1,-0.3 -1.5,-0.6 -0.7,-0.7 -0.7,-1.6 -0.1,-2.4 -0.2,-0.1 -0.3,-0.3 -0.5,-0.5 0.5,-0.3 1,-0.7 1.5,-1 -0.1,0.1 0.1,0.2 0.2,0.4" />
        <path
           inkscape:connector-curvature="0"
           id="path11305-1-1"
           d="m 43.2,15.9 c 0.9,-0.6 2,-0.6 2.7,0.1 -0.4,0.5 -0.8,1 -1.2,1.5 -0.2,-0.2 -0.6,-0.2 -0.8,0.1 -0.2,0.3 -0.2,0.7 0,0.9 0.2,0.2 0.6,0.2 0.8,-0.1 0.9,-1.1 2.4,-1.3 3.3,-0.5 0.7,0.7 0.9,1.8 0.5,2.8 0.2,0.2 0.4,0.3 0.6,0.5 -0.4,0.5 -0.7,0.9 -1.1,1.4 -0.2,-0.2 -0.4,-0.4 -0.6,-0.5 -0.9,0.5 -1.9,0.5 -2.6,-0.2 0.4,-0.5 0.9,-1 1.3,-1.5 0.2,0.2 0.6,0.2 0.8,-0.1 0.2,-0.3 0.2,-0.7 0,-0.9 -0.2,-0.2 -0.6,-0.2 -0.8,0.1 -0.5,0.6 -1.3,1 -2,1 -0.5,0 -1,-0.2 -1.4,-0.5 C 42,19.3 41.8,18.3 42.2,17.3 42,17.2 41.9,17 41.7,16.8 c 0.4,-0.4 0.8,-0.9 1.1,-1.4 0,0.2 0.2,0.3 0.4,0.5" />
        <path
           inkscape:connector-curvature="0"
           id="path11307-2-5"
           d="m 40.2,35.5 c -3.2,2.9 -8.6,2.8 -11.7,0 -3.1,-2.9 -2.9,-7.4 0.3,-10.3 3.2,-2.9 8.2,-3.2 11.3,-0.3 3.2,2.8 3.3,7.7 0.1,10.6" />
      </g>
    </g>
  </g>
</svg>
