<?xml version="1.0" encoding="UTF-8" standalone="no"?>
<svg
   xmlns:dc="http://purl.org/dc/elements/1.1/"
   xmlns:cc="http://creativecommons.org/ns#"
   xmlns:rdf="http://www.w3.org/1999/02/22-rdf-syntax-ns#"
   xmlns:svg="http://www.w3.org/2000/svg"
   xmlns="http://www.w3.org/2000/svg"
   id="svg4497"
   viewBox="0 0 138.00002 138"
   version="1.1"
   height="138"
   width="138.00002">
  <metadata
     id="metadata4503">
    <rdf:RDF>
      <cc:Work
         rdf:about="">
        <dc:format>image/svg+xml</dc:format>
        <dc:type
           rdf:resource="http://purl.org/dc/dcmitype/StillImage" />
        <dc:title></dc:title>
        <cc:license
           rdf:resource="http://creativecommons.org/licenses/by-sa/4.0/" />
        <dc:creator>
          <cc:Agent>
            <dc:title>Tobias Zwick</dc:title>
          </cc:Agent>
        </dc:creator>
      </cc:Work>
      <cc:License
         rdf:about="http://creativecommons.org/licenses/by-sa/4.0/">
        <cc:permits
           rdf:resource="http://creativecommons.org/ns#Reproduction" />
        <cc:permits
           rdf:resource="http://creativecommons.org/ns#Distribution" />
        <cc:requires
           rdf:resource="http://creativecommons.org/ns#Notice" />
        <cc:requires
           rdf:resource="http://creativecommons.org/ns#Attribution" />
        <cc:permits
           rdf:resource="http://creativecommons.org/ns#DerivativeWorks" />
        <cc:requires
           rdf:resource="http://creativecommons.org/ns#ShareAlike" />
      </cc:License>
    </rdf:RDF>
  </metadata>
  <defs
     id="defs4501">
    <clipPath
       clipPathUnits="userSpaceOnUse"
       id="clipPath16-1-0">
      <path
         d="M 0,38 H 38 V 0 H 0 Z"
         id="path18-3-2" />
    </clipPath>
    <filter
       id="filter5578"
       style="color-interpolation-filters:sRGB">
      <feFlood
         id="feFlood5568"
         result="flood"
         flood-color="rgb(204,177,68)"
         flood-opacity="1" />
      <feComposite
         id="feComposite5570"
         result="composite1"
         operator="in"
         in2="SourceGraphic"
         in="flood" />
      <feGaussianBlur
         id="feGaussianBlur5572"
         result="blur"
         stdDeviation="2.05669e-14"
         in="composite1" />
      <feOffset
         id="feOffset5574"
         result="offset"
         dy="4"
         dx="4.63518e-15" />
      <feComposite
         id="feComposite5576"
         result="composite2"
         operator="over"
         in2="offset"
         in="SourceGraphic" />
    </filter>
    <filter
       id="filter5578-6"
       style="color-interpolation-filters:sRGB">
      <feFlood
         id="feFlood5568-7"
         result="flood"
         flood-color="rgb(204,177,68)"
         flood-opacity="1" />
      <feComposite
         id="feComposite5570-4"
         result="composite1"
         operator="in"
         in2="SourceGraphic"
         in="flood" />
      <feGaussianBlur
         id="feGaussianBlur5572-6"
         result="blur"
         stdDeviation="2.05669e-14"
         in="composite1" />
      <feOffset
         id="feOffset5574-8"
         result="offset"
         dy="4"
         dx="4.63518e-15" />
      <feComposite
         id="feComposite5576-4"
         result="composite2"
         operator="over"
         in2="offset"
         in="SourceGraphic" />
    </filter>
    <clipPath
       clipPathUnits="userSpaceOnUse"
       id="clipPath16">
      <path
         d="M 0,38 H 38 V 0 H 0 Z"
         id="path18" />
    </clipPath>
    <clipPath
       clipPathUnits="userSpaceOnUse"
       id="clipPath16-3">
      <path
         d="M 0,36 H 36 V 0 H 0 Z"
         id="path18-8" />
    </clipPath>
    <clipPath
       clipPathUnits="userSpaceOnUse"
       id="clipPath16-3-1">
      <path
         d="M 0,36 H 36 V 0 H 0 Z"
         id="path18-8-6" />
    </clipPath>
    <clipPath
       clipPathUnits="userSpaceOnUse"
       id="clipPath16-1">
      <path
         d="M 0,36 H 36 V 0 H 0 Z"
         id="path18-85" />
    </clipPath>
    <clipPath
       clipPathUnits="userSpaceOnUse"
       id="clipPath32">
      <path
         d="M 11.815,23.013 C 4.2,15.397 -1.265,2.86 0.502,1.093 v 0 c 1.768,-1.768 14.305,3.698 21.92,11.313 v 0 c 7.616,7.615 7.562,11.53 4.243,14.85 v 0 c -1.328,1.328 -2.752,2.133 -4.47,2.133 v 0 c -2.575,0 -5.812,-1.809 -10.38,-6.376"
         id="path34-5" />
    </clipPath>
    <clipPath
       clipPathUnits="userSpaceOnUse"
       id="clipPath16-1-4">
      <path
         d="M 0,36 H 36 V 0 H 0 Z"
         id="path18-85-8" />
    </clipPath>
    <clipPath
       clipPathUnits="userSpaceOnUse"
       id="clipPath32-8">
      <path
         d="M 11.815,23.013 C 4.2,15.397 -1.265,2.86 0.502,1.093 v 0 c 1.768,-1.768 14.305,3.698 21.92,11.313 v 0 c 7.616,7.615 7.562,11.53 4.243,14.85 v 0 c -1.328,1.328 -2.752,2.133 -4.47,2.133 v 0 c -2.575,0 -5.812,-1.809 -10.38,-6.376"
         id="path34-5-0" />
    </clipPath>
    <clipPath
       clipPathUnits="userSpaceOnUse"
       id="clipPath16-1-4-4">
      <path
         d="M 0,36 H 36 V 0 H 0 Z"
         id="path18-85-8-0" />
    </clipPath>
    <clipPath
       clipPathUnits="userSpaceOnUse"
       id="clipPath32-8-7">
      <path
         d="M 11.815,23.013 C 4.2,15.397 -1.265,2.86 0.502,1.093 v 0 c 1.768,-1.768 14.305,3.698 21.92,11.313 v 0 c 7.616,7.615 7.562,11.53 4.243,14.85 v 0 c -1.328,1.328 -2.752,2.133 -4.47,2.133 v 0 c -2.575,0 -5.812,-1.809 -10.38,-6.376"
         id="path34-5-0-1" />
    </clipPath>
    <clipPath
       clipPathUnits="userSpaceOnUse"
       id="clipPath16-1-4-4-7">
      <path
         d="M 0,36 H 36 V 0 H 0 Z"
         id="path18-85-8-0-6" />
    </clipPath>
    <clipPath
       clipPathUnits="userSpaceOnUse"
       id="clipPath32-8-7-3">
      <path
         d="M 11.815,23.013 C 4.2,15.397 -1.265,2.86 0.502,1.093 v 0 c 1.768,-1.768 14.305,3.698 21.92,11.313 v 0 c 7.616,7.615 7.562,11.53 4.243,14.85 v 0 c -1.328,1.328 -2.752,2.133 -4.47,2.133 v 0 c -2.575,0 -5.812,-1.809 -10.38,-6.376"
         id="path34-5-0-1-3" />
    </clipPath>
    <clipPath
       clipPathUnits="userSpaceOnUse"
       id="clipPath16-1-4-4-5">
      <path
         d="M 0,36 H 36 V 0 H 0 Z"
         id="path18-85-8-0-4" />
    </clipPath>
    <clipPath
       clipPathUnits="userSpaceOnUse"
       id="clipPath32-8-7-2">
      <path
         d="M 11.815,23.013 C 4.2,15.397 -1.265,2.86 0.502,1.093 v 0 c 1.768,-1.768 14.305,3.698 21.92,11.313 v 0 c 7.616,7.615 7.562,11.53 4.243,14.85 v 0 c -1.328,1.328 -2.752,2.133 -4.47,2.133 v 0 c -2.575,0 -5.812,-1.809 -10.38,-6.376"
         id="path34-5-0-1-32" />
    </clipPath>
    <clipPath
       clipPathUnits="userSpaceOnUse"
       id="clipPath16-1-4-4-5-5">
      <path
         d="M 0,36 H 36 V 0 H 0 Z"
         id="path18-85-8-0-4-8" />
    </clipPath>
    <clipPath
       clipPathUnits="userSpaceOnUse"
       id="clipPath32-8-7-2-0">
      <path
         d="M 11.815,23.013 C 4.2,15.397 -1.265,2.86 0.502,1.093 v 0 c 1.768,-1.768 14.305,3.698 21.92,11.313 v 0 c 7.616,7.615 7.562,11.53 4.243,14.85 v 0 c -1.328,1.328 -2.752,2.133 -4.47,2.133 v 0 c -2.575,0 -5.812,-1.809 -10.38,-6.376"
         id="path34-5-0-1-32-2" />
    </clipPath>
    <clipPath
       clipPathUnits="userSpaceOnUse"
       id="clipPath16-1-4-4-9">
      <path
         d="M 0,36 H 36 V 0 H 0 Z"
         id="path18-85-8-0-67" />
    </clipPath>
    <clipPath
       clipPathUnits="userSpaceOnUse"
       id="clipPath32-8-7-6">
      <path
         d="M 11.815,23.013 C 4.2,15.397 -1.265,2.86 0.502,1.093 v 0 c 1.768,-1.768 14.305,3.698 21.92,11.313 v 0 c 7.616,7.615 7.562,11.53 4.243,14.85 v 0 c -1.328,1.328 -2.752,2.133 -4.47,2.133 v 0 c -2.575,0 -5.812,-1.809 -10.38,-6.376"
         id="path34-5-0-1-8" />
    </clipPath>
    <clipPath
       clipPathUnits="userSpaceOnUse"
       id="clipPath16-1-4-4-0">
      <path
         d="M 0,36 H 36 V 0 H 0 Z"
         id="path18-85-8-0-7" />
    </clipPath>
    <clipPath
       clipPathUnits="userSpaceOnUse"
       id="clipPath32-8-7-8">
      <path
         d="M 11.815,23.013 C 4.2,15.397 -1.265,2.86 0.502,1.093 v 0 c 1.768,-1.768 14.305,3.698 21.92,11.313 v 0 c 7.616,7.615 7.562,11.53 4.243,14.85 v 0 c -1.328,1.328 -2.752,2.133 -4.47,2.133 v 0 c -2.575,0 -5.812,-1.809 -10.38,-6.376"
         id="path34-5-0-1-0" />
    </clipPath>
    <clipPath
       clipPathUnits="userSpaceOnUse"
       id="clipPath44">
      <path
         d="M 7,35 C 5.896,35 5,34.105 5,33 V 33 3 C 5,1.895 5.896,1 7,1 v 0 h 18 c 1.105,0 2,0.895 2,2 v 0 30 c 0,1.105 -0.895,2 -2,2 v 0 z"
         id="path46-1" />
    </clipPath>
    <clipPath
       clipPathUnits="userSpaceOnUse"
       id="clipPath16-4-5">
      <path
         d="M 0,38 H 38 V 0 H 0 Z"
         id="path18-5-7" />
    </clipPath>
    <clipPath
       clipPathUnits="userSpaceOnUse"
       id="clipPath56-9">
      <path
         d="M 0,38 H 38 V 0 H 0 Z"
         id="path58-7" />
    </clipPath>
  </defs>
  <g
     id="motorcycle_parking_cover"
     transform="translate(721.99994,149.00022)">
    <path
       style="fill:#ffdd55;fill-opacity:1;stroke-width:0.2"
       id="path4485-6-00-40-1-46-5"
       d="m -588.99992,-80.000218 c 0,35.346 -28.654,63.999998 -64.00002,63.999998 -35.346,0 -64,-28.653998 -64,-63.999998 0,-35.346002 28.654,-64.000002 64,-64.000002 35.34602,0 64.00002,28.654 64.00002,64.000002" />
    <rect
       rx="8.4719582"
       ry="8.4719582"
       y="-120.00024"
       x="-689.24994"
       height="80.000015"
       width="72.000008"
       id="rect5107-9-1-8-3"
       style="opacity:1;vector-effect:none;fill:none;fill-opacity:1;stroke:#000000;stroke-width:8;stroke-linecap:butt;stroke-linejoin:miter;stroke-miterlimit:4;stroke-dasharray:none;stroke-dashoffset:0;stroke-opacity:0.2;paint-order:normal" />
    <g
       id="g5816-4-7-4-1-1"
       transform="matrix(0.21649908,0,0,-0.21649908,-674.94076,-62.492952)"
       style="fill:#ffffff;fill-opacity:1;stroke:none;stroke-width:37.48579407;stroke-miterlimit:4;stroke-dasharray:none;stroke-opacity:1;paint-order:stroke fill markers" />
    <rect
       rx="8.4719582"
       ry="8.4719582"
       y="-123.88931"
       x="-689.12494"
       height="80.000015"
       width="72.000008"
       id="rect5107-6-4-8"
       style="opacity:1;vector-effect:none;fill:#495aad;fill-opacity:1;stroke:#ffffff;stroke-width:8;stroke-linecap:butt;stroke-linejoin:miter;stroke-miterlimit:4;stroke-dasharray:none;stroke-dashoffset:0;stroke-opacity:0.98994978;paint-order:normal" />
    <g
       style="fill:#ffffff;fill-opacity:1"
       transform="matrix(0.55688634,0,0,0.55688634,-1185.5377,-600.27443)"
       id="g6949-1-0-8">
      <path
         style="color:#000000;font-style:normal;font-variant:normal;font-weight:normal;font-stretch:normal;font-size:medium;line-height:normal;font-family:sans-serif;font-variant-ligatures:normal;font-variant-position:normal;font-variant-caps:normal;font-variant-numeric:normal;font-variant-alternates:normal;font-feature-settings:normal;text-indent:0;text-align:start;text-decoration:none;text-decoration-line:none;text-decoration-style:solid;text-decoration-color:#000000;letter-spacing:normal;word-spacing:normal;text-transform:none;writing-mode:lr-tb;direction:ltr;text-orientation:mixed;dominant-baseline:auto;baseline-shift:baseline;text-anchor:start;white-space:normal;shape-padding:0;clip-rule:nonzero;display:inline;overflow:visible;visibility:visible;opacity:1;isolation:auto;mix-blend-mode:normal;color-interpolation:sRGB;color-interpolation-filters:linearRGB;solid-color:#000000;solid-opacity:1;vector-effect:none;fill:#ffffff;fill-opacity:1;fill-rule:nonzero;stroke:none;stroke-width:6.79999971;stroke-linecap:butt;stroke-linejoin:miter;stroke-miterlimit:4;stroke-dasharray:none;stroke-dashoffset:0;stroke-opacity:1;paint-order:fill markers stroke;color-rendering:auto;image-rendering:auto;shape-rendering:auto;text-rendering:auto;enable-background:accumulate"
         d="m 959.64844,1028.0938 a 3.0003,3.0003 0 1 0 0,6 h 9.98633 l 3.27539,8.0078 c -1.50425,-0.1374 -3.31414,0.1443 -5.40039,0.8867 -5.53693,2.6245 -11.34722,6.6223 -12.68555,12.1055 h -5.47852 c -3.47952,-3.6802 -7.59594,-5.8798 -11.75781,-6.9083 -4.73237,-1.1694 -9.46017,-1.126 -13.9707,-1.0917 a 4.0004,4.0004 0 0 0 -3.60547,5.7558 c -0.25121,0.095 -0.50224,0.1899 -0.75391,0.2949 -5.82897,2.4317 -11.42422,7.9176 -13.68945,16.9785 l 5.94531,1.4864 c -0.23689,1.1254 -0.36523,2.2911 -0.36523,3.4844 0,9.3484 7.65143,17 17,17 8.32372,0 15.28683,-6.0714 16.71679,-14 h 18.78321 a 3.0003,3.0003 0 0 0 2.55664,-1.4297 l 3.69336,-6.0079 3.1582,0.7891 c -0.26024,1.177 -0.4082,2.3962 -0.4082,3.6485 0,9.3484 7.65143,17 17,17 9.34857,0 16.99996,-7.6516 16.99996,-17 0,-6.1443 -3.3165,-11.5398 -8.23629,-14.5274 l 3.80859,-4.5371 c -3.45918,-2.9033 -8.22619,-4.0482 -13.28906,-3.6191 -1.63125,0.1382 -3.29203,0.443 -4.95117,0.9023 l -2.39063,-5.8418 c 2.82737,1.4978 6.87012,2.4473 8.90235,2.4473 v -12 c -2.6564,0 -8.74841,1.8335 -11.06446,4.2675 l -5.00195,-12.2285 a 3.0003,3.0003 0 0 0 -2.77734,-1.8632 z m -31.5,36.8007 c 4.62738,0 8.48973,3.0107 9.75781,7.1993 h -10.25781 a 3.0003,3.0003 0 1 0 0,6 h 10.25781 c -1.26864,4.1873 -5.1311,7.1992 -9.75781,7.1992 -5.67358,0 -10.19922,-4.5257 -10.19922,-10.1992 0,-5.6737 4.52564,-10.1993 10.19922,-10.1993 z m 61.5,0 c 5.67358,0 10.19922,4.5256 10.19922,10.1993 0,5.6734 -4.52564,10.1992 -10.19922,10.1992 -5.67358,0 -10.19922,-4.5257 -10.19922,-10.1992 0,-3.2042 1.44439,-6.0428 3.72266,-7.9063 l 3.69921,9.043 a 3.0009741,3.0009741 0 1 0 5.55469,-2.2735 l -3.68945,-9.0175 c 0.30106,-0.026 0.60372,-0.045 0.91211,-0.045 z"
         transform="translate(0.35169184,-107.09278)"
         id="path6768-0-3-9-3" />
    </g>
    <path
       style="fill:none;stroke:#ffffff;stroke-width:5.96287251;stroke-linecap:square;stroke-opacity:1"
       d="m -674.2958,-89.29652 21.2959,-21.29597 21.296,21.29597"
       id="path10-9-0" />
  </g>
</svg>
