<?xml version="1.0" encoding="UTF-8" standalone="no"?>
<svg
   xmlns:dc="http://purl.org/dc/elements/1.1/"
   xmlns:cc="http://creativecommons.org/ns#"
   xmlns:rdf="http://www.w3.org/1999/02/22-rdf-syntax-ns#"
   xmlns:svg="http://www.w3.org/2000/svg"
   xmlns="http://www.w3.org/2000/svg"
   xmlns:sodipodi="http://sodipodi.sourceforge.net/DTD/sodipodi-0.dtd"
   xmlns:inkscape="http://www.inkscape.org/namespaces/inkscape"
   width="138.00002"
   height="138"
   version="1.1"
   viewBox="0 0 138.00002 138"
   id="svg4497"
   sodipodi:docname="ic_quest_bicycle_parking_capacity.svg"
   inkscape:version="0.92.3 (2405546, 2018-03-11)"
   inkscape:export-filename="C:\Users\Newton\AndroidStudioProjects\streetcomplete\res\quest_icons.svg.png"
   inkscape:export-xdpi="95.983444"
   inkscape:export-ydpi="95.983444">
  <metadata
     id="metadata4503">
    <rdf:RDF>
      <cc:Work
         rdf:about="">
        <dc:format>image/svg+xml</dc:format>
        <dc:type
           rdf:resource="http://purl.org/dc/dcmitype/StillImage" />
        <dc:title></dc:title>
        <cc:license
           rdf:resource="http://creativecommons.org/licenses/by-sa/4.0/" />
        <dc:creator>
          <cc:Agent>
            <dc:title>Tobias Zwick</dc:title>
          </cc:Agent>
        </dc:creator>
      </cc:Work>
      <cc:License
         rdf:about="http://creativecommons.org/licenses/by-sa/4.0/">
        <cc:permits
           rdf:resource="http://creativecommons.org/ns#Reproduction" />
        <cc:permits
           rdf:resource="http://creativecommons.org/ns#Distribution" />
        <cc:requires
           rdf:resource="http://creativecommons.org/ns#Notice" />
        <cc:requires
           rdf:resource="http://creativecommons.org/ns#Attribution" />
        <cc:permits
           rdf:resource="http://creativecommons.org/ns#DerivativeWorks" />
        <cc:requires
           rdf:resource="http://creativecommons.org/ns#ShareAlike" />
      </cc:License>
    </rdf:RDF>
  </metadata>
  <defs
     id="defs4501">
    <clipPath
       id="clipPath16-1-0"
       clipPathUnits="userSpaceOnUse">
      <path
         inkscape:connector-curvature="0"
         id="path18-3-2"
         d="M 0,38 H 38 V 0 H 0 Z" />
    </clipPath>
    <filter
       style="color-interpolation-filters:sRGB"
       inkscape:label="Drop Shadow"
       id="filter5578">
      <feFlood
         flood-opacity="1"
         flood-color="rgb(204,177,68)"
         result="flood"
         id="feFlood5568" />
      <feComposite
         in="flood"
         in2="SourceGraphic"
         operator="in"
         result="composite1"
         id="feComposite5570" />
      <feGaussianBlur
         in="composite1"
         stdDeviation="2.05669e-14"
         result="blur"
         id="feGaussianBlur5572" />
      <feOffset
         dx="4.63518e-15"
         dy="4"
         result="offset"
         id="feOffset5574" />
      <feComposite
         in="SourceGraphic"
         in2="offset"
         operator="over"
         result="composite2"
         id="feComposite5576" />
    </filter>
    <filter
       style="color-interpolation-filters:sRGB"
       inkscape:label="Drop Shadow"
       id="filter5578-6">
      <feFlood
         flood-opacity="1"
         flood-color="rgb(204,177,68)"
         result="flood"
         id="feFlood5568-7" />
      <feComposite
         in="flood"
         in2="SourceGraphic"
         operator="in"
         result="composite1"
         id="feComposite5570-4" />
      <feGaussianBlur
         in="composite1"
         stdDeviation="2.05669e-14"
         result="blur"
         id="feGaussianBlur5572-6" />
      <feOffset
         dx="4.63518e-15"
         dy="4"
         result="offset"
         id="feOffset5574-8" />
      <feComposite
         in="SourceGraphic"
         in2="offset"
         operator="over"
         result="composite2"
         id="feComposite5576-4" />
    </filter>
    <clipPath
       id="clipPath16"
       clipPathUnits="userSpaceOnUse">
      <path
         inkscape:connector-curvature="0"
         id="path18"
         d="M 0,38 H 38 V 0 H 0 Z" />
    </clipPath>
    <clipPath
       id="clipPath16-3"
       clipPathUnits="userSpaceOnUse">
      <path
         inkscape:connector-curvature="0"
         id="path18-8"
         d="M 0,36 H 36 V 0 H 0 Z" />
    </clipPath>
    <clipPath
       id="clipPath16-3-1"
       clipPathUnits="userSpaceOnUse">
      <path
         inkscape:connector-curvature="0"
         id="path18-8-6"
         d="M 0,36 H 36 V 0 H 0 Z" />
    </clipPath>
    <clipPath
       id="clipPath16-1"
       clipPathUnits="userSpaceOnUse">
      <path
         inkscape:connector-curvature="0"
         id="path18-85"
         d="M 0,36 H 36 V 0 H 0 Z" />
    </clipPath>
    <clipPath
       id="clipPath32"
       clipPathUnits="userSpaceOnUse">
      <path
         inkscape:connector-curvature="0"
         id="path34-5"
         d="M 11.815,23.013 C 4.2,15.397 -1.265,2.86 0.502,1.093 v 0 c 1.768,-1.768 14.305,3.698 21.92,11.313 v 0 c 7.616,7.615 7.562,11.53 4.243,14.85 v 0 c -1.328,1.328 -2.752,2.133 -4.47,2.133 v 0 c -2.575,0 -5.812,-1.809 -10.38,-6.376" />
    </clipPath>
    <clipPath
       id="clipPath16-1-4"
       clipPathUnits="userSpaceOnUse">
      <path
         inkscape:connector-curvature="0"
         id="path18-85-8"
         d="M 0,36 H 36 V 0 H 0 Z" />
    </clipPath>
    <clipPath
       id="clipPath32-8"
       clipPathUnits="userSpaceOnUse">
      <path
         inkscape:connector-curvature="0"
         id="path34-5-0"
         d="M 11.815,23.013 C 4.2,15.397 -1.265,2.86 0.502,1.093 v 0 c 1.768,-1.768 14.305,3.698 21.92,11.313 v 0 c 7.616,7.615 7.562,11.53 4.243,14.85 v 0 c -1.328,1.328 -2.752,2.133 -4.47,2.133 v 0 c -2.575,0 -5.812,-1.809 -10.38,-6.376" />
    </clipPath>
    <clipPath
       id="clipPath16-1-4-4"
       clipPathUnits="userSpaceOnUse">
      <path
         inkscape:connector-curvature="0"
         id="path18-85-8-0"
         d="M 0,36 H 36 V 0 H 0 Z" />
    </clipPath>
    <clipPath
       id="clipPath32-8-7"
       clipPathUnits="userSpaceOnUse">
      <path
         inkscape:connector-curvature="0"
         id="path34-5-0-1"
         d="M 11.815,23.013 C 4.2,15.397 -1.265,2.86 0.502,1.093 v 0 c 1.768,-1.768 14.305,3.698 21.92,11.313 v 0 c 7.616,7.615 7.562,11.53 4.243,14.85 v 0 c -1.328,1.328 -2.752,2.133 -4.47,2.133 v 0 c -2.575,0 -5.812,-1.809 -10.38,-6.376" />
    </clipPath>
    <clipPath
       id="clipPath16-1-4-4-7"
       clipPathUnits="userSpaceOnUse">
      <path
         inkscape:connector-curvature="0"
         id="path18-85-8-0-6"
         d="M 0,36 H 36 V 0 H 0 Z" />
    </clipPath>
    <clipPath
       id="clipPath32-8-7-3"
       clipPathUnits="userSpaceOnUse">
      <path
         inkscape:connector-curvature="0"
         id="path34-5-0-1-3"
         d="M 11.815,23.013 C 4.2,15.397 -1.265,2.86 0.502,1.093 v 0 c 1.768,-1.768 14.305,3.698 21.92,11.313 v 0 c 7.616,7.615 7.562,11.53 4.243,14.85 v 0 c -1.328,1.328 -2.752,2.133 -4.47,2.133 v 0 c -2.575,0 -5.812,-1.809 -10.38,-6.376" />
    </clipPath>
    <clipPath
       id="clipPath16-1-4-4-5"
       clipPathUnits="userSpaceOnUse">
      <path
         inkscape:connector-curvature="0"
         id="path18-85-8-0-4"
         d="M 0,36 H 36 V 0 H 0 Z" />
    </clipPath>
    <clipPath
       id="clipPath32-8-7-2"
       clipPathUnits="userSpaceOnUse">
      <path
         inkscape:connector-curvature="0"
         id="path34-5-0-1-32"
         d="M 11.815,23.013 C 4.2,15.397 -1.265,2.86 0.502,1.093 v 0 c 1.768,-1.768 14.305,3.698 21.92,11.313 v 0 c 7.616,7.615 7.562,11.53 4.243,14.85 v 0 c -1.328,1.328 -2.752,2.133 -4.47,2.133 v 0 c -2.575,0 -5.812,-1.809 -10.38,-6.376" />
    </clipPath>
    <clipPath
       id="clipPath16-1-4-4-5-5"
       clipPathUnits="userSpaceOnUse">
      <path
         inkscape:connector-curvature="0"
         id="path18-85-8-0-4-8"
         d="M 0,36 H 36 V 0 H 0 Z" />
    </clipPath>
    <clipPath
       id="clipPath32-8-7-2-0"
       clipPathUnits="userSpaceOnUse">
      <path
         inkscape:connector-curvature="0"
         id="path34-5-0-1-32-2"
         d="M 11.815,23.013 C 4.2,15.397 -1.265,2.86 0.502,1.093 v 0 c 1.768,-1.768 14.305,3.698 21.92,11.313 v 0 c 7.616,7.615 7.562,11.53 4.243,14.85 v 0 c -1.328,1.328 -2.752,2.133 -4.47,2.133 v 0 c -2.575,0 -5.812,-1.809 -10.38,-6.376" />
    </clipPath>
    <clipPath
       id="clipPath16-1-4-4-9"
       clipPathUnits="userSpaceOnUse">
      <path
         inkscape:connector-curvature="0"
         id="path18-85-8-0-67"
         d="M 0,36 H 36 V 0 H 0 Z" />
    </clipPath>
    <clipPath
       id="clipPath32-8-7-6"
       clipPathUnits="userSpaceOnUse">
      <path
         inkscape:connector-curvature="0"
         id="path34-5-0-1-8"
         d="M 11.815,23.013 C 4.2,15.397 -1.265,2.86 0.502,1.093 v 0 c 1.768,-1.768 14.305,3.698 21.92,11.313 v 0 c 7.616,7.615 7.562,11.53 4.243,14.85 v 0 c -1.328,1.328 -2.752,2.133 -4.47,2.133 v 0 c -2.575,0 -5.812,-1.809 -10.38,-6.376" />
    </clipPath>
    <clipPath
       id="clipPath16-1-4-4-0"
       clipPathUnits="userSpaceOnUse">
      <path
         inkscape:connector-curvature="0"
         id="path18-85-8-0-7"
         d="M 0,36 H 36 V 0 H 0 Z" />
    </clipPath>
    <clipPath
       id="clipPath32-8-7-8"
       clipPathUnits="userSpaceOnUse">
      <path
         inkscape:connector-curvature="0"
         id="path34-5-0-1-0"
         d="M 11.815,23.013 C 4.2,15.397 -1.265,2.86 0.502,1.093 v 0 c 1.768,-1.768 14.305,3.698 21.92,11.313 v 0 c 7.616,7.615 7.562,11.53 4.243,14.85 v 0 c -1.328,1.328 -2.752,2.133 -4.47,2.133 v 0 c -2.575,0 -5.812,-1.809 -10.38,-6.376" />
    </clipPath>
    <clipPath
       id="clipPath44"
       clipPathUnits="userSpaceOnUse">
      <path
         inkscape:connector-curvature="0"
         id="path46-1"
         d="M 7,35 C 5.896,35 5,34.105 5,33 V 33 3 C 5,1.895 5.896,1 7,1 v 0 h 18 c 1.105,0 2,0.895 2,2 v 0 30 c 0,1.105 -0.895,2 -2,2 v 0 z" />
    </clipPath>
    <clipPath
       id="clipPath16-4-5"
       clipPathUnits="userSpaceOnUse">
      <path
         inkscape:connector-curvature="0"
         id="path18-5-7"
         d="M 0,38 H 38 V 0 H 0 Z" />
    </clipPath>
    <clipPath
       id="clipPath56-9"
       clipPathUnits="userSpaceOnUse">
      <path
         inkscape:connector-curvature="0"
         id="path58-7"
         d="M 0,38 H 38 V 0 H 0 Z" />
    </clipPath>
  </defs>
  <sodipodi:namedview
     pagecolor="#000000"
     bordercolor="#666666"
     borderopacity="1"
     objecttolerance="4"
     gridtolerance="5"
     guidetolerance="10"
     inkscape:pageopacity="0"
     inkscape:pageshadow="2"
     inkscape:window-width="1280"
     inkscape:window-height="751"
     id="namedview4499"
     showgrid="true"
     inkscape:zoom="0.5"
     inkscape:cx="-66.669619"
     inkscape:cy="-341.02579"
     inkscape:window-x="-9"
     inkscape:window-y="-9"
     inkscape:window-maximized="1"
     inkscape:current-layer="svg4497"
     showguides="false"
     inkscape:lockguides="true"
     inkscape:snap-global="true"
     inkscape:pagecheckerboard="true"
     fit-margin-top="5"
     fit-margin-left="5"
     fit-margin-right="5"
     fit-margin-bottom="5"
     inkscape:snap-to-guides="true"
     inkscape:snap-grids="true"
     inkscape:snap-perpendicular="true"
     inkscape:snap-tangential="true"
     inkscape:measure-start="1817.62,1740.74"
     inkscape:measure-end="1845.07,1778.26"
     inkscape:document-rotation="0">
    <inkscape:grid
       type="xygrid"
       id="grid4505"
       empspacing="4"
       dotted="false"
       snapvisiblegridlinesonly="true"
       originx="-1019"
       originy="-763"
       visible="true"
       spacingx="4"
       spacingy="4"
       enabled="true" />
    <inkscape:grid
       type="xygrid"
       id="grid11867"
       color="#000000"
       opacity="0.23529412"
       empspacing="128"
       dotted="false"
       empcolor="#000000"
       empopacity="1"
       originx="-1019"
       originy="-763"
       enabled="true" />
  </sodipodi:namedview>
  <g
     transform="translate(721.99994,149.00022)"
     id="bicycle_parking_capacity"
     inkscape:export-xdpi="95.983444"
     inkscape:export-ydpi="95.983444"
     inkscape:label="#g8992-4-3-4">
    <path
       inkscape:connector-curvature="0"
       d="m -588.99992,-80.000218 c 0,35.346 -28.654,63.999998 -64.00002,63.999998 -35.346,0 -64,-28.653998 -64,-63.999998 0,-35.346002 28.654,-64.000002 64,-64.000002 35.34602,0 64.00002,28.654 64.00002,64.000002"
       id="path4485-6-00-40-1-4"
       style="fill:#529add;fill-opacity:1;stroke-width:0.2" />
    <rect
       style="opacity:1;vector-effect:none;fill:none;fill-opacity:1;stroke:#000000;stroke-width:8;stroke-linecap:butt;stroke-linejoin:miter;stroke-miterlimit:4;stroke-dasharray:none;stroke-dashoffset:0;stroke-opacity:0.2;paint-order:normal"
       id="rect5107-9-1-5"
       width="72.000008"
       height="80.000015"
       x="-689.24994"
       y="-120.00024"
       ry="8.4719582"
       rx="8.4719582" />
    <g
       style="fill:#ffffff;fill-opacity:1;stroke:none;stroke-width:37.48579407;stroke-miterlimit:4;stroke-dasharray:none;stroke-opacity:1;paint-order:stroke fill markers"
       transform="matrix(0.21649908,0,0,-0.21649908,-674.94076,-62.492952)"
       id="g5816-4-7-4-0" />
    <rect
       style="opacity:1;vector-effect:none;fill:#495aad;fill-opacity:1;stroke:#ffffff;stroke-width:8;stroke-linecap:butt;stroke-linejoin:miter;stroke-miterlimit:4;stroke-dasharray:none;stroke-dashoffset:0;stroke-opacity:0.98994978;paint-order:normal"
       id="rect5107-6-8"
       width="72.000008"
       height="80.000015"
       x="-689.12494"
       y="-123.88931"
       ry="8.4719582"
       rx="8.4719582" />
    <g
       id="g8426-9-8-56"
       transform="matrix(0.79727978,0,0,0.79727978,-495.18913,-399.49309)"
       style="stroke:#ffffff;stroke-width:3.84957385;stroke-miterlimit:4;stroke-dasharray:none;stroke-opacity:1">
      <path
         sodipodi:nodetypes="ccc"
         inkscape:connector-curvature="0"
         id="path8159-5-0-1"
         d="m -216,424 8.33469,-24.81496 h 8"
         style="fill:none;fill-rule:evenodd;stroke:#ffffff;stroke-width:3.84957385;stroke-linecap:round;stroke-linejoin:round;stroke-miterlimit:4;stroke-dasharray:none;stroke-opacity:1" />
      <path
         sodipodi:nodetypes="cc"
         inkscape:connector-curvature="0"
         id="path8163-8-7-0"
         d="m -196,424 5,-21"
         style="fill:none;fill-rule:evenodd;stroke:#ffffff;stroke-width:3.84957385;stroke-linecap:round;stroke-linejoin:round;stroke-miterlimit:4;stroke-dasharray:none;stroke-opacity:1" />
      <path
         sodipodi:nodetypes="cc"
         inkscape:connector-curvature="0"
         id="path8165-1-9-1"
         d="m -191,403 4.87372,-0.01"
         style="fill:none;fill-rule:evenodd;stroke:#ffffff;stroke-width:3.84957385;stroke-linecap:round;stroke-linejoin:round;stroke-miterlimit:4;stroke-dasharray:none;stroke-opacity:1" />
      <path
         sodipodi:nodetypes="ccccc"
         inkscape:connector-curvature="0"
         id="path8167-2-2-4"
         d="m -210,407 14,17 h 16 l -11,-17 h -19"
         style="fill:none;fill-rule:evenodd;stroke:#ffffff;stroke-width:3.84957385;stroke-linecap:round;stroke-linejoin:round;stroke-miterlimit:4;stroke-dasharray:none;stroke-opacity:1" />
      <circle
         r="11.076923"
         cy="424.06064"
         cx="-180.06062"
         id="path8169-5-3-22"
         style="opacity:1;vector-effect:none;fill:none;fill-opacity:1;stroke:#ffffff;stroke-width:3.84957385;stroke-linecap:round;stroke-linejoin:round;stroke-miterlimit:4;stroke-dasharray:none;stroke-dashoffset:0;stroke-opacity:1;paint-order:normal" />
      <circle
         r="11.076923"
         cy="424.06265"
         cx="-216.1581"
         id="path8169-4-2-9-74"
         style="opacity:1;vector-effect:none;fill:none;fill-opacity:1;stroke:#ffffff;stroke-width:3.84957385;stroke-linecap:round;stroke-linejoin:round;stroke-miterlimit:4;stroke-dasharray:none;stroke-dashoffset:0;stroke-opacity:1;paint-order:normal" />
    </g>
    <g
       id="g8426-9-8-56-9"
       transform="matrix(-0.79727978,0,0,0.79727978,-811.18901,-433.70172)"
       style="stroke:#ffffff;stroke-width:3.84957385;stroke-miterlimit:4;stroke-dasharray:none;stroke-opacity:1">
      <path
         sodipodi:nodetypes="ccc"
         inkscape:connector-curvature="0"
         id="path8159-5-0-1-1"
         d="m -216,424 8.33469,-24.81496 h 8"
         style="fill:none;fill-rule:evenodd;stroke:#ffffff;stroke-width:3.84957385;stroke-linecap:round;stroke-linejoin:round;stroke-miterlimit:4;stroke-dasharray:none;stroke-opacity:1" />
      <path
         sodipodi:nodetypes="cc"
         inkscape:connector-curvature="0"
         id="path8163-8-7-0-7"
         d="m -196,424 5,-21"
         style="fill:none;fill-rule:evenodd;stroke:#ffffff;stroke-width:3.84957385;stroke-linecap:round;stroke-linejoin:round;stroke-miterlimit:4;stroke-dasharray:none;stroke-opacity:1" />
      <path
         sodipodi:nodetypes="cc"
         inkscape:connector-curvature="0"
         id="path8165-1-9-1-6"
         d="m -191,403 4.87372,-0.01"
         style="fill:none;fill-rule:evenodd;stroke:#ffffff;stroke-width:3.84957385;stroke-linecap:round;stroke-linejoin:round;stroke-miterlimit:4;stroke-dasharray:none;stroke-opacity:1" />
      <path
         sodipodi:nodetypes="ccccc"
         inkscape:connector-curvature="0"
         id="path8167-2-2-4-5"
         d="m -210,407 14,17 h 16 l -11,-17 h -19"
         style="fill:none;fill-rule:evenodd;stroke:#ffffff;stroke-width:3.84957385;stroke-linecap:round;stroke-linejoin:round;stroke-miterlimit:4;stroke-dasharray:none;stroke-opacity:1" />
      <circle
         r="11.076923"
         cy="424.06064"
         cx="-180.06062"
         id="path8169-5-3-22-4"
         style="opacity:1;vector-effect:none;fill:none;fill-opacity:1;stroke:#ffffff;stroke-width:3.84957385;stroke-linecap:round;stroke-linejoin:round;stroke-miterlimit:4;stroke-dasharray:none;stroke-dashoffset:0;stroke-opacity:1;paint-order:normal" />
      <circle
         r="11.076923"
         cy="424.06265"
         cx="-216.1581"
         id="path8169-4-2-9-74-0"
         style="opacity:1;vector-effect:none;fill:none;fill-opacity:1;stroke:#ffffff;stroke-width:3.84957385;stroke-linecap:round;stroke-linejoin:round;stroke-miterlimit:4;stroke-dasharray:none;stroke-dashoffset:0;stroke-opacity:1;paint-order:normal" />
    </g>
  </g>
</svg>
